G04*
G04 #@! TF.GenerationSoftware,Altium Limited,Altium Designer,18.1.7 (191)*
G04*
G04 Layer_Physical_Order=3*
G04 Layer_Color=16440176*
%FSLAX25Y25*%
%MOIN*%
G70*
G01*
G75*
%ADD10C,0.00787*%
%ADD12C,0.01575*%
%ADD15C,0.00500*%
%ADD16C,0.00394*%
%ADD20C,0.03937*%
%ADD70C,0.00598*%
%ADD72C,0.05906*%
%ADD73R,0.05906X0.05906*%
%ADD74C,0.19685*%
%ADD75C,0.03150*%
%ADD76C,0.02559*%
%ADD77O,0.03740X0.08465*%
%ADD78C,0.02362*%
G36*
X189442Y196085D02*
X189906Y196039D01*
X190366Y195963D01*
X190820Y195858D01*
X191266Y195722D01*
X191703Y195558D01*
X192127Y195366D01*
X192538Y195146D01*
X192934Y194900D01*
X193313Y194628D01*
X193674Y194332D01*
X194014Y194014D01*
X194332Y193674D01*
X194628Y193313D01*
X194900Y192934D01*
X195146Y192538D01*
X195366Y192127D01*
X195558Y191703D01*
X195722Y191266D01*
X195858Y190820D01*
X195963Y190366D01*
X196039Y189906D01*
X196085Y189442D01*
X196099Y189003D01*
X196097Y188976D01*
Y7874D01*
X196099Y7847D01*
X196085Y7408D01*
X196039Y6944D01*
X195963Y6484D01*
X195858Y6030D01*
X195722Y5584D01*
X195558Y5148D01*
X195366Y4723D01*
X195146Y4312D01*
X194900Y3916D01*
X194628Y3537D01*
X194332Y3177D01*
X194014Y2837D01*
X193674Y2518D01*
X193313Y2222D01*
X192934Y1951D01*
X192538Y1705D01*
X192127Y1485D01*
X191703Y1292D01*
X191266Y1128D01*
X190820Y993D01*
X190366Y887D01*
X189906Y811D01*
X189442Y765D01*
X189003Y751D01*
X188976Y754D01*
X7874D01*
X7847Y751D01*
X7408Y765D01*
X6944Y811D01*
X6484Y887D01*
X6030Y993D01*
X5584Y1128D01*
X5148Y1292D01*
X4723Y1485D01*
X4312Y1705D01*
X3916Y1951D01*
X3537Y2222D01*
X3177Y2518D01*
X2837Y2837D01*
X2518Y3177D01*
X2222Y3537D01*
X1951Y3916D01*
X1705Y4312D01*
X1485Y4723D01*
X1292Y5148D01*
X1128Y5584D01*
X993Y6030D01*
X887Y6484D01*
X811Y6944D01*
X765Y7408D01*
X751Y7847D01*
X754Y7874D01*
Y188976D01*
X751Y189003D01*
X765Y189442D01*
X811Y189906D01*
X887Y190366D01*
X993Y190820D01*
X1128Y191266D01*
X1292Y191703D01*
X1485Y192127D01*
X1705Y192538D01*
X1951Y192934D01*
X2222Y193313D01*
X2518Y193674D01*
X2837Y194014D01*
X3177Y194332D01*
X3537Y194628D01*
X3916Y194900D01*
X4312Y195146D01*
X4723Y195366D01*
X5148Y195558D01*
X5584Y195722D01*
X6030Y195858D01*
X6484Y195963D01*
X6944Y196039D01*
X7408Y196085D01*
X7847Y196099D01*
X7874Y196097D01*
X59055D01*
X59055Y181102D01*
X137795D01*
X137795Y196097D01*
X188976D01*
X189003Y196099D01*
X189442Y196085D01*
D02*
G37*
%LPC*%
G36*
X149692Y180223D02*
X105415D01*
X105258Y180208D01*
X105108Y180162D01*
X104969Y180088D01*
X104847Y179988D01*
X100787Y175928D01*
X73940D01*
X73783Y175912D01*
X73632Y175867D01*
X73494Y175793D01*
X73372Y175693D01*
X73308Y175629D01*
X73267Y175643D01*
X73050Y175686D01*
X72831Y175700D01*
X72611Y175686D01*
X72395Y175643D01*
X72186Y175572D01*
X71988Y175475D01*
X71805Y175352D01*
X71639Y175207D01*
X71494Y175041D01*
X71372Y174858D01*
X71274Y174661D01*
X71203Y174452D01*
X71160Y174236D01*
X71146Y174016D01*
X71160Y173796D01*
X71203Y173580D01*
X71274Y173371D01*
X71372Y173173D01*
X71494Y172990D01*
X71639Y172825D01*
X71805Y172679D01*
X71988Y172557D01*
X72186Y172459D01*
X72395Y172388D01*
X72611Y172345D01*
X72632Y172344D01*
X72918Y171843D01*
X72950Y171659D01*
X72609Y171341D01*
X72549Y171353D01*
X72330Y171367D01*
X72110Y171353D01*
X71894Y171310D01*
X71685Y171239D01*
X71487Y171142D01*
X71304Y171019D01*
X71138Y170874D01*
X70993Y170708D01*
X70871Y170525D01*
X70773Y170327D01*
X70702Y170119D01*
X70659Y169902D01*
X70645Y169683D01*
X70659Y169463D01*
X70702Y169246D01*
X70773Y169038D01*
X70871Y168840D01*
X70993Y168657D01*
X71138Y168491D01*
X71304Y168346D01*
X71487Y168224D01*
X71685Y168126D01*
X71894Y168055D01*
X72110Y168012D01*
X72330Y167998D01*
X72549Y168012D01*
X72766Y168055D01*
X72974Y168126D01*
X73172Y168224D01*
X73355Y168346D01*
X73521Y168491D01*
X73666Y168657D01*
X73789Y168840D01*
X73886Y169038D01*
X73957Y169246D01*
X74000Y169463D01*
X74014Y169683D01*
X74000Y169902D01*
X73957Y170119D01*
X73943Y170160D01*
X77006Y173223D01*
X101176D01*
X101467Y172523D01*
X100475Y171531D01*
X93987D01*
X93986Y171531D01*
X93839Y171517D01*
X93698Y171474D01*
X93568Y171404D01*
X93454Y171310D01*
X91105Y168961D01*
X91011Y168993D01*
X90795Y169036D01*
X90575Y169051D01*
X90355Y169036D01*
X90139Y168993D01*
X89930Y168922D01*
X89732Y168825D01*
X89549Y168702D01*
X89384Y168557D01*
X89238Y168391D01*
X89116Y168208D01*
X89018Y168010D01*
X88947Y167802D01*
X88905Y167586D01*
X88890Y167366D01*
X88897Y167267D01*
X88559Y167021D01*
X88230Y166946D01*
X88132Y167032D01*
X87949Y167155D01*
X87751Y167252D01*
X87542Y167323D01*
X87326Y167366D01*
X87106Y167380D01*
X86886Y167366D01*
X86670Y167323D01*
X86462Y167252D01*
X86264Y167155D01*
X86081Y167032D01*
X85915Y166887D01*
X85770Y166721D01*
X85647Y166538D01*
X85550Y166340D01*
X85479Y166132D01*
X85436Y165915D01*
X85422Y165696D01*
X85436Y165476D01*
X85479Y165260D01*
X85493Y165218D01*
X84858Y164583D01*
X77844D01*
X77697Y164662D01*
X77380Y164992D01*
X77316Y165089D01*
X77267Y165229D01*
X77275Y165354D01*
X77261Y165574D01*
X77218Y165790D01*
X77147Y165999D01*
X77049Y166196D01*
X76927Y166380D01*
X76782Y166545D01*
X76616Y166691D01*
X76433Y166813D01*
X76235Y166911D01*
X76026Y166981D01*
X75810Y167024D01*
X75590Y167039D01*
X75371Y167024D01*
X75154Y166981D01*
X74946Y166911D01*
X74748Y166813D01*
X74565Y166691D01*
X74399Y166545D01*
X74254Y166380D01*
X74131Y166196D01*
X74034Y165999D01*
X73963Y165790D01*
X73920Y165574D01*
X73906Y165354D01*
X73920Y165134D01*
X73963Y164918D01*
X74034Y164709D01*
X74131Y164512D01*
X74254Y164328D01*
X74399Y164163D01*
X74503Y163518D01*
X74480Y163330D01*
X74448Y163262D01*
X65574Y154388D01*
X65474Y154266D01*
X65400Y154127D01*
X65354Y153977D01*
X65339Y153820D01*
Y135821D01*
X65216Y135753D01*
X64638Y135635D01*
X64614Y135671D01*
X64468Y135837D01*
X64303Y135982D01*
X64120Y136105D01*
X63922Y136202D01*
X63713Y136273D01*
X63497Y136316D01*
X63229Y136378D01*
X62988Y136619D01*
X62902Y137000D01*
X62881Y137106D01*
X62810Y137314D01*
X62712Y137512D01*
X62590Y137695D01*
X62445Y137861D01*
X62279Y138006D01*
X62096Y138129D01*
X61898Y138226D01*
X61689Y138297D01*
X61473Y138340D01*
X61253Y138354D01*
X61033Y138340D01*
X60817Y138297D01*
X60609Y138226D01*
X60411Y138129D01*
X60228Y138006D01*
X60062Y137861D01*
X59917Y137695D01*
X59794Y137512D01*
X59697Y137314D01*
X59626Y137106D01*
X59583Y136890D01*
X59569Y136670D01*
X59583Y136450D01*
X59626Y136233D01*
X59697Y136025D01*
X59794Y135827D01*
X59917Y135644D01*
X60023Y135523D01*
X34865Y110365D01*
X34765Y110243D01*
X34691Y110105D01*
X34645Y109954D01*
X34630Y109797D01*
Y80648D01*
X32738Y78756D01*
X29998D01*
X29804Y79430D01*
X30083Y79545D01*
X30350Y79684D01*
X30604Y79846D01*
X30844Y80030D01*
X31066Y80233D01*
X31269Y80456D01*
X31453Y80695D01*
X31615Y80949D01*
X31754Y81217D01*
X31870Y81495D01*
X31960Y81783D01*
X32026Y82077D01*
X32065Y82376D01*
X32078Y82677D01*
X32065Y82978D01*
X32026Y83277D01*
X31960Y83572D01*
X31870Y83859D01*
X31754Y84138D01*
X31615Y84405D01*
X31453Y84659D01*
X31269Y84899D01*
X31066Y85121D01*
X30844Y85325D01*
X30604Y85508D01*
X30350Y85670D01*
X30083Y85809D01*
X29804Y85925D01*
X29517Y86015D01*
X29222Y86081D01*
X28923Y86120D01*
X28915Y86120D01*
X27358Y87677D01*
X28915Y89234D01*
X28923Y89234D01*
X29222Y89274D01*
X29517Y89339D01*
X29804Y89429D01*
X30083Y89545D01*
X30350Y89684D01*
X30604Y89846D01*
X30844Y90030D01*
X31066Y90233D01*
X31269Y90456D01*
X31453Y90695D01*
X31615Y90949D01*
X31754Y91217D01*
X31870Y91495D01*
X31960Y91783D01*
X32026Y92077D01*
X32065Y92376D01*
X32078Y92677D01*
X32065Y92978D01*
X32026Y93277D01*
X31960Y93572D01*
X31870Y93859D01*
X31754Y94138D01*
X31615Y94405D01*
X31453Y94660D01*
X31269Y94899D01*
X31066Y95121D01*
X30844Y95325D01*
X30604Y95508D01*
X30350Y95670D01*
X30083Y95809D01*
X29804Y95925D01*
X29517Y96015D01*
X29222Y96081D01*
X28923Y96120D01*
X28622Y96133D01*
X28321Y96120D01*
X28022Y96081D01*
X27728Y96015D01*
X27440Y95925D01*
X27161Y95809D01*
X26894Y95670D01*
X26640Y95508D01*
X26401Y95325D01*
X26178Y95121D01*
X25975Y94899D01*
X25913Y94819D01*
X25318Y94974D01*
X25212Y95045D01*
Y100310D01*
X25318Y100380D01*
X25913Y100536D01*
X25975Y100456D01*
X26178Y100233D01*
X26401Y100030D01*
X26640Y99846D01*
X26894Y99684D01*
X27161Y99545D01*
X27440Y99430D01*
X27728Y99339D01*
X28022Y99274D01*
X28321Y99234D01*
X28622Y99221D01*
X28923Y99234D01*
X29222Y99274D01*
X29517Y99339D01*
X29804Y99430D01*
X30083Y99545D01*
X30350Y99684D01*
X30604Y99846D01*
X30844Y100030D01*
X31066Y100233D01*
X31269Y100456D01*
X31453Y100695D01*
X31615Y100949D01*
X31754Y101217D01*
X31870Y101495D01*
X31960Y101783D01*
X32026Y102077D01*
X32065Y102376D01*
X32078Y102677D01*
X32065Y102978D01*
X32026Y103277D01*
X31960Y103572D01*
X31870Y103859D01*
X31754Y104138D01*
X31615Y104405D01*
X31453Y104659D01*
X31269Y104899D01*
X31066Y105121D01*
X30844Y105325D01*
X30604Y105508D01*
X30350Y105670D01*
X30083Y105809D01*
X29804Y105925D01*
X29517Y106016D01*
X29222Y106081D01*
X28923Y106120D01*
X28622Y106133D01*
X28321Y106120D01*
X28022Y106081D01*
X27728Y106016D01*
X27440Y105925D01*
X27161Y105809D01*
X26894Y105670D01*
X26640Y105508D01*
X26401Y105325D01*
X26178Y105121D01*
X25975Y104899D01*
X25913Y104819D01*
X25318Y104974D01*
X25212Y105045D01*
Y110310D01*
X25318Y110380D01*
X25913Y110536D01*
X25975Y110456D01*
X26178Y110233D01*
X26401Y110030D01*
X26640Y109846D01*
X26894Y109684D01*
X27161Y109545D01*
X27440Y109430D01*
X27728Y109339D01*
X28022Y109274D01*
X28321Y109234D01*
X28622Y109221D01*
X28923Y109234D01*
X29222Y109274D01*
X29517Y109339D01*
X29804Y109430D01*
X30083Y109545D01*
X30350Y109684D01*
X30604Y109846D01*
X30844Y110030D01*
X31066Y110233D01*
X31269Y110456D01*
X31453Y110695D01*
X31615Y110949D01*
X31754Y111217D01*
X31870Y111495D01*
X31960Y111783D01*
X32026Y112077D01*
X32065Y112376D01*
X32078Y112677D01*
X32065Y112978D01*
X32026Y113277D01*
X31960Y113572D01*
X31870Y113859D01*
X31754Y114138D01*
X31615Y114405D01*
X31453Y114660D01*
X31269Y114899D01*
X31066Y115121D01*
X30844Y115325D01*
X30604Y115508D01*
X30350Y115670D01*
X30083Y115809D01*
X29804Y115925D01*
X29517Y116016D01*
X29222Y116081D01*
X28923Y116120D01*
X28622Y116133D01*
X28321Y116120D01*
X28022Y116081D01*
X27728Y116016D01*
X27440Y115925D01*
X27161Y115809D01*
X26894Y115670D01*
X26640Y115508D01*
X26401Y115325D01*
X26178Y115121D01*
X25975Y114899D01*
X25913Y114819D01*
X25318Y114974D01*
X25212Y115045D01*
Y115787D01*
X26733Y117307D01*
X33858D01*
X34015Y117323D01*
X34166Y117368D01*
X34304Y117443D01*
X34426Y117542D01*
X57616Y140732D01*
X60419D01*
X60492Y140654D01*
X60507Y140434D01*
X60550Y140217D01*
X60621Y140009D01*
X60718Y139811D01*
X60840Y139628D01*
X60986Y139462D01*
X61151Y139317D01*
X61335Y139195D01*
X61532Y139097D01*
X61741Y139026D01*
X61957Y138983D01*
X62177Y138969D01*
X62397Y138983D01*
X62613Y139026D01*
X62822Y139097D01*
X63020Y139195D01*
X63203Y139317D01*
X63368Y139462D01*
X63514Y139628D01*
X63636Y139811D01*
X63734Y140009D01*
X63804Y140217D01*
X63847Y140434D01*
X63862Y140654D01*
X63847Y140874D01*
X63804Y141090D01*
X63734Y141298D01*
X63636Y141496D01*
X63514Y141679D01*
X63368Y141913D01*
Y142256D01*
X63514Y142490D01*
X63636Y142673D01*
X63734Y142871D01*
X63804Y143080D01*
X63847Y143296D01*
X63862Y143516D01*
X63847Y143736D01*
X63804Y143952D01*
X63734Y144160D01*
X63636Y144358D01*
X63514Y144541D01*
X63368Y144707D01*
X63203Y144852D01*
X63020Y144975D01*
X62822Y145072D01*
X62613Y145143D01*
X62397Y145186D01*
X62177Y145201D01*
X61957Y145186D01*
X61741Y145143D01*
X61532Y145072D01*
X61335Y144975D01*
X61151Y144852D01*
X60986Y144707D01*
X60840Y144541D01*
X60718Y144358D01*
X60621Y144160D01*
X60550Y143952D01*
X60507Y143736D01*
X60492Y143516D01*
X60419Y143437D01*
X56828D01*
X56672Y143421D01*
X56521Y143376D01*
X56382Y143302D01*
X56261Y143202D01*
X33071Y120012D01*
X25946D01*
X25789Y119996D01*
X25638Y119951D01*
X25499Y119876D01*
X25378Y119776D01*
X25056Y119455D01*
X25056Y119455D01*
X22743Y117142D01*
X22643Y117020D01*
X22569Y116882D01*
X22523Y116731D01*
X22515Y116648D01*
X22324Y116424D01*
X21966Y116130D01*
X21807Y116130D01*
X15169D01*
Y109224D01*
X21807D01*
X22075Y109224D01*
X22508Y108703D01*
Y104149D01*
X21807Y104010D01*
X21754Y104138D01*
X21615Y104405D01*
X21453Y104659D01*
X21270Y104899D01*
X21066Y105121D01*
X20844Y105325D01*
X20604Y105508D01*
X20350Y105670D01*
X20083Y105809D01*
X19804Y105925D01*
X19517Y106016D01*
X19222Y106081D01*
X18923Y106120D01*
X18622Y106133D01*
X18321Y106120D01*
X18022Y106081D01*
X17728Y106016D01*
X17440Y105925D01*
X17162Y105809D01*
X16894Y105670D01*
X16640Y105508D01*
X16401Y105325D01*
X16178Y105121D01*
X15975Y104899D01*
X15791Y104659D01*
X15629Y104405D01*
X15490Y104138D01*
X15374Y103859D01*
X15284Y103572D01*
X15218Y103277D01*
X15179Y102978D01*
X15166Y102677D01*
X15179Y102376D01*
X15218Y102077D01*
X15284Y101783D01*
X15374Y101495D01*
X15490Y101217D01*
X15629Y100949D01*
X15791Y100695D01*
X15975Y100456D01*
X16178Y100233D01*
X16401Y100030D01*
X16640Y99846D01*
X16894Y99684D01*
X17162Y99545D01*
X17440Y99430D01*
X17728Y99339D01*
X18022Y99274D01*
X18321Y99234D01*
X18622Y99221D01*
X18923Y99234D01*
X19222Y99274D01*
X19517Y99339D01*
X19804Y99430D01*
X20083Y99545D01*
X20350Y99684D01*
X20604Y99846D01*
X20844Y100030D01*
X21066Y100233D01*
X21270Y100456D01*
X21453Y100695D01*
X21615Y100949D01*
X21754Y101217D01*
X21807Y101344D01*
X22508Y101205D01*
Y94150D01*
X21807Y94010D01*
X21754Y94138D01*
X21615Y94405D01*
X21453Y94660D01*
X21270Y94899D01*
X21066Y95121D01*
X20844Y95325D01*
X20604Y95508D01*
X20350Y95670D01*
X20083Y95809D01*
X19804Y95925D01*
X19517Y96015D01*
X19222Y96081D01*
X18923Y96120D01*
X18622Y96133D01*
X18321Y96120D01*
X18022Y96081D01*
X17728Y96015D01*
X17440Y95925D01*
X17162Y95809D01*
X16894Y95670D01*
X16640Y95508D01*
X16401Y95325D01*
X16178Y95121D01*
X15975Y94899D01*
X15791Y94660D01*
X15629Y94405D01*
X15490Y94138D01*
X15374Y93859D01*
X15284Y93572D01*
X15218Y93277D01*
X15179Y92978D01*
X15166Y92677D01*
X15179Y92376D01*
X15218Y92077D01*
X15284Y91783D01*
X15374Y91495D01*
X15490Y91217D01*
X15629Y90949D01*
X15791Y90695D01*
X15975Y90456D01*
X16178Y90233D01*
X16401Y90030D01*
X16640Y89846D01*
X16894Y89684D01*
X17162Y89545D01*
X17440Y89429D01*
X17728Y89339D01*
X18022Y89274D01*
X18321Y89234D01*
X18622Y89221D01*
X18923Y89234D01*
X19222Y89274D01*
X19517Y89339D01*
X19804Y89429D01*
X20083Y89545D01*
X20350Y89684D01*
X20604Y89846D01*
X20844Y90030D01*
X21066Y90233D01*
X21270Y90456D01*
X21453Y90695D01*
X21615Y90949D01*
X21754Y91217D01*
X21807Y91344D01*
X22508Y91205D01*
Y88521D01*
X22523Y88365D01*
X22569Y88214D01*
X22643Y88075D01*
X22743Y87954D01*
X24137Y86560D01*
X24258Y86460D01*
X24397Y86386D01*
X24548Y86340D01*
X24704Y86325D01*
X26012D01*
X26489Y85645D01*
X26428Y85345D01*
X26401Y85325D01*
X26178Y85121D01*
X25975Y84899D01*
X25791Y84659D01*
X25629Y84405D01*
X25490Y84138D01*
X25374Y83859D01*
X25284Y83572D01*
X25218Y83277D01*
X25179Y82978D01*
X25166Y82677D01*
X25179Y82376D01*
X25218Y82077D01*
X25284Y81783D01*
X25374Y81495D01*
X25490Y81217D01*
X25629Y80949D01*
X25791Y80695D01*
X25975Y80456D01*
X26178Y80233D01*
X26401Y80030D01*
X26640Y79846D01*
X26894Y79684D01*
X27161Y79545D01*
X27440Y79430D01*
X27246Y78756D01*
X19998D01*
X19804Y79430D01*
X20083Y79545D01*
X20350Y79684D01*
X20604Y79846D01*
X20844Y80030D01*
X21066Y80233D01*
X21270Y80456D01*
X21453Y80695D01*
X21615Y80949D01*
X21754Y81217D01*
X21870Y81495D01*
X21960Y81783D01*
X22026Y82077D01*
X22065Y82376D01*
X22078Y82677D01*
X22065Y82978D01*
X22026Y83277D01*
X21960Y83572D01*
X21870Y83859D01*
X21754Y84138D01*
X21615Y84405D01*
X21453Y84659D01*
X21270Y84899D01*
X21066Y85121D01*
X20844Y85325D01*
X20604Y85508D01*
X20350Y85670D01*
X20083Y85809D01*
X19804Y85925D01*
X19517Y86015D01*
X19222Y86081D01*
X18923Y86120D01*
X18622Y86133D01*
X18321Y86120D01*
X18022Y86081D01*
X17728Y86015D01*
X17440Y85925D01*
X17162Y85809D01*
X16894Y85670D01*
X16640Y85508D01*
X16401Y85325D01*
X16178Y85121D01*
X15975Y84899D01*
X15791Y84659D01*
X15629Y84405D01*
X15490Y84138D01*
X15374Y83859D01*
X15284Y83572D01*
X15218Y83277D01*
X15179Y82978D01*
X15166Y82677D01*
X15179Y82376D01*
X15218Y82077D01*
X15284Y81783D01*
X15374Y81495D01*
X15490Y81217D01*
X15629Y80949D01*
X15791Y80695D01*
X15975Y80456D01*
X16178Y80233D01*
X16401Y80030D01*
X16640Y79846D01*
X16894Y79684D01*
X17162Y79545D01*
X17440Y79430D01*
X17246Y78756D01*
X11897D01*
X11741Y78740D01*
X11590Y78695D01*
X11451Y78620D01*
X11330Y78521D01*
X9603Y76794D01*
X9503Y76673D01*
X9429Y76534D01*
X9384Y76383D01*
X9368Y76226D01*
Y69116D01*
X9384Y68959D01*
X9429Y68809D01*
X9503Y68670D01*
X9603Y68548D01*
X9925Y68226D01*
X9925Y68226D01*
X11591Y66560D01*
X11713Y66460D01*
X11852Y66386D01*
X12003Y66340D01*
X12159Y66325D01*
X15415D01*
X15912Y65828D01*
X16178Y65121D01*
X15975Y64899D01*
X15791Y64660D01*
X15629Y64405D01*
X15490Y64138D01*
X15374Y63859D01*
X15284Y63572D01*
X15218Y63277D01*
X15179Y62978D01*
X15166Y62677D01*
X15179Y62376D01*
X15218Y62077D01*
X15284Y61783D01*
X15374Y61495D01*
X15490Y61217D01*
X15629Y60949D01*
X15791Y60695D01*
X15975Y60456D01*
X16178Y60233D01*
X16401Y60030D01*
X16640Y59846D01*
X16894Y59684D01*
X17162Y59545D01*
X17440Y59430D01*
X17728Y59339D01*
X18022Y59274D01*
X18321Y59234D01*
X18622Y59221D01*
X18923Y59234D01*
X19222Y59274D01*
X19517Y59339D01*
X19804Y59430D01*
X20083Y59545D01*
X20350Y59684D01*
X20604Y59846D01*
X20844Y60030D01*
X21066Y60233D01*
X21270Y60456D01*
X21453Y60695D01*
X21615Y60949D01*
X21754Y61217D01*
X21870Y61495D01*
X21960Y61783D01*
X22026Y62077D01*
X22065Y62376D01*
X22078Y62677D01*
X22065Y62978D01*
X22026Y63277D01*
X21960Y63572D01*
X21870Y63859D01*
X21754Y64138D01*
X21615Y64405D01*
X21453Y64660D01*
X21270Y64899D01*
X21066Y65121D01*
X20844Y65325D01*
X20604Y65508D01*
X20350Y65670D01*
X20083Y65809D01*
X19804Y65925D01*
X19517Y66015D01*
X19222Y66081D01*
X18923Y66120D01*
X18622Y66133D01*
X18321Y66120D01*
X18022Y66081D01*
X17947Y66064D01*
X16334Y67677D01*
X17947Y69290D01*
X18022Y69274D01*
X18321Y69234D01*
X18622Y69221D01*
X18923Y69234D01*
X19222Y69274D01*
X19517Y69339D01*
X19804Y69429D01*
X20083Y69545D01*
X20350Y69684D01*
X20604Y69846D01*
X20844Y70030D01*
X21066Y70233D01*
X21270Y70456D01*
X21453Y70695D01*
X21615Y70949D01*
X21754Y71217D01*
X21870Y71495D01*
X21960Y71783D01*
X22026Y72077D01*
X22065Y72376D01*
X22078Y72677D01*
X22065Y72978D01*
X22026Y73277D01*
X21960Y73572D01*
X21870Y73859D01*
X21754Y74138D01*
X21615Y74405D01*
X21453Y74660D01*
X21270Y74899D01*
X21066Y75121D01*
X20844Y75325D01*
X20810Y75350D01*
X21048Y76051D01*
X26196D01*
X26434Y75350D01*
X26401Y75325D01*
X26178Y75121D01*
X25975Y74899D01*
X25791Y74660D01*
X25629Y74405D01*
X25490Y74138D01*
X25374Y73859D01*
X25284Y73572D01*
X25218Y73277D01*
X25179Y72978D01*
X25166Y72677D01*
X25179Y72376D01*
X25218Y72077D01*
X25284Y71783D01*
X25374Y71495D01*
X25490Y71217D01*
X25629Y70949D01*
X25791Y70695D01*
X25975Y70456D01*
X26178Y70233D01*
X26401Y70030D01*
X26640Y69846D01*
X26894Y69684D01*
X27161Y69545D01*
X27440Y69429D01*
X27728Y69339D01*
X28022Y69274D01*
X28321Y69234D01*
X28622Y69221D01*
X28923Y69234D01*
X29222Y69274D01*
X29517Y69339D01*
X29804Y69429D01*
X30083Y69545D01*
X30350Y69684D01*
X30604Y69846D01*
X30844Y70030D01*
X31066Y70233D01*
X31269Y70456D01*
X31453Y70695D01*
X31615Y70949D01*
X31754Y71217D01*
X31870Y71495D01*
X31960Y71783D01*
X32026Y72077D01*
X32065Y72376D01*
X32078Y72677D01*
X32065Y72978D01*
X32026Y73277D01*
X31960Y73572D01*
X31870Y73859D01*
X31754Y74138D01*
X31615Y74405D01*
X31453Y74660D01*
X31269Y74899D01*
X31066Y75121D01*
X30844Y75325D01*
X30810Y75350D01*
X31048Y76051D01*
X33526D01*
X33683Y76067D01*
X33833Y76112D01*
X33972Y76187D01*
X34094Y76287D01*
X36778Y78970D01*
X36778Y78970D01*
X37099Y79292D01*
X37199Y79414D01*
X37273Y79553D01*
X37319Y79703D01*
X37335Y79860D01*
Y91452D01*
X37827Y91676D01*
X38035Y91691D01*
X38147Y91566D01*
X38330Y91402D01*
X38530Y91261D01*
X38744Y91142D01*
X38970Y91048D01*
X39192Y90984D01*
Y93110D01*
Y95236D01*
X38970Y95172D01*
X38744Y95078D01*
X38530Y94960D01*
X38330Y94818D01*
X38147Y94655D01*
X38035Y94530D01*
X37827Y94544D01*
X37335Y94768D01*
Y109010D01*
X61789Y133464D01*
X62086Y133454D01*
X62252Y133309D01*
X62435Y133187D01*
X62633Y133089D01*
X62841Y133018D01*
X63057Y132975D01*
X63277Y132961D01*
X63497Y132975D01*
X63713Y133018D01*
X63922Y133089D01*
X64120Y133187D01*
X64303Y133309D01*
X64468Y133454D01*
X64614Y133620D01*
X64638Y133656D01*
X65216Y133538D01*
X65339Y133470D01*
Y128042D01*
X62388Y125091D01*
X62288Y124969D01*
X62213Y124830D01*
X62168Y124680D01*
X62152Y124523D01*
Y92976D01*
X61452Y92836D01*
X61417Y92920D01*
X61299Y93134D01*
X61157Y93334D01*
X60993Y93517D01*
X60811Y93680D01*
X60611Y93822D01*
X60397Y93940D01*
X60170Y94034D01*
X59949Y94098D01*
Y91972D01*
Y89846D01*
X60170Y89910D01*
X60397Y90004D01*
X60611Y90122D01*
X60811Y90264D01*
X60993Y90427D01*
X61157Y90610D01*
X61299Y90810D01*
X61417Y91024D01*
X61452Y91108D01*
X62152Y90968D01*
Y69851D01*
X61452Y69688D01*
X61444Y69703D01*
X61322Y69886D01*
X61177Y70052D01*
X61011Y70197D01*
X60828Y70319D01*
X60630Y70417D01*
X60421Y70488D01*
X60205Y70531D01*
X59985Y70545D01*
X59765Y70531D01*
X59549Y70488D01*
X59341Y70417D01*
X59143Y70319D01*
X58960Y70197D01*
X58794Y70052D01*
X58649Y69886D01*
X58526Y69703D01*
X58429Y69505D01*
X58358Y69297D01*
X58337Y69191D01*
X58250Y68810D01*
X58009Y68569D01*
X57741Y68507D01*
X57525Y68464D01*
X57317Y68393D01*
X57119Y68296D01*
X56936Y68173D01*
X56770Y68028D01*
X56625Y67862D01*
X56502Y67679D01*
X56405Y67481D01*
X56334Y67273D01*
X56291Y67057D01*
X56277Y66837D01*
X56291Y66617D01*
X56334Y66401D01*
X56405Y66192D01*
X56502Y65994D01*
X56625Y65811D01*
X56770Y65645D01*
X56936Y65500D01*
X57119Y65378D01*
X57317Y65280D01*
X57525Y65209D01*
X57741Y65166D01*
X57961Y65152D01*
X58181Y65166D01*
X58397Y65209D01*
X58606Y65280D01*
X58804Y65378D01*
X58987Y65500D01*
X59153Y65645D01*
X59298Y65811D01*
X59420Y65994D01*
X59518Y66192D01*
X59589Y66401D01*
X59610Y66507D01*
X59696Y66887D01*
X59937Y67128D01*
X60205Y67190D01*
X60421Y67233D01*
X60630Y67304D01*
X60828Y67401D01*
X61011Y67524D01*
X61177Y67669D01*
X61322Y67835D01*
X61444Y68018D01*
X61452Y68033D01*
X62152Y67870D01*
Y50452D01*
X62168Y50295D01*
X62213Y50144D01*
X62288Y50006D01*
X62388Y49884D01*
X66050Y46221D01*
X66050Y46221D01*
X66694Y45578D01*
X66815Y45478D01*
X66954Y45404D01*
X67105Y45358D01*
X67262Y45343D01*
X89846D01*
X90003Y45358D01*
X90154Y45404D01*
X90293Y45478D01*
X90414Y45578D01*
X97253Y52416D01*
X100415D01*
X100468Y52399D01*
X100629Y52281D01*
X101021Y51764D01*
X101035Y51544D01*
X101078Y51328D01*
X101149Y51119D01*
X101231Y50953D01*
X101203Y50863D01*
X100813Y50338D01*
X100809Y50334D01*
X100591Y50348D01*
X100371Y50334D01*
X100154Y50291D01*
X99946Y50220D01*
X99748Y50122D01*
X99565Y50000D01*
X99399Y49855D01*
X99254Y49689D01*
X99132Y49506D01*
X99048Y49336D01*
X98848Y49268D01*
X98522Y49197D01*
X98455Y49195D01*
X98274Y49229D01*
X98192Y49323D01*
X98026Y49468D01*
X97843Y49590D01*
X97645Y49688D01*
X97437Y49759D01*
X97221Y49802D01*
X97001Y49816D01*
X96781Y49802D01*
X96565Y49759D01*
X96356Y49688D01*
X96158Y49590D01*
X95975Y49468D01*
X95810Y49323D01*
X95664Y49157D01*
X95542Y48974D01*
X95444Y48776D01*
X95373Y48568D01*
X95330Y48351D01*
X95316Y48131D01*
X95330Y47912D01*
X95373Y47695D01*
X95444Y47487D01*
X95542Y47289D01*
X95664Y47106D01*
X95810Y46940D01*
X95975Y46795D01*
X96158Y46672D01*
X96356Y46575D01*
X96565Y46504D01*
X96781Y46461D01*
X97001Y46447D01*
X97221Y46461D01*
X97437Y46504D01*
X97645Y46575D01*
X97843Y46672D01*
X98026Y46795D01*
X98192Y46940D01*
X98337Y47106D01*
X98460Y47289D01*
X98544Y47459D01*
X98743Y47527D01*
X99069Y47598D01*
X99136Y47600D01*
X99317Y47566D01*
X99399Y47472D01*
X99565Y47327D01*
X99748Y47204D01*
X99946Y47107D01*
X100154Y47036D01*
X100371Y46993D01*
X100591Y46979D01*
X100811Y46993D01*
X101027Y47036D01*
X101235Y47107D01*
X101433Y47204D01*
X101616Y47327D01*
X101650Y47357D01*
X102032Y47372D01*
X102054Y47369D01*
X102466Y47212D01*
X102478Y47189D01*
X102600Y47006D01*
X102745Y46840D01*
X102911Y46695D01*
X103094Y46572D01*
X103292Y46475D01*
X103501Y46404D01*
X103717Y46361D01*
X103937Y46347D01*
X104157Y46361D01*
X104373Y46404D01*
X104413Y46418D01*
X104685Y46345D01*
X104950Y46194D01*
X105128Y46030D01*
X105156Y45987D01*
X105175Y45923D01*
X105249Y45784D01*
X105349Y45662D01*
X114561Y36451D01*
X114561Y36451D01*
X114883Y36129D01*
X115004Y36029D01*
X115143Y35955D01*
X115294Y35909D01*
X115451Y35894D01*
X153352D01*
X153478Y35715D01*
X153613Y35193D01*
X153573Y35158D01*
X153410Y34975D01*
X153268Y34776D01*
X153150Y34561D01*
X153056Y34335D01*
X152992Y34113D01*
X157244D01*
X157180Y34335D01*
X157086Y34561D01*
X156968Y34776D01*
X156826Y34975D01*
X156663Y35158D01*
X156624Y35193D01*
X156758Y35715D01*
X156884Y35894D01*
X165597D01*
X165724Y35717D01*
X165863Y35193D01*
X165785Y35121D01*
X165581Y34899D01*
X165397Y34659D01*
X165235Y34405D01*
X165096Y34138D01*
X164981Y33859D01*
X164890Y33572D01*
X164825Y33277D01*
X164786Y32978D01*
X164772Y32677D01*
X164786Y32376D01*
X164825Y32077D01*
X164890Y31783D01*
X164981Y31495D01*
X165096Y31217D01*
X165235Y30949D01*
X165397Y30695D01*
X165581Y30456D01*
X165785Y30233D01*
X166007Y30030D01*
X166246Y29846D01*
X166500Y29684D01*
X166768Y29545D01*
X167046Y29430D01*
X167334Y29339D01*
X167628Y29274D01*
X167927Y29234D01*
X168228Y29221D01*
X168530Y29234D01*
X168828Y29274D01*
X169123Y29339D01*
X169410Y29430D01*
X169689Y29545D01*
X169956Y29684D01*
X170211Y29846D01*
X170450Y30030D01*
X170672Y30233D01*
X170876Y30456D01*
X171059Y30695D01*
X171221Y30949D01*
X171361Y31217D01*
X171476Y31495D01*
X171567Y31783D01*
X171632Y32077D01*
X171671Y32376D01*
X171684Y32677D01*
X171671Y32978D01*
X171632Y33277D01*
X171567Y33572D01*
X171476Y33859D01*
X171361Y34138D01*
X171221Y34405D01*
X171059Y34659D01*
X170876Y34899D01*
X170672Y35121D01*
X170594Y35193D01*
X170732Y35717D01*
X170859Y35894D01*
X172108D01*
X172265Y35909D01*
X172416Y35955D01*
X172555Y36029D01*
X172676Y36129D01*
X172998Y36451D01*
X172998Y36451D01*
X174584Y38036D01*
X174683Y38158D01*
X174758Y38297D01*
X174803Y38447D01*
X174819Y38604D01*
Y39510D01*
X175187Y39732D01*
X175520Y39798D01*
X175685Y39646D01*
X175959Y39436D01*
X176250Y39251D01*
X176556Y39091D01*
X176875Y38959D01*
X177204Y38855D01*
X177541Y38781D01*
X177728Y38756D01*
Y42677D01*
Y46598D01*
X177541Y46574D01*
X177204Y46499D01*
X176875Y46395D01*
X176556Y46263D01*
X176250Y46104D01*
X175959Y45918D01*
X175685Y45708D01*
X175520Y45556D01*
X175187Y45622D01*
X174819Y45845D01*
Y50309D01*
X174925Y50380D01*
X175520Y50536D01*
X175581Y50456D01*
X175785Y50233D01*
X176007Y50030D01*
X176246Y49846D01*
X176500Y49684D01*
X176768Y49545D01*
X177046Y49430D01*
X177334Y49339D01*
X177628Y49274D01*
X177927Y49234D01*
X178228Y49221D01*
X178530Y49234D01*
X178829Y49274D01*
X179123Y49339D01*
X179410Y49430D01*
X179689Y49545D01*
X179956Y49684D01*
X180211Y49846D01*
X180450Y50030D01*
X180672Y50233D01*
X180876Y50456D01*
X181059Y50695D01*
X181221Y50949D01*
X181361Y51217D01*
X181476Y51495D01*
X181567Y51783D01*
X181632Y52077D01*
X181671Y52376D01*
X181684Y52677D01*
X181671Y52978D01*
X181632Y53277D01*
X181567Y53572D01*
X181476Y53859D01*
X181361Y54138D01*
X181221Y54405D01*
X181059Y54659D01*
X180876Y54899D01*
X180672Y55121D01*
X180450Y55325D01*
X180211Y55508D01*
X179956Y55670D01*
X179689Y55809D01*
X179410Y55925D01*
X179123Y56015D01*
X178829Y56081D01*
X178530Y56120D01*
X178228Y56133D01*
X177927Y56120D01*
X177628Y56081D01*
X177334Y56015D01*
X177046Y55925D01*
X176768Y55809D01*
X176500Y55670D01*
X176246Y55508D01*
X176007Y55325D01*
X175785Y55121D01*
X175581Y54899D01*
X175520Y54819D01*
X174925Y54974D01*
X174819Y55045D01*
Y60309D01*
X174925Y60380D01*
X175520Y60536D01*
X175581Y60456D01*
X175785Y60233D01*
X176007Y60030D01*
X176246Y59846D01*
X176500Y59684D01*
X176768Y59545D01*
X177046Y59430D01*
X177334Y59339D01*
X177628Y59274D01*
X177927Y59234D01*
X178228Y59221D01*
X178530Y59234D01*
X178829Y59274D01*
X179123Y59339D01*
X179410Y59430D01*
X179689Y59545D01*
X179956Y59684D01*
X180211Y59846D01*
X180450Y60030D01*
X180672Y60233D01*
X180876Y60456D01*
X181059Y60695D01*
X181221Y60949D01*
X181361Y61217D01*
X181476Y61495D01*
X181567Y61783D01*
X181632Y62077D01*
X181671Y62376D01*
X181684Y62677D01*
X181671Y62978D01*
X181632Y63277D01*
X181567Y63572D01*
X181476Y63859D01*
X181361Y64138D01*
X181221Y64405D01*
X181059Y64660D01*
X180876Y64899D01*
X180672Y65121D01*
X180450Y65325D01*
X180211Y65508D01*
X179956Y65670D01*
X179689Y65809D01*
X179410Y65925D01*
X179123Y66015D01*
X178829Y66081D01*
X178530Y66120D01*
X178228Y66133D01*
X177927Y66120D01*
X177628Y66081D01*
X177334Y66015D01*
X177046Y65925D01*
X176768Y65809D01*
X176500Y65670D01*
X176246Y65508D01*
X176007Y65325D01*
X175785Y65121D01*
X175581Y64899D01*
X175520Y64819D01*
X174925Y64974D01*
X174819Y65045D01*
Y70310D01*
X174925Y70380D01*
X175520Y70535D01*
X175581Y70456D01*
X175785Y70233D01*
X176007Y70030D01*
X176246Y69846D01*
X176500Y69684D01*
X176768Y69545D01*
X177046Y69429D01*
X177334Y69339D01*
X177628Y69274D01*
X177927Y69234D01*
X178228Y69221D01*
X178530Y69234D01*
X178829Y69274D01*
X179123Y69339D01*
X179410Y69429D01*
X179689Y69545D01*
X179956Y69684D01*
X180211Y69846D01*
X180450Y70030D01*
X180672Y70233D01*
X180876Y70456D01*
X181059Y70695D01*
X181221Y70949D01*
X181361Y71217D01*
X181476Y71495D01*
X181567Y71783D01*
X181632Y72077D01*
X181671Y72376D01*
X181684Y72677D01*
X181671Y72978D01*
X181632Y73277D01*
X181567Y73572D01*
X181476Y73859D01*
X181361Y74138D01*
X181221Y74405D01*
X181059Y74660D01*
X180876Y74899D01*
X180672Y75121D01*
X180450Y75325D01*
X180211Y75508D01*
X179956Y75670D01*
X179689Y75809D01*
X179410Y75925D01*
X179123Y76015D01*
X178829Y76081D01*
X178530Y76120D01*
X178521Y76120D01*
X176964Y77677D01*
X178521Y79234D01*
X178530Y79234D01*
X178829Y79274D01*
X179123Y79339D01*
X179410Y79430D01*
X179689Y79545D01*
X179956Y79684D01*
X180211Y79846D01*
X180450Y80030D01*
X180672Y80233D01*
X180876Y80456D01*
X181059Y80695D01*
X181221Y80949D01*
X181361Y81217D01*
X181476Y81495D01*
X181567Y81783D01*
X181632Y82077D01*
X181671Y82376D01*
X181684Y82677D01*
X181671Y82978D01*
X181632Y83277D01*
X181567Y83572D01*
X181476Y83859D01*
X181361Y84138D01*
X181221Y84405D01*
X181059Y84659D01*
X180876Y84899D01*
X180672Y85121D01*
X180450Y85325D01*
X180211Y85508D01*
X179956Y85670D01*
X179689Y85809D01*
X179410Y85925D01*
X179123Y86015D01*
X178829Y86081D01*
X178530Y86120D01*
X178228Y86133D01*
X177927Y86120D01*
X177628Y86081D01*
X177334Y86015D01*
X177046Y85925D01*
X176768Y85809D01*
X176500Y85670D01*
X176246Y85508D01*
X176007Y85325D01*
X175785Y85121D01*
X175581Y84899D01*
X175397Y84659D01*
X175235Y84405D01*
X175096Y84138D01*
X174981Y83859D01*
X174890Y83572D01*
X174825Y83277D01*
X174785Y82978D01*
X174772Y82677D01*
X174785Y82376D01*
X174825Y82077D01*
X174890Y81783D01*
X174981Y81495D01*
X175096Y81217D01*
X175235Y80949D01*
X175397Y80695D01*
X175581Y80456D01*
X175785Y80233D01*
X176007Y80030D01*
X176034Y80009D01*
X176096Y79709D01*
X175618Y79030D01*
X174311D01*
X174154Y79014D01*
X174003Y78968D01*
X173865Y78894D01*
X173743Y78794D01*
X173510Y78561D01*
X172862Y78829D01*
Y95917D01*
X173350Y96185D01*
X173557Y96213D01*
X175286Y94484D01*
X175235Y94405D01*
X175096Y94138D01*
X174981Y93859D01*
X174890Y93572D01*
X174825Y93277D01*
X174785Y92978D01*
X174772Y92677D01*
X174785Y92376D01*
X174825Y92077D01*
X174890Y91783D01*
X174981Y91495D01*
X175096Y91217D01*
X175235Y90949D01*
X175397Y90695D01*
X175581Y90456D01*
X175785Y90233D01*
X176007Y90030D01*
X176246Y89846D01*
X176500Y89684D01*
X176768Y89545D01*
X177046Y89429D01*
X177334Y89339D01*
X177628Y89274D01*
X177927Y89234D01*
X178228Y89221D01*
X178530Y89234D01*
X178829Y89274D01*
X179123Y89339D01*
X179410Y89429D01*
X179689Y89545D01*
X179956Y89684D01*
X180211Y89846D01*
X180450Y90030D01*
X180672Y90233D01*
X180876Y90456D01*
X181059Y90695D01*
X181221Y90949D01*
X181361Y91217D01*
X181476Y91495D01*
X181567Y91783D01*
X181632Y92077D01*
X181671Y92376D01*
X181684Y92677D01*
X181671Y92978D01*
X181632Y93277D01*
X181567Y93572D01*
X181476Y93859D01*
X181361Y94138D01*
X181221Y94405D01*
X181059Y94660D01*
X180876Y94899D01*
X180672Y95121D01*
X180450Y95325D01*
X180211Y95508D01*
X179956Y95670D01*
X179689Y95809D01*
X179410Y95925D01*
X179123Y96015D01*
X178829Y96081D01*
X178530Y96120D01*
X178228Y96133D01*
X177927Y96120D01*
X177628Y96081D01*
X177334Y96015D01*
X177046Y95925D01*
X176768Y95809D01*
X176500Y95670D01*
X176421Y95620D01*
X173720Y98321D01*
Y105134D01*
X174368Y105402D01*
X175286Y104484D01*
X175235Y104405D01*
X175096Y104138D01*
X174981Y103859D01*
X174890Y103572D01*
X174825Y103277D01*
X174785Y102978D01*
X174772Y102677D01*
X174785Y102376D01*
X174825Y102077D01*
X174890Y101783D01*
X174981Y101495D01*
X175096Y101217D01*
X175235Y100949D01*
X175397Y100695D01*
X175581Y100456D01*
X175785Y100233D01*
X176007Y100030D01*
X176246Y99846D01*
X176500Y99684D01*
X176768Y99545D01*
X177046Y99430D01*
X177334Y99339D01*
X177628Y99274D01*
X177927Y99234D01*
X178228Y99221D01*
X178530Y99234D01*
X178829Y99274D01*
X179123Y99339D01*
X179410Y99430D01*
X179689Y99545D01*
X179956Y99684D01*
X180211Y99846D01*
X180450Y100030D01*
X180672Y100233D01*
X180876Y100456D01*
X181059Y100695D01*
X181221Y100949D01*
X181361Y101217D01*
X181476Y101495D01*
X181567Y101783D01*
X181632Y102077D01*
X181671Y102376D01*
X181684Y102677D01*
X181671Y102978D01*
X181632Y103277D01*
X181567Y103572D01*
X181476Y103859D01*
X181361Y104138D01*
X181221Y104405D01*
X181059Y104659D01*
X180876Y104899D01*
X180672Y105121D01*
X180450Y105325D01*
X180211Y105508D01*
X179956Y105670D01*
X179689Y105809D01*
X179410Y105925D01*
X179123Y106016D01*
X178829Y106081D01*
X178530Y106120D01*
X178228Y106133D01*
X177927Y106120D01*
X177628Y106081D01*
X177334Y106016D01*
X177046Y105925D01*
X176768Y105809D01*
X176500Y105670D01*
X176421Y105620D01*
X174819Y107222D01*
Y110310D01*
X174925Y110380D01*
X175520Y110536D01*
X175581Y110456D01*
X175785Y110233D01*
X176007Y110030D01*
X176246Y109846D01*
X176500Y109684D01*
X176768Y109545D01*
X177046Y109430D01*
X177334Y109339D01*
X177628Y109274D01*
X177927Y109234D01*
X178228Y109221D01*
X178530Y109234D01*
X178829Y109274D01*
X179123Y109339D01*
X179410Y109430D01*
X179689Y109545D01*
X179956Y109684D01*
X180211Y109846D01*
X180450Y110030D01*
X180672Y110233D01*
X180876Y110456D01*
X181059Y110695D01*
X181221Y110949D01*
X181361Y111217D01*
X181476Y111495D01*
X181567Y111783D01*
X181632Y112077D01*
X181671Y112376D01*
X181684Y112677D01*
X181671Y112978D01*
X181632Y113277D01*
X181567Y113572D01*
X181476Y113859D01*
X181361Y114138D01*
X181221Y114405D01*
X181059Y114660D01*
X180876Y114899D01*
X180672Y115121D01*
X180450Y115325D01*
X180211Y115508D01*
X179956Y115670D01*
X179689Y115809D01*
X179410Y115925D01*
X179123Y116016D01*
X178829Y116081D01*
X178530Y116120D01*
X178228Y116133D01*
X177927Y116120D01*
X177628Y116081D01*
X177334Y116016D01*
X177046Y115925D01*
X176768Y115809D01*
X176500Y115670D01*
X176246Y115508D01*
X176007Y115325D01*
X175785Y115121D01*
X175581Y114899D01*
X175520Y114819D01*
X174925Y114974D01*
X174819Y115045D01*
Y121996D01*
X181681D01*
Y128902D01*
X174819D01*
Y132281D01*
X175187Y132504D01*
X175520Y132570D01*
X175685Y132418D01*
X175959Y132208D01*
X176250Y132022D01*
X176556Y131863D01*
X176875Y131731D01*
X177204Y131627D01*
X177541Y131552D01*
X177728Y131528D01*
Y135449D01*
Y139370D01*
X177541Y139345D01*
X177204Y139270D01*
X176875Y139167D01*
X176556Y139035D01*
X176250Y138875D01*
X175959Y138690D01*
X175685Y138480D01*
X175520Y138328D01*
X175187Y138394D01*
X174819Y138616D01*
Y143081D01*
X174925Y143152D01*
X175520Y143307D01*
X175581Y143227D01*
X175785Y143005D01*
X176007Y142801D01*
X176246Y142618D01*
X176500Y142456D01*
X176768Y142317D01*
X177046Y142201D01*
X177334Y142111D01*
X177628Y142045D01*
X177927Y142006D01*
X178228Y141993D01*
X178530Y142006D01*
X178829Y142045D01*
X179123Y142111D01*
X179410Y142201D01*
X179689Y142317D01*
X179956Y142456D01*
X180211Y142618D01*
X180450Y142801D01*
X180672Y143005D01*
X180876Y143227D01*
X181059Y143466D01*
X181221Y143721D01*
X181361Y143988D01*
X181476Y144267D01*
X181567Y144554D01*
X181632Y144849D01*
X181671Y145148D01*
X181684Y145449D01*
X181671Y145750D01*
X181632Y146049D01*
X181567Y146343D01*
X181476Y146631D01*
X181361Y146909D01*
X181221Y147177D01*
X181059Y147431D01*
X180876Y147670D01*
X180672Y147893D01*
X180450Y148096D01*
X180211Y148280D01*
X179956Y148442D01*
X179689Y148581D01*
X179410Y148696D01*
X179123Y148787D01*
X178829Y148852D01*
X178530Y148892D01*
X178228Y148905D01*
X177927Y148892D01*
X177628Y148852D01*
X177334Y148787D01*
X177046Y148696D01*
X176768Y148581D01*
X176500Y148442D01*
X176246Y148280D01*
X176007Y148096D01*
X175785Y147893D01*
X175581Y147670D01*
X175520Y147590D01*
X174925Y147746D01*
X174819Y147816D01*
Y153081D01*
X174925Y153152D01*
X175520Y153307D01*
X175581Y153227D01*
X175785Y153005D01*
X176007Y152801D01*
X176246Y152618D01*
X176500Y152456D01*
X176768Y152317D01*
X177046Y152201D01*
X177334Y152111D01*
X177628Y152045D01*
X177927Y152006D01*
X178228Y151993D01*
X178530Y152006D01*
X178829Y152045D01*
X179123Y152111D01*
X179410Y152201D01*
X179689Y152317D01*
X179956Y152456D01*
X180211Y152618D01*
X180450Y152801D01*
X180672Y153005D01*
X180876Y153227D01*
X181059Y153466D01*
X181221Y153721D01*
X181361Y153988D01*
X181476Y154267D01*
X181567Y154554D01*
X181632Y154849D01*
X181671Y155148D01*
X181684Y155449D01*
X181671Y155750D01*
X181632Y156049D01*
X181567Y156343D01*
X181476Y156631D01*
X181361Y156909D01*
X181221Y157177D01*
X181059Y157431D01*
X180876Y157670D01*
X180672Y157893D01*
X180450Y158096D01*
X180211Y158280D01*
X179956Y158442D01*
X179689Y158581D01*
X179410Y158696D01*
X179123Y158787D01*
X178829Y158852D01*
X178530Y158892D01*
X178228Y158905D01*
X177927Y158892D01*
X177628Y158852D01*
X177334Y158787D01*
X177046Y158696D01*
X176768Y158581D01*
X176500Y158442D01*
X176246Y158280D01*
X176007Y158096D01*
X175785Y157893D01*
X175581Y157670D01*
X175397Y157431D01*
X175235Y157177D01*
X175096Y156909D01*
X174981Y156631D01*
X174890Y156343D01*
X174226Y156111D01*
X174127Y156121D01*
X150260Y179988D01*
X150138Y180088D01*
X150000Y180162D01*
X149849Y180208D01*
X149692Y180223D01*
D02*
G37*
G36*
X185039Y195386D02*
X185028Y195385D01*
X184498Y195371D01*
X183958Y195329D01*
X183421Y195258D01*
X182888Y195159D01*
X182362Y195033D01*
X181842Y194879D01*
X181332Y194698D01*
X180831Y194491D01*
X180342Y194258D01*
X179866Y193999D01*
X179404Y193716D01*
X178958Y193410D01*
X178528Y193080D01*
X178117Y192728D01*
X177724Y192355D01*
X177351Y191962D01*
X176999Y191550D01*
X176669Y191121D01*
X176362Y190674D01*
X176079Y190212D01*
X175821Y189736D01*
X175588Y189248D01*
X175381Y188747D01*
X175200Y188236D01*
X175046Y187717D01*
X174919Y187190D01*
X174821Y186658D01*
X174750Y186121D01*
X174707Y185581D01*
X174694Y185051D01*
X174693Y185039D01*
X174694Y185028D01*
X174707Y184498D01*
X174750Y183958D01*
X174821Y183421D01*
X174919Y182888D01*
X175046Y182362D01*
X175200Y181842D01*
X175381Y181332D01*
X175588Y180831D01*
X175821Y180342D01*
X176079Y179866D01*
X176362Y179404D01*
X176669Y178958D01*
X176999Y178528D01*
X177351Y178117D01*
X177724Y177724D01*
X178117Y177351D01*
X178528Y176999D01*
X178958Y176669D01*
X179404Y176362D01*
X179866Y176079D01*
X180342Y175821D01*
X180831Y175588D01*
X181332Y175381D01*
X181842Y175200D01*
X182362Y175046D01*
X182888Y174919D01*
X183421Y174821D01*
X183958Y174750D01*
X184498Y174707D01*
X185028Y174694D01*
X185039Y174693D01*
X185051Y174694D01*
X185581Y174707D01*
X186121Y174750D01*
X186658Y174821D01*
X187190Y174919D01*
X187717Y175046D01*
X188236Y175200D01*
X188747Y175381D01*
X189248Y175588D01*
X189736Y175821D01*
X190212Y176079D01*
X190674Y176362D01*
X191121Y176669D01*
X191550Y176999D01*
X191962Y177351D01*
X192355Y177724D01*
X192728Y178117D01*
X193080Y178528D01*
X193410Y178958D01*
X193716Y179404D01*
X193999Y179866D01*
X194258Y180342D01*
X194491Y180831D01*
X194698Y181332D01*
X194879Y181842D01*
X195033Y182362D01*
X195159Y182888D01*
X195258Y183421D01*
X195329Y183958D01*
X195371Y184498D01*
X195385Y185028D01*
X195386Y185039D01*
X195385Y185050D01*
X195371Y185581D01*
X195329Y186121D01*
X195258Y186658D01*
X195159Y187190D01*
X195033Y187717D01*
X194879Y188236D01*
X194698Y188747D01*
X194491Y189248D01*
X194258Y189736D01*
X193999Y190212D01*
X193716Y190674D01*
X193410Y191121D01*
X193080Y191550D01*
X192728Y191962D01*
X192355Y192355D01*
X191962Y192728D01*
X191550Y193080D01*
X191121Y193410D01*
X190674Y193716D01*
X190212Y193999D01*
X189736Y194258D01*
X189248Y194491D01*
X188747Y194698D01*
X188236Y194879D01*
X187717Y195033D01*
X187190Y195159D01*
X186658Y195258D01*
X186121Y195329D01*
X185581Y195371D01*
X185051Y195385D01*
X185039Y195386D01*
D02*
G37*
G36*
X11811D02*
X11800Y195385D01*
X11270Y195371D01*
X10730Y195329D01*
X10193Y195258D01*
X9660Y195159D01*
X9133Y195033D01*
X8614Y194879D01*
X8103Y194698D01*
X7603Y194491D01*
X7114Y194258D01*
X6638Y193999D01*
X6176Y193716D01*
X5730Y193410D01*
X5300Y193080D01*
X4888Y192728D01*
X4495Y192355D01*
X4122Y191962D01*
X3771Y191550D01*
X3441Y191121D01*
X3134Y190674D01*
X2851Y190212D01*
X2593Y189736D01*
X2359Y189248D01*
X2152Y188747D01*
X1971Y188236D01*
X1818Y187717D01*
X1691Y187190D01*
X1592Y186658D01*
X1522Y186121D01*
X1479Y185581D01*
X1465Y185051D01*
X1465Y185039D01*
X1465Y185028D01*
X1479Y184498D01*
X1522Y183958D01*
X1592Y183421D01*
X1691Y182888D01*
X1818Y182362D01*
X1971Y181842D01*
X2152Y181332D01*
X2359Y180831D01*
X2593Y180342D01*
X2851Y179866D01*
X3134Y179404D01*
X3441Y178958D01*
X3771Y178528D01*
X4122Y178117D01*
X4495Y177724D01*
X4888Y177351D01*
X5300Y176999D01*
X5730Y176669D01*
X6176Y176362D01*
X6638Y176079D01*
X7114Y175821D01*
X7603Y175588D01*
X8103Y175381D01*
X8614Y175200D01*
X9133Y175046D01*
X9660Y174919D01*
X10193Y174821D01*
X10730Y174750D01*
X11270Y174707D01*
X11800Y174694D01*
X11811Y174693D01*
X11822Y174694D01*
X12353Y174707D01*
X12892Y174750D01*
X13430Y174821D01*
X13962Y174919D01*
X14489Y175046D01*
X15008Y175200D01*
X15519Y175381D01*
X16019Y175588D01*
X16508Y175821D01*
X16984Y176079D01*
X17446Y176362D01*
X17892Y176669D01*
X18322Y176999D01*
X18734Y177351D01*
X19127Y177724D01*
X19500Y178117D01*
X19851Y178528D01*
X20181Y178958D01*
X20488Y179404D01*
X20771Y179866D01*
X21029Y180342D01*
X21263Y180831D01*
X21470Y181332D01*
X21651Y181842D01*
X21805Y182362D01*
X21931Y182888D01*
X22030Y183421D01*
X22100Y183958D01*
X22143Y184498D01*
X22157Y185028D01*
X22157Y185039D01*
X22157Y185050D01*
X22143Y185581D01*
X22100Y186121D01*
X22030Y186658D01*
X21931Y187190D01*
X21805Y187717D01*
X21651Y188236D01*
X21470Y188747D01*
X21263Y189248D01*
X21029Y189736D01*
X20771Y190212D01*
X20488Y190674D01*
X20181Y191121D01*
X19851Y191550D01*
X19500Y191962D01*
X19127Y192355D01*
X18734Y192728D01*
X18322Y193080D01*
X17892Y193410D01*
X17446Y193716D01*
X16984Y193999D01*
X16508Y194258D01*
X16019Y194491D01*
X15519Y194698D01*
X15008Y194879D01*
X14489Y195033D01*
X13962Y195159D01*
X13430Y195258D01*
X12892Y195329D01*
X12353Y195371D01*
X11822Y195385D01*
X11811Y195386D01*
D02*
G37*
G36*
X28622Y170695D02*
X28321Y170682D01*
X28022Y170642D01*
X27728Y170577D01*
X27440Y170486D01*
X27161Y170371D01*
X26894Y170232D01*
X26640Y170070D01*
X26401Y169886D01*
X26178Y169683D01*
X25975Y169460D01*
X25791Y169221D01*
X25629Y168967D01*
X25490Y168699D01*
X25374Y168421D01*
X25284Y168133D01*
X25218Y167839D01*
X25179Y167540D01*
X25166Y167239D01*
X25179Y166937D01*
X25218Y166639D01*
X25284Y166344D01*
X25374Y166057D01*
X25490Y165778D01*
X25629Y165511D01*
X25791Y165256D01*
X25975Y165017D01*
X26178Y164795D01*
X26401Y164591D01*
X26640Y164408D01*
X26894Y164246D01*
X27161Y164107D01*
X27440Y163991D01*
X27728Y163900D01*
X28022Y163835D01*
X28321Y163796D01*
X28622Y163783D01*
X28923Y163796D01*
X29222Y163835D01*
X29517Y163900D01*
X29804Y163991D01*
X30083Y164107D01*
X30350Y164246D01*
X30604Y164408D01*
X30843Y164591D01*
X31066Y164795D01*
X31269Y165017D01*
X31453Y165256D01*
X31615Y165511D01*
X31754Y165778D01*
X31870Y166057D01*
X31960Y166344D01*
X32026Y166639D01*
X32065Y166937D01*
X32078Y167239D01*
X32065Y167540D01*
X32026Y167839D01*
X31960Y168133D01*
X31870Y168421D01*
X31754Y168699D01*
X31615Y168967D01*
X31453Y169221D01*
X31269Y169460D01*
X31066Y169683D01*
X30843Y169886D01*
X30604Y170070D01*
X30350Y170232D01*
X30083Y170371D01*
X29804Y170486D01*
X29517Y170577D01*
X29222Y170642D01*
X28923Y170682D01*
X28622Y170695D01*
D02*
G37*
G36*
X18622D02*
X18321Y170682D01*
X18022Y170642D01*
X17728Y170577D01*
X17440Y170486D01*
X17161Y170371D01*
X16894Y170232D01*
X16640Y170070D01*
X16400Y169886D01*
X16178Y169683D01*
X15975Y169460D01*
X15791Y169221D01*
X15629Y168967D01*
X15490Y168699D01*
X15374Y168421D01*
X15284Y168133D01*
X15218Y167839D01*
X15179Y167540D01*
X15166Y167239D01*
X15179Y166937D01*
X15218Y166639D01*
X15284Y166344D01*
X15374Y166057D01*
X15490Y165778D01*
X15629Y165511D01*
X15791Y165256D01*
X15975Y165017D01*
X16178Y164795D01*
X16400Y164591D01*
X16640Y164408D01*
X16894Y164246D01*
X17161Y164107D01*
X17440Y163991D01*
X17728Y163900D01*
X18022Y163835D01*
X18321Y163796D01*
X18622Y163783D01*
X18923Y163796D01*
X19222Y163835D01*
X19516Y163900D01*
X19804Y163991D01*
X20083Y164107D01*
X20350Y164246D01*
X20604Y164408D01*
X20843Y164591D01*
X21066Y164795D01*
X21270Y165017D01*
X21453Y165256D01*
X21615Y165511D01*
X21754Y165778D01*
X21870Y166057D01*
X21960Y166344D01*
X22026Y166639D01*
X22065Y166937D01*
X22078Y167239D01*
X22065Y167540D01*
X22026Y167839D01*
X21960Y168133D01*
X21870Y168421D01*
X21754Y168699D01*
X21615Y168967D01*
X21453Y169221D01*
X21270Y169460D01*
X21066Y169683D01*
X20843Y169886D01*
X20604Y170070D01*
X20350Y170232D01*
X20083Y170371D01*
X19804Y170486D01*
X19516Y170577D01*
X19222Y170642D01*
X18923Y170682D01*
X18622Y170695D01*
D02*
G37*
G36*
X67716Y162008D02*
X67497Y161994D01*
X67281Y161951D01*
X67072Y161880D01*
X66874Y161783D01*
X66691Y161660D01*
X66525Y161515D01*
X66380Y161349D01*
X66258Y161166D01*
X66160Y160968D01*
X66089Y160760D01*
X66046Y160544D01*
X66032Y160324D01*
X66046Y160104D01*
X66089Y159888D01*
X66160Y159679D01*
X66258Y159481D01*
X66380Y159298D01*
X66525Y159133D01*
X66691Y158987D01*
X66874Y158865D01*
X67072Y158767D01*
X67281Y158696D01*
X67497Y158653D01*
X67716Y158639D01*
X67936Y158653D01*
X68153Y158696D01*
X68361Y158767D01*
X68559Y158865D01*
X68742Y158987D01*
X68908Y159133D01*
X69053Y159298D01*
X69175Y159481D01*
X69273Y159679D01*
X69344Y159888D01*
X69387Y160104D01*
X69401Y160324D01*
X69387Y160544D01*
X69344Y160760D01*
X69273Y160968D01*
X69175Y161166D01*
X69053Y161349D01*
X68908Y161515D01*
X68742Y161660D01*
X68559Y161783D01*
X68361Y161880D01*
X68153Y161951D01*
X67936Y161994D01*
X67716Y162008D01*
D02*
G37*
G36*
X32075Y160691D02*
X25169D01*
Y153786D01*
X32075D01*
Y160691D01*
D02*
G37*
G36*
X18622Y160695D02*
X18321Y160682D01*
X18022Y160642D01*
X17728Y160577D01*
X17440Y160486D01*
X17161Y160371D01*
X16894Y160232D01*
X16640Y160070D01*
X16400Y159886D01*
X16178Y159683D01*
X15975Y159460D01*
X15791Y159221D01*
X15629Y158967D01*
X15490Y158699D01*
X15374Y158421D01*
X15284Y158133D01*
X15218Y157839D01*
X15179Y157540D01*
X15166Y157239D01*
X15179Y156938D01*
X15218Y156639D01*
X15284Y156344D01*
X15374Y156057D01*
X15490Y155778D01*
X15629Y155511D01*
X15791Y155256D01*
X15975Y155017D01*
X16178Y154795D01*
X16400Y154591D01*
X16640Y154408D01*
X16894Y154246D01*
X17161Y154106D01*
X17440Y153991D01*
X17728Y153901D01*
X18022Y153835D01*
X18321Y153796D01*
X18622Y153783D01*
X18923Y153796D01*
X19222Y153835D01*
X19516Y153901D01*
X19804Y153991D01*
X20083Y154106D01*
X20350Y154246D01*
X20604Y154408D01*
X20843Y154591D01*
X21066Y154795D01*
X21270Y155017D01*
X21453Y155256D01*
X21615Y155511D01*
X21754Y155778D01*
X21870Y156057D01*
X21960Y156344D01*
X22026Y156639D01*
X22065Y156938D01*
X22078Y157239D01*
X22065Y157540D01*
X22026Y157839D01*
X21960Y158133D01*
X21870Y158421D01*
X21754Y158699D01*
X21615Y158967D01*
X21453Y159221D01*
X21270Y159460D01*
X21066Y159683D01*
X20843Y159886D01*
X20604Y160070D01*
X20350Y160232D01*
X20083Y160371D01*
X19804Y160486D01*
X19516Y160577D01*
X19222Y160642D01*
X18923Y160682D01*
X18622Y160695D01*
D02*
G37*
G36*
X29122Y149371D02*
Y145950D01*
X32543D01*
X32519Y146137D01*
X32444Y146474D01*
X32340Y146803D01*
X32208Y147122D01*
X32048Y147429D01*
X31863Y147720D01*
X31653Y147994D01*
X31420Y148248D01*
X31165Y148481D01*
X30891Y148691D01*
X30600Y148877D01*
X30294Y149036D01*
X29975Y149168D01*
X29646Y149272D01*
X29309Y149347D01*
X29122Y149371D01*
D02*
G37*
G36*
X28122D02*
X27935Y149347D01*
X27598Y149272D01*
X27269Y149168D01*
X26950Y149036D01*
X26644Y148877D01*
X26353Y148691D01*
X26079Y148481D01*
X25824Y148248D01*
X25591Y147994D01*
X25381Y147720D01*
X25196Y147429D01*
X25036Y147122D01*
X24904Y146803D01*
X24800Y146474D01*
X24726Y146137D01*
X24701Y145950D01*
X28122D01*
Y149371D01*
D02*
G37*
G36*
X22075Y148903D02*
X15169D01*
Y141998D01*
X22075D01*
Y148903D01*
D02*
G37*
G36*
X32543Y144950D02*
X29122D01*
Y141529D01*
X29309Y141554D01*
X29646Y141629D01*
X29975Y141732D01*
X30294Y141865D01*
X30600Y142024D01*
X30891Y142209D01*
X31165Y142420D01*
X31420Y142653D01*
X31653Y142907D01*
X31863Y143181D01*
X32048Y143472D01*
X32208Y143778D01*
X32340Y144097D01*
X32444Y144426D01*
X32519Y144763D01*
X32543Y144950D01*
D02*
G37*
G36*
X28122D02*
X24701D01*
X24726Y144763D01*
X24800Y144426D01*
X24904Y144097D01*
X25036Y143778D01*
X25196Y143472D01*
X25381Y143181D01*
X25591Y142907D01*
X25824Y142653D01*
X26079Y142420D01*
X26353Y142209D01*
X26644Y142024D01*
X26950Y141865D01*
X27269Y141732D01*
X27598Y141629D01*
X27935Y141554D01*
X28122Y141529D01*
Y144950D01*
D02*
G37*
G36*
X38583Y143220D02*
X38363Y143206D01*
X38147Y143163D01*
X37938Y143092D01*
X37740Y142994D01*
X37557Y142872D01*
X37391Y142727D01*
X37246Y142561D01*
X37124Y142378D01*
X37026Y142180D01*
X36955Y141972D01*
X36912Y141755D01*
X36898Y141535D01*
X36912Y141315D01*
X36955Y141099D01*
X37026Y140891D01*
X37124Y140693D01*
X37246Y140510D01*
X37391Y140344D01*
X37557Y140199D01*
X37740Y140076D01*
X37938Y139979D01*
X38147Y139908D01*
X38363Y139865D01*
X38583Y139851D01*
X38803Y139865D01*
X39019Y139908D01*
X39227Y139979D01*
X39425Y140076D01*
X39608Y140199D01*
X39774Y140344D01*
X39919Y140510D01*
X40042Y140693D01*
X40139Y140891D01*
X40210Y141099D01*
X40253Y141315D01*
X40267Y141535D01*
X40253Y141755D01*
X40210Y141972D01*
X40139Y142180D01*
X40042Y142378D01*
X39919Y142561D01*
X39774Y142727D01*
X39608Y142872D01*
X39425Y142994D01*
X39227Y143092D01*
X39019Y143163D01*
X38803Y143206D01*
X38583Y143220D01*
D02*
G37*
G36*
X178728Y139370D02*
Y135949D01*
X182149D01*
X182125Y136136D01*
X182050Y136473D01*
X181946Y136802D01*
X181814Y137121D01*
X181655Y137427D01*
X181469Y137718D01*
X181259Y137992D01*
X181026Y138247D01*
X180772Y138480D01*
X180498Y138690D01*
X180207Y138875D01*
X179901Y139035D01*
X179582Y139167D01*
X179252Y139270D01*
X178915Y139345D01*
X178728Y139370D01*
D02*
G37*
G36*
X28622Y138906D02*
X28321Y138893D01*
X28022Y138854D01*
X27728Y138789D01*
X27440Y138698D01*
X27161Y138583D01*
X26894Y138443D01*
X26640Y138281D01*
X26401Y138098D01*
X26178Y137894D01*
X25975Y137672D01*
X25791Y137433D01*
X25629Y137178D01*
X25490Y136911D01*
X25374Y136632D01*
X25284Y136345D01*
X25218Y136050D01*
X25179Y135751D01*
X25166Y135450D01*
X25179Y135149D01*
X25218Y134850D01*
X25284Y134556D01*
X25374Y134268D01*
X25490Y133990D01*
X25629Y133722D01*
X25791Y133468D01*
X25975Y133229D01*
X26178Y133007D01*
X26401Y132803D01*
X26640Y132619D01*
X26894Y132457D01*
X27161Y132318D01*
X27440Y132203D01*
X27728Y132112D01*
X28022Y132047D01*
X28321Y132007D01*
X28622Y131994D01*
X28923Y132007D01*
X29222Y132047D01*
X29517Y132112D01*
X29804Y132203D01*
X30083Y132318D01*
X30350Y132457D01*
X30604Y132619D01*
X30844Y132803D01*
X31066Y133007D01*
X31269Y133229D01*
X31453Y133468D01*
X31615Y133722D01*
X31754Y133990D01*
X31870Y134268D01*
X31960Y134556D01*
X32026Y134850D01*
X32065Y135149D01*
X32078Y135450D01*
X32065Y135751D01*
X32026Y136050D01*
X31960Y136345D01*
X31870Y136632D01*
X31754Y136911D01*
X31615Y137178D01*
X31453Y137433D01*
X31269Y137672D01*
X31066Y137894D01*
X30844Y138098D01*
X30604Y138281D01*
X30350Y138443D01*
X30083Y138583D01*
X29804Y138698D01*
X29517Y138789D01*
X29222Y138854D01*
X28923Y138893D01*
X28622Y138906D01*
D02*
G37*
G36*
X18622D02*
X18321Y138893D01*
X18022Y138854D01*
X17728Y138789D01*
X17440Y138698D01*
X17162Y138583D01*
X16894Y138443D01*
X16640Y138281D01*
X16401Y138098D01*
X16178Y137894D01*
X15975Y137672D01*
X15791Y137433D01*
X15629Y137178D01*
X15490Y136911D01*
X15374Y136632D01*
X15284Y136345D01*
X15218Y136050D01*
X15179Y135751D01*
X15166Y135450D01*
X15179Y135149D01*
X15218Y134850D01*
X15284Y134556D01*
X15374Y134268D01*
X15490Y133990D01*
X15629Y133722D01*
X15791Y133468D01*
X15975Y133229D01*
X16178Y133007D01*
X16401Y132803D01*
X16640Y132619D01*
X16894Y132457D01*
X17162Y132318D01*
X17440Y132203D01*
X17728Y132112D01*
X18022Y132047D01*
X18321Y132007D01*
X18622Y131994D01*
X18923Y132007D01*
X19222Y132047D01*
X19517Y132112D01*
X19804Y132203D01*
X20083Y132318D01*
X20350Y132457D01*
X20604Y132619D01*
X20844Y132803D01*
X21066Y133007D01*
X21270Y133229D01*
X21453Y133468D01*
X21615Y133722D01*
X21754Y133990D01*
X21870Y134268D01*
X21960Y134556D01*
X22026Y134850D01*
X22065Y135149D01*
X22078Y135450D01*
X22065Y135751D01*
X22026Y136050D01*
X21960Y136345D01*
X21870Y136632D01*
X21754Y136911D01*
X21615Y137178D01*
X21453Y137433D01*
X21270Y137672D01*
X21066Y137894D01*
X20844Y138098D01*
X20604Y138281D01*
X20350Y138443D01*
X20083Y138583D01*
X19804Y138698D01*
X19517Y138789D01*
X19222Y138854D01*
X18923Y138893D01*
X18622Y138906D01*
D02*
G37*
G36*
X182149Y134949D02*
X178728D01*
Y131528D01*
X178915Y131552D01*
X179252Y131627D01*
X179582Y131731D01*
X179901Y131863D01*
X180207Y132022D01*
X180498Y132208D01*
X180772Y132418D01*
X181026Y132651D01*
X181259Y132906D01*
X181469Y133179D01*
X181655Y133471D01*
X181814Y133777D01*
X181946Y134096D01*
X182050Y134425D01*
X182125Y134762D01*
X182149Y134949D01*
D02*
G37*
G36*
X28622Y128906D02*
X28321Y128893D01*
X28022Y128854D01*
X27728Y128789D01*
X27440Y128698D01*
X27161Y128583D01*
X26894Y128443D01*
X26640Y128281D01*
X26401Y128098D01*
X26178Y127894D01*
X25975Y127672D01*
X25791Y127433D01*
X25629Y127178D01*
X25490Y126911D01*
X25374Y126632D01*
X25284Y126345D01*
X25218Y126050D01*
X25179Y125751D01*
X25166Y125450D01*
X25179Y125149D01*
X25218Y124850D01*
X25284Y124556D01*
X25374Y124268D01*
X25490Y123990D01*
X25629Y123722D01*
X25791Y123468D01*
X25975Y123229D01*
X26178Y123006D01*
X26401Y122803D01*
X26640Y122619D01*
X26894Y122457D01*
X27161Y122318D01*
X27440Y122203D01*
X27728Y122112D01*
X28022Y122047D01*
X28321Y122007D01*
X28622Y121994D01*
X28923Y122007D01*
X29222Y122047D01*
X29517Y122112D01*
X29804Y122203D01*
X30083Y122318D01*
X30350Y122457D01*
X30604Y122619D01*
X30844Y122803D01*
X31066Y123006D01*
X31269Y123229D01*
X31453Y123468D01*
X31615Y123722D01*
X31754Y123990D01*
X31870Y124268D01*
X31960Y124556D01*
X32026Y124850D01*
X32065Y125149D01*
X32078Y125450D01*
X32065Y125751D01*
X32026Y126050D01*
X31960Y126345D01*
X31870Y126632D01*
X31754Y126911D01*
X31615Y127178D01*
X31453Y127433D01*
X31269Y127672D01*
X31066Y127894D01*
X30844Y128098D01*
X30604Y128281D01*
X30350Y128443D01*
X30083Y128583D01*
X29804Y128698D01*
X29517Y128789D01*
X29222Y128854D01*
X28923Y128893D01*
X28622Y128906D01*
D02*
G37*
G36*
X18622D02*
X18321Y128893D01*
X18022Y128854D01*
X17728Y128789D01*
X17440Y128698D01*
X17162Y128583D01*
X16894Y128443D01*
X16640Y128281D01*
X16401Y128098D01*
X16178Y127894D01*
X15975Y127672D01*
X15791Y127433D01*
X15629Y127178D01*
X15490Y126911D01*
X15374Y126632D01*
X15284Y126345D01*
X15218Y126050D01*
X15179Y125751D01*
X15166Y125450D01*
X15179Y125149D01*
X15218Y124850D01*
X15284Y124556D01*
X15374Y124268D01*
X15490Y123990D01*
X15629Y123722D01*
X15791Y123468D01*
X15975Y123229D01*
X16178Y123006D01*
X16401Y122803D01*
X16640Y122619D01*
X16894Y122457D01*
X17162Y122318D01*
X17440Y122203D01*
X17728Y122112D01*
X18022Y122047D01*
X18321Y122007D01*
X18622Y121994D01*
X18923Y122007D01*
X19222Y122047D01*
X19517Y122112D01*
X19804Y122203D01*
X20083Y122318D01*
X20350Y122457D01*
X20604Y122619D01*
X20844Y122803D01*
X21066Y123006D01*
X21270Y123229D01*
X21453Y123468D01*
X21615Y123722D01*
X21754Y123990D01*
X21870Y124268D01*
X21960Y124556D01*
X22026Y124850D01*
X22065Y125149D01*
X22078Y125450D01*
X22065Y125751D01*
X22026Y126050D01*
X21960Y126345D01*
X21870Y126632D01*
X21754Y126911D01*
X21615Y127178D01*
X21453Y127433D01*
X21270Y127672D01*
X21066Y127894D01*
X20844Y128098D01*
X20604Y128281D01*
X20350Y128443D01*
X20083Y128583D01*
X19804Y128698D01*
X19517Y128789D01*
X19222Y128854D01*
X18923Y128893D01*
X18622Y128906D01*
D02*
G37*
G36*
X59439Y113496D02*
X59219Y113481D01*
X59003Y113438D01*
X58794Y113367D01*
X58596Y113270D01*
X58413Y113148D01*
X58247Y113002D01*
X58102Y112837D01*
X57980Y112653D01*
X57882Y112456D01*
X57811Y112247D01*
X57768Y112031D01*
X57754Y111811D01*
X57768Y111591D01*
X57811Y111375D01*
X57882Y111166D01*
X57980Y110969D01*
X58102Y110785D01*
X58247Y110620D01*
X58413Y110475D01*
X58596Y110352D01*
X58794Y110255D01*
X59003Y110184D01*
X59219Y110141D01*
X59439Y110126D01*
X59659Y110141D01*
X59875Y110184D01*
X60083Y110255D01*
X60281Y110352D01*
X60464Y110475D01*
X60630Y110620D01*
X60775Y110785D01*
X60898Y110969D01*
X60995Y111166D01*
X61066Y111375D01*
X61109Y111591D01*
X61123Y111811D01*
X61109Y112031D01*
X61066Y112247D01*
X60995Y112456D01*
X60898Y112653D01*
X60775Y112837D01*
X60630Y113002D01*
X60464Y113148D01*
X60281Y113270D01*
X60083Y113367D01*
X59875Y113438D01*
X59659Y113481D01*
X59439Y113496D01*
D02*
G37*
G36*
X48819Y100601D02*
X48599Y100587D01*
X48383Y100544D01*
X48174Y100473D01*
X47976Y100375D01*
X47793Y100253D01*
X47628Y100108D01*
X47482Y99942D01*
X47360Y99759D01*
X47262Y99561D01*
X47192Y99352D01*
X47149Y99136D01*
X47134Y98916D01*
X47149Y98697D01*
X47192Y98480D01*
X47262Y98272D01*
X47360Y98074D01*
X47482Y97891D01*
X47628Y97725D01*
X47793Y97580D01*
X47976Y97457D01*
X48174Y97360D01*
X48383Y97289D01*
X48599Y97246D01*
X48819Y97232D01*
X49039Y97246D01*
X49255Y97289D01*
X49464Y97360D01*
X49661Y97457D01*
X49845Y97580D01*
X50010Y97725D01*
X50156Y97891D01*
X50278Y98074D01*
X50375Y98272D01*
X50446Y98480D01*
X50489Y98697D01*
X50504Y98916D01*
X50489Y99136D01*
X50446Y99352D01*
X50375Y99561D01*
X50278Y99759D01*
X50156Y99942D01*
X50010Y100108D01*
X49845Y100253D01*
X49661Y100375D01*
X49464Y100473D01*
X49255Y100544D01*
X49039Y100587D01*
X48819Y100601D01*
D02*
G37*
G36*
X40192Y95236D02*
Y93610D01*
X41818D01*
X41754Y93832D01*
X41660Y94058D01*
X41541Y94273D01*
X41400Y94472D01*
X41236Y94655D01*
X41054Y94818D01*
X40854Y94960D01*
X40640Y95078D01*
X40413Y95172D01*
X40192Y95236D01*
D02*
G37*
G36*
X58949Y94098D02*
X58727Y94034D01*
X58501Y93940D01*
X58287Y93822D01*
X58087Y93680D01*
X57904Y93517D01*
X57741Y93334D01*
X57599Y93134D01*
X57481Y92920D01*
X57387Y92694D01*
X57323Y92472D01*
X58949D01*
Y94098D01*
D02*
G37*
G36*
X41818Y92610D02*
X40192D01*
Y90984D01*
X40413Y91048D01*
X40640Y91142D01*
X40854Y91261D01*
X41054Y91402D01*
X41236Y91566D01*
X41400Y91748D01*
X41541Y91948D01*
X41660Y92162D01*
X41754Y92389D01*
X41818Y92610D01*
D02*
G37*
G36*
X58949Y91472D02*
X57323D01*
X57387Y91250D01*
X57481Y91024D01*
X57599Y90810D01*
X57741Y90610D01*
X57904Y90427D01*
X58087Y90264D01*
X58287Y90122D01*
X58501Y90004D01*
X58727Y89910D01*
X58949Y89846D01*
Y91472D01*
D02*
G37*
G36*
X28622Y66133D02*
X28321Y66120D01*
X28022Y66081D01*
X27728Y66015D01*
X27440Y65925D01*
X27161Y65809D01*
X26894Y65670D01*
X26640Y65508D01*
X26401Y65325D01*
X26178Y65121D01*
X25975Y64899D01*
X25791Y64660D01*
X25629Y64405D01*
X25490Y64138D01*
X25374Y63859D01*
X25284Y63572D01*
X25218Y63277D01*
X25179Y62978D01*
X25166Y62677D01*
X25179Y62376D01*
X25218Y62077D01*
X25284Y61783D01*
X25374Y61495D01*
X25490Y61217D01*
X25629Y60949D01*
X25791Y60695D01*
X25975Y60456D01*
X26178Y60233D01*
X26401Y60030D01*
X26640Y59846D01*
X26894Y59684D01*
X27161Y59545D01*
X27440Y59430D01*
X27728Y59339D01*
X28022Y59274D01*
X28321Y59234D01*
X28622Y59221D01*
X28923Y59234D01*
X29222Y59274D01*
X29517Y59339D01*
X29804Y59430D01*
X30083Y59545D01*
X30350Y59684D01*
X30604Y59846D01*
X30844Y60030D01*
X31066Y60233D01*
X31269Y60456D01*
X31453Y60695D01*
X31615Y60949D01*
X31754Y61217D01*
X31870Y61495D01*
X31960Y61783D01*
X32026Y62077D01*
X32065Y62376D01*
X32078Y62677D01*
X32065Y62978D01*
X32026Y63277D01*
X31960Y63572D01*
X31870Y63859D01*
X31754Y64138D01*
X31615Y64405D01*
X31453Y64660D01*
X31269Y64899D01*
X31066Y65121D01*
X30844Y65325D01*
X30604Y65508D01*
X30350Y65670D01*
X30083Y65809D01*
X29804Y65925D01*
X29517Y66015D01*
X29222Y66081D01*
X28923Y66120D01*
X28622Y66133D01*
D02*
G37*
G36*
Y56133D02*
X28321Y56120D01*
X28022Y56081D01*
X27728Y56015D01*
X27440Y55925D01*
X27161Y55809D01*
X26894Y55670D01*
X26640Y55508D01*
X26401Y55325D01*
X26178Y55121D01*
X25975Y54899D01*
X25791Y54659D01*
X25629Y54405D01*
X25490Y54138D01*
X25374Y53859D01*
X25284Y53572D01*
X25218Y53277D01*
X25179Y52978D01*
X25166Y52677D01*
X25179Y52376D01*
X25218Y52077D01*
X25284Y51783D01*
X25374Y51495D01*
X25490Y51217D01*
X25629Y50949D01*
X25791Y50695D01*
X25975Y50456D01*
X26178Y50233D01*
X26401Y50030D01*
X26640Y49846D01*
X26894Y49684D01*
X27161Y49545D01*
X27440Y49430D01*
X27728Y49339D01*
X28022Y49274D01*
X28321Y49234D01*
X28622Y49221D01*
X28923Y49234D01*
X29222Y49274D01*
X29517Y49339D01*
X29804Y49430D01*
X30083Y49545D01*
X30350Y49684D01*
X30604Y49846D01*
X30844Y50030D01*
X31066Y50233D01*
X31269Y50456D01*
X31453Y50695D01*
X31615Y50949D01*
X31754Y51217D01*
X31870Y51495D01*
X31960Y51783D01*
X32026Y52077D01*
X32065Y52376D01*
X32078Y52677D01*
X32065Y52978D01*
X32026Y53277D01*
X31960Y53572D01*
X31870Y53859D01*
X31754Y54138D01*
X31615Y54405D01*
X31453Y54659D01*
X31269Y54899D01*
X31066Y55121D01*
X30844Y55325D01*
X30604Y55508D01*
X30350Y55670D01*
X30083Y55809D01*
X29804Y55925D01*
X29517Y56015D01*
X29222Y56081D01*
X28923Y56120D01*
X28622Y56133D01*
D02*
G37*
G36*
X18622D02*
X18321Y56120D01*
X18022Y56081D01*
X17728Y56015D01*
X17440Y55925D01*
X17162Y55809D01*
X16894Y55670D01*
X16640Y55508D01*
X16401Y55325D01*
X16178Y55121D01*
X15975Y54899D01*
X15791Y54659D01*
X15629Y54405D01*
X15490Y54138D01*
X15374Y53859D01*
X15284Y53572D01*
X15218Y53277D01*
X15179Y52978D01*
X15166Y52677D01*
X15179Y52376D01*
X15218Y52077D01*
X15284Y51783D01*
X15374Y51495D01*
X15490Y51217D01*
X15629Y50949D01*
X15791Y50695D01*
X15975Y50456D01*
X16178Y50233D01*
X16401Y50030D01*
X16640Y49846D01*
X16894Y49684D01*
X17162Y49545D01*
X17440Y49430D01*
X17728Y49339D01*
X18022Y49274D01*
X18321Y49234D01*
X18622Y49221D01*
X18923Y49234D01*
X19222Y49274D01*
X19517Y49339D01*
X19804Y49430D01*
X20083Y49545D01*
X20350Y49684D01*
X20604Y49846D01*
X20844Y50030D01*
X21066Y50233D01*
X21270Y50456D01*
X21453Y50695D01*
X21615Y50949D01*
X21754Y51217D01*
X21870Y51495D01*
X21960Y51783D01*
X22026Y52077D01*
X22065Y52376D01*
X22078Y52677D01*
X22065Y52978D01*
X22026Y53277D01*
X21960Y53572D01*
X21870Y53859D01*
X21754Y54138D01*
X21615Y54405D01*
X21453Y54659D01*
X21270Y54899D01*
X21066Y55121D01*
X20844Y55325D01*
X20604Y55508D01*
X20350Y55670D01*
X20083Y55809D01*
X19804Y55925D01*
X19517Y56015D01*
X19222Y56081D01*
X18923Y56120D01*
X18622Y56133D01*
D02*
G37*
G36*
X98432Y44362D02*
X98212Y44348D01*
X97996Y44304D01*
X97787Y44234D01*
X97589Y44136D01*
X97406Y44014D01*
X97172Y43868D01*
X96829D01*
X96595Y44014D01*
X96412Y44136D01*
X96214Y44234D01*
X96005Y44304D01*
X95789Y44348D01*
X95569Y44362D01*
X95350Y44348D01*
X95133Y44304D01*
X94925Y44234D01*
X94727Y44136D01*
X94544Y44014D01*
X94378Y43868D01*
X94233Y43703D01*
X94110Y43519D01*
X94013Y43322D01*
X93942Y43113D01*
X93899Y42897D01*
X93885Y42677D01*
X93899Y42457D01*
X93942Y42241D01*
X94013Y42033D01*
X94110Y41835D01*
X94233Y41652D01*
X94378Y41486D01*
X94544Y41341D01*
X94727Y41218D01*
X94925Y41121D01*
X95133Y41050D01*
X95350Y41007D01*
X95569Y40993D01*
X95789Y41007D01*
X96005Y41050D01*
X96214Y41121D01*
X96412Y41218D01*
X96595Y41341D01*
X96829Y41486D01*
X97172D01*
X97406Y41341D01*
X97589Y41218D01*
X97787Y41121D01*
X97996Y41050D01*
X98212Y41007D01*
X98432Y40993D01*
X98651Y41007D01*
X98868Y41050D01*
X99076Y41121D01*
X99274Y41218D01*
X99457Y41341D01*
X99623Y41486D01*
X99768Y41652D01*
X99891Y41835D01*
X99988Y42033D01*
X100059Y42241D01*
X100102Y42457D01*
X100116Y42677D01*
X100102Y42897D01*
X100059Y43113D01*
X99988Y43322D01*
X99891Y43519D01*
X99768Y43703D01*
X99623Y43868D01*
X99457Y44014D01*
X99274Y44136D01*
X99076Y44234D01*
X98868Y44304D01*
X98651Y44348D01*
X98432Y44362D01*
D02*
G37*
G36*
X178728Y46598D02*
Y43177D01*
X182149D01*
X182125Y43364D01*
X182050Y43701D01*
X181946Y44030D01*
X181814Y44349D01*
X181655Y44655D01*
X181469Y44947D01*
X181259Y45220D01*
X181026Y45475D01*
X180772Y45708D01*
X180498Y45918D01*
X180207Y46104D01*
X179901Y46263D01*
X179582Y46395D01*
X179252Y46499D01*
X178915Y46574D01*
X178728Y46598D01*
D02*
G37*
G36*
X29122D02*
Y43177D01*
X32543D01*
X32519Y43364D01*
X32444Y43701D01*
X32340Y44030D01*
X32208Y44349D01*
X32048Y44655D01*
X31863Y44947D01*
X31653Y45220D01*
X31420Y45475D01*
X31165Y45708D01*
X30891Y45918D01*
X30600Y46104D01*
X30294Y46263D01*
X29975Y46395D01*
X29646Y46499D01*
X29309Y46574D01*
X29122Y46598D01*
D02*
G37*
G36*
X28122D02*
X27935Y46574D01*
X27598Y46499D01*
X27269Y46395D01*
X26950Y46263D01*
X26644Y46104D01*
X26353Y45918D01*
X26079Y45708D01*
X25824Y45475D01*
X25591Y45220D01*
X25381Y44947D01*
X25196Y44655D01*
X25036Y44349D01*
X24904Y44030D01*
X24800Y43701D01*
X24726Y43364D01*
X24701Y43177D01*
X28122D01*
Y46598D01*
D02*
G37*
G36*
X18622Y46133D02*
X18321Y46120D01*
X18022Y46081D01*
X17728Y46015D01*
X17440Y45925D01*
X17162Y45809D01*
X16894Y45670D01*
X16640Y45508D01*
X16401Y45325D01*
X16178Y45121D01*
X15975Y44899D01*
X15791Y44660D01*
X15629Y44405D01*
X15490Y44138D01*
X15374Y43859D01*
X15284Y43572D01*
X15218Y43277D01*
X15179Y42978D01*
X15166Y42677D01*
X15179Y42376D01*
X15218Y42077D01*
X15284Y41783D01*
X15374Y41495D01*
X15490Y41217D01*
X15629Y40949D01*
X15791Y40695D01*
X15975Y40456D01*
X16178Y40233D01*
X16401Y40030D01*
X16640Y39846D01*
X16894Y39684D01*
X17162Y39545D01*
X17440Y39430D01*
X17728Y39339D01*
X18022Y39274D01*
X18321Y39234D01*
X18622Y39221D01*
X18923Y39234D01*
X19222Y39274D01*
X19517Y39339D01*
X19804Y39430D01*
X20083Y39545D01*
X20350Y39684D01*
X20604Y39846D01*
X20844Y40030D01*
X21066Y40233D01*
X21270Y40456D01*
X21453Y40695D01*
X21615Y40949D01*
X21754Y41217D01*
X21870Y41495D01*
X21960Y41783D01*
X22026Y42077D01*
X22065Y42376D01*
X22078Y42677D01*
X22065Y42978D01*
X22026Y43277D01*
X21960Y43572D01*
X21870Y43859D01*
X21754Y44138D01*
X21615Y44405D01*
X21453Y44660D01*
X21270Y44899D01*
X21066Y45121D01*
X20844Y45325D01*
X20604Y45508D01*
X20350Y45670D01*
X20083Y45809D01*
X19804Y45925D01*
X19517Y46015D01*
X19222Y46081D01*
X18923Y46120D01*
X18622Y46133D01*
D02*
G37*
G36*
X182149Y42177D02*
X178728D01*
Y38756D01*
X178915Y38781D01*
X179252Y38855D01*
X179582Y38959D01*
X179901Y39091D01*
X180207Y39251D01*
X180498Y39436D01*
X180772Y39646D01*
X181026Y39880D01*
X181259Y40134D01*
X181469Y40408D01*
X181655Y40699D01*
X181814Y41005D01*
X181946Y41324D01*
X182050Y41653D01*
X182125Y41990D01*
X182149Y42177D01*
D02*
G37*
G36*
X32543D02*
X29122D01*
Y38756D01*
X29309Y38781D01*
X29646Y38855D01*
X29975Y38959D01*
X30294Y39091D01*
X30600Y39251D01*
X30891Y39436D01*
X31165Y39646D01*
X31420Y39880D01*
X31653Y40134D01*
X31863Y40408D01*
X32048Y40699D01*
X32208Y41005D01*
X32340Y41324D01*
X32444Y41653D01*
X32519Y41990D01*
X32543Y42177D01*
D02*
G37*
G36*
X28122D02*
X24701D01*
X24726Y41990D01*
X24800Y41653D01*
X24904Y41324D01*
X25036Y41005D01*
X25196Y40699D01*
X25381Y40408D01*
X25591Y40134D01*
X25824Y39880D01*
X26079Y39646D01*
X26353Y39436D01*
X26644Y39251D01*
X26950Y39091D01*
X27269Y38959D01*
X27598Y38855D01*
X27935Y38781D01*
X28122Y38756D01*
Y42177D01*
D02*
G37*
G36*
X104724Y37932D02*
X104505Y37918D01*
X104288Y37875D01*
X104080Y37804D01*
X103882Y37707D01*
X103699Y37584D01*
X103533Y37439D01*
X103388Y37273D01*
X103265Y37090D01*
X103168Y36892D01*
X103097Y36684D01*
X103054Y36467D01*
X103040Y36248D01*
X103054Y36028D01*
X103097Y35811D01*
X103168Y35603D01*
X103265Y35405D01*
X103388Y35222D01*
X103533Y35056D01*
X103699Y34911D01*
X103882Y34789D01*
X104080Y34691D01*
X104288Y34620D01*
X104505Y34577D01*
X104724Y34563D01*
X104944Y34577D01*
X105160Y34620D01*
X105369Y34691D01*
X105567Y34789D01*
X105750Y34911D01*
X105916Y35056D01*
X106061Y35222D01*
X106183Y35405D01*
X106281Y35603D01*
X106352Y35811D01*
X106395Y36028D01*
X106409Y36248D01*
X106395Y36467D01*
X106352Y36684D01*
X106281Y36892D01*
X106183Y37090D01*
X106061Y37273D01*
X105916Y37439D01*
X105750Y37584D01*
X105567Y37707D01*
X105369Y37804D01*
X105160Y37875D01*
X104944Y37918D01*
X104724Y37932D01*
D02*
G37*
G36*
X60630Y34862D02*
X60410Y34848D01*
X60194Y34804D01*
X59985Y34734D01*
X59788Y34636D01*
X59604Y34514D01*
X59439Y34368D01*
X59293Y34203D01*
X59171Y34020D01*
X59074Y33822D01*
X59003Y33613D01*
X58960Y33397D01*
X58945Y33177D01*
X58960Y32957D01*
X59003Y32741D01*
X59074Y32533D01*
X59171Y32335D01*
X59293Y32152D01*
X59439Y31986D01*
X59604Y31841D01*
X59788Y31718D01*
X59985Y31621D01*
X60194Y31550D01*
X60410Y31507D01*
X60630Y31492D01*
X60850Y31507D01*
X61066Y31550D01*
X61275Y31621D01*
X61472Y31718D01*
X61655Y31841D01*
X61821Y31986D01*
X61967Y32152D01*
X62089Y32335D01*
X62186Y32533D01*
X62257Y32741D01*
X62300Y32957D01*
X62315Y33177D01*
X62300Y33397D01*
X62257Y33613D01*
X62186Y33822D01*
X62089Y34020D01*
X61967Y34203D01*
X61821Y34368D01*
X61655Y34514D01*
X61472Y34636D01*
X61275Y34734D01*
X61066Y34804D01*
X60850Y34848D01*
X60630Y34862D01*
D02*
G37*
G36*
X157244Y33113D02*
X155618D01*
Y31487D01*
X155840Y31551D01*
X156066Y31645D01*
X156280Y31763D01*
X156480Y31905D01*
X156663Y32068D01*
X156826Y32251D01*
X156968Y32451D01*
X157086Y32665D01*
X157180Y32892D01*
X157244Y33113D01*
D02*
G37*
G36*
X154618D02*
X152992D01*
X153056Y32892D01*
X153150Y32665D01*
X153268Y32451D01*
X153410Y32251D01*
X153573Y32068D01*
X153756Y31905D01*
X153956Y31763D01*
X154170Y31645D01*
X154397Y31551D01*
X154618Y31487D01*
Y33113D01*
D02*
G37*
G36*
X125537Y34756D02*
X125317Y34741D01*
X125101Y34698D01*
X124892Y34627D01*
X124695Y34530D01*
X124511Y34407D01*
X124346Y34262D01*
X124200Y34097D01*
X124078Y33913D01*
X123980Y33716D01*
X123909Y33507D01*
X123866Y33291D01*
X123852Y33071D01*
X123866Y32851D01*
X123909Y32635D01*
X123980Y32426D01*
X124078Y32228D01*
X124200Y32045D01*
X124346Y31880D01*
X124511Y31734D01*
X124695Y31612D01*
X124892Y31514D01*
X125101Y31444D01*
X125317Y31401D01*
X125537Y31386D01*
X125757Y31401D01*
X125973Y31444D01*
X126181Y31514D01*
X126379Y31612D01*
X126562Y31734D01*
X126728Y31880D01*
X126873Y32045D01*
X126996Y32228D01*
X127093Y32426D01*
X127164Y32635D01*
X127207Y32851D01*
X127222Y33071D01*
X127207Y33291D01*
X127164Y33507D01*
X127093Y33716D01*
X126996Y33913D01*
X126873Y34097D01*
X126728Y34262D01*
X126562Y34407D01*
X126379Y34530D01*
X126181Y34627D01*
X125973Y34698D01*
X125757Y34741D01*
X125537Y34756D01*
D02*
G37*
G36*
X178228Y36133D02*
X177927Y36120D01*
X177628Y36081D01*
X177334Y36015D01*
X177046Y35925D01*
X176768Y35809D01*
X176500Y35670D01*
X176246Y35508D01*
X176007Y35325D01*
X175785Y35121D01*
X175581Y34899D01*
X175397Y34659D01*
X175235Y34405D01*
X175096Y34138D01*
X174981Y33859D01*
X174890Y33572D01*
X174825Y33277D01*
X174785Y32978D01*
X174772Y32677D01*
X174785Y32376D01*
X174825Y32077D01*
X174890Y31783D01*
X174981Y31495D01*
X175096Y31217D01*
X175235Y30949D01*
X175397Y30695D01*
X175581Y30456D01*
X175785Y30233D01*
X176007Y30030D01*
X176246Y29846D01*
X176500Y29684D01*
X176768Y29545D01*
X177046Y29430D01*
X177334Y29339D01*
X177628Y29274D01*
X177927Y29234D01*
X178228Y29221D01*
X178530Y29234D01*
X178829Y29274D01*
X179123Y29339D01*
X179410Y29430D01*
X179689Y29545D01*
X179956Y29684D01*
X180211Y29846D01*
X180450Y30030D01*
X180672Y30233D01*
X180876Y30456D01*
X181059Y30695D01*
X181221Y30949D01*
X181361Y31217D01*
X181476Y31495D01*
X181567Y31783D01*
X181632Y32077D01*
X181671Y32376D01*
X181684Y32677D01*
X181671Y32978D01*
X181632Y33277D01*
X181567Y33572D01*
X181476Y33859D01*
X181361Y34138D01*
X181221Y34405D01*
X181059Y34659D01*
X180876Y34899D01*
X180672Y35121D01*
X180450Y35325D01*
X180211Y35508D01*
X179956Y35670D01*
X179689Y35809D01*
X179410Y35925D01*
X179123Y36015D01*
X178829Y36081D01*
X178530Y36120D01*
X178228Y36133D01*
D02*
G37*
G36*
X28622D02*
X28321Y36120D01*
X28022Y36081D01*
X27728Y36015D01*
X27440Y35925D01*
X27161Y35809D01*
X26894Y35670D01*
X26640Y35508D01*
X26401Y35325D01*
X26178Y35121D01*
X25975Y34899D01*
X25791Y34659D01*
X25629Y34405D01*
X25490Y34138D01*
X25374Y33859D01*
X25284Y33572D01*
X25218Y33277D01*
X25179Y32978D01*
X25166Y32677D01*
X25179Y32376D01*
X25218Y32077D01*
X25284Y31783D01*
X25374Y31495D01*
X25490Y31217D01*
X25629Y30949D01*
X25791Y30695D01*
X25975Y30456D01*
X26178Y30233D01*
X26401Y30030D01*
X26640Y29846D01*
X26894Y29684D01*
X27161Y29545D01*
X27440Y29430D01*
X27728Y29339D01*
X28022Y29274D01*
X28321Y29234D01*
X28622Y29221D01*
X28923Y29234D01*
X29222Y29274D01*
X29517Y29339D01*
X29804Y29430D01*
X30083Y29545D01*
X30350Y29684D01*
X30604Y29846D01*
X30844Y30030D01*
X31066Y30233D01*
X31269Y30456D01*
X31453Y30695D01*
X31615Y30949D01*
X31754Y31217D01*
X31870Y31495D01*
X31960Y31783D01*
X32026Y32077D01*
X32065Y32376D01*
X32078Y32677D01*
X32065Y32978D01*
X32026Y33277D01*
X31960Y33572D01*
X31870Y33859D01*
X31754Y34138D01*
X31615Y34405D01*
X31453Y34659D01*
X31269Y34899D01*
X31066Y35121D01*
X30844Y35325D01*
X30604Y35508D01*
X30350Y35670D01*
X30083Y35809D01*
X29804Y35925D01*
X29517Y36015D01*
X29222Y36081D01*
X28923Y36120D01*
X28622Y36133D01*
D02*
G37*
G36*
X18622D02*
X18321Y36120D01*
X18022Y36081D01*
X17728Y36015D01*
X17440Y35925D01*
X17162Y35809D01*
X16894Y35670D01*
X16640Y35508D01*
X16401Y35325D01*
X16178Y35121D01*
X15975Y34899D01*
X15791Y34659D01*
X15629Y34405D01*
X15490Y34138D01*
X15374Y33859D01*
X15284Y33572D01*
X15218Y33277D01*
X15179Y32978D01*
X15166Y32677D01*
X15179Y32376D01*
X15218Y32077D01*
X15284Y31783D01*
X15374Y31495D01*
X15490Y31217D01*
X15629Y30949D01*
X15791Y30695D01*
X15975Y30456D01*
X16178Y30233D01*
X16401Y30030D01*
X16640Y29846D01*
X16894Y29684D01*
X17162Y29545D01*
X17440Y29430D01*
X17728Y29339D01*
X18022Y29274D01*
X18321Y29234D01*
X18622Y29221D01*
X18923Y29234D01*
X19222Y29274D01*
X19517Y29339D01*
X19804Y29430D01*
X20083Y29545D01*
X20350Y29684D01*
X20604Y29846D01*
X20844Y30030D01*
X21066Y30233D01*
X21270Y30456D01*
X21453Y30695D01*
X21615Y30949D01*
X21754Y31217D01*
X21870Y31495D01*
X21960Y31783D01*
X22026Y32077D01*
X22065Y32376D01*
X22078Y32677D01*
X22065Y32978D01*
X22026Y33277D01*
X21960Y33572D01*
X21870Y33859D01*
X21754Y34138D01*
X21615Y34405D01*
X21453Y34659D01*
X21270Y34899D01*
X21066Y35121D01*
X20844Y35325D01*
X20604Y35508D01*
X20350Y35670D01*
X20083Y35809D01*
X19804Y35925D01*
X19517Y36015D01*
X19222Y36081D01*
X18923Y36120D01*
X18622Y36133D01*
D02*
G37*
G36*
X87504Y28169D02*
X87284Y28155D01*
X87068Y28111D01*
X86859Y28041D01*
X86662Y27943D01*
X86478Y27821D01*
X86313Y27676D01*
X86167Y27510D01*
X86045Y27327D01*
X85948Y27129D01*
X85877Y26920D01*
X85834Y26704D01*
X85819Y26484D01*
X85834Y26264D01*
X85877Y26048D01*
X85948Y25839D01*
X86045Y25642D01*
X86167Y25459D01*
X86313Y25293D01*
X86478Y25148D01*
X86662Y25025D01*
X86859Y24928D01*
X87068Y24857D01*
X87284Y24814D01*
X87504Y24800D01*
X87724Y24814D01*
X87940Y24857D01*
X88149Y24928D01*
X88346Y25025D01*
X88530Y25148D01*
X88695Y25293D01*
X88841Y25459D01*
X88963Y25642D01*
X89060Y25839D01*
X89131Y26048D01*
X89174Y26264D01*
X89189Y26484D01*
X89174Y26704D01*
X89131Y26920D01*
X89060Y27129D01*
X88963Y27327D01*
X88841Y27510D01*
X88695Y27676D01*
X88530Y27821D01*
X88346Y27943D01*
X88149Y28041D01*
X87940Y28111D01*
X87724Y28155D01*
X87504Y28169D01*
D02*
G37*
G36*
X132283Y25102D02*
X132064Y25088D01*
X131847Y25045D01*
X131639Y24974D01*
X131441Y24876D01*
X131258Y24754D01*
X131092Y24609D01*
X130947Y24443D01*
X130824Y24260D01*
X130727Y24062D01*
X130656Y23853D01*
X130613Y23637D01*
X130599Y23417D01*
X130613Y23197D01*
X130656Y22981D01*
X130727Y22773D01*
X130824Y22575D01*
X130947Y22392D01*
X131092Y22226D01*
X131258Y22081D01*
X131441Y21958D01*
X131639Y21861D01*
X131847Y21790D01*
X132064Y21747D01*
X132283Y21733D01*
X132503Y21747D01*
X132720Y21790D01*
X132928Y21861D01*
X133126Y21958D01*
X133309Y22081D01*
X133475Y22226D01*
X133620Y22392D01*
X133742Y22575D01*
X133840Y22773D01*
X133911Y22981D01*
X133954Y23197D01*
X133968Y23417D01*
X133954Y23637D01*
X133911Y23853D01*
X133840Y24062D01*
X133742Y24260D01*
X133620Y24443D01*
X133475Y24609D01*
X133309Y24754D01*
X133126Y24876D01*
X132928Y24974D01*
X132720Y25045D01*
X132503Y25088D01*
X132283Y25102D01*
D02*
G37*
G36*
X106299Y18606D02*
X106067Y18591D01*
X105838Y18545D01*
X105617Y18470D01*
X105408Y18367D01*
X105214Y18238D01*
X105038Y18084D01*
X104884Y17909D01*
X104755Y17715D01*
X104652Y17505D01*
X104577Y17284D01*
X104531Y17056D01*
X104516Y16823D01*
X104531Y16590D01*
X104577Y16361D01*
X104652Y16140D01*
X104755Y15931D01*
X104884Y15737D01*
X105038Y15562D01*
X105214Y15408D01*
X105408Y15278D01*
X105617Y15175D01*
X105838Y15100D01*
X106067Y15055D01*
X106299Y15040D01*
X106532Y15055D01*
X106761Y15100D01*
X106982Y15175D01*
X107191Y15278D01*
X107385Y15408D01*
X107560Y15562D01*
X107714Y15737D01*
X107844Y15931D01*
X107947Y16140D01*
X108022Y16361D01*
X108067Y16590D01*
X108083Y16823D01*
X108067Y17056D01*
X108022Y17284D01*
X107947Y17505D01*
X107844Y17715D01*
X107714Y17909D01*
X107560Y18084D01*
X107385Y18238D01*
X107191Y18367D01*
X106982Y18470D01*
X106761Y18545D01*
X106532Y18591D01*
X106299Y18606D01*
D02*
G37*
G36*
X144882Y15916D02*
X144662Y15902D01*
X144446Y15859D01*
X144237Y15788D01*
X144039Y15690D01*
X143856Y15568D01*
X143691Y15423D01*
X143545Y15257D01*
X143423Y15074D01*
X143325Y14876D01*
X143255Y14668D01*
X143212Y14451D01*
X143197Y14232D01*
X143212Y14012D01*
X143255Y13795D01*
X143325Y13587D01*
X143423Y13389D01*
X143545Y13206D01*
X143691Y13040D01*
X143856Y12895D01*
X144039Y12773D01*
X144237Y12675D01*
X144446Y12604D01*
X144662Y12561D01*
X144882Y12547D01*
X145102Y12561D01*
X145318Y12604D01*
X145527Y12675D01*
X145724Y12773D01*
X145907Y12895D01*
X146073Y13040D01*
X146219Y13206D01*
X146341Y13389D01*
X146438Y13587D01*
X146509Y13795D01*
X146552Y14012D01*
X146567Y14232D01*
X146552Y14451D01*
X146509Y14668D01*
X146438Y14876D01*
X146341Y15074D01*
X146219Y15257D01*
X146073Y15423D01*
X145907Y15568D01*
X145724Y15690D01*
X145527Y15788D01*
X145318Y15859D01*
X145102Y15902D01*
X144882Y15916D01*
D02*
G37*
G36*
X90551Y18606D02*
X90318Y18591D01*
X90090Y18545D01*
X89869Y18470D01*
X89660Y18367D01*
X89465Y18238D01*
X89290Y18084D01*
X89136Y17909D01*
X89007Y17715D01*
X88904Y17505D01*
X88829Y17284D01*
X88783Y17056D01*
X88768Y16823D01*
X88783Y16590D01*
X88829Y16361D01*
X88904Y16140D01*
X89007Y15931D01*
X89136Y15737D01*
X89290Y15562D01*
X89465Y15408D01*
X89660Y15278D01*
X89869Y15175D01*
X90090Y15100D01*
X90318Y15055D01*
X90551Y15040D01*
X90784Y15055D01*
X91013Y15100D01*
X91056Y15115D01*
X91180Y15056D01*
X91461Y14813D01*
X91608Y14579D01*
X91571Y14393D01*
X91557Y14173D01*
X91571Y13953D01*
X91614Y13737D01*
X91685Y13529D01*
X91782Y13331D01*
X91905Y13148D01*
X92050Y12982D01*
X92216Y12837D01*
X92399Y12714D01*
X92597Y12617D01*
X92805Y12546D01*
X93022Y12503D01*
X93241Y12489D01*
X93461Y12503D01*
X93677Y12546D01*
X93886Y12617D01*
X94084Y12714D01*
X94267Y12837D01*
X94433Y12982D01*
X94578Y13148D01*
X94700Y13331D01*
X94798Y13529D01*
X94869Y13737D01*
X94912Y13953D01*
X94926Y14173D01*
X94912Y14393D01*
X94869Y14609D01*
X94798Y14818D01*
X94700Y15016D01*
X94578Y15199D01*
X94433Y15364D01*
X94267Y15510D01*
X94084Y15632D01*
X93886Y15730D01*
X93677Y15800D01*
X93461Y15844D01*
X93241Y15858D01*
X93022Y15844D01*
X92805Y15800D01*
X92622Y15903D01*
X92370Y16161D01*
X92270Y16350D01*
X92274Y16361D01*
X92319Y16590D01*
X92335Y16823D01*
X92319Y17056D01*
X92274Y17284D01*
X92199Y17505D01*
X92096Y17715D01*
X91966Y17909D01*
X91812Y18084D01*
X91637Y18238D01*
X91443Y18367D01*
X91234Y18470D01*
X91013Y18545D01*
X90784Y18591D01*
X90551Y18606D01*
D02*
G37*
G36*
X33700Y12204D02*
X26665D01*
Y7268D01*
X33700D01*
Y12204D01*
D02*
G37*
G36*
X109744Y12897D02*
X109478Y12882D01*
X109216Y12838D01*
X108960Y12764D01*
X108714Y12662D01*
X108481Y12534D01*
X108264Y12380D01*
X108066Y12202D01*
X107888Y12004D01*
X107734Y11787D01*
X107605Y11554D01*
X107503Y11308D01*
X107430Y11052D01*
X107385Y10789D01*
X107370Y10524D01*
Y5799D01*
X107385Y5533D01*
X107430Y5271D01*
X107503Y5015D01*
X107605Y4769D01*
X107734Y4536D01*
X107888Y4319D01*
X108066Y4121D01*
X108264Y3943D01*
X108481Y3789D01*
X108714Y3661D01*
X108960Y3559D01*
X109216Y3485D01*
X109478Y3440D01*
X109744Y3425D01*
X110010Y3440D01*
X110272Y3485D01*
X110528Y3559D01*
X110774Y3661D01*
X111007Y3789D01*
X111224Y3943D01*
X111423Y4121D01*
X111600Y4319D01*
X111754Y4536D01*
X111883Y4769D01*
X111985Y5015D01*
X112058Y5271D01*
X112103Y5533D01*
X112118Y5799D01*
Y10524D01*
X112103Y10789D01*
X112058Y11052D01*
X111985Y11308D01*
X111883Y11554D01*
X111754Y11787D01*
X111600Y12004D01*
X111423Y12202D01*
X111224Y12380D01*
X111007Y12534D01*
X110774Y12662D01*
X110528Y12764D01*
X110272Y12838D01*
X110010Y12882D01*
X109744Y12897D01*
D02*
G37*
G36*
X87106D02*
X86840Y12882D01*
X86578Y12838D01*
X86322Y12764D01*
X86076Y12662D01*
X85843Y12534D01*
X85626Y12380D01*
X85428Y12202D01*
X85250Y12004D01*
X85096Y11787D01*
X84968Y11554D01*
X84866Y11308D01*
X84792Y11052D01*
X84747Y10789D01*
X84733Y10524D01*
Y5799D01*
X84747Y5533D01*
X84792Y5271D01*
X84866Y5015D01*
X84968Y4769D01*
X85096Y4536D01*
X85250Y4319D01*
X85428Y4121D01*
X85626Y3943D01*
X85843Y3789D01*
X86076Y3661D01*
X86322Y3559D01*
X86578Y3485D01*
X86840Y3440D01*
X87106Y3425D01*
X87372Y3440D01*
X87634Y3485D01*
X87890Y3559D01*
X88136Y3661D01*
X88369Y3789D01*
X88586Y3943D01*
X88785Y4121D01*
X88962Y4319D01*
X89116Y4536D01*
X89245Y4769D01*
X89347Y5015D01*
X89421Y5271D01*
X89465Y5533D01*
X89480Y5799D01*
Y10524D01*
X89465Y10789D01*
X89421Y11052D01*
X89347Y11308D01*
X89245Y11554D01*
X89116Y11787D01*
X88962Y12004D01*
X88785Y12202D01*
X88586Y12380D01*
X88369Y12534D01*
X88136Y12662D01*
X87890Y12764D01*
X87634Y12838D01*
X87372Y12882D01*
X87106Y12897D01*
D02*
G37*
G36*
X185039Y22157D02*
X185028Y22157D01*
X184498Y22143D01*
X183958Y22100D01*
X183421Y22030D01*
X182888Y21931D01*
X182362Y21805D01*
X181842Y21651D01*
X181332Y21470D01*
X180831Y21263D01*
X180342Y21029D01*
X179866Y20771D01*
X179404Y20488D01*
X178958Y20181D01*
X178528Y19851D01*
X178117Y19500D01*
X177724Y19127D01*
X177351Y18734D01*
X176999Y18322D01*
X176669Y17892D01*
X176362Y17446D01*
X176079Y16984D01*
X175821Y16508D01*
X175588Y16019D01*
X175381Y15519D01*
X175200Y15008D01*
X175046Y14489D01*
X174919Y13962D01*
X174821Y13430D01*
X174750Y12892D01*
X174707Y12353D01*
X174694Y11822D01*
X174693Y11811D01*
X174694Y11800D01*
X174707Y11270D01*
X174750Y10730D01*
X174821Y10193D01*
X174919Y9660D01*
X175046Y9133D01*
X175200Y8614D01*
X175381Y8103D01*
X175588Y7603D01*
X175821Y7114D01*
X176079Y6638D01*
X176362Y6176D01*
X176669Y5730D01*
X176999Y5300D01*
X177351Y4888D01*
X177724Y4495D01*
X178117Y4122D01*
X178528Y3771D01*
X178958Y3441D01*
X179404Y3134D01*
X179866Y2851D01*
X180342Y2593D01*
X180831Y2359D01*
X181332Y2152D01*
X181842Y1971D01*
X182362Y1818D01*
X182888Y1691D01*
X183421Y1592D01*
X183958Y1522D01*
X184498Y1479D01*
X185028Y1465D01*
X185039Y1465D01*
X185051Y1465D01*
X185581Y1479D01*
X186121Y1522D01*
X186658Y1592D01*
X187190Y1691D01*
X187717Y1818D01*
X188236Y1971D01*
X188747Y2152D01*
X189248Y2359D01*
X189736Y2593D01*
X190212Y2851D01*
X190674Y3134D01*
X191121Y3441D01*
X191550Y3771D01*
X191962Y4122D01*
X192355Y4495D01*
X192728Y4888D01*
X193080Y5300D01*
X193410Y5730D01*
X193716Y6176D01*
X193999Y6638D01*
X194258Y7114D01*
X194491Y7603D01*
X194698Y8103D01*
X194879Y8614D01*
X195033Y9133D01*
X195159Y9660D01*
X195258Y10193D01*
X195329Y10730D01*
X195371Y11270D01*
X195385Y11800D01*
X195386Y11811D01*
X195385Y11822D01*
X195371Y12353D01*
X195329Y12892D01*
X195258Y13430D01*
X195159Y13962D01*
X195033Y14489D01*
X194879Y15008D01*
X194698Y15519D01*
X194491Y16019D01*
X194258Y16508D01*
X193999Y16984D01*
X193716Y17446D01*
X193410Y17892D01*
X193080Y18322D01*
X192728Y18734D01*
X192355Y19127D01*
X191962Y19500D01*
X191550Y19851D01*
X191121Y20181D01*
X190674Y20488D01*
X190212Y20771D01*
X189736Y21029D01*
X189248Y21263D01*
X188747Y21470D01*
X188236Y21651D01*
X187717Y21805D01*
X187190Y21931D01*
X186658Y22030D01*
X186121Y22100D01*
X185581Y22143D01*
X185051Y22157D01*
X185039Y22157D01*
D02*
G37*
G36*
X11811D02*
X11800Y22157D01*
X11270Y22143D01*
X10730Y22100D01*
X10193Y22030D01*
X9660Y21931D01*
X9133Y21805D01*
X8614Y21651D01*
X8103Y21470D01*
X7603Y21263D01*
X7114Y21029D01*
X6638Y20771D01*
X6176Y20488D01*
X5730Y20181D01*
X5300Y19851D01*
X4888Y19500D01*
X4495Y19127D01*
X4122Y18734D01*
X3771Y18322D01*
X3441Y17892D01*
X3134Y17446D01*
X2851Y16984D01*
X2593Y16508D01*
X2359Y16019D01*
X2152Y15519D01*
X1971Y15008D01*
X1818Y14489D01*
X1691Y13962D01*
X1592Y13430D01*
X1522Y12892D01*
X1479Y12353D01*
X1465Y11822D01*
X1465Y11811D01*
X1465Y11800D01*
X1479Y11270D01*
X1522Y10730D01*
X1592Y10193D01*
X1691Y9660D01*
X1818Y9133D01*
X1971Y8614D01*
X2152Y8103D01*
X2359Y7603D01*
X2593Y7114D01*
X2851Y6638D01*
X3134Y6176D01*
X3441Y5730D01*
X3771Y5300D01*
X4122Y4888D01*
X4495Y4495D01*
X4888Y4122D01*
X5300Y3771D01*
X5730Y3441D01*
X6176Y3134D01*
X6638Y2851D01*
X7114Y2593D01*
X7603Y2359D01*
X8103Y2152D01*
X8614Y1971D01*
X9133Y1818D01*
X9660Y1691D01*
X10193Y1592D01*
X10730Y1522D01*
X11270Y1479D01*
X11800Y1465D01*
X11811Y1465D01*
X11822Y1465D01*
X12353Y1479D01*
X12892Y1522D01*
X13430Y1592D01*
X13962Y1691D01*
X14489Y1818D01*
X15008Y1971D01*
X15519Y2152D01*
X16019Y2359D01*
X16508Y2593D01*
X16984Y2851D01*
X17446Y3134D01*
X17892Y3441D01*
X18322Y3771D01*
X18734Y4122D01*
X19127Y4495D01*
X19500Y4888D01*
X19851Y5300D01*
X20181Y5730D01*
X20488Y6176D01*
X20771Y6638D01*
X21029Y7114D01*
X21263Y7603D01*
X21470Y8103D01*
X21651Y8614D01*
X21805Y9133D01*
X21931Y9660D01*
X22030Y10193D01*
X22100Y10730D01*
X22143Y11270D01*
X22157Y11800D01*
X22157Y11811D01*
X22157Y11822D01*
X22143Y12353D01*
X22100Y12892D01*
X22030Y13430D01*
X21931Y13962D01*
X21805Y14489D01*
X21651Y15008D01*
X21470Y15519D01*
X21263Y16019D01*
X21029Y16508D01*
X20771Y16984D01*
X20488Y17446D01*
X20181Y17892D01*
X19851Y18322D01*
X19500Y18734D01*
X19127Y19127D01*
X18734Y19500D01*
X18322Y19851D01*
X17892Y20181D01*
X17446Y20488D01*
X16984Y20771D01*
X16508Y21029D01*
X16019Y21263D01*
X15519Y21470D01*
X15008Y21651D01*
X14489Y21805D01*
X13962Y21931D01*
X13430Y22030D01*
X12892Y22100D01*
X12353Y22143D01*
X11822Y22157D01*
X11811Y22157D01*
D02*
G37*
%LPD*%
G36*
X113735Y175872D02*
X111072Y173209D01*
X110853Y173216D01*
X110687Y173361D01*
X110504Y173484D01*
X110306Y173581D01*
X110098Y173652D01*
X109881Y173695D01*
X109661Y173709D01*
X109441Y173695D01*
X109225Y173652D01*
X109017Y173581D01*
X108819Y173484D01*
X108636Y173361D01*
X108470Y173216D01*
X108325Y173050D01*
X108202Y172867D01*
X108105Y172669D01*
X108034Y172461D01*
X107991Y172245D01*
X107977Y172025D01*
X107991Y171805D01*
X108034Y171589D01*
X108105Y171380D01*
X108202Y171182D01*
X108325Y170999D01*
X108470Y170834D01*
X108636Y170688D01*
X108819Y170566D01*
X108934Y170509D01*
X109079Y170156D01*
X109141Y169843D01*
X109120Y169704D01*
X107936Y168520D01*
X103841D01*
X103821Y168559D01*
X103699Y168742D01*
X103553Y168908D01*
X103388Y169053D01*
X103205Y169176D01*
X103007Y169273D01*
X102798Y169344D01*
X102582Y169387D01*
X102362Y169401D01*
X102142Y169387D01*
X101926Y169344D01*
X101717Y169273D01*
X101520Y169176D01*
X101337Y169053D01*
X101171Y168908D01*
X101026Y168742D01*
X100903Y168559D01*
X100806Y168361D01*
X100735Y168153D01*
X100692Y167936D01*
X100678Y167717D01*
X100692Y167497D01*
X100735Y167280D01*
X100806Y167072D01*
X100903Y166874D01*
X101026Y166691D01*
X101171Y166525D01*
X101337Y166380D01*
X101520Y166258D01*
X101717Y166160D01*
X101926Y166089D01*
X102142Y166046D01*
X102362Y166032D01*
X102582Y166046D01*
X102798Y166089D01*
X103007Y166160D01*
X103205Y166258D01*
X103388Y166380D01*
X103553Y166525D01*
X103699Y166691D01*
X103821Y166874D01*
X103841Y166913D01*
X107678D01*
X107869Y166751D01*
X108156Y166239D01*
X108153Y166213D01*
X108115Y166020D01*
X108100Y165800D01*
X108115Y165581D01*
X108158Y165364D01*
X108229Y165156D01*
X108326Y164958D01*
X108449Y164775D01*
X108594Y164609D01*
X108759Y164464D01*
X108943Y164341D01*
X108958Y164334D01*
X109033Y164058D01*
Y163842D01*
X108958Y163566D01*
X108943Y163558D01*
X108759Y163435D01*
X108594Y163290D01*
X108449Y163125D01*
X108326Y162941D01*
X108229Y162744D01*
X108158Y162535D01*
X108115Y162319D01*
X108100Y162099D01*
X108115Y161879D01*
X108158Y161663D01*
X108229Y161454D01*
X108326Y161257D01*
X108449Y161073D01*
X108594Y160908D01*
X108759Y160762D01*
X108943Y160640D01*
X109140Y160543D01*
X109349Y160472D01*
X109565Y160429D01*
X109785Y160414D01*
X110005Y160429D01*
X110221Y160472D01*
X110430Y160543D01*
X110627Y160640D01*
X110811Y160762D01*
X110976Y160908D01*
X111122Y161073D01*
X111244Y161257D01*
X111342Y161454D01*
X111412Y161663D01*
X111455Y161879D01*
X111470Y162099D01*
X111455Y162319D01*
X111425Y162471D01*
X117091Y168137D01*
X117287Y168099D01*
X117338Y168039D01*
X117516Y167341D01*
X114588Y164413D01*
X114497Y164306D01*
X114423Y164187D01*
X114370Y164057D01*
X114337Y163920D01*
X114326Y163779D01*
Y98738D01*
X106695Y91108D01*
X106543Y91138D01*
X106323Y91152D01*
X106103Y91138D01*
X105887Y91095D01*
X105678Y91024D01*
X105481Y90927D01*
X105297Y90804D01*
X105132Y90659D01*
X104986Y90493D01*
X104864Y90310D01*
X104766Y90112D01*
X104696Y89904D01*
X104678Y89815D01*
X104285Y89502D01*
X104159Y89438D01*
X104021Y89430D01*
X103919Y89450D01*
X103797Y89596D01*
Y90830D01*
X106450Y93483D01*
X106450Y93483D01*
X106544Y93597D01*
X106613Y93727D01*
X106656Y93869D01*
X106671Y94016D01*
Y145936D01*
X107180Y146156D01*
X107371Y146165D01*
X107470Y146053D01*
X107636Y145907D01*
X107819Y145785D01*
X108017Y145688D01*
X108225Y145617D01*
X108441Y145574D01*
X108661Y145559D01*
X108881Y145574D01*
X109098Y145617D01*
X109306Y145688D01*
X109504Y145785D01*
X109687Y145907D01*
X109853Y146053D01*
X109998Y146219D01*
X110120Y146402D01*
X110218Y146599D01*
X110289Y146808D01*
X110332Y147024D01*
X110346Y147244D01*
X110332Y147464D01*
X110289Y147680D01*
X110218Y147889D01*
X110120Y148086D01*
X109998Y148270D01*
X109853Y148435D01*
X109687Y148581D01*
X109504Y148703D01*
X109306Y148801D01*
X109098Y148871D01*
X108881Y148914D01*
X108661Y148929D01*
X108441Y148914D01*
X108225Y148871D01*
X108017Y148801D01*
X107819Y148703D01*
X107636Y148581D01*
X107470Y148435D01*
X107371Y148323D01*
X107180Y148332D01*
X106671Y148552D01*
Y150704D01*
X106656Y150851D01*
X106613Y150992D01*
X106544Y151122D01*
X106450Y151237D01*
X105579Y152108D01*
X105465Y152201D01*
X105334Y152271D01*
X105193Y152314D01*
X105046Y152328D01*
X88900D01*
X88753Y152314D01*
X88612Y152271D01*
X88481Y152201D01*
X88367Y152108D01*
X88367Y152108D01*
X85887Y149627D01*
X85793Y149659D01*
X85577Y149702D01*
X85357Y149716D01*
X85137Y149702D01*
X84921Y149659D01*
X84712Y149588D01*
X84514Y149490D01*
X84331Y149368D01*
X84181Y149236D01*
X84114Y149242D01*
X83480Y149480D01*
Y154786D01*
X84139Y155445D01*
X85575D01*
X85595Y155405D01*
X85717Y155222D01*
X85863Y155056D01*
X86028Y154911D01*
X86212Y154789D01*
X86409Y154691D01*
X86618Y154620D01*
X86834Y154577D01*
X87054Y154563D01*
X87274Y154577D01*
X87490Y154620D01*
X87699Y154691D01*
X87896Y154789D01*
X88079Y154911D01*
X88245Y155056D01*
X88390Y155222D01*
X88513Y155405D01*
X88610Y155603D01*
X88681Y155812D01*
X88724Y156028D01*
X88739Y156248D01*
X88724Y156467D01*
X88681Y156684D01*
X88610Y156892D01*
X88569Y156976D01*
X88649Y157274D01*
X88948Y157679D01*
X88975Y157681D01*
X89191Y157724D01*
X89399Y157795D01*
X89597Y157892D01*
X89780Y158015D01*
X89946Y158160D01*
X90091Y158326D01*
X90214Y158509D01*
X90311Y158706D01*
X90382Y158915D01*
X90425Y159131D01*
X90439Y159351D01*
X90425Y159571D01*
X90382Y159787D01*
X90311Y159996D01*
X90214Y160194D01*
X90091Y160377D01*
X89946Y160543D01*
X89780Y160688D01*
X89597Y160810D01*
X89399Y160908D01*
X89191Y160978D01*
X88975Y161021D01*
X88755Y161036D01*
X88699Y161032D01*
X88390Y161428D01*
X88297Y161689D01*
X88362Y161819D01*
X88433Y162028D01*
X88476Y162244D01*
X88490Y162464D01*
X88476Y162684D01*
X88433Y162900D01*
X88362Y163109D01*
X88264Y163306D01*
X88142Y163490D01*
X88105Y163532D01*
X88057Y163747D01*
X88075Y164063D01*
X88119Y164292D01*
X88186Y164406D01*
X88298Y164504D01*
X88443Y164670D01*
X88565Y164853D01*
X88663Y165051D01*
X88734Y165260D01*
X88777Y165476D01*
X88791Y165696D01*
X88784Y165795D01*
X89123Y166040D01*
X89451Y166115D01*
X89549Y166029D01*
X89732Y165907D01*
X89930Y165809D01*
X90139Y165738D01*
X90355Y165696D01*
X90575Y165681D01*
X90795Y165696D01*
X91011Y165738D01*
X91220Y165809D01*
X91417Y165907D01*
X91600Y166029D01*
X91766Y166175D01*
X91911Y166340D01*
X92034Y166524D01*
X92131Y166721D01*
X92202Y166930D01*
X92245Y167146D01*
X92260Y167366D01*
X92245Y167586D01*
X92202Y167802D01*
X92170Y167895D01*
X94299Y170024D01*
X100787D01*
X100934Y170038D01*
X101076Y170081D01*
X101206Y170151D01*
X101320Y170245D01*
X107595Y176519D01*
X113466D01*
X113735Y175872D01*
D02*
G37*
G36*
X105164Y150391D02*
Y148800D01*
X105119Y148746D01*
X104767Y148528D01*
X104463Y148426D01*
X104343Y148485D01*
X104135Y148556D01*
X103919Y148599D01*
X103699Y148613D01*
X103479Y148599D01*
X103263Y148556D01*
X103054Y148485D01*
X102856Y148388D01*
X102673Y148265D01*
X102507Y148120D01*
X102362Y147954D01*
X102240Y147771D01*
X102142Y147573D01*
X102071Y147365D01*
X102029Y147149D01*
X102014Y146929D01*
X102029Y146709D01*
X102071Y146493D01*
X102142Y146284D01*
X102240Y146086D01*
X102362Y145903D01*
X102507Y145737D01*
X102673Y145592D01*
X102856Y145470D01*
X103054Y145372D01*
X103263Y145301D01*
X103479Y145258D01*
X103699Y145244D01*
X103919Y145258D01*
X104135Y145301D01*
X104343Y145372D01*
X104463Y145431D01*
X104767Y145329D01*
X105119Y145111D01*
X105164Y145057D01*
Y94328D01*
X102941Y92106D01*
X102241Y92396D01*
Y132389D01*
X102329Y132433D01*
X102513Y132556D01*
X102678Y132701D01*
X102824Y132867D01*
X102946Y133050D01*
X103043Y133248D01*
X103114Y133456D01*
X103157Y133672D01*
X103172Y133892D01*
X103157Y134112D01*
X103114Y134328D01*
X103043Y134537D01*
X102946Y134735D01*
X102824Y134918D01*
X102678Y135084D01*
X102513Y135229D01*
X102329Y135351D01*
X102132Y135449D01*
X101923Y135520D01*
X101707Y135563D01*
X101487Y135577D01*
X101267Y135563D01*
X101051Y135520D01*
X100842Y135449D01*
X100645Y135351D01*
X100461Y135229D01*
X100296Y135084D01*
X100151Y134918D01*
X100028Y134735D01*
X99931Y134537D01*
X99928Y134528D01*
X99865Y134460D01*
X99510Y134268D01*
X99500Y134264D01*
X99140Y134200D01*
X99138Y134200D01*
X99070Y134234D01*
X98861Y134305D01*
X98645Y134348D01*
X98425Y134362D01*
X98205Y134348D01*
X97989Y134305D01*
X97781Y134234D01*
X97626Y134158D01*
X97517Y134150D01*
X97361Y134181D01*
X97008Y134324D01*
X96841Y134456D01*
X96832Y134483D01*
X96735Y134680D01*
X96612Y134863D01*
X96467Y135029D01*
X96301Y135175D01*
X96118Y135297D01*
X95920Y135394D01*
X95712Y135465D01*
X95495Y135508D01*
X95276Y135523D01*
X95056Y135508D01*
X94840Y135465D01*
X94631Y135394D01*
X94433Y135297D01*
X94250Y135175D01*
X94084Y135029D01*
X93939Y134863D01*
X93817Y134680D01*
X93748Y134541D01*
X93617Y134430D01*
X93083Y134258D01*
X92968Y134255D01*
X92771Y134352D01*
X92562Y134423D01*
X92346Y134466D01*
X92126Y134481D01*
X91906Y134466D01*
X91690Y134423D01*
X91623Y134400D01*
X91276Y134840D01*
X91215Y134984D01*
X99518Y143286D01*
X99611Y143255D01*
X99827Y143212D01*
X100047Y143197D01*
X100267Y143212D01*
X100484Y143255D01*
X100692Y143325D01*
X100890Y143423D01*
X101073Y143545D01*
X101239Y143691D01*
X101384Y143856D01*
X101506Y144039D01*
X101604Y144237D01*
X101675Y144446D01*
X101718Y144662D01*
X101732Y144882D01*
X101718Y145102D01*
X101675Y145318D01*
X101604Y145527D01*
X101506Y145724D01*
X101384Y145907D01*
X101239Y146073D01*
X101073Y146219D01*
X100890Y146341D01*
X100692Y146438D01*
X100484Y146509D01*
X100267Y146552D01*
X100047Y146567D01*
X99827Y146552D01*
X99611Y146509D01*
X99403Y146438D01*
X99205Y146341D01*
X99022Y146219D01*
X98856Y146073D01*
X98711Y145907D01*
X98588Y145724D01*
X98491Y145527D01*
X98420Y145318D01*
X98377Y145102D01*
X98363Y144882D01*
X98377Y144662D01*
X98420Y144446D01*
X98452Y144352D01*
X86869Y132769D01*
X86775Y132655D01*
X86705Y132524D01*
X86662Y132383D01*
X86648Y132236D01*
Y96808D01*
X86662Y96661D01*
X86705Y96519D01*
X86775Y96389D01*
X86869Y96275D01*
X100591Y82553D01*
X100322Y81905D01*
X84201D01*
X83002Y83104D01*
X83410Y83675D01*
X83607Y83577D01*
X83816Y83507D01*
X84032Y83464D01*
X84252Y83449D01*
X84472Y83464D01*
X84688Y83507D01*
X84897Y83577D01*
X85094Y83675D01*
X85278Y83797D01*
X85443Y83943D01*
X85589Y84108D01*
X85711Y84291D01*
X85808Y84489D01*
X85879Y84698D01*
X85922Y84914D01*
X85937Y85134D01*
X85922Y85354D01*
X85879Y85570D01*
X85808Y85779D01*
X85711Y85976D01*
X85589Y86159D01*
X85443Y86325D01*
X85278Y86471D01*
X85094Y86593D01*
X84897Y86690D01*
X84688Y86761D01*
X84472Y86804D01*
X84252Y86819D01*
X84032Y86804D01*
X83816Y86761D01*
X83775Y86747D01*
X82382Y88140D01*
Y93682D01*
X83029Y93951D01*
X88705Y88275D01*
X88691Y88233D01*
X88648Y88017D01*
X88634Y87797D01*
X88648Y87577D01*
X88691Y87361D01*
X88762Y87153D01*
X88859Y86955D01*
X88982Y86772D01*
X89127Y86606D01*
X89293Y86461D01*
X89476Y86338D01*
X89674Y86241D01*
X89882Y86170D01*
X90099Y86127D01*
X90318Y86113D01*
X90538Y86127D01*
X90754Y86170D01*
X90963Y86241D01*
X91161Y86338D01*
X91344Y86461D01*
X91510Y86606D01*
X91655Y86772D01*
X91777Y86955D01*
X91875Y87153D01*
X91946Y87361D01*
X91989Y87577D01*
X92003Y87797D01*
X91989Y88017D01*
X91946Y88233D01*
X91875Y88442D01*
X91777Y88640D01*
X91655Y88823D01*
X91510Y88989D01*
X91344Y89134D01*
X91161Y89256D01*
X90963Y89354D01*
X90754Y89425D01*
X90538Y89468D01*
X90318Y89482D01*
X90099Y89468D01*
X89882Y89425D01*
X89841Y89411D01*
X83480Y95771D01*
Y146582D01*
X84114Y146821D01*
X84181Y146827D01*
X84331Y146695D01*
X84514Y146572D01*
X84712Y146475D01*
X84921Y146404D01*
X85137Y146361D01*
X85357Y146347D01*
X85577Y146361D01*
X85793Y146404D01*
X86001Y146475D01*
X86199Y146572D01*
X86382Y146695D01*
X86548Y146840D01*
X86693Y147006D01*
X86816Y147189D01*
X86913Y147387D01*
X86984Y147596D01*
X87027Y147812D01*
X87041Y148031D01*
X87027Y148251D01*
X86984Y148468D01*
X86952Y148561D01*
X89212Y150821D01*
X104734D01*
X105164Y150391D01*
D02*
G37*
G36*
X84633Y162908D02*
X85120Y162464D01*
X85135Y162244D01*
X85178Y162028D01*
X85249Y161819D01*
X85346Y161622D01*
X85469Y161439D01*
X85614Y161273D01*
X85780Y161128D01*
X85963Y161005D01*
X86161Y160908D01*
X86369Y160837D01*
X86225Y160154D01*
X85357D01*
X85200Y160139D01*
X85049Y160093D01*
X84911Y160019D01*
X84789Y159919D01*
X81333Y156463D01*
X81333Y156463D01*
X81011Y156141D01*
X80911Y156019D01*
X80837Y155880D01*
X80791Y155730D01*
X80776Y155573D01*
Y146393D01*
X80128Y146125D01*
X77991Y148262D01*
X78005Y148303D01*
X78048Y148519D01*
X78063Y148739D01*
X78048Y148959D01*
X78005Y149175D01*
X77934Y149384D01*
X77837Y149582D01*
X77715Y149765D01*
X77569Y149930D01*
X77403Y150076D01*
X77220Y150198D01*
X77023Y150296D01*
X76814Y150366D01*
X76598Y150409D01*
X76378Y150424D01*
X76158Y150409D01*
X75942Y150366D01*
X75894Y150350D01*
X75863Y150349D01*
X75687Y150386D01*
X75191Y150614D01*
X75086Y150741D01*
X75065Y150779D01*
X74966Y150901D01*
X74269Y151597D01*
X74283Y151638D01*
X74326Y151855D01*
X74341Y152074D01*
X74326Y152294D01*
X74283Y152510D01*
X74213Y152719D01*
X74115Y152917D01*
X73993Y153100D01*
X73848Y153266D01*
X73682Y153411D01*
X73499Y153533D01*
X73301Y153631D01*
X73092Y153702D01*
X72876Y153745D01*
X72656Y153759D01*
X72436Y153745D01*
X72220Y153702D01*
X72012Y153631D01*
X71814Y153533D01*
X71631Y153411D01*
X71465Y153266D01*
X71320Y153100D01*
X71197Y152917D01*
X71100Y152719D01*
X71029Y152510D01*
X70986Y152294D01*
X70972Y152074D01*
X70986Y151855D01*
X71029Y151638D01*
X71100Y151430D01*
X71197Y151232D01*
X71320Y151049D01*
X71465Y150883D01*
X71631Y150738D01*
X71814Y150615D01*
X72012Y150518D01*
X72220Y150447D01*
X72436Y150404D01*
X72656Y150390D01*
X72876Y150404D01*
X73092Y150447D01*
X73134Y150461D01*
X73595Y150000D01*
Y147919D01*
X73610Y147762D01*
X73656Y147611D01*
X73730Y147473D01*
X73830Y147351D01*
X78357Y142824D01*
Y141139D01*
X77710Y140871D01*
X72182Y146399D01*
X72214Y146493D01*
X72257Y146709D01*
X72271Y146929D01*
X72257Y147149D01*
X72214Y147365D01*
X72143Y147573D01*
X72045Y147771D01*
X71923Y147954D01*
X71778Y148120D01*
X71612Y148265D01*
X71429Y148388D01*
X71231Y148485D01*
X71022Y148556D01*
X70806Y148599D01*
X70587Y148613D01*
X70367Y148599D01*
X70151Y148556D01*
X69942Y148485D01*
X69744Y148388D01*
X69561Y148265D01*
X69395Y148120D01*
X69250Y147954D01*
X69128Y147771D01*
X69030Y147573D01*
X68959Y147365D01*
X68916Y147149D01*
X68902Y146929D01*
X68916Y146709D01*
X68959Y146493D01*
X69030Y146284D01*
X69128Y146086D01*
X69250Y145903D01*
X69395Y145737D01*
X69561Y145592D01*
X69744Y145470D01*
X69942Y145372D01*
X70151Y145301D01*
X70367Y145258D01*
X70587Y145244D01*
X70806Y145258D01*
X71022Y145301D01*
X71116Y145333D01*
X77234Y139216D01*
Y96131D01*
X76846Y95947D01*
X76533Y95932D01*
X76478Y96014D01*
X76333Y96179D01*
X76167Y96325D01*
X75984Y96447D01*
X75786Y96545D01*
X75577Y96615D01*
X75361Y96658D01*
X75141Y96673D01*
X74922Y96658D01*
X74705Y96615D01*
X74497Y96545D01*
X74299Y96447D01*
X74116Y96325D01*
X73950Y96179D01*
X73805Y96014D01*
X73682Y95831D01*
X73585Y95633D01*
X73514Y95424D01*
X73471Y95208D01*
X73457Y94988D01*
X73471Y94768D01*
X73514Y94552D01*
X73585Y94344D01*
X73682Y94146D01*
X73805Y93963D01*
X73950Y93729D01*
Y93385D01*
X73805Y93152D01*
X73682Y92968D01*
X73585Y92771D01*
X73514Y92562D01*
X73471Y92346D01*
X73457Y92126D01*
X73471Y91906D01*
X73514Y91690D01*
X73585Y91481D01*
X73682Y91284D01*
X73805Y91100D01*
X73950Y90935D01*
X74116Y90789D01*
X74299Y90667D01*
X74497Y90570D01*
X74705Y90499D01*
X74922Y90456D01*
X75141Y90441D01*
X75361Y90456D01*
X75577Y90499D01*
X75786Y90570D01*
X75984Y90667D01*
X76167Y90789D01*
X76333Y90935D01*
X76478Y91100D01*
X76533Y91182D01*
X76846Y91167D01*
X77234Y90983D01*
Y83562D01*
X77248Y83415D01*
X77291Y83274D01*
X77361Y83143D01*
X77454Y83029D01*
X86736Y73747D01*
Y62376D01*
X86751Y62229D01*
X86794Y62088D01*
X86863Y61957D01*
X86957Y61843D01*
X90487Y58313D01*
X90488Y58311D01*
X90219Y57590D01*
X90047Y57577D01*
X81605Y66019D01*
Y69362D01*
X81652Y69415D01*
X81774Y69599D01*
X81871Y69796D01*
X81942Y70005D01*
X81985Y70221D01*
X82000Y70441D01*
X81985Y70661D01*
X81942Y70877D01*
X81871Y71086D01*
X81774Y71283D01*
X81652Y71466D01*
X81506Y71632D01*
X81340Y71777D01*
X81157Y71900D01*
X80960Y71997D01*
X80751Y72068D01*
X80535Y72111D01*
X80315Y72126D01*
X80095Y72111D01*
X79879Y72068D01*
X79670Y71997D01*
X79473Y71900D01*
X79289Y71777D01*
X79124Y71632D01*
X78978Y71466D01*
X78856Y71283D01*
X78759Y71086D01*
X78688Y70877D01*
X78645Y70661D01*
X78630Y70441D01*
X78645Y70221D01*
X78688Y70005D01*
X78759Y69796D01*
X78856Y69599D01*
X78978Y69415D01*
X79025Y69362D01*
Y65485D01*
X79036Y65316D01*
X79069Y65151D01*
X79123Y64991D01*
X79198Y64840D01*
X79291Y64699D01*
X79403Y64572D01*
X80490Y63485D01*
X80480Y63451D01*
X80122Y62862D01*
X80093Y62868D01*
X79873Y62882D01*
X79654Y62868D01*
X79437Y62825D01*
X79229Y62754D01*
X79031Y62656D01*
X78848Y62534D01*
X78682Y62389D01*
X78537Y62223D01*
X78414Y62040D01*
X78395Y62001D01*
X71253D01*
X68387Y64867D01*
Y104408D01*
X69567Y105588D01*
X69675Y105584D01*
X69841Y105439D01*
X70024Y105317D01*
X70221Y105219D01*
X70430Y105148D01*
X70646Y105105D01*
X70866Y105091D01*
X71086Y105105D01*
X71302Y105148D01*
X71511Y105219D01*
X71709Y105317D01*
X71892Y105439D01*
X72057Y105584D01*
X72203Y105750D01*
X72325Y105933D01*
X72423Y106131D01*
X72493Y106340D01*
X72536Y106556D01*
X72551Y106776D01*
X72536Y106995D01*
X72493Y107212D01*
X72423Y107420D01*
X72325Y107618D01*
X72203Y107801D01*
X72057Y107967D01*
X71892Y108112D01*
X71709Y108235D01*
X71511Y108332D01*
X71302Y108403D01*
X71196Y108424D01*
X70816Y108510D01*
X70577Y108749D01*
X70491Y109130D01*
X70470Y109236D01*
X70399Y109444D01*
X70301Y109642D01*
X70179Y109825D01*
X70034Y109991D01*
X69868Y110136D01*
X69685Y110258D01*
X69487Y110356D01*
X69278Y110427D01*
X69062Y110470D01*
X68842Y110484D01*
X68622Y110470D01*
X68406Y110427D01*
X68198Y110356D01*
X68000Y110258D01*
X67817Y110136D01*
X67651Y109991D01*
X67506Y109825D01*
X67383Y109642D01*
X67286Y109444D01*
X67215Y109236D01*
X67172Y109019D01*
X67158Y108800D01*
X67172Y108580D01*
X67215Y108363D01*
X67286Y108155D01*
X67383Y107957D01*
X67506Y107774D01*
X67651Y107608D01*
X67655Y107500D01*
X65917Y105763D01*
X65818Y105641D01*
X65743Y105503D01*
X65698Y105352D01*
X65682Y105195D01*
Y64079D01*
X65698Y63922D01*
X65743Y63772D01*
X65818Y63633D01*
X65917Y63511D01*
X79603Y49826D01*
X79725Y49726D01*
X79864Y49652D01*
X80014Y49606D01*
X80171Y49591D01*
X81986D01*
X82006Y49551D01*
X82128Y49368D01*
X82273Y49202D01*
X82439Y49057D01*
X82622Y48935D01*
X82820Y48837D01*
X83029Y48766D01*
X83121Y48748D01*
X83052Y48047D01*
X68049D01*
X64857Y51239D01*
Y123735D01*
X67808Y126687D01*
X67908Y126808D01*
X67982Y126947D01*
X68028Y127098D01*
X68043Y127254D01*
Y153033D01*
X77987Y162976D01*
X84479D01*
X84633Y162908D01*
D02*
G37*
G36*
X157191Y162146D02*
Y137923D01*
X156490Y137632D01*
X130769Y163354D01*
X130720Y163471D01*
X130647Y163591D01*
X130555Y163698D01*
X124398Y169856D01*
X124313Y169994D01*
X124229Y170371D01*
X124234Y170625D01*
X124272Y170778D01*
X124293Y170811D01*
X124391Y171009D01*
X124462Y171217D01*
X124505Y171433D01*
X124519Y171653D01*
X124505Y171873D01*
X124462Y172089D01*
X124391Y172298D01*
X124293Y172496D01*
X124171Y172679D01*
X124026Y172845D01*
X123860Y172990D01*
X123677Y173112D01*
X123479Y173210D01*
X123270Y173281D01*
X123054Y173324D01*
X122834Y173338D01*
X122615Y173324D01*
X122398Y173281D01*
X122190Y173210D01*
X121992Y173112D01*
X121809Y172990D01*
X121643Y172845D01*
X121498Y172679D01*
X121375Y172496D01*
X121278Y172298D01*
X121207Y172089D01*
X121164Y171873D01*
X121150Y171653D01*
X121164Y171433D01*
X121207Y171217D01*
X121278Y171009D01*
X121337Y170889D01*
X121236Y170585D01*
X121019Y170233D01*
X120963Y170188D01*
X116978D01*
X116837Y170177D01*
X116700Y170144D01*
X116570Y170090D01*
X116451Y170017D01*
X116344Y169925D01*
X112169Y165751D01*
X111992Y165763D01*
X111455Y166020D01*
X111412Y166236D01*
X111342Y166445D01*
X111244Y166643D01*
X111122Y166826D01*
X110976Y166992D01*
X110811Y167137D01*
X110627Y167260D01*
X110430Y167357D01*
X110221Y167428D01*
X110126Y167447D01*
X109949Y167766D01*
X109870Y168182D01*
X116010Y174322D01*
X145015D01*
X157191Y162146D01*
D02*
G37*
G36*
X172114Y154309D02*
Y116651D01*
X171681Y116130D01*
X171413Y116130D01*
X164776D01*
Y109224D01*
X171413D01*
X171681Y109224D01*
X172114Y108703D01*
Y104150D01*
X171413Y104010D01*
X171361Y104138D01*
X171221Y104405D01*
X171059Y104659D01*
X170876Y104899D01*
X170672Y105121D01*
X170450Y105325D01*
X170211Y105508D01*
X169956Y105670D01*
X169689Y105809D01*
X169410Y105925D01*
X169123Y106016D01*
X168828Y106081D01*
X168530Y106120D01*
X168228Y106133D01*
X167927Y106120D01*
X167628Y106081D01*
X167334Y106016D01*
X167046Y105925D01*
X166768Y105809D01*
X166500Y105670D01*
X166246Y105508D01*
X166007Y105325D01*
X165785Y105121D01*
X165581Y104899D01*
X165397Y104659D01*
X165235Y104405D01*
X165096Y104138D01*
X164981Y103859D01*
X164890Y103572D01*
X164825Y103277D01*
X164786Y102978D01*
X164772Y102677D01*
X164786Y102376D01*
X164825Y102077D01*
X164890Y101783D01*
X164981Y101495D01*
X165096Y101217D01*
X165235Y100949D01*
X165397Y100695D01*
X165581Y100456D01*
X165785Y100233D01*
X166007Y100030D01*
X166246Y99846D01*
X166500Y99684D01*
X166506Y99681D01*
X166335Y98980D01*
X164136D01*
X161148Y101969D01*
Y163115D01*
X161134Y163262D01*
X161091Y163404D01*
X161021Y163534D01*
X160927Y163648D01*
X147704Y176871D01*
X147972Y177519D01*
X148905D01*
X172114Y154309D01*
D02*
G37*
G36*
X163291Y97694D02*
X163406Y97600D01*
X163536Y97530D01*
X163677Y97487D01*
X163824Y97473D01*
X169690D01*
X171105Y96058D01*
X171057Y95719D01*
X170781Y95539D01*
X170308Y95433D01*
X170211Y95508D01*
X169956Y95670D01*
X169689Y95809D01*
X169410Y95925D01*
X169123Y96015D01*
X168828Y96081D01*
X168530Y96120D01*
X168228Y96133D01*
X167927Y96120D01*
X167628Y96081D01*
X167334Y96015D01*
X167046Y95925D01*
X166768Y95809D01*
X166500Y95670D01*
X166246Y95508D01*
X166007Y95325D01*
X165785Y95121D01*
X165581Y94899D01*
X165397Y94660D01*
X165235Y94405D01*
X165096Y94138D01*
X164981Y93859D01*
X164890Y93572D01*
X164825Y93277D01*
X164786Y92978D01*
X164772Y92677D01*
X164786Y92376D01*
X164825Y92077D01*
X164890Y91783D01*
X164981Y91495D01*
X165096Y91217D01*
X165235Y90949D01*
X165286Y90870D01*
X163445Y89030D01*
X161750D01*
X159896Y90884D01*
Y100174D01*
X160543Y100442D01*
X163291Y97694D01*
D02*
G37*
G36*
X90082Y133646D02*
X90522Y133299D01*
X90499Y133232D01*
X90456Y133016D01*
X90441Y132796D01*
X90456Y132576D01*
X90499Y132360D01*
X90570Y132151D01*
X90667Y131954D01*
X90789Y131770D01*
X90935Y131605D01*
X91100Y131459D01*
X91284Y131337D01*
X91481Y131239D01*
X91690Y131169D01*
X91906Y131126D01*
X92126Y131111D01*
X92346Y131126D01*
X92562Y131169D01*
X92771Y131239D01*
X92968Y131337D01*
X93152Y131459D01*
X93317Y131605D01*
X93463Y131770D01*
X93585Y131954D01*
X93654Y132092D01*
X93784Y132204D01*
X94319Y132376D01*
X94433Y132379D01*
X94631Y132281D01*
X94840Y132211D01*
X95056Y132168D01*
X95276Y132153D01*
X95495Y132168D01*
X95712Y132211D01*
X95920Y132281D01*
X96075Y132358D01*
X96184Y132366D01*
X96340Y132334D01*
X96693Y132191D01*
X96860Y132059D01*
X96869Y132033D01*
X96966Y131835D01*
X97089Y131652D01*
X97234Y131486D01*
X97400Y131341D01*
X97583Y131219D01*
X97781Y131121D01*
X97989Y131050D01*
X98205Y131007D01*
X98425Y130993D01*
X98645Y131007D01*
X98861Y131050D01*
X99070Y131121D01*
X99268Y131219D01*
X99451Y131341D01*
X99616Y131486D01*
X99762Y131652D01*
X99884Y131835D01*
X99982Y132033D01*
X100646Y131844D01*
X100733Y131806D01*
Y94210D01*
X100602Y94078D01*
X100055Y93835D01*
X99857Y93932D01*
X99649Y94003D01*
X99432Y94046D01*
X99213Y94061D01*
X98993Y94046D01*
X98777Y94003D01*
X98568Y93932D01*
X98370Y93835D01*
X98187Y93713D01*
X98021Y93567D01*
X97876Y93401D01*
X97754Y93218D01*
X97656Y93021D01*
X97636Y92962D01*
X97253Y92926D01*
X96924Y93010D01*
X96903Y93113D01*
X96832Y93322D01*
X96735Y93520D01*
X96612Y93703D01*
X96467Y93868D01*
X96301Y94014D01*
X96118Y94136D01*
X95920Y94234D01*
X95712Y94305D01*
X95495Y94348D01*
X95276Y94362D01*
X95056Y94348D01*
X94840Y94305D01*
X94631Y94234D01*
X94433Y94136D01*
X94250Y94014D01*
X94084Y93868D01*
X93939Y93703D01*
X93817Y93520D01*
X93719Y93322D01*
X93648Y93113D01*
X93605Y92897D01*
X93591Y92677D01*
X93591Y92675D01*
X93017Y92366D01*
X92924Y92351D01*
X88155Y97120D01*
Y131924D01*
X89938Y133707D01*
X90082Y133646D01*
D02*
G37*
G36*
X121498Y165903D02*
X121643Y165737D01*
X121809Y165592D01*
X121992Y165470D01*
X122190Y165372D01*
X122398Y165302D01*
X122615Y165259D01*
X122834Y165244D01*
X123054Y165259D01*
X123270Y165302D01*
X123479Y165372D01*
X123568Y165416D01*
X123863Y165224D01*
X124087Y164901D01*
X124046Y164818D01*
X123975Y164609D01*
X123932Y164393D01*
X123918Y164173D01*
X123932Y163953D01*
X123975Y163737D01*
X124046Y163529D01*
X124143Y163331D01*
X124266Y163148D01*
X124411Y162982D01*
X124577Y162837D01*
X124760Y162714D01*
X124958Y162617D01*
X125166Y162546D01*
X125382Y162503D01*
X125602Y162488D01*
X125822Y162503D01*
X125975Y162533D01*
X133990Y154518D01*
X133973Y154326D01*
X133711Y153805D01*
X133709Y153805D01*
X133493Y153762D01*
X133284Y153691D01*
X133087Y153594D01*
X132904Y153472D01*
X132738Y153326D01*
X132593Y153161D01*
X132470Y152977D01*
X132373Y152780D01*
X132302Y152571D01*
X132259Y152355D01*
X132244Y152135D01*
X132259Y151915D01*
X132302Y151699D01*
X132373Y151490D01*
X132470Y151293D01*
X132593Y151109D01*
X132738Y150944D01*
X132904Y150798D01*
X133087Y150676D01*
X133284Y150578D01*
X133493Y150508D01*
X133709Y150465D01*
X133929Y150450D01*
X134149Y150465D01*
X134365Y150508D01*
X134574Y150578D01*
X134772Y150676D01*
X134955Y150798D01*
X135120Y150944D01*
X135266Y151109D01*
X135388Y151293D01*
X135486Y151490D01*
X135556Y151699D01*
X135599Y151915D01*
X135600Y151917D01*
X136120Y152179D01*
X136312Y152196D01*
X153434Y135073D01*
Y51686D01*
X153305Y51600D01*
X153139Y51455D01*
X152994Y51289D01*
X152872Y51106D01*
X152774Y50908D01*
X152703Y50700D01*
X152660Y50483D01*
X152646Y50264D01*
X152660Y50044D01*
X152703Y49828D01*
X152774Y49619D01*
X152872Y49421D01*
X152994Y49238D01*
X153139Y49072D01*
X153305Y48927D01*
X153488Y48805D01*
X153686Y48707D01*
X153895Y48636D01*
X154111Y48593D01*
X154331Y48579D01*
X154551Y48593D01*
X154767Y48636D01*
X154808Y48650D01*
X155274Y48427D01*
X155509Y48206D01*
Y46452D01*
X154802Y45745D01*
X153391D01*
X153305Y45874D01*
X153160Y46039D01*
X152994Y46185D01*
X152811Y46307D01*
X152613Y46405D01*
X152404Y46475D01*
X152188Y46518D01*
X151969Y46533D01*
X151749Y46518D01*
X151532Y46475D01*
X151324Y46405D01*
X151126Y46307D01*
X150943Y46185D01*
X150777Y46039D01*
X150632Y45874D01*
X150510Y45691D01*
X150412Y45493D01*
X150341Y45284D01*
X150298Y45068D01*
X150284Y44848D01*
X150298Y44628D01*
X150341Y44412D01*
X150412Y44203D01*
X150510Y44006D01*
X150632Y43823D01*
X150777Y43657D01*
X150943Y43512D01*
X151126Y43389D01*
X151324Y43292D01*
X151532Y43221D01*
X151749Y43178D01*
X151969Y43163D01*
X152188Y43178D01*
X152404Y43221D01*
X152613Y43292D01*
X152811Y43389D01*
X152994Y43512D01*
X153160Y43657D01*
X153305Y43823D01*
X153391Y43952D01*
X155173D01*
X155313Y43963D01*
X155450Y43996D01*
X155580Y44049D01*
X155700Y44123D01*
X155807Y44214D01*
X157039Y45447D01*
X157131Y45554D01*
X157204Y45674D01*
X157258Y45804D01*
X157291Y45940D01*
X157302Y46081D01*
Y88661D01*
X158003Y88952D01*
X160395Y86560D01*
X160516Y86460D01*
X160655Y86386D01*
X160806Y86340D01*
X160962Y86325D01*
X163445D01*
X165286Y84484D01*
X165235Y84405D01*
X165096Y84138D01*
X164981Y83859D01*
X164890Y83572D01*
X164825Y83277D01*
X164786Y82978D01*
X164772Y82677D01*
X164786Y82376D01*
X164825Y82077D01*
X164890Y81783D01*
X164981Y81495D01*
X165096Y81217D01*
X165235Y80949D01*
X165397Y80695D01*
X165581Y80456D01*
X165785Y80233D01*
X166007Y80030D01*
X166246Y79846D01*
X166500Y79684D01*
X166768Y79545D01*
X167046Y79430D01*
X167334Y79339D01*
X167628Y79274D01*
X167927Y79234D01*
X168228Y79221D01*
X168530Y79234D01*
X168828Y79274D01*
X169123Y79339D01*
X169410Y79430D01*
X169689Y79545D01*
X169956Y79684D01*
X170211Y79846D01*
X170450Y80030D01*
X170654Y80217D01*
X170722Y80212D01*
X171355Y79941D01*
Y77820D01*
X169445Y75910D01*
X169410Y75925D01*
X169123Y76015D01*
X168828Y76081D01*
X168530Y76120D01*
X168228Y76133D01*
X167927Y76120D01*
X167628Y76081D01*
X167334Y76015D01*
X167046Y75925D01*
X166768Y75809D01*
X166500Y75670D01*
X166246Y75508D01*
X166007Y75325D01*
X165785Y75121D01*
X165581Y74899D01*
X165397Y74660D01*
X165235Y74405D01*
X165096Y74138D01*
X164981Y73859D01*
X164890Y73572D01*
X164825Y73277D01*
X164786Y72978D01*
X164772Y72677D01*
X164786Y72376D01*
X164825Y72077D01*
X164890Y71783D01*
X164981Y71495D01*
X165096Y71217D01*
X165235Y70949D01*
X165397Y70695D01*
X165581Y70456D01*
X165785Y70233D01*
X166007Y70030D01*
X166246Y69846D01*
X166500Y69684D01*
X166768Y69545D01*
X167046Y69429D01*
X167334Y69339D01*
X167628Y69274D01*
X167927Y69234D01*
X168228Y69221D01*
X168530Y69234D01*
X168828Y69274D01*
X169123Y69339D01*
X169410Y69429D01*
X169689Y69545D01*
X169956Y69684D01*
X170211Y69846D01*
X170450Y70030D01*
X170672Y70233D01*
X170876Y70456D01*
X171059Y70695D01*
X171221Y70949D01*
X171361Y71217D01*
X171414Y71344D01*
X172114Y71205D01*
Y64149D01*
X171414Y64010D01*
X171361Y64138D01*
X171221Y64405D01*
X171059Y64660D01*
X170876Y64899D01*
X170672Y65121D01*
X170450Y65325D01*
X170211Y65508D01*
X169956Y65670D01*
X169689Y65809D01*
X169410Y65925D01*
X169123Y66015D01*
X168828Y66081D01*
X168530Y66120D01*
X168228Y66133D01*
X167927Y66120D01*
X167628Y66081D01*
X167334Y66015D01*
X167046Y65925D01*
X166768Y65809D01*
X166500Y65670D01*
X166246Y65508D01*
X166007Y65325D01*
X165785Y65121D01*
X165581Y64899D01*
X165397Y64660D01*
X165235Y64405D01*
X165096Y64138D01*
X164981Y63859D01*
X164890Y63572D01*
X164825Y63277D01*
X164786Y62978D01*
X164772Y62677D01*
X164786Y62376D01*
X164825Y62077D01*
X164890Y61783D01*
X164981Y61495D01*
X165096Y61217D01*
X165235Y60949D01*
X165397Y60695D01*
X165581Y60456D01*
X165785Y60233D01*
X166007Y60030D01*
X166246Y59846D01*
X166500Y59684D01*
X166768Y59545D01*
X167046Y59430D01*
X167334Y59339D01*
X167628Y59274D01*
X167927Y59234D01*
X168228Y59221D01*
X168530Y59234D01*
X168828Y59274D01*
X169123Y59339D01*
X169410Y59430D01*
X169689Y59545D01*
X169956Y59684D01*
X170211Y59846D01*
X170450Y60030D01*
X170672Y60233D01*
X170876Y60456D01*
X171059Y60695D01*
X171221Y60949D01*
X171361Y61217D01*
X171414Y61344D01*
X172114Y61205D01*
Y54150D01*
X171414Y54010D01*
X171361Y54138D01*
X171221Y54405D01*
X171059Y54659D01*
X170876Y54899D01*
X170672Y55121D01*
X170450Y55325D01*
X170211Y55508D01*
X169956Y55670D01*
X169689Y55809D01*
X169410Y55925D01*
X169123Y56015D01*
X168828Y56081D01*
X168530Y56120D01*
X168228Y56133D01*
X167927Y56120D01*
X167628Y56081D01*
X167334Y56015D01*
X167046Y55925D01*
X166768Y55809D01*
X166500Y55670D01*
X166246Y55508D01*
X166007Y55325D01*
X165785Y55121D01*
X165581Y54899D01*
X165397Y54659D01*
X165235Y54405D01*
X165096Y54138D01*
X164981Y53859D01*
X164890Y53572D01*
X164825Y53277D01*
X164786Y52978D01*
X164772Y52677D01*
X164786Y52376D01*
X164825Y52077D01*
X164890Y51783D01*
X164981Y51495D01*
X165096Y51217D01*
X165235Y50949D01*
X165397Y50695D01*
X165581Y50456D01*
X165785Y50233D01*
X166007Y50030D01*
X166246Y49846D01*
X166500Y49684D01*
X166768Y49545D01*
X167046Y49430D01*
X167334Y49339D01*
X167628Y49274D01*
X167927Y49234D01*
X168228Y49221D01*
X168530Y49234D01*
X168828Y49274D01*
X169123Y49339D01*
X169410Y49430D01*
X169689Y49545D01*
X169956Y49684D01*
X170211Y49846D01*
X170450Y50030D01*
X170672Y50233D01*
X170876Y50456D01*
X171059Y50695D01*
X171221Y50949D01*
X171361Y51217D01*
X171414Y51344D01*
X172114Y51205D01*
Y44150D01*
X171414Y44010D01*
X171361Y44138D01*
X171221Y44405D01*
X171059Y44660D01*
X170876Y44899D01*
X170672Y45121D01*
X170450Y45325D01*
X170211Y45508D01*
X169956Y45670D01*
X169689Y45809D01*
X169410Y45925D01*
X169123Y46015D01*
X168828Y46081D01*
X168530Y46120D01*
X168228Y46133D01*
X167927Y46120D01*
X167628Y46081D01*
X167334Y46015D01*
X167046Y45925D01*
X166768Y45809D01*
X166500Y45670D01*
X166246Y45508D01*
X166007Y45325D01*
X165785Y45121D01*
X165581Y44899D01*
X165397Y44660D01*
X165235Y44405D01*
X165096Y44138D01*
X164981Y43859D01*
X164890Y43572D01*
X164825Y43277D01*
X164786Y42978D01*
X164772Y42677D01*
X164786Y42376D01*
X164825Y42077D01*
X164890Y41783D01*
X164981Y41495D01*
X165096Y41217D01*
X165235Y40949D01*
X165397Y40695D01*
X165581Y40456D01*
X165785Y40233D01*
X166007Y40030D01*
X166246Y39846D01*
X166500Y39684D01*
X166768Y39545D01*
X167046Y39430D01*
X167334Y39339D01*
X167513Y39299D01*
X167436Y38598D01*
X116238D01*
X109464Y45372D01*
Y48915D01*
X109504Y48935D01*
X109687Y49057D01*
X109853Y49202D01*
X109998Y49368D01*
X110120Y49551D01*
X110218Y49749D01*
X110289Y49957D01*
X110311Y49984D01*
X110703Y50230D01*
X110735Y50244D01*
X111042Y50297D01*
X111109Y50264D01*
X111318Y50193D01*
X111534Y50150D01*
X111754Y50135D01*
X111974Y50150D01*
X112190Y50193D01*
X112399Y50264D01*
X112596Y50361D01*
X112780Y50483D01*
X112945Y50629D01*
X113091Y50794D01*
X113213Y50978D01*
X113311Y51175D01*
X113381Y51384D01*
X113424Y51600D01*
X113439Y51820D01*
X113424Y52040D01*
X113381Y52256D01*
X113311Y52465D01*
X113213Y52662D01*
X113091Y52846D01*
X112945Y53011D01*
X112780Y53157D01*
X112596Y53279D01*
X112399Y53377D01*
X112190Y53447D01*
X111974Y53490D01*
X111754Y53505D01*
X111534Y53490D01*
X111318Y53447D01*
X111109Y53377D01*
X110912Y53279D01*
X110729Y53157D01*
X110563Y53011D01*
X110417Y52846D01*
X110295Y52662D01*
X110198Y52465D01*
X110127Y52256D01*
X110104Y52229D01*
X109712Y51983D01*
X109680Y51970D01*
X109373Y51917D01*
X109306Y51950D01*
X109097Y52021D01*
X108881Y52064D01*
X108661Y52078D01*
X108441Y52064D01*
X108225Y52021D01*
X108184Y52007D01*
X106223Y53968D01*
X106491Y54615D01*
X137689D01*
X137857Y54626D01*
X138023Y54659D01*
X138183Y54714D01*
X138334Y54788D01*
X138474Y54882D01*
X138601Y54993D01*
X143326Y59718D01*
X143437Y59844D01*
X143531Y59985D01*
X143605Y60136D01*
X143660Y60296D01*
X143693Y60461D01*
X143703Y60630D01*
Y69788D01*
X143750Y69841D01*
X143872Y70024D01*
X143970Y70221D01*
X144041Y70430D01*
X144084Y70646D01*
X144098Y70866D01*
X144084Y71086D01*
X144041Y71302D01*
X143970Y71511D01*
X143872Y71709D01*
X143750Y71892D01*
X143605Y72057D01*
X143439Y72203D01*
X143256Y72325D01*
X143058Y72423D01*
X142849Y72493D01*
X142633Y72536D01*
X142413Y72551D01*
X142193Y72536D01*
X141977Y72493D01*
X141769Y72423D01*
X141571Y72325D01*
X141388Y72203D01*
X141222Y72057D01*
X141077Y71892D01*
X140954Y71709D01*
X140857Y71511D01*
X140786Y71302D01*
X140743Y71086D01*
X140729Y70866D01*
X140743Y70646D01*
X140786Y70430D01*
X140857Y70221D01*
X140954Y70024D01*
X141077Y69841D01*
X141123Y69788D01*
Y61164D01*
X137155Y57196D01*
X121290D01*
X121059Y57637D01*
X121025Y57897D01*
X122950Y59822D01*
X123044Y59790D01*
X123260Y59747D01*
X123480Y59733D01*
X123699Y59747D01*
X123916Y59790D01*
X124124Y59861D01*
X124322Y59958D01*
X124505Y60081D01*
X124671Y60226D01*
X124816Y60392D01*
X124939Y60575D01*
X125036Y60773D01*
X125107Y60981D01*
X125150Y61197D01*
X125164Y61417D01*
X125150Y61637D01*
X125107Y61853D01*
X125036Y62062D01*
X124939Y62260D01*
X124816Y62443D01*
X124671Y62609D01*
X124505Y62754D01*
X124496Y62760D01*
X124441Y63004D01*
X124454Y63286D01*
X124537Y63544D01*
X124720Y63666D01*
X124886Y63812D01*
X125031Y63977D01*
X125153Y64161D01*
X125251Y64358D01*
X125322Y64567D01*
X125365Y64783D01*
X125379Y65003D01*
X125365Y65223D01*
X125322Y65439D01*
X125251Y65648D01*
X125153Y65845D01*
X125031Y66028D01*
X124886Y66194D01*
X124720Y66339D01*
X124537Y66462D01*
X124339Y66559D01*
X124130Y66630D01*
X123914Y66673D01*
X123694Y66688D01*
X123475Y66673D01*
X123258Y66630D01*
X123050Y66559D01*
X122852Y66462D01*
X122669Y66339D01*
X122503Y66194D01*
X122358Y66028D01*
X122235Y65845D01*
X122138Y65648D01*
X122067Y65439D01*
X122024Y65223D01*
X122010Y65003D01*
X122024Y64783D01*
X122067Y64567D01*
X122138Y64358D01*
X122235Y64161D01*
X122358Y63977D01*
X122503Y63812D01*
X122669Y63666D01*
X122678Y63660D01*
X122734Y63416D01*
X122720Y63134D01*
X122637Y62876D01*
X122454Y62754D01*
X122288Y62609D01*
X122143Y62443D01*
X122021Y62260D01*
X121923Y62062D01*
X121852Y61853D01*
X121809Y61637D01*
X121795Y61417D01*
X121809Y61197D01*
X121852Y60981D01*
X121884Y60888D01*
X120113Y59117D01*
X91815D01*
X90975Y59957D01*
X91400Y60523D01*
X91445Y60498D01*
X91660Y60409D01*
X91884Y60344D01*
X92114Y60305D01*
X92347Y60292D01*
X92579Y60305D01*
X92809Y60344D01*
X93033Y60409D01*
X93248Y60498D01*
X93452Y60611D01*
X93642Y60745D01*
X93816Y60901D01*
X93971Y61074D01*
X94106Y61264D01*
X94219Y61468D01*
X94308Y61684D01*
X94372Y61908D01*
X94411Y62137D01*
X94425Y62370D01*
X94411Y62603D01*
X94372Y62832D01*
X94308Y63056D01*
X94219Y63272D01*
X94106Y63476D01*
X93971Y63666D01*
X93816Y63840D01*
X93642Y63995D01*
X93452Y64130D01*
X93248Y64242D01*
X93033Y64332D01*
X92809Y64396D01*
X92579Y64435D01*
X92347Y64448D01*
X92114Y64435D01*
X91884Y64396D01*
X91660Y64332D01*
X91445Y64242D01*
X91241Y64130D01*
X91051Y63995D01*
X90877Y63840D01*
X90722Y63666D01*
X90587Y63476D01*
X90474Y63272D01*
X90385Y63056D01*
X90320Y62832D01*
X90281Y62603D01*
X90268Y62370D01*
X90281Y62137D01*
X90320Y61908D01*
X90385Y61684D01*
X90474Y61468D01*
X90499Y61424D01*
X89933Y60998D01*
X88244Y62688D01*
Y74059D01*
X88244Y74059D01*
X88229Y74206D01*
X88186Y74348D01*
X88117Y74478D01*
X88023Y74592D01*
X88023Y74592D01*
X84062Y78553D01*
X84330Y79201D01*
X91545D01*
X91660Y78505D01*
X91445Y78416D01*
X91241Y78303D01*
X91051Y78168D01*
X90877Y78013D01*
X90722Y77839D01*
X90587Y77649D01*
X90474Y77445D01*
X90385Y77230D01*
X90320Y77006D01*
X90281Y76776D01*
X90268Y76543D01*
X90281Y76311D01*
X90320Y76081D01*
X90385Y75857D01*
X90474Y75642D01*
X90587Y75438D01*
X90722Y75248D01*
X90877Y75074D01*
X91051Y74919D01*
X91241Y74784D01*
X91445Y74671D01*
X91660Y74582D01*
X91884Y74517D01*
X92114Y74478D01*
X92347Y74465D01*
X92579Y74478D01*
X92809Y74517D01*
X93033Y74582D01*
X93248Y74671D01*
X93452Y74784D01*
X93642Y74919D01*
X93816Y75074D01*
X93971Y75248D01*
X94106Y75438D01*
X94219Y75642D01*
X94308Y75857D01*
X94372Y76081D01*
X94411Y76311D01*
X94425Y76543D01*
X94411Y76776D01*
X94372Y77006D01*
X94308Y77230D01*
X94219Y77445D01*
X94106Y77649D01*
X93971Y77839D01*
X93816Y78013D01*
X93642Y78168D01*
X93452Y78303D01*
X93248Y78416D01*
X93033Y78505D01*
X93148Y79201D01*
X98631D01*
X98747Y78505D01*
X98532Y78416D01*
X98327Y78303D01*
X98137Y78168D01*
X97964Y78013D01*
X97808Y77839D01*
X97674Y77649D01*
X97561Y77445D01*
X97472Y77230D01*
X97407Y77006D01*
X97368Y76776D01*
X97355Y76543D01*
X97368Y76311D01*
X97407Y76081D01*
X97472Y75857D01*
X97561Y75642D01*
X97674Y75438D01*
X97808Y75248D01*
X97964Y75074D01*
X98137Y74919D01*
X98327Y74784D01*
X98532Y74671D01*
X98747Y74582D01*
X98971Y74517D01*
X99200Y74478D01*
X99433Y74465D01*
X99666Y74478D01*
X99896Y74517D01*
X100119Y74582D01*
X100335Y74671D01*
X100539Y74784D01*
X100729Y74919D01*
X100902Y75074D01*
X101058Y75248D01*
X101193Y75438D01*
X101305Y75642D01*
X101395Y75857D01*
X101459Y76081D01*
X101498Y76311D01*
X101511Y76543D01*
X101498Y76776D01*
X101459Y77006D01*
X101395Y77230D01*
X101305Y77445D01*
X101193Y77649D01*
X101058Y77839D01*
X100902Y78013D01*
X100729Y78168D01*
X100539Y78303D01*
X100335Y78416D01*
X100119Y78505D01*
X100235Y79201D01*
X105718D01*
X105833Y78505D01*
X105618Y78416D01*
X105414Y78303D01*
X105224Y78168D01*
X105050Y78013D01*
X104895Y77839D01*
X104760Y77649D01*
X104647Y77445D01*
X104558Y77230D01*
X104494Y77006D01*
X104455Y76776D01*
X104442Y76543D01*
X104455Y76311D01*
X104494Y76081D01*
X104558Y75857D01*
X104647Y75642D01*
X104760Y75438D01*
X104895Y75248D01*
X105050Y75074D01*
X105224Y74919D01*
X105414Y74784D01*
X105618Y74671D01*
X105833Y74582D01*
X106057Y74517D01*
X106287Y74478D01*
X106520Y74465D01*
X106752Y74478D01*
X106982Y74517D01*
X107206Y74582D01*
X107421Y74671D01*
X107625Y74784D01*
X107815Y74919D01*
X107989Y75074D01*
X108144Y75248D01*
X108279Y75438D01*
X108392Y75642D01*
X108481Y75857D01*
X108546Y76081D01*
X108585Y76311D01*
X108598Y76543D01*
X108585Y76776D01*
X108546Y77006D01*
X108481Y77230D01*
X108392Y77445D01*
X108279Y77649D01*
X108144Y77839D01*
X107989Y78013D01*
X107815Y78168D01*
X107625Y78303D01*
X107421Y78416D01*
X107206Y78505D01*
X107321Y79201D01*
X109329D01*
X111795Y76734D01*
Y65091D01*
X111811Y64935D01*
X111856Y64784D01*
X111931Y64645D01*
X112031Y64524D01*
X115002Y61552D01*
X115124Y61452D01*
X115262Y61378D01*
X115413Y61332D01*
X115570Y61317D01*
X117927D01*
X117947Y61278D01*
X118069Y61094D01*
X118214Y60929D01*
X118380Y60783D01*
X118563Y60661D01*
X118761Y60564D01*
X118970Y60493D01*
X119186Y60450D01*
X119406Y60435D01*
X119626Y60450D01*
X119842Y60493D01*
X120050Y60564D01*
X120248Y60661D01*
X120431Y60783D01*
X120597Y60929D01*
X120742Y61094D01*
X120865Y61278D01*
X120962Y61475D01*
X121033Y61684D01*
X121076Y61900D01*
X121090Y62120D01*
X121076Y62340D01*
X121033Y62556D01*
X120962Y62765D01*
X120865Y62963D01*
X120742Y63146D01*
X120597Y63311D01*
X120431Y63457D01*
X120248Y63579D01*
X120050Y63677D01*
X119842Y63747D01*
X119626Y63790D01*
X119576Y63794D01*
X119445Y63864D01*
X119175Y64152D01*
X119026Y64377D01*
X119001Y64468D01*
X119007Y64567D01*
X118993Y64787D01*
X118950Y65003D01*
X118879Y65211D01*
X118782Y65409D01*
X118659Y65592D01*
X118514Y65758D01*
X118348Y65903D01*
X118165Y66026D01*
X117967Y66123D01*
X117759Y66194D01*
X117543Y66237D01*
X117323Y66251D01*
X117103Y66237D01*
X116887Y66194D01*
X116678Y66123D01*
X116509Y66040D01*
X114500Y68049D01*
Y76912D01*
X115201Y77202D01*
X116936Y75467D01*
X116904Y75373D01*
X116861Y75157D01*
X116847Y74937D01*
X116861Y74717D01*
X116904Y74501D01*
X116975Y74292D01*
X117073Y74095D01*
X117195Y73911D01*
X117341Y73746D01*
X117506Y73600D01*
X117689Y73478D01*
X117887Y73381D01*
X118096Y73310D01*
X118312Y73267D01*
X118532Y73252D01*
X118752Y73267D01*
X118968Y73310D01*
X119176Y73381D01*
X119374Y73478D01*
X119557Y73600D01*
X119723Y73746D01*
X119868Y73911D01*
X119991Y74095D01*
X120088Y74292D01*
X120159Y74501D01*
X120202Y74717D01*
X120217Y74937D01*
X120202Y75157D01*
X120159Y75373D01*
X120088Y75582D01*
X119991Y75779D01*
X119868Y75963D01*
X119788Y76054D01*
X120300Y76533D01*
X122081Y74752D01*
Y71178D01*
X121052Y70149D01*
X120377Y69861D01*
X120211Y70006D01*
X120028Y70128D01*
X119831Y70226D01*
X119622Y70297D01*
X119406Y70340D01*
X119186Y70354D01*
X118966Y70340D01*
X118750Y70297D01*
X118541Y70226D01*
X118343Y70128D01*
X118160Y70006D01*
X117995Y69861D01*
X117849Y69695D01*
X117727Y69512D01*
X117629Y69314D01*
X117559Y69105D01*
X117516Y68889D01*
X117501Y68669D01*
X117516Y68449D01*
X117559Y68233D01*
X117629Y68025D01*
X117727Y67827D01*
X117849Y67644D01*
X117995Y67478D01*
X118160Y67333D01*
X118343Y67210D01*
X118541Y67113D01*
X118750Y67042D01*
X118966Y66999D01*
X119186Y66985D01*
X119406Y66999D01*
X119622Y67042D01*
X119831Y67113D01*
X120028Y67210D01*
X120211Y67333D01*
X120377Y67478D01*
X120522Y67644D01*
X120645Y67827D01*
X120691Y67921D01*
X120785Y67930D01*
X120926Y67973D01*
X121056Y68043D01*
X121170Y68136D01*
X123367Y70333D01*
X123367Y70333D01*
X123461Y70447D01*
X123531Y70578D01*
X123574Y70719D01*
X123588Y70866D01*
X123588Y70866D01*
Y75065D01*
X123574Y75212D01*
X123531Y75353D01*
X123461Y75483D01*
X123367Y75598D01*
X123367Y75598D01*
X114967Y83997D01*
X114853Y84091D01*
X114723Y84161D01*
X114582Y84204D01*
X114434Y84218D01*
X103290D01*
X102190Y85319D01*
X102569Y85930D01*
X102607Y85917D01*
X102823Y85874D01*
X103043Y85860D01*
X103263Y85874D01*
X103479Y85917D01*
X103688Y85988D01*
X103886Y86085D01*
X104069Y86208D01*
X104235Y86353D01*
X104380Y86519D01*
X104502Y86702D01*
X104600Y86900D01*
X104671Y87108D01*
X104714Y87324D01*
X104728Y87544D01*
X104717Y87708D01*
X104890Y87875D01*
X105083Y87996D01*
X105364Y88086D01*
X105481Y88009D01*
X105678Y87911D01*
X105887Y87840D01*
X106103Y87797D01*
X106323Y87783D01*
X106543Y87797D01*
X106759Y87840D01*
X106968Y87911D01*
X107165Y88009D01*
X107349Y88131D01*
X107514Y88276D01*
X107659Y88442D01*
X107782Y88625D01*
X107879Y88823D01*
X107917Y88933D01*
X108191Y88996D01*
X108644Y88930D01*
X108661Y88881D01*
X108759Y88683D01*
X108881Y88500D01*
X109026Y88334D01*
X109192Y88189D01*
X109375Y88067D01*
X109573Y87969D01*
X109782Y87898D01*
X109998Y87855D01*
X110218Y87841D01*
X110438Y87855D01*
X110654Y87898D01*
X110862Y87969D01*
X111060Y88067D01*
X111243Y88189D01*
X111409Y88334D01*
X111554Y88500D01*
X111677Y88683D01*
X111774Y88881D01*
X111845Y89090D01*
X111888Y89306D01*
X111902Y89526D01*
X111888Y89745D01*
X111845Y89962D01*
X111774Y90170D01*
X111677Y90368D01*
X111554Y90551D01*
X111409Y90717D01*
X111243Y90862D01*
X111060Y90985D01*
X110862Y91082D01*
X110654Y91153D01*
X110438Y91196D01*
X110318Y91204D01*
X110151Y91446D01*
X110023Y91900D01*
X115856Y97733D01*
X115947Y97840D01*
X116021Y97960D01*
X116075Y98090D01*
X116108Y98227D01*
X116119Y98367D01*
Y163408D01*
X118743Y166032D01*
X121412D01*
X121498Y165903D01*
D02*
G37*
G36*
X88982Y54993D02*
X89109Y54882D01*
X89249Y54788D01*
X89400Y54714D01*
X89560Y54659D01*
X89726Y54626D01*
X89894Y54615D01*
X94711D01*
X94980Y53968D01*
X91134Y50122D01*
X90792Y50169D01*
X90395Y50374D01*
X90382Y50436D01*
X90311Y50645D01*
X90214Y50842D01*
X90091Y51026D01*
X89946Y51191D01*
X89780Y51337D01*
X89597Y51459D01*
X89399Y51556D01*
X89191Y51627D01*
X88975Y51670D01*
X88755Y51685D01*
X88535Y51670D01*
X88319Y51627D01*
X88110Y51556D01*
X87912Y51459D01*
X87729Y51337D01*
X87564Y51191D01*
X87418Y51026D01*
X87296Y50842D01*
X87198Y50645D01*
X87128Y50436D01*
X87085Y50220D01*
X87070Y50000D01*
X87085Y49780D01*
X87128Y49564D01*
X87198Y49355D01*
X87296Y49158D01*
X87418Y48974D01*
X87564Y48809D01*
X87633Y48748D01*
X87581Y48394D01*
X87390Y48047D01*
X83877D01*
X83808Y48748D01*
X83901Y48766D01*
X84109Y48837D01*
X84307Y48935D01*
X84490Y49057D01*
X84656Y49202D01*
X84801Y49368D01*
X84924Y49551D01*
X85021Y49749D01*
X85092Y49958D01*
X85135Y50174D01*
X85149Y50394D01*
X85135Y50613D01*
X85092Y50830D01*
X85021Y51038D01*
X84924Y51236D01*
X84801Y51419D01*
X84656Y51585D01*
X84490Y51730D01*
X84307Y51853D01*
X84109Y51950D01*
X83901Y52021D01*
X83684Y52064D01*
X83465Y52078D01*
X83245Y52064D01*
X83029Y52021D01*
X82820Y51950D01*
X82622Y51853D01*
X82439Y51730D01*
X82273Y51585D01*
X82128Y51419D01*
X82006Y51236D01*
X81986Y51197D01*
X80503D01*
X71953Y59747D01*
X72221Y60394D01*
X78395D01*
X78414Y60355D01*
X78537Y60172D01*
X78682Y60006D01*
X78848Y59861D01*
X79031Y59738D01*
X79229Y59641D01*
X79437Y59570D01*
X79654Y59527D01*
X79873Y59513D01*
X80093Y59527D01*
X80309Y59570D01*
X80518Y59641D01*
X80716Y59738D01*
X80899Y59861D01*
X81065Y60006D01*
X81210Y60172D01*
X81332Y60355D01*
X81430Y60553D01*
X81501Y60761D01*
X81544Y60978D01*
X81558Y61197D01*
X81544Y61417D01*
X81538Y61446D01*
X82127Y61804D01*
X82161Y61814D01*
X88982Y54993D01*
D02*
G37*
%LPC*%
G36*
X93701Y162295D02*
X93481Y162280D01*
X93265Y162238D01*
X93056Y162167D01*
X92858Y162069D01*
X92675Y161947D01*
X92510Y161801D01*
X92364Y161636D01*
X92242Y161452D01*
X92144Y161255D01*
X92074Y161046D01*
X92031Y160830D01*
X92016Y160610D01*
X92031Y160390D01*
X92074Y160174D01*
X92144Y159966D01*
X92242Y159768D01*
X92364Y159585D01*
X92510Y159419D01*
X92675Y159274D01*
X92858Y159151D01*
X93056Y159054D01*
X93265Y158983D01*
X93481Y158940D01*
X93701Y158925D01*
X93921Y158940D01*
X94137Y158983D01*
X94345Y159054D01*
X94543Y159151D01*
X94595Y159186D01*
X95011Y158968D01*
X95204Y158760D01*
X95180Y158641D01*
X95166Y158421D01*
X95180Y158201D01*
X95223Y157985D01*
X95294Y157776D01*
X95391Y157578D01*
X95514Y157395D01*
X95659Y157229D01*
X95825Y157084D01*
X96008Y156962D01*
X96206Y156864D01*
X96414Y156793D01*
X96631Y156751D01*
X96850Y156736D01*
X97070Y156751D01*
X97286Y156793D01*
X97495Y156864D01*
X97693Y156962D01*
X97876Y157084D01*
X98042Y157229D01*
X98187Y157395D01*
X98309Y157578D01*
X98407Y157776D01*
X98478Y157985D01*
X98521Y158201D01*
X98535Y158421D01*
X98521Y158641D01*
X98513Y158679D01*
X98704Y158897D01*
X98834Y158987D01*
X99136Y159098D01*
X99158Y159083D01*
X99355Y158986D01*
X99564Y158915D01*
X99780Y158872D01*
X100000Y158858D01*
X100220Y158872D01*
X100436Y158915D01*
X100645Y158986D01*
X100842Y159083D01*
X101026Y159206D01*
X101191Y159351D01*
X101337Y159517D01*
X101459Y159700D01*
X101557Y159898D01*
X101627Y160106D01*
X101670Y160323D01*
X101685Y160543D01*
X101670Y160762D01*
X101627Y160978D01*
X101557Y161187D01*
X101459Y161385D01*
X101337Y161568D01*
X101191Y161734D01*
X101026Y161879D01*
X100842Y162002D01*
X100645Y162099D01*
X100436Y162170D01*
X100220Y162213D01*
X100000Y162227D01*
X99780Y162213D01*
X99564Y162170D01*
X99355Y162099D01*
X99158Y162002D01*
X98974Y161879D01*
X98809Y161734D01*
X98663Y161568D01*
X98541Y161385D01*
X98444Y161187D01*
X98373Y160978D01*
X98330Y160762D01*
X98315Y160543D01*
X98330Y160323D01*
X98337Y160284D01*
X98147Y160067D01*
X98017Y159976D01*
X97715Y159865D01*
X97693Y159880D01*
X97495Y159977D01*
X97286Y160048D01*
X97070Y160091D01*
X96850Y160106D01*
X96631Y160091D01*
X96414Y160048D01*
X96206Y159977D01*
X96008Y159880D01*
X95957Y159845D01*
X95540Y160063D01*
X95347Y160271D01*
X95371Y160390D01*
X95385Y160610D01*
X95371Y160830D01*
X95328Y161046D01*
X95257Y161255D01*
X95160Y161452D01*
X95037Y161636D01*
X94892Y161801D01*
X94726Y161947D01*
X94543Y162069D01*
X94345Y162167D01*
X94137Y162238D01*
X93921Y162280D01*
X93701Y162295D01*
D02*
G37*
G36*
X105824Y161782D02*
X105605Y161768D01*
X105388Y161725D01*
X105180Y161654D01*
X104982Y161556D01*
X104799Y161434D01*
X104633Y161289D01*
X104488Y161123D01*
X104366Y160940D01*
X104268Y160742D01*
X104197Y160533D01*
X104154Y160317D01*
X104140Y160097D01*
X104154Y159878D01*
X104197Y159661D01*
X104268Y159453D01*
X104366Y159255D01*
X104488Y159072D01*
X104633Y158906D01*
X104799Y158761D01*
X104982Y158638D01*
X105180Y158541D01*
X105388Y158470D01*
X105605Y158427D01*
X105824Y158413D01*
X106044Y158427D01*
X106261Y158470D01*
X106469Y158541D01*
X106667Y158638D01*
X106850Y158761D01*
X107016Y158906D01*
X107161Y159072D01*
X107283Y159255D01*
X107381Y159453D01*
X107452Y159661D01*
X107495Y159878D01*
X107509Y160097D01*
X107495Y160317D01*
X107452Y160533D01*
X107381Y160742D01*
X107283Y160940D01*
X107161Y161123D01*
X107016Y161289D01*
X106850Y161434D01*
X106667Y161556D01*
X106469Y161654D01*
X106261Y161725D01*
X106044Y161768D01*
X105824Y161782D01*
D02*
G37*
G36*
X110218Y143417D02*
X109998Y143403D01*
X109782Y143360D01*
X109573Y143289D01*
X109375Y143191D01*
X109192Y143069D01*
X109026Y142924D01*
X108881Y142758D01*
X108759Y142575D01*
X108661Y142377D01*
X108590Y142168D01*
X108547Y141952D01*
X108533Y141732D01*
X108547Y141512D01*
X108590Y141296D01*
X108661Y141088D01*
X108759Y140890D01*
X108881Y140707D01*
X109026Y140541D01*
X109192Y140396D01*
X109375Y140273D01*
X109573Y140176D01*
X109782Y140105D01*
X109998Y140062D01*
X110218Y140048D01*
X110438Y140062D01*
X110654Y140105D01*
X110862Y140176D01*
X111060Y140273D01*
X111243Y140396D01*
X111409Y140541D01*
X111554Y140707D01*
X111677Y140890D01*
X111774Y141088D01*
X111845Y141296D01*
X111888Y141512D01*
X111902Y141732D01*
X111888Y141952D01*
X111845Y142168D01*
X111774Y142377D01*
X111677Y142575D01*
X111554Y142758D01*
X111409Y142924D01*
X111243Y143069D01*
X111060Y143191D01*
X110862Y143289D01*
X110654Y143360D01*
X110438Y143403D01*
X110218Y143417D01*
D02*
G37*
G36*
X96850Y149456D02*
X96631Y149441D01*
X96414Y149398D01*
X96206Y149328D01*
X96008Y149230D01*
X95825Y149108D01*
X95659Y148962D01*
X95514Y148797D01*
X95391Y148613D01*
X95294Y148416D01*
X95223Y148207D01*
X95180Y147991D01*
X95166Y147771D01*
X95180Y147551D01*
X95223Y147335D01*
X95294Y147126D01*
X95391Y146929D01*
X95514Y146745D01*
X95659Y146580D01*
X95825Y146434D01*
X96008Y146312D01*
X96206Y146215D01*
X96414Y146144D01*
X96631Y146101D01*
X96850Y146086D01*
X97070Y146101D01*
X97286Y146144D01*
X97495Y146215D01*
X97693Y146312D01*
X97876Y146434D01*
X98042Y146580D01*
X98187Y146745D01*
X98309Y146929D01*
X98407Y147126D01*
X98478Y147335D01*
X98521Y147551D01*
X98535Y147771D01*
X98521Y147991D01*
X98478Y148207D01*
X98407Y148416D01*
X98309Y148613D01*
X98187Y148797D01*
X98042Y148962D01*
X97876Y149108D01*
X97693Y149230D01*
X97495Y149328D01*
X97286Y149398D01*
X97070Y149441D01*
X96850Y149456D01*
D02*
G37*
G36*
X93241Y146918D02*
X93022Y146904D01*
X92805Y146861D01*
X92597Y146790D01*
X92399Y146692D01*
X92216Y146570D01*
X92050Y146424D01*
X91905Y146259D01*
X91782Y146076D01*
X91685Y145878D01*
X91614Y145669D01*
X91571Y145453D01*
X91557Y145233D01*
X91571Y145013D01*
X91614Y144797D01*
X91685Y144588D01*
X91782Y144391D01*
X91905Y144208D01*
X92050Y144042D01*
X92216Y143897D01*
X92399Y143774D01*
X92597Y143677D01*
X92805Y143606D01*
X93022Y143563D01*
X93241Y143549D01*
X93461Y143563D01*
X93677Y143606D01*
X93886Y143677D01*
X94084Y143774D01*
X94267Y143897D01*
X94433Y144042D01*
X94578Y144208D01*
X94700Y144391D01*
X94798Y144588D01*
X94869Y144797D01*
X94912Y145013D01*
X94926Y145233D01*
X94912Y145453D01*
X94869Y145669D01*
X94798Y145878D01*
X94700Y146076D01*
X94578Y146259D01*
X94433Y146424D01*
X94267Y146570D01*
X94084Y146692D01*
X93886Y146790D01*
X93677Y146861D01*
X93461Y146904D01*
X93241Y146918D01*
D02*
G37*
G36*
X70669Y116518D02*
X70449Y116504D01*
X70233Y116461D01*
X70025Y116390D01*
X69827Y116293D01*
X69644Y116170D01*
X69478Y116025D01*
X69333Y115859D01*
X69210Y115676D01*
X69113Y115479D01*
X69042Y115270D01*
X68999Y115054D01*
X68985Y114834D01*
X68999Y114614D01*
X69042Y114398D01*
X69113Y114189D01*
X69210Y113991D01*
X69333Y113808D01*
X69478Y113643D01*
X69644Y113497D01*
X69827Y113375D01*
X70025Y113277D01*
X70233Y113206D01*
X70449Y113163D01*
X70669Y113149D01*
X70889Y113163D01*
X71105Y113206D01*
X71314Y113277D01*
X71512Y113375D01*
X71695Y113497D01*
X71861Y113643D01*
X72006Y113808D01*
X72128Y113991D01*
X72226Y114189D01*
X72297Y114398D01*
X72340Y114614D01*
X72354Y114834D01*
X72340Y115054D01*
X72297Y115270D01*
X72226Y115479D01*
X72128Y115676D01*
X72006Y115859D01*
X71861Y116025D01*
X71695Y116170D01*
X71512Y116293D01*
X71314Y116390D01*
X71105Y116461D01*
X70889Y116504D01*
X70669Y116518D01*
D02*
G37*
G36*
X74685Y104882D02*
Y103256D01*
X76310D01*
X76247Y103477D01*
X76153Y103704D01*
X76034Y103918D01*
X75893Y104118D01*
X75729Y104301D01*
X75547Y104464D01*
X75347Y104606D01*
X75133Y104724D01*
X74906Y104818D01*
X74685Y104882D01*
D02*
G37*
G36*
X73685D02*
X73463Y104818D01*
X73237Y104724D01*
X73022Y104606D01*
X72823Y104464D01*
X72640Y104301D01*
X72477Y104118D01*
X72335Y103918D01*
X72216Y103704D01*
X72123Y103477D01*
X72059Y103256D01*
X73685D01*
Y104882D01*
D02*
G37*
G36*
X76310Y102256D02*
X74685D01*
Y100630D01*
X74906Y100694D01*
X75133Y100788D01*
X75347Y100906D01*
X75547Y101048D01*
X75729Y101211D01*
X75893Y101394D01*
X76034Y101594D01*
X76153Y101808D01*
X76247Y102034D01*
X76310Y102256D01*
D02*
G37*
G36*
X73685D02*
X72059D01*
X72123Y102034D01*
X72216Y101808D01*
X72335Y101594D01*
X72477Y101394D01*
X72640Y101211D01*
X72823Y101048D01*
X73022Y100906D01*
X73237Y100788D01*
X73463Y100694D01*
X73685Y100630D01*
Y102256D01*
D02*
G37*
G36*
X82220Y76344D02*
X82000Y76330D01*
X81784Y76287D01*
X81576Y76216D01*
X81378Y76118D01*
X81195Y75996D01*
X81029Y75851D01*
X80884Y75685D01*
X80761Y75502D01*
X80664Y75304D01*
X80593Y75095D01*
X80550Y74879D01*
X80536Y74660D01*
X80550Y74440D01*
X80593Y74223D01*
X80664Y74015D01*
X80761Y73817D01*
X80884Y73634D01*
X81029Y73468D01*
X81195Y73323D01*
X81378Y73201D01*
X81576Y73103D01*
X81784Y73032D01*
X82000Y72989D01*
X82220Y72975D01*
X82440Y72989D01*
X82656Y73032D01*
X82865Y73103D01*
X83063Y73201D01*
X83246Y73323D01*
X83412Y73468D01*
X83557Y73634D01*
X83679Y73817D01*
X83777Y74015D01*
X83847Y74223D01*
X83890Y74440D01*
X83905Y74660D01*
X83890Y74879D01*
X83847Y75095D01*
X83777Y75304D01*
X83679Y75502D01*
X83557Y75685D01*
X83412Y75851D01*
X83246Y75996D01*
X83063Y76118D01*
X82865Y76216D01*
X82656Y76287D01*
X82440Y76330D01*
X82220Y76344D01*
D02*
G37*
G36*
X143799Y169295D02*
X143579Y169280D01*
X143363Y169237D01*
X143155Y169167D01*
X142957Y169069D01*
X142774Y168947D01*
X142608Y168801D01*
X142463Y168636D01*
X142340Y168452D01*
X142243Y168255D01*
X142172Y168046D01*
X142129Y167830D01*
X142114Y167610D01*
X142129Y167390D01*
X142172Y167174D01*
X142243Y166965D01*
X142340Y166768D01*
X142463Y166585D01*
X142608Y166419D01*
X142774Y166273D01*
X142957Y166151D01*
X143155Y166054D01*
X143363Y165983D01*
X143579Y165940D01*
X143799Y165925D01*
X144019Y165940D01*
X144235Y165983D01*
X144444Y166054D01*
X144642Y166151D01*
X144825Y166273D01*
X144991Y166419D01*
X145136Y166585D01*
X145258Y166768D01*
X145356Y166965D01*
X145426Y167174D01*
X145469Y167390D01*
X145484Y167610D01*
X145469Y167830D01*
X145426Y168046D01*
X145356Y168255D01*
X145258Y168452D01*
X145136Y168636D01*
X144991Y168801D01*
X144825Y168947D01*
X144642Y169069D01*
X144444Y169167D01*
X144235Y169237D01*
X144019Y169280D01*
X143799Y169295D01*
D02*
G37*
G36*
X140657Y160822D02*
Y159196D01*
X142283D01*
X142219Y159418D01*
X142126Y159644D01*
X142007Y159859D01*
X141865Y160058D01*
X141702Y160241D01*
X141519Y160404D01*
X141320Y160546D01*
X141105Y160665D01*
X140879Y160758D01*
X140657Y160822D01*
D02*
G37*
G36*
X139657D02*
X139436Y160758D01*
X139210Y160665D01*
X138995Y160546D01*
X138795Y160404D01*
X138613Y160241D01*
X138450Y160058D01*
X138308Y159859D01*
X138189Y159644D01*
X138095Y159418D01*
X138032Y159196D01*
X139657D01*
Y160822D01*
D02*
G37*
G36*
X142283Y158196D02*
X140657D01*
Y156571D01*
X140879Y156634D01*
X141105Y156728D01*
X141320Y156847D01*
X141519Y156989D01*
X141702Y157152D01*
X141865Y157334D01*
X142007Y157534D01*
X142126Y157749D01*
X142219Y157975D01*
X142283Y158196D01*
D02*
G37*
G36*
X139657D02*
X138032D01*
X138095Y157975D01*
X138189Y157749D01*
X138308Y157534D01*
X138450Y157334D01*
X138613Y157152D01*
X138795Y156989D01*
X138995Y156847D01*
X139210Y156728D01*
X139436Y156634D01*
X139657Y156571D01*
Y158196D01*
D02*
G37*
G36*
X121235Y162592D02*
X121015Y162578D01*
X120799Y162535D01*
X120590Y162464D01*
X120392Y162367D01*
X120209Y162244D01*
X120043Y162099D01*
X119898Y161933D01*
X119775Y161750D01*
X119678Y161552D01*
X119607Y161344D01*
X119564Y161128D01*
X119550Y160908D01*
X119564Y160688D01*
X119607Y160472D01*
X119678Y160263D01*
X119775Y160065D01*
X119898Y159882D01*
X120043Y159716D01*
X120209Y159571D01*
X120392Y159449D01*
X120590Y159351D01*
X120799Y159280D01*
X121015Y159237D01*
X121235Y159223D01*
X121454Y159237D01*
X121671Y159280D01*
X121879Y159351D01*
X122077Y159449D01*
X122260Y159571D01*
X122426Y159716D01*
X122571Y159882D01*
X122694Y160065D01*
X122791Y160263D01*
X122862Y160472D01*
X122905Y160688D01*
X122919Y160908D01*
X122905Y161128D01*
X122862Y161344D01*
X122791Y161552D01*
X122694Y161750D01*
X122571Y161933D01*
X122426Y162099D01*
X122260Y162244D01*
X122077Y162367D01*
X121879Y162464D01*
X121671Y162535D01*
X121454Y162578D01*
X121235Y162592D01*
D02*
G37*
G36*
X125984Y159952D02*
X125764Y159938D01*
X125548Y159895D01*
X125339Y159824D01*
X125142Y159726D01*
X124958Y159604D01*
X124793Y159459D01*
X124647Y159293D01*
X124525Y159110D01*
X124427Y158912D01*
X124357Y158703D01*
X124314Y158487D01*
X124299Y158267D01*
X124314Y158047D01*
X124357Y157831D01*
X124427Y157623D01*
X124525Y157425D01*
X124647Y157242D01*
X124793Y157076D01*
X124958Y156931D01*
X125142Y156808D01*
X125339Y156711D01*
X125548Y156640D01*
X125764Y156597D01*
X125984Y156583D01*
X126204Y156597D01*
X126420Y156640D01*
X126629Y156711D01*
X126826Y156808D01*
X127010Y156931D01*
X127175Y157076D01*
X127321Y157242D01*
X127443Y157425D01*
X127541Y157623D01*
X127611Y157831D01*
X127654Y158047D01*
X127669Y158267D01*
X127654Y158487D01*
X127611Y158703D01*
X127541Y158912D01*
X127443Y159110D01*
X127321Y159293D01*
X127175Y159459D01*
X127010Y159604D01*
X126826Y159726D01*
X126629Y159824D01*
X126420Y159895D01*
X126204Y159938D01*
X125984Y159952D01*
D02*
G37*
G36*
X121980Y156956D02*
X121760Y156942D01*
X121544Y156899D01*
X121335Y156828D01*
X121137Y156731D01*
X120954Y156608D01*
X120789Y156463D01*
X120643Y156297D01*
X120521Y156114D01*
X120423Y155916D01*
X120352Y155708D01*
X120309Y155491D01*
X120295Y155272D01*
X120309Y155052D01*
X120352Y154836D01*
X120423Y154627D01*
X120521Y154429D01*
X120643Y154246D01*
X120789Y154080D01*
X120954Y153935D01*
X121137Y153813D01*
X121335Y153715D01*
X121544Y153644D01*
X121760Y153601D01*
X121980Y153587D01*
X122200Y153601D01*
X122416Y153644D01*
X122625Y153715D01*
X122822Y153813D01*
X123005Y153935D01*
X123171Y154080D01*
X123316Y154246D01*
X123439Y154429D01*
X123536Y154627D01*
X123607Y154836D01*
X123650Y155052D01*
X123665Y155272D01*
X123650Y155491D01*
X123607Y155708D01*
X123536Y155916D01*
X123439Y156114D01*
X123316Y156297D01*
X123171Y156463D01*
X123005Y156608D01*
X122822Y156731D01*
X122625Y156828D01*
X122416Y156899D01*
X122200Y156942D01*
X121980Y156956D01*
D02*
G37*
G36*
X132433Y148036D02*
X123694D01*
X123526Y148024D01*
X123361Y147992D01*
X123201Y147937D01*
X123049Y147863D01*
X122909Y147769D01*
X122782Y147658D01*
X121483Y146359D01*
X121372Y146232D01*
X121278Y146092D01*
X121203Y145940D01*
X121149Y145780D01*
X121116Y145615D01*
X121105Y145447D01*
Y139085D01*
X121059Y139032D01*
X120937Y138849D01*
X120839Y138651D01*
X120768Y138443D01*
X120725Y138226D01*
X120711Y138006D01*
X120725Y137787D01*
X120768Y137570D01*
X120839Y137362D01*
X120937Y137164D01*
X121059Y136981D01*
X121204Y136815D01*
X121370Y136670D01*
X121553Y136548D01*
X121751Y136450D01*
X121959Y136379D01*
X122176Y136336D01*
X122396Y136322D01*
X122615Y136336D01*
X122831Y136379D01*
X123040Y136450D01*
X123238Y136548D01*
X123421Y136670D01*
X123587Y136815D01*
X123732Y136981D01*
X123854Y137164D01*
X123952Y137362D01*
X124023Y137570D01*
X124066Y137787D01*
X124080Y138006D01*
X124066Y138226D01*
X124023Y138443D01*
X123952Y138651D01*
X123854Y138849D01*
X123734Y139030D01*
X123772Y139150D01*
X123844Y139365D01*
X123942Y139433D01*
X124480Y139582D01*
X124604Y139590D01*
X124760Y139486D01*
X124958Y139388D01*
X125166Y139318D01*
X125382Y139275D01*
X125602Y139260D01*
X125822Y139275D01*
X126038Y139318D01*
X126247Y139388D01*
X126445Y139486D01*
X126628Y139608D01*
X126794Y139754D01*
X126939Y139919D01*
X127061Y140103D01*
X127159Y140300D01*
X127230Y140509D01*
X127251Y140615D01*
X127337Y140995D01*
X127576Y141234D01*
X127956Y141320D01*
X128062Y141341D01*
X128271Y141412D01*
X128469Y141510D01*
X128652Y141632D01*
X128817Y141778D01*
X128963Y141943D01*
X129085Y142126D01*
X129183Y142324D01*
X129253Y142533D01*
X129297Y142749D01*
X129311Y142969D01*
X129297Y143189D01*
X129253Y143405D01*
X129183Y143614D01*
X129085Y143811D01*
X128963Y143994D01*
X128817Y144160D01*
X128652Y144305D01*
X128469Y144428D01*
X128271Y144525D01*
X128062Y144596D01*
X127846Y144639D01*
X127626Y144653D01*
X127406Y144639D01*
X127190Y144596D01*
X126981Y144525D01*
X126784Y144428D01*
X126601Y144305D01*
X126435Y144160D01*
X126290Y143994D01*
X126167Y143811D01*
X126070Y143614D01*
X125999Y143405D01*
X125978Y143299D01*
X125891Y142919D01*
X125653Y142680D01*
X125272Y142593D01*
X125166Y142572D01*
X124958Y142501D01*
X124760Y142404D01*
X124577Y142281D01*
X124411Y142136D01*
X124386Y142108D01*
X123883Y142228D01*
X123686Y142361D01*
Y144912D01*
X124229Y145455D01*
X131899D01*
X132780Y144575D01*
X132784Y144504D01*
X132827Y144288D01*
X132898Y144080D01*
X132995Y143882D01*
X133118Y143699D01*
X133263Y143533D01*
X133429Y143388D01*
X133612Y143265D01*
X133810Y143168D01*
X134019Y143097D01*
X134235Y143054D01*
X134455Y143040D01*
X134674Y143054D01*
X134891Y143097D01*
X135099Y143168D01*
X135297Y143265D01*
X135480Y143388D01*
X135646Y143533D01*
X135791Y143699D01*
X135914Y143882D01*
X136011Y144080D01*
X136082Y144288D01*
X136125Y144504D01*
X136139Y144724D01*
X136125Y144944D01*
X136082Y145160D01*
X136011Y145369D01*
X135914Y145567D01*
X135791Y145750D01*
X135646Y145916D01*
X135480Y146061D01*
X135297Y146183D01*
X135099Y146281D01*
X134891Y146352D01*
X134674Y146395D01*
X134604Y146399D01*
X133346Y147658D01*
X133219Y147769D01*
X133078Y147863D01*
X132927Y147937D01*
X132767Y147992D01*
X132602Y148024D01*
X132433Y148036D01*
D02*
G37*
G36*
X147244Y136330D02*
X147024Y136316D01*
X146808Y136273D01*
X146599Y136202D01*
X146402Y136105D01*
X146219Y135982D01*
X146053Y135837D01*
X145907Y135671D01*
X145785Y135488D01*
X145688Y135290D01*
X145617Y135082D01*
X145574Y134866D01*
X145559Y134646D01*
X145574Y134426D01*
X145617Y134210D01*
X145688Y134001D01*
X145785Y133803D01*
X145907Y133620D01*
X146053Y133454D01*
X146219Y133309D01*
X146402Y133187D01*
X146599Y133089D01*
X146808Y133018D01*
X147024Y132975D01*
X147244Y132961D01*
X147464Y132975D01*
X147680Y133018D01*
X147889Y133089D01*
X148086Y133187D01*
X148270Y133309D01*
X148435Y133454D01*
X148581Y133620D01*
X148703Y133803D01*
X148801Y134001D01*
X148871Y134210D01*
X148914Y134426D01*
X148929Y134646D01*
X148914Y134866D01*
X148871Y135082D01*
X148801Y135290D01*
X148703Y135488D01*
X148581Y135671D01*
X148435Y135837D01*
X148270Y135982D01*
X148086Y136105D01*
X147889Y136202D01*
X147680Y136273D01*
X147464Y136316D01*
X147244Y136330D01*
D02*
G37*
G36*
X133647Y119580D02*
X133428Y119565D01*
X133211Y119522D01*
X133003Y119451D01*
X132805Y119354D01*
X132622Y119231D01*
X132456Y119086D01*
X132311Y118921D01*
X132188Y118737D01*
X132091Y118540D01*
X132020Y118331D01*
X131977Y118115D01*
X131963Y117895D01*
X131977Y117675D01*
X132020Y117459D01*
X132091Y117250D01*
X132188Y117052D01*
X132311Y116869D01*
X132456Y116704D01*
X132622Y116558D01*
X132805Y116436D01*
X133003Y116338D01*
X133211Y116268D01*
X133428Y116225D01*
X133647Y116210D01*
X133867Y116225D01*
X134083Y116268D01*
X134292Y116338D01*
X134490Y116436D01*
X134673Y116558D01*
X134839Y116704D01*
X134984Y116869D01*
X135106Y117052D01*
X135204Y117250D01*
X135275Y117459D01*
X135318Y117675D01*
X135332Y117895D01*
X135318Y118115D01*
X135275Y118331D01*
X135204Y118540D01*
X135106Y118737D01*
X134984Y118921D01*
X134839Y119086D01*
X134673Y119231D01*
X134490Y119354D01*
X134292Y119451D01*
X134083Y119522D01*
X133867Y119565D01*
X133647Y119580D01*
D02*
G37*
G36*
X127093Y113180D02*
X126873Y113165D01*
X126657Y113122D01*
X126449Y113052D01*
X126251Y112954D01*
X126068Y112832D01*
X125902Y112686D01*
X125757Y112521D01*
X125634Y112338D01*
X125537Y112140D01*
X125466Y111931D01*
X125423Y111715D01*
X125409Y111495D01*
X125423Y111275D01*
X125466Y111059D01*
X125537Y110850D01*
X125634Y110653D01*
X125757Y110469D01*
X125902Y110304D01*
X126068Y110159D01*
X126251Y110036D01*
X126449Y109939D01*
X126657Y109868D01*
X126873Y109825D01*
X127093Y109810D01*
X127313Y109825D01*
X127529Y109868D01*
X127738Y109939D01*
X127936Y110036D01*
X128119Y110159D01*
X128285Y110304D01*
X128430Y110469D01*
X128552Y110653D01*
X128650Y110850D01*
X128721Y111059D01*
X128764Y111275D01*
X128778Y111495D01*
X128764Y111715D01*
X128721Y111931D01*
X128650Y112140D01*
X128552Y112338D01*
X128430Y112521D01*
X128285Y112686D01*
X128119Y112832D01*
X127936Y112954D01*
X127738Y113052D01*
X127529Y113122D01*
X127313Y113165D01*
X127093Y113180D01*
D02*
G37*
G36*
X138150Y112708D02*
X137930Y112694D01*
X137714Y112651D01*
X137505Y112580D01*
X137307Y112483D01*
X137124Y112360D01*
X136958Y112215D01*
X136813Y112049D01*
X136691Y111866D01*
X136593Y111668D01*
X136522Y111460D01*
X136479Y111243D01*
X136465Y111024D01*
X136479Y110804D01*
X136522Y110588D01*
X136593Y110379D01*
X136691Y110181D01*
X136813Y109998D01*
X136958Y109832D01*
X137124Y109687D01*
X137307Y109565D01*
X137505Y109467D01*
X137714Y109396D01*
X137930Y109353D01*
X138150Y109339D01*
X138370Y109353D01*
X138586Y109396D01*
X138794Y109467D01*
X138992Y109565D01*
X139175Y109687D01*
X139341Y109832D01*
X139486Y109998D01*
X139609Y110181D01*
X139706Y110379D01*
X139777Y110588D01*
X139820Y110804D01*
X139834Y111024D01*
X139820Y111243D01*
X139777Y111460D01*
X139706Y111668D01*
X139609Y111866D01*
X139486Y112049D01*
X139341Y112215D01*
X139175Y112360D01*
X138992Y112483D01*
X138794Y112580D01*
X138586Y112651D01*
X138370Y112694D01*
X138150Y112708D01*
D02*
G37*
G36*
X133523Y112659D02*
X133303Y112645D01*
X133087Y112602D01*
X132878Y112531D01*
X132680Y112433D01*
X132497Y112311D01*
X132331Y112166D01*
X132186Y112000D01*
X132064Y111817D01*
X131966Y111619D01*
X131895Y111410D01*
X131852Y111194D01*
X131838Y110975D01*
X131852Y110755D01*
X131895Y110538D01*
X131966Y110330D01*
X132064Y110132D01*
X132186Y109949D01*
X132331Y109783D01*
X132497Y109638D01*
X132680Y109516D01*
X132878Y109418D01*
X133087Y109347D01*
X133303Y109304D01*
X133523Y109290D01*
X133743Y109304D01*
X133959Y109347D01*
X134167Y109418D01*
X134365Y109516D01*
X134548Y109638D01*
X134714Y109783D01*
X134859Y109949D01*
X134982Y110132D01*
X135079Y110330D01*
X135150Y110538D01*
X135193Y110755D01*
X135207Y110975D01*
X135193Y111194D01*
X135150Y111410D01*
X135079Y111619D01*
X134982Y111817D01*
X134859Y112000D01*
X134714Y112166D01*
X134548Y112311D01*
X134365Y112433D01*
X134167Y112531D01*
X133959Y112602D01*
X133743Y112645D01*
X133523Y112659D01*
D02*
G37*
G36*
X117535Y89874D02*
X117316Y89859D01*
X117099Y89816D01*
X116891Y89745D01*
X116693Y89648D01*
X116510Y89526D01*
X116344Y89380D01*
X116199Y89215D01*
X116076Y89031D01*
X115979Y88834D01*
X115908Y88625D01*
X115865Y88409D01*
X115851Y88189D01*
X115865Y87969D01*
X115908Y87753D01*
X115979Y87544D01*
X116076Y87347D01*
X116199Y87163D01*
X116344Y86998D01*
X116510Y86852D01*
X116627Y86774D01*
X116716Y86547D01*
X116752Y86080D01*
X116722Y85960D01*
X116577Y85794D01*
X116454Y85611D01*
X116357Y85413D01*
X116286Y85205D01*
X116243Y84989D01*
X116229Y84769D01*
X116243Y84549D01*
X116286Y84333D01*
X116357Y84124D01*
X116454Y83926D01*
X116577Y83743D01*
X116722Y83577D01*
X116888Y83432D01*
X117071Y83310D01*
X117269Y83212D01*
X117477Y83141D01*
X117693Y83098D01*
X117913Y83084D01*
X118133Y83098D01*
X118349Y83141D01*
X118486Y83188D01*
X118799Y83007D01*
X119074Y82691D01*
X119055Y82596D01*
X119041Y82376D01*
X119055Y82156D01*
X119098Y81940D01*
X119169Y81731D01*
X119267Y81534D01*
X119389Y81350D01*
X119535Y81185D01*
X119700Y81039D01*
X119883Y80917D01*
X120081Y80819D01*
X120290Y80749D01*
X120506Y80706D01*
X120726Y80691D01*
X120946Y80706D01*
X121162Y80749D01*
X121370Y80819D01*
X121568Y80917D01*
X121751Y81039D01*
X121917Y81185D01*
X122062Y81350D01*
X122185Y81534D01*
X122282Y81731D01*
X122353Y81940D01*
X122396Y82156D01*
X122411Y82376D01*
X122396Y82596D01*
X122353Y82812D01*
X122282Y83021D01*
X122185Y83218D01*
X122062Y83402D01*
X121917Y83567D01*
X121751Y83713D01*
X121568Y83835D01*
X121370Y83932D01*
X121162Y84003D01*
X120946Y84046D01*
X120726Y84061D01*
X120506Y84046D01*
X120290Y84003D01*
X120153Y83957D01*
X119840Y84138D01*
X119565Y84453D01*
X119584Y84549D01*
X119598Y84769D01*
X119584Y84989D01*
X119541Y85205D01*
X119470Y85413D01*
X119372Y85611D01*
X119250Y85794D01*
X119105Y85960D01*
X118939Y86105D01*
X118822Y86184D01*
X118733Y86410D01*
X118697Y86878D01*
X118727Y86998D01*
X118872Y87163D01*
X118994Y87347D01*
X119092Y87544D01*
X119163Y87753D01*
X119206Y87969D01*
X119220Y88189D01*
X119206Y88409D01*
X119163Y88625D01*
X119092Y88834D01*
X118994Y89031D01*
X118872Y89215D01*
X118727Y89380D01*
X118561Y89526D01*
X118378Y89648D01*
X118180Y89745D01*
X117972Y89816D01*
X117755Y89859D01*
X117535Y89874D01*
D02*
G37*
G36*
X106520Y71535D02*
X106287Y71522D01*
X106057Y71483D01*
X105833Y71418D01*
X105618Y71329D01*
X105414Y71216D01*
X105224Y71081D01*
X105050Y70926D01*
X104895Y70752D01*
X104760Y70562D01*
X104647Y70358D01*
X104558Y70143D01*
X104494Y69919D01*
X104455Y69689D01*
X104442Y69457D01*
X104455Y69224D01*
X104494Y68994D01*
X104558Y68770D01*
X104647Y68555D01*
X104760Y68351D01*
X104895Y68161D01*
X105050Y67987D01*
X105224Y67832D01*
X105414Y67697D01*
X105618Y67584D01*
X105833Y67495D01*
X106057Y67431D01*
X106287Y67392D01*
X106520Y67379D01*
X106752Y67392D01*
X106982Y67431D01*
X107206Y67495D01*
X107421Y67584D01*
X107625Y67697D01*
X107815Y67832D01*
X107989Y67987D01*
X108144Y68161D01*
X108279Y68351D01*
X108392Y68555D01*
X108481Y68770D01*
X108546Y68994D01*
X108585Y69224D01*
X108598Y69457D01*
X108585Y69689D01*
X108546Y69919D01*
X108481Y70143D01*
X108392Y70358D01*
X108279Y70562D01*
X108144Y70752D01*
X107989Y70926D01*
X107815Y71081D01*
X107625Y71216D01*
X107421Y71329D01*
X107206Y71418D01*
X106982Y71483D01*
X106752Y71522D01*
X106520Y71535D01*
D02*
G37*
G36*
X92347D02*
X92114Y71522D01*
X91884Y71483D01*
X91660Y71418D01*
X91445Y71329D01*
X91241Y71216D01*
X91051Y71081D01*
X90877Y70926D01*
X90722Y70752D01*
X90587Y70562D01*
X90474Y70358D01*
X90385Y70143D01*
X90320Y69919D01*
X90281Y69689D01*
X90268Y69457D01*
X90281Y69224D01*
X90320Y68994D01*
X90385Y68770D01*
X90474Y68555D01*
X90587Y68351D01*
X90722Y68161D01*
X90877Y67987D01*
X91051Y67832D01*
X91241Y67697D01*
X91445Y67584D01*
X91660Y67495D01*
X91884Y67431D01*
X92114Y67392D01*
X92347Y67379D01*
X92579Y67392D01*
X92809Y67431D01*
X93033Y67495D01*
X93248Y67584D01*
X93452Y67697D01*
X93642Y67832D01*
X93816Y67987D01*
X93971Y68161D01*
X94106Y68351D01*
X94219Y68555D01*
X94308Y68770D01*
X94372Y68994D01*
X94411Y69224D01*
X94425Y69457D01*
X94411Y69689D01*
X94372Y69919D01*
X94308Y70143D01*
X94219Y70358D01*
X94106Y70562D01*
X93971Y70752D01*
X93816Y70926D01*
X93642Y71081D01*
X93452Y71216D01*
X93248Y71329D01*
X93033Y71418D01*
X92809Y71483D01*
X92579Y71522D01*
X92347Y71535D01*
D02*
G37*
G36*
X98646Y70747D02*
X98413Y70734D01*
X98183Y70695D01*
X97959Y70631D01*
X97744Y70542D01*
X97540Y70429D01*
X97350Y70294D01*
X97176Y70139D01*
X97021Y69965D01*
X96886Y69775D01*
X96773Y69571D01*
X96684Y69356D01*
X96620Y69132D01*
X96581Y68902D01*
X96568Y68669D01*
X96581Y68437D01*
X96620Y68207D01*
X96684Y67983D01*
X96773Y67768D01*
X96886Y67564D01*
X97021Y67374D01*
X97176Y67200D01*
X97350Y67045D01*
X97540Y66910D01*
X97744Y66797D01*
X97959Y66708D01*
X98183Y66643D01*
X98413Y66604D01*
X98646Y66591D01*
X98878Y66604D01*
X99108Y66643D01*
X99332Y66708D01*
X99547Y66797D01*
X99751Y66910D01*
X99941Y67045D01*
X100115Y67200D01*
X100270Y67374D01*
X100405Y67564D01*
X100518Y67768D01*
X100607Y67983D01*
X100672Y68207D01*
X100711Y68437D01*
X100724Y68669D01*
X100711Y68902D01*
X100672Y69132D01*
X100607Y69356D01*
X100518Y69571D01*
X100405Y69775D01*
X100270Y69965D01*
X100115Y70139D01*
X99941Y70294D01*
X99751Y70429D01*
X99547Y70542D01*
X99332Y70631D01*
X99108Y70695D01*
X98878Y70734D01*
X98646Y70747D01*
D02*
G37*
G36*
X106520Y64448D02*
X106287Y64435D01*
X106057Y64396D01*
X105833Y64332D01*
X105618Y64242D01*
X105414Y64130D01*
X105224Y63995D01*
X105050Y63840D01*
X104895Y63666D01*
X104760Y63476D01*
X104647Y63272D01*
X104558Y63056D01*
X104494Y62832D01*
X104455Y62603D01*
X104442Y62370D01*
X104455Y62137D01*
X104494Y61908D01*
X104558Y61684D01*
X104647Y61468D01*
X104760Y61264D01*
X104895Y61074D01*
X105050Y60901D01*
X105224Y60745D01*
X105414Y60611D01*
X105618Y60498D01*
X105833Y60409D01*
X106057Y60344D01*
X106287Y60305D01*
X106520Y60292D01*
X106752Y60305D01*
X106982Y60344D01*
X107206Y60409D01*
X107421Y60498D01*
X107625Y60611D01*
X107815Y60745D01*
X107989Y60901D01*
X108144Y61074D01*
X108279Y61264D01*
X108392Y61468D01*
X108481Y61684D01*
X108546Y61908D01*
X108585Y62137D01*
X108598Y62370D01*
X108585Y62603D01*
X108546Y62832D01*
X108481Y63056D01*
X108392Y63272D01*
X108279Y63476D01*
X108144Y63666D01*
X107989Y63840D01*
X107815Y63995D01*
X107625Y64130D01*
X107421Y64242D01*
X107206Y64332D01*
X106982Y64396D01*
X106752Y64435D01*
X106520Y64448D01*
D02*
G37*
G36*
X99433D02*
X99200Y64435D01*
X98971Y64396D01*
X98747Y64332D01*
X98532Y64242D01*
X98327Y64130D01*
X98137Y63995D01*
X97964Y63840D01*
X97808Y63666D01*
X97674Y63476D01*
X97561Y63272D01*
X97472Y63056D01*
X97407Y62832D01*
X97368Y62603D01*
X97355Y62370D01*
X97368Y62137D01*
X97407Y61908D01*
X97472Y61684D01*
X97561Y61468D01*
X97674Y61264D01*
X97808Y61074D01*
X97964Y60901D01*
X98137Y60745D01*
X98327Y60611D01*
X98532Y60498D01*
X98747Y60409D01*
X98971Y60344D01*
X99200Y60305D01*
X99433Y60292D01*
X99666Y60305D01*
X99896Y60344D01*
X100119Y60409D01*
X100335Y60498D01*
X100539Y60611D01*
X100729Y60745D01*
X100902Y60901D01*
X101058Y61074D01*
X101193Y61264D01*
X101305Y61468D01*
X101395Y61684D01*
X101459Y61908D01*
X101498Y62137D01*
X101511Y62370D01*
X101498Y62603D01*
X101459Y62832D01*
X101395Y63056D01*
X101305Y63272D01*
X101193Y63476D01*
X101058Y63666D01*
X100902Y63840D01*
X100729Y63995D01*
X100539Y64130D01*
X100335Y64242D01*
X100119Y64332D01*
X99896Y64396D01*
X99666Y64435D01*
X99433Y64448D01*
D02*
G37*
G36*
X115748Y46533D02*
X115528Y46518D01*
X115312Y46475D01*
X115103Y46405D01*
X114906Y46307D01*
X114722Y46185D01*
X114557Y46039D01*
X114411Y45874D01*
X114289Y45691D01*
X114192Y45493D01*
X114121Y45284D01*
X114078Y45068D01*
X114063Y44848D01*
X114078Y44628D01*
X114121Y44412D01*
X114192Y44203D01*
X114289Y44006D01*
X114411Y43823D01*
X114557Y43657D01*
X114722Y43512D01*
X114906Y43389D01*
X115103Y43292D01*
X115312Y43221D01*
X115528Y43178D01*
X115748Y43163D01*
X115968Y43178D01*
X116184Y43221D01*
X116393Y43292D01*
X116590Y43389D01*
X116774Y43512D01*
X116939Y43657D01*
X117085Y43823D01*
X117207Y44006D01*
X117305Y44203D01*
X117375Y44412D01*
X117418Y44628D01*
X117433Y44848D01*
X117418Y45068D01*
X117375Y45284D01*
X117305Y45493D01*
X117207Y45691D01*
X117085Y45874D01*
X116939Y46039D01*
X116774Y46185D01*
X116590Y46307D01*
X116393Y46405D01*
X116184Y46475D01*
X115968Y46518D01*
X115748Y46533D01*
D02*
G37*
G36*
X133194Y44255D02*
Y42629D01*
X134820D01*
X134756Y42851D01*
X134662Y43077D01*
X134544Y43291D01*
X134402Y43491D01*
X134239Y43674D01*
X134056Y43837D01*
X133856Y43979D01*
X133642Y44097D01*
X133415Y44191D01*
X133194Y44255D01*
D02*
G37*
G36*
X132194D02*
X131972Y44191D01*
X131746Y44097D01*
X131532Y43979D01*
X131332Y43837D01*
X131149Y43674D01*
X130986Y43491D01*
X130844Y43291D01*
X130726Y43077D01*
X130632Y42851D01*
X130568Y42629D01*
X132194D01*
Y44255D01*
D02*
G37*
G36*
X134820Y41629D02*
X133194D01*
Y40003D01*
X133415Y40067D01*
X133642Y40161D01*
X133856Y40279D01*
X134056Y40421D01*
X134239Y40584D01*
X134402Y40767D01*
X134544Y40967D01*
X134662Y41181D01*
X134756Y41407D01*
X134820Y41629D01*
D02*
G37*
G36*
X132194D02*
X130568D01*
X130632Y41407D01*
X130726Y41181D01*
X130844Y40967D01*
X130986Y40767D01*
X131149Y40584D01*
X131332Y40421D01*
X131532Y40279D01*
X131746Y40161D01*
X131972Y40067D01*
X132194Y40003D01*
Y41629D01*
D02*
G37*
G36*
X82677Y58377D02*
X82457Y58363D01*
X82241Y58320D01*
X82032Y58249D01*
X81835Y58152D01*
X81651Y58029D01*
X81486Y57884D01*
X81340Y57718D01*
X81218Y57535D01*
X81121Y57337D01*
X81050Y57129D01*
X81007Y56913D01*
X80992Y56693D01*
X81007Y56473D01*
X81050Y56257D01*
X81121Y56048D01*
X81218Y55850D01*
X81340Y55667D01*
X81486Y55502D01*
X81651Y55356D01*
X81835Y55234D01*
X82032Y55136D01*
X82241Y55066D01*
X82457Y55023D01*
X82677Y55008D01*
X82897Y55023D01*
X83113Y55066D01*
X83322Y55136D01*
X83519Y55234D01*
X83703Y55356D01*
X83868Y55502D01*
X84014Y55667D01*
X84136Y55850D01*
X84233Y56048D01*
X84304Y56257D01*
X84347Y56473D01*
X84362Y56693D01*
X84347Y56913D01*
X84304Y57129D01*
X84233Y57337D01*
X84136Y57535D01*
X84014Y57718D01*
X83868Y57884D01*
X83703Y58029D01*
X83519Y58152D01*
X83322Y58249D01*
X83113Y58320D01*
X82897Y58363D01*
X82677Y58377D01*
D02*
G37*
%LPD*%
D10*
X129921Y162933D02*
X156405Y136449D01*
Y46081D02*
Y136449D01*
X151969Y44848D02*
X155173D01*
X156405Y46081D01*
X154331Y50264D02*
Y135445D01*
X125602Y164173D02*
X154331Y135445D01*
X118371Y166929D02*
X122834D01*
X123694Y169291D02*
X129921Y163065D01*
X116978Y169291D02*
X123694D01*
X129921Y162933D02*
Y163065D01*
X109785Y162099D02*
X116978Y169291D01*
X106323Y89468D02*
X115222Y98367D01*
Y163779D01*
X118371Y166929D01*
D12*
X142413Y60630D02*
Y70866D01*
X132433Y146745D02*
X134455Y144724D01*
X122396Y138006D02*
Y145447D01*
X123694Y146745D02*
X132433D01*
X122396Y145447D02*
X123694Y146745D01*
X89894Y55905D02*
X137689D01*
X80315Y65485D02*
Y70441D01*
Y65485D02*
X89894Y55905D01*
X137689D02*
X142413Y60630D01*
D15*
X103043Y87544D02*
Y91142D01*
X105917Y94016D02*
Y150704D01*
X103043Y91142D02*
X105917Y94016D01*
X70587Y146929D02*
X77987Y139528D01*
Y83562D02*
Y139528D01*
X91503Y58363D02*
X120425D01*
X77987Y83562D02*
X87490Y74059D01*
Y62376D02*
Y74059D01*
Y62376D02*
X91503Y58363D01*
X111317Y82152D02*
X118532Y74937D01*
X102058Y82152D02*
X111317D01*
X87402Y96808D02*
X102058Y82152D01*
X102978Y83465D02*
X114434D01*
X100112Y86330D02*
X102978Y83465D01*
X146237Y177272D02*
X160395Y163115D01*
Y101656D02*
Y163115D01*
Y101656D02*
X163824Y98227D01*
X93986Y170777D02*
X100787D01*
X107282Y177272D02*
X146237D01*
X100787Y170777D02*
X107282Y177272D01*
X120425Y58363D02*
X123480Y61417D01*
X119186Y68669D02*
X120638D01*
X163824Y98227D02*
X170002D01*
X168228Y72677D02*
Y73628D01*
X172108Y77508D01*
Y96120D01*
X170002Y98227D02*
X172108Y96120D01*
X90575Y167366D02*
X93986Y170777D01*
X101487Y91919D02*
Y133892D01*
X100112Y90545D02*
X101487Y91919D01*
X100112Y86330D02*
Y90545D01*
X85357Y148031D02*
X88900Y151575D01*
X105046D01*
X105917Y150704D01*
X114434Y83465D02*
X122834Y75065D01*
Y70866D02*
Y75065D01*
X120638Y68669D02*
X122834Y70866D01*
X87402Y96808D02*
Y132236D01*
X100047Y144882D01*
D16*
X27559Y11310D02*
Y8161D01*
X29658D01*
X30708Y10785D02*
X31232Y11310D01*
X32282D01*
X32807Y10785D01*
Y10261D01*
X32282Y9736D01*
X31757D01*
X32282D01*
X32807Y9211D01*
Y8686D01*
X32282Y8161D01*
X31232D01*
X30708Y8686D01*
D20*
X3937Y185039D02*
D03*
X19685D02*
D03*
X11811Y192913D02*
D03*
Y177165D02*
D03*
X6299Y179528D02*
D03*
X17323Y190551D02*
D03*
X6299D02*
D03*
X17323Y179528D02*
D03*
X190551D02*
D03*
X179528Y190551D02*
D03*
X190551D02*
D03*
X179528Y179528D02*
D03*
X185039Y177165D02*
D03*
Y192913D02*
D03*
X192913Y185039D02*
D03*
X177165D02*
D03*
Y11811D02*
D03*
X192913D02*
D03*
X185039Y19685D02*
D03*
Y3937D02*
D03*
X179528Y6299D02*
D03*
X190551Y17323D02*
D03*
X179528D02*
D03*
X190551Y6299D02*
D03*
X17323D02*
D03*
X6299Y17323D02*
D03*
X17323D02*
D03*
X6299Y6299D02*
D03*
X11811Y3937D02*
D03*
Y19685D02*
D03*
X19685Y11811D02*
D03*
X3937D02*
D03*
D70*
X68842Y107552D02*
Y108800D01*
X80171Y50394D02*
X83465D01*
X66485Y105195D02*
X68842Y107552D01*
X66485Y64079D02*
Y105195D01*
Y64079D02*
X80171Y50394D01*
X69619Y106776D02*
X70866D01*
X67584Y64534D02*
Y104740D01*
X70920Y61197D02*
X79873D01*
X67584Y104740D02*
X69619Y106776D01*
X67584Y64534D02*
X70920Y61197D01*
X110116Y81102D02*
X113697Y77522D01*
X83868Y81102D02*
X110116D01*
X80259Y84712D02*
X83868Y81102D01*
X83413Y80004D02*
X109661D01*
X113697Y67716D02*
X116847Y64567D01*
X113697Y67716D02*
Y77522D01*
X116847Y64567D02*
X117323D01*
X109661Y80004D02*
X112598Y77067D01*
Y65091D02*
Y77067D01*
X115570Y62120D02*
X119406D01*
X112598Y65091D02*
X115570Y62120D01*
X76378Y148739D02*
X80259Y144858D01*
X74398Y147919D02*
Y150333D01*
Y147919D02*
X79160Y143156D01*
X72656Y152074D02*
X74398Y150333D01*
X79160Y84257D02*
Y143156D01*
Y84257D02*
X83413Y80004D01*
X80259Y84712D02*
Y144858D01*
X81579Y87807D02*
Y155573D01*
X82677Y95438D02*
Y155118D01*
X85357Y159351D02*
X88755D01*
X81901Y155895D02*
X85357Y159351D01*
X81901Y155895D02*
Y155895D01*
X81579Y155573D02*
X81901Y155895D01*
X83807Y156248D02*
X87054D01*
X82677Y155118D02*
X83807Y156248D01*
X81579Y87807D02*
X84252Y85134D01*
X82677Y95438D02*
X90318Y87797D01*
X109492Y171643D02*
X109874Y172025D01*
X145348Y175125D02*
X157994Y162478D01*
X115677Y175125D02*
X145348D01*
X108269Y167717D02*
X115677Y175125D01*
X157994Y90096D02*
Y162478D01*
X163778Y87128D02*
X168228Y82677D01*
X160962Y87128D02*
X163778D01*
X157994Y90096D02*
X160962Y87128D01*
X102362Y167717D02*
X108269D01*
X159092Y90551D02*
Y162933D01*
X145802Y176223D02*
X159092Y162933D01*
X163778Y88226D02*
X168228Y92677D01*
X161417Y88226D02*
X163778D01*
X159092Y90551D02*
X161417Y88226D01*
X115222Y176223D02*
X145802D01*
X111024Y172025D02*
X115222Y176223D01*
X109874Y172025D02*
X111024D01*
X109661D02*
X109874D01*
X11897Y77953D02*
X33071D01*
X12159Y67128D02*
X15748D01*
X12353Y76854D02*
X33526D01*
X12614Y68226D02*
X15748D01*
X61253Y135617D02*
Y136670D01*
X35433Y109797D02*
X61253Y135617D01*
X35433Y80315D02*
Y109797D01*
X33071Y77953D02*
X35433Y80315D01*
X15748Y67128D02*
X18622Y64254D01*
Y62677D02*
Y64254D01*
X61835Y134646D02*
X63277D01*
X36531Y109342D02*
X61835Y134646D01*
X36531Y79860D02*
Y109342D01*
X36210Y79538D02*
X36531Y79860D01*
X36210Y79538D02*
Y79538D01*
X33526Y76854D02*
X36210Y79538D01*
X18622Y71100D02*
Y72677D01*
X15748Y68226D02*
X18622Y71100D01*
X10171Y76226D02*
X11897Y77953D01*
X10171Y69116D02*
Y76226D01*
X11270Y75771D02*
X12353Y76854D01*
X11270Y69571D02*
Y75771D01*
X10171Y69116D02*
X10493Y68794D01*
Y68794D02*
Y68794D01*
Y68794D02*
X12159Y67128D01*
X11270Y69571D02*
X12614Y68226D01*
X26401Y118110D02*
X33858D01*
X25946Y119209D02*
X33403D01*
X61295Y142634D02*
X62177Y143516D01*
X56828Y142634D02*
X61295D01*
X33403Y119209D02*
X56828Y142634D01*
X25624Y118887D02*
X25624D01*
X25946Y119209D01*
X23311Y116574D02*
X25624Y118887D01*
X23311Y88521D02*
Y116574D01*
Y88521D02*
X24704Y87128D01*
X26772D02*
X28622Y85277D01*
Y82677D02*
Y85277D01*
X24704Y87128D02*
X26772D01*
X61295Y141535D02*
X62177Y140654D01*
X57284Y141535D02*
X61295D01*
X33858Y118110D02*
X57284Y141535D01*
X24409Y88976D02*
Y116119D01*
X28622Y90077D02*
Y92677D01*
X26772Y88226D02*
X28622Y90077D01*
X25159Y88226D02*
X26772D01*
X24409Y88976D02*
X25159Y88226D01*
X24409Y116119D02*
X26401Y118110D01*
X75984Y163663D02*
Y164960D01*
X67240Y153365D02*
X77655Y163779D01*
X75590Y165354D02*
X75984Y164960D01*
X176378Y77128D02*
X178228Y75278D01*
X174766Y77128D02*
X176378D01*
X178228Y72677D02*
Y75278D01*
X174016Y76378D02*
X174766Y77128D01*
X102706Y51764D02*
X103005D01*
X174016Y38604D02*
Y76378D01*
X172430Y37019D02*
X174016Y38604D01*
X172430Y37019D02*
X172430D01*
X172108Y36697D02*
X172430Y37019D01*
X115451Y36697D02*
X172108D01*
X105917Y46230D02*
Y48852D01*
Y46230D02*
X115129Y37019D01*
X103005Y51764D02*
X105917Y48852D01*
X115129Y37019D02*
X115451Y36697D01*
X115129Y37019D02*
X115129D01*
X66142Y127709D02*
Y153820D01*
X62955Y124523D02*
X66142Y127709D01*
X96920Y53219D02*
X101250D01*
X102706Y51764D01*
X89846Y46146D02*
X96920Y53219D01*
X67262Y46146D02*
X89846D01*
X62955Y50452D02*
Y124523D01*
Y50452D02*
X66618Y46789D01*
X66618D02*
X67262Y46146D01*
X66618Y46789D02*
X66618D01*
X178228Y80077D02*
Y82677D01*
X176378Y78226D02*
X178228Y80077D01*
X174311Y78226D02*
X176378D01*
X173239Y77155D02*
Y77155D01*
X174311Y78226D01*
X172917Y76833D02*
X173239Y77155D01*
X172917Y39059D02*
Y76833D01*
X108661Y45040D02*
X115905Y37795D01*
X171653D02*
X172917Y39059D01*
X115905Y37795D02*
X171653D01*
X108661Y45040D02*
Y50394D01*
X85190Y163779D02*
X87106Y165696D01*
X77655Y163779D02*
X85190D01*
X67240Y127254D02*
Y153365D01*
X96466Y54319D02*
X104736D01*
X89391Y47244D02*
X96466Y54319D01*
X104736D02*
X108661Y50394D01*
X64054Y50907D02*
Y124068D01*
X67240Y127254D01*
X67716Y47244D02*
X89391D01*
X64054Y50907D02*
X67716Y47244D01*
X66142Y153820D02*
X75984Y163663D01*
X73940Y175125D02*
X101120D01*
X76674Y174026D02*
X101575D01*
X174016Y106890D02*
Y155097D01*
X149692Y179420D02*
X174016Y155097D01*
Y106890D02*
X178228Y102677D01*
X105415Y179420D02*
X149692D01*
X101120Y175125D02*
X105415Y179420D01*
X149237Y178322D02*
X172917Y154642D01*
X105870Y178322D02*
X149237D01*
X172917Y97988D02*
X178228Y92677D01*
X172917Y97988D02*
Y154642D01*
X101575Y174026D02*
X105870Y178322D01*
X72831Y174016D02*
X73940Y175125D01*
X72330Y169683D02*
X76674Y174026D01*
D72*
X28622Y52677D02*
D03*
Y62677D02*
D03*
X18622Y157239D02*
D03*
X28622Y167239D02*
D03*
X18622D02*
D03*
X178228Y112677D02*
D03*
X168228Y102677D02*
D03*
X178228D02*
D03*
X168228Y92677D02*
D03*
X178228D02*
D03*
X168228Y82677D02*
D03*
X178228D02*
D03*
X168228Y72677D02*
D03*
X178228D02*
D03*
X168228Y62677D02*
D03*
X178228D02*
D03*
X168228Y52677D02*
D03*
X178228D02*
D03*
X168228Y42677D02*
D03*
X178228D02*
D03*
X168228Y32677D02*
D03*
X178228D02*
D03*
X28622Y125450D02*
D03*
X18622D02*
D03*
X28622Y135450D02*
D03*
X18622D02*
D03*
X28622Y145450D02*
D03*
X178228Y135449D02*
D03*
Y145449D02*
D03*
Y155449D02*
D03*
X28622Y112677D02*
D03*
X18622Y102677D02*
D03*
X28622D02*
D03*
X18622Y92677D02*
D03*
X28622D02*
D03*
X18622Y82677D02*
D03*
X28622D02*
D03*
X18622Y72677D02*
D03*
X28622D02*
D03*
X18622Y62677D02*
D03*
Y52677D02*
D03*
Y42677D02*
D03*
X28622D02*
D03*
X18622Y32677D02*
D03*
X28622D02*
D03*
D73*
X28622Y157239D02*
D03*
X168228Y112677D02*
D03*
X18622Y145450D02*
D03*
X178228Y125449D02*
D03*
X18622Y112677D02*
D03*
D74*
X11811Y185039D02*
D03*
X185039D02*
D03*
Y11811D02*
D03*
X11811D02*
D03*
D75*
X106520Y62370D02*
D03*
X99433D02*
D03*
X92347D02*
D03*
Y69457D02*
D03*
Y76543D02*
D03*
X99433D02*
D03*
X106520D02*
D03*
Y69457D02*
D03*
X98646Y68669D02*
D03*
D76*
X106299Y16823D02*
D03*
X90551D02*
D03*
D77*
X87106Y8161D02*
D03*
X109744D02*
D03*
D78*
X98425Y132677D02*
D03*
X83465Y50394D02*
D03*
X68842Y108800D02*
D03*
X103699Y146929D02*
D03*
X79873Y61197D02*
D03*
X70866Y106776D02*
D03*
X117323Y64567D02*
D03*
X119406Y62120D02*
D03*
X76378Y148739D02*
D03*
X72656Y152074D02*
D03*
X88755Y159351D02*
D03*
X87054Y156248D02*
D03*
X84252Y85134D02*
D03*
X90318Y87797D02*
D03*
X99213Y92376D02*
D03*
X117913Y84769D02*
D03*
X102362Y167717D02*
D03*
X109661Y172025D02*
D03*
X96850Y147771D02*
D03*
X61253Y136670D02*
D03*
X95276Y133838D02*
D03*
X63277Y134646D02*
D03*
X125984Y158267D02*
D03*
X62177Y143516D02*
D03*
X121980Y155272D02*
D03*
X62177Y140654D02*
D03*
X154331Y50264D02*
D03*
X75590Y165354D02*
D03*
X102706Y51764D02*
D03*
X87106Y165696D02*
D03*
X108661Y50394D02*
D03*
X72831Y174016D02*
D03*
X72330Y169683D02*
D03*
X125537Y33071D02*
D03*
X132283Y23417D02*
D03*
X67716Y160324D02*
D03*
X121235Y160908D02*
D03*
X122834Y166929D02*
D03*
Y171653D02*
D03*
X70587Y146929D02*
D03*
X70669Y114834D02*
D03*
X119186Y68669D02*
D03*
X118532Y74937D02*
D03*
X142413Y70866D02*
D03*
X85357Y148031D02*
D03*
X122396Y138006D02*
D03*
X133647Y117895D02*
D03*
X127093Y111495D02*
D03*
X138150Y111024D02*
D03*
X133523Y110975D02*
D03*
X90575Y167366D02*
D03*
X111754Y51820D02*
D03*
X103937Y48031D02*
D03*
X110218Y141732D02*
D03*
X151969Y44848D02*
D03*
X123694Y65003D02*
D03*
X86805Y162464D02*
D03*
X100591Y48663D02*
D03*
X82677Y56693D02*
D03*
X97001Y48131D02*
D03*
X88755Y50000D02*
D03*
X59985Y68861D02*
D03*
X57961Y66837D02*
D03*
X59439Y111811D02*
D03*
X105824Y160097D02*
D03*
X95276Y92677D02*
D03*
X120726Y82376D02*
D03*
X109785Y165800D02*
D03*
Y162099D02*
D03*
X127626Y142969D02*
D03*
X108661Y147244D02*
D03*
X125602Y164173D02*
D03*
Y140945D02*
D03*
X96850Y158421D02*
D03*
X100000Y160543D02*
D03*
X93701Y160610D02*
D03*
X93241Y145233D02*
D03*
X92126Y132796D02*
D03*
X75141Y92126D02*
D03*
Y94988D02*
D03*
X147244Y134646D02*
D03*
X74185Y102756D02*
D03*
X103043Y87544D02*
D03*
X117535Y88189D02*
D03*
X110218Y89526D02*
D03*
X80315Y70441D02*
D03*
X115748Y44848D02*
D03*
X100047Y144882D02*
D03*
X101487Y133892D02*
D03*
X59449Y91972D02*
D03*
X39692Y93110D02*
D03*
X48819Y98916D02*
D03*
X106323Y89468D02*
D03*
X82220Y74660D02*
D03*
X95569Y42677D02*
D03*
X98432D02*
D03*
X123480Y61417D02*
D03*
X134455Y144724D02*
D03*
X132694Y42129D02*
D03*
X155118Y33613D02*
D03*
X144882Y14232D02*
D03*
X93241Y14173D02*
D03*
X60630Y33177D02*
D03*
X104724Y36248D02*
D03*
X87504Y26484D02*
D03*
X143799Y167610D02*
D03*
X140157Y158696D02*
D03*
X133929Y152135D02*
D03*
X38583Y141535D02*
D03*
M02*
