G04*
G04 #@! TF.GenerationSoftware,Altium Limited,Altium Designer,18.1.7 (191)*
G04*
G04 Layer_Color=16711935*
%FSLAX25Y25*%
%MOIN*%
G70*
G01*
G75*
%ADD63C,0.06706*%
%ADD64R,0.06706X0.06706*%
%ADD65C,0.20485*%
%ADD66C,0.04737*%
%ADD67C,0.03950*%
%ADD68C,0.03359*%
%ADD69O,0.04540X0.09265*%
D63*
X28622Y52677D02*
D03*
Y62677D02*
D03*
X18622Y157239D02*
D03*
X28622Y167239D02*
D03*
X18622D02*
D03*
X178228Y112677D02*
D03*
X168228Y102677D02*
D03*
X178228D02*
D03*
X168228Y92677D02*
D03*
X178228D02*
D03*
X168228Y82677D02*
D03*
X178228D02*
D03*
X168228Y72677D02*
D03*
X178228D02*
D03*
X168228Y62677D02*
D03*
X178228D02*
D03*
X168228Y52677D02*
D03*
X178228D02*
D03*
X168228Y42677D02*
D03*
X178228D02*
D03*
X168228Y32677D02*
D03*
X178228D02*
D03*
X28622Y125450D02*
D03*
X18622D02*
D03*
X28622Y135450D02*
D03*
X18622D02*
D03*
X28622Y145450D02*
D03*
X178228Y135449D02*
D03*
Y145449D02*
D03*
Y155449D02*
D03*
X28622Y112677D02*
D03*
X18622Y102677D02*
D03*
X28622D02*
D03*
X18622Y92677D02*
D03*
X28622D02*
D03*
X18622Y82677D02*
D03*
X28622D02*
D03*
X18622Y72677D02*
D03*
X28622D02*
D03*
X18622Y62677D02*
D03*
Y52677D02*
D03*
Y42677D02*
D03*
X28622D02*
D03*
X18622Y32677D02*
D03*
X28622D02*
D03*
D64*
X28622Y157239D02*
D03*
X168228Y112677D02*
D03*
X18622Y145450D02*
D03*
X178228Y125449D02*
D03*
X18622Y112677D02*
D03*
D65*
X11811Y185039D02*
D03*
X185039D02*
D03*
Y11811D02*
D03*
X11811D02*
D03*
D66*
X3937Y185039D02*
D03*
X19685D02*
D03*
X11811Y192913D02*
D03*
Y177165D02*
D03*
X6299Y179528D02*
D03*
X17323Y190551D02*
D03*
X6299D02*
D03*
X17323Y179528D02*
D03*
X190551D02*
D03*
X179528Y190551D02*
D03*
X190551D02*
D03*
X179528Y179528D02*
D03*
X185039Y177165D02*
D03*
Y192913D02*
D03*
X192913Y185039D02*
D03*
X177165D02*
D03*
Y11811D02*
D03*
X192913D02*
D03*
X185039Y19685D02*
D03*
Y3937D02*
D03*
X179528Y6299D02*
D03*
X190551Y17323D02*
D03*
X179528D02*
D03*
X190551Y6299D02*
D03*
X17323D02*
D03*
X6299Y17323D02*
D03*
X17323D02*
D03*
X6299Y6299D02*
D03*
X11811Y3937D02*
D03*
Y19685D02*
D03*
X19685Y11811D02*
D03*
X3937D02*
D03*
D67*
X106520Y62370D02*
D03*
X99433D02*
D03*
X92347D02*
D03*
Y69457D02*
D03*
Y76543D02*
D03*
X99433D02*
D03*
X106520D02*
D03*
Y69457D02*
D03*
X98646Y68669D02*
D03*
D68*
X106299Y16823D02*
D03*
X90551D02*
D03*
D69*
X87106Y8161D02*
D03*
X109744D02*
D03*
M02*
