G04*
G04 #@! TF.GenerationSoftware,Altium Limited,Altium Designer,18.1.7 (191)*
G04*
G04 Layer_Physical_Order=4*
G04 Layer_Color=16711680*
%FSLAX25Y25*%
%MOIN*%
G70*
G01*
G75*
%ADD10C,0.00787*%
%ADD12C,0.01575*%
%ADD16C,0.00394*%
%ADD20C,0.03937*%
%ADD70C,0.00598*%
%ADD72C,0.05906*%
%ADD73R,0.05906X0.05906*%
%ADD74C,0.19685*%
%ADD75C,0.03150*%
%ADD76C,0.02559*%
%ADD77O,0.03740X0.08465*%
%ADD78C,0.02362*%
G36*
X182581Y195086D02*
X181834Y194906D01*
X180329Y194283D01*
X178941Y193432D01*
X177703Y192375D01*
X176646Y191137D01*
X175796Y189749D01*
X175173Y188245D01*
X174793Y186662D01*
X174676Y185176D01*
X174648Y185039D01*
X174676Y184903D01*
X174793Y183416D01*
X175173Y181834D01*
X175796Y180329D01*
X176646Y178941D01*
X177703Y177703D01*
X178941Y176646D01*
X180329Y175796D01*
X181834Y175173D01*
X183416Y174793D01*
X184903Y174676D01*
X185039Y174648D01*
X185176Y174676D01*
X186662Y174793D01*
X188245Y175173D01*
X189749Y175796D01*
X191137Y176646D01*
X192375Y177703D01*
X193432Y178941D01*
X194283Y180329D01*
X194906Y181834D01*
X195086Y182581D01*
X196086Y182463D01*
Y14387D01*
X195086Y14269D01*
X194906Y15017D01*
X194283Y16521D01*
X193432Y17909D01*
X192375Y19147D01*
X191137Y20204D01*
X189749Y21055D01*
X188245Y21678D01*
X186662Y22058D01*
X185176Y22175D01*
X185039Y22202D01*
X184903Y22175D01*
X183416Y22058D01*
X181834Y21678D01*
X180329Y21055D01*
X178941Y20204D01*
X177703Y19147D01*
X176646Y17909D01*
X175796Y16521D01*
X175173Y15017D01*
X174793Y13434D01*
X174676Y11947D01*
X174648Y11811D01*
X174676Y11675D01*
X174793Y10188D01*
X175173Y8605D01*
X175796Y7101D01*
X176646Y5713D01*
X177703Y4475D01*
X178941Y3418D01*
X180329Y2567D01*
X181834Y1944D01*
X182581Y1765D01*
X182463Y765D01*
X14387D01*
X14269Y1765D01*
X15017Y1944D01*
X16521Y2567D01*
X17909Y3418D01*
X19147Y4475D01*
X20204Y5713D01*
X21055Y7101D01*
X21678Y8605D01*
X22058Y10188D01*
X22175Y11675D01*
X22202Y11811D01*
X22175Y11947D01*
X22058Y13434D01*
X21678Y15017D01*
X21055Y16521D01*
X20204Y17909D01*
X19147Y19147D01*
X17909Y20204D01*
X16521Y21055D01*
X15017Y21678D01*
X13434Y22058D01*
X11947Y22175D01*
X11811Y22202D01*
X11675Y22175D01*
X10188Y22058D01*
X8605Y21678D01*
X7101Y21055D01*
X5713Y20204D01*
X4475Y19147D01*
X3418Y17909D01*
X2567Y16521D01*
X1944Y15017D01*
X1765Y14269D01*
X765Y14387D01*
Y182463D01*
X1765Y182581D01*
X1944Y181834D01*
X2567Y180329D01*
X3418Y178941D01*
X4475Y177703D01*
X5713Y176646D01*
X7101Y175796D01*
X8605Y175173D01*
X10188Y174793D01*
X11675Y174676D01*
X11811Y174648D01*
X11947Y174676D01*
X13434Y174793D01*
X15017Y175173D01*
X16521Y175796D01*
X17909Y176646D01*
X19147Y177703D01*
X20204Y178941D01*
X21055Y180329D01*
X21678Y181834D01*
X22058Y183416D01*
X22175Y184903D01*
X22202Y185039D01*
X22175Y185176D01*
X22058Y186662D01*
X21678Y188245D01*
X21055Y189749D01*
X20204Y191137D01*
X19147Y192375D01*
X17909Y193432D01*
X16521Y194283D01*
X15017Y194906D01*
X14269Y195086D01*
X14387Y196086D01*
X59055D01*
X59055Y181102D01*
X137795D01*
X137795Y196086D01*
X182463D01*
X182581Y195086D01*
D02*
G37*
%LPC*%
G36*
X72831Y175730D02*
X72175Y175599D01*
X71619Y175228D01*
X71247Y174672D01*
X71117Y174016D01*
X71186Y173669D01*
X70709Y172858D01*
X70506Y172669D01*
X24875D01*
X24526Y172599D01*
X24230Y172402D01*
X22978Y171149D01*
X22780Y170853D01*
X22711Y170504D01*
Y169003D01*
X21711Y168804D01*
X21638Y168980D01*
X21085Y169701D01*
X20363Y170255D01*
X19523Y170603D01*
X18622Y170721D01*
X17721Y170603D01*
X16881Y170255D01*
X16160Y169701D01*
X15606Y168980D01*
X15258Y168140D01*
X15139Y167239D01*
X15258Y166337D01*
X15606Y165498D01*
X16160Y164776D01*
X16881Y164223D01*
X17721Y163875D01*
X18622Y163756D01*
X19523Y163875D01*
X20363Y164223D01*
X21085Y164776D01*
X21638Y165498D01*
X21711Y165673D01*
X22711Y165474D01*
Y162616D01*
X20354Y160259D01*
X19523Y160603D01*
X18622Y160721D01*
X17721Y160603D01*
X16881Y160255D01*
X16160Y159701D01*
X15606Y158980D01*
X15258Y158140D01*
X15139Y157239D01*
X15258Y156337D01*
X15606Y155498D01*
X16160Y154776D01*
X16881Y154223D01*
X17711Y153879D01*
Y148903D01*
X15169D01*
Y141998D01*
X14388Y141470D01*
X14030D01*
X13528Y141370D01*
X13102Y141086D01*
X10096Y138079D01*
X9811Y137653D01*
X9711Y137151D01*
Y121623D01*
X9811Y121120D01*
X10096Y120694D01*
X12820Y117970D01*
X13246Y117685D01*
X13749Y117585D01*
X36464D01*
X38379Y115670D01*
Y94172D01*
X38108Y93766D01*
X37978Y93110D01*
X38108Y92454D01*
X38480Y91898D01*
X39036Y91527D01*
X39692Y91396D01*
X40348Y91527D01*
X40753Y91798D01*
X57767D01*
X57770Y91794D01*
X57865Y91316D01*
X58237Y90760D01*
X58793Y90388D01*
X59449Y90258D01*
X60105Y90388D01*
X60661Y90760D01*
X61032Y91316D01*
X61163Y91972D01*
X61032Y92628D01*
X60661Y93184D01*
X60105Y93556D01*
X59626Y93651D01*
X59239Y94038D01*
X58813Y94323D01*
X58311Y94423D01*
X41004D01*
Y115670D01*
X42919Y117585D01*
X60742D01*
X61965Y116363D01*
Y113757D01*
X61229Y113469D01*
X60965Y113415D01*
X60290Y113866D01*
X59939Y113935D01*
Y111811D01*
Y109687D01*
X60290Y109757D01*
X60965Y110207D01*
X61229Y110153D01*
X61965Y109865D01*
Y105572D01*
X62064Y105070D01*
X62349Y104644D01*
X65165Y101828D01*
X65591Y101543D01*
X66093Y101443D01*
X73123D01*
X73529Y101172D01*
X74185Y101042D01*
X74841Y101172D01*
X75397Y101544D01*
X75768Y102100D01*
X75899Y102756D01*
X75768Y103412D01*
X75397Y103968D01*
X74841Y104340D01*
X74185Y104470D01*
X73529Y104340D01*
X73123Y104069D01*
X66637D01*
X64590Y106116D01*
Y116906D01*
X64490Y117409D01*
X64205Y117834D01*
X62214Y119826D01*
X61788Y120110D01*
X61286Y120210D01*
X42376D01*
X41873Y120110D01*
X41448Y119826D01*
X39692Y118070D01*
X37936Y119826D01*
X37510Y120110D01*
X37008Y120210D01*
X14292D01*
X12336Y122166D01*
Y136607D01*
X14574Y138845D01*
X15732D01*
X16053Y138145D01*
X16107Y137845D01*
X15606Y137192D01*
X15258Y136352D01*
X15139Y135450D01*
X15258Y134549D01*
X15606Y133709D01*
X16160Y132988D01*
X16881Y132434D01*
X17721Y132086D01*
X18622Y131968D01*
X19523Y132086D01*
X20354Y132430D01*
X22978Y129806D01*
X23273Y129609D01*
X23622Y129539D01*
X25815D01*
X26154Y128539D01*
X25803Y128270D01*
X25169Y127444D01*
X24771Y126482D01*
X24701Y125950D01*
X28622D01*
X32543D01*
X32473Y126482D01*
X32075Y127444D01*
X31441Y128270D01*
X31090Y128539D01*
X31429Y129539D01*
X68915D01*
X98039Y100416D01*
X97402Y99639D01*
X97223Y99758D01*
X96874Y99828D01*
X50232D01*
X50031Y100128D01*
X49475Y100500D01*
X48819Y100630D01*
X48163Y100500D01*
X47607Y100128D01*
X47235Y99572D01*
X47105Y98916D01*
X47235Y98260D01*
X47607Y97704D01*
X48163Y97333D01*
X48819Y97202D01*
X49475Y97333D01*
X50031Y97704D01*
X50232Y98005D01*
X96497D01*
X99437Y95065D01*
X99328Y94593D01*
X99033Y94054D01*
X98557Y93959D01*
X98001Y93588D01*
X97868Y93389D01*
X97403Y93363D01*
X96773Y93463D01*
X96488Y93889D01*
X95932Y94261D01*
X95276Y94391D01*
X94620Y94261D01*
X94064Y93889D01*
X93692Y93333D01*
X93562Y92677D01*
X93692Y92021D01*
X94064Y91465D01*
X94620Y91094D01*
X95276Y90963D01*
X95932Y91094D01*
X96488Y91465D01*
X96621Y91664D01*
X97085Y91690D01*
X97716Y91591D01*
X98001Y91164D01*
X98557Y90792D01*
X99213Y90662D01*
X99869Y90792D01*
X100425Y91164D01*
X100796Y91720D01*
X100891Y92197D01*
X101430Y92492D01*
X101902Y92600D01*
X104025Y90477D01*
X103981Y90051D01*
X103043Y89258D01*
X102387Y89128D01*
X101831Y88756D01*
X101460Y88200D01*
X101329Y87544D01*
X101460Y86888D01*
X101831Y86332D01*
X102387Y85961D01*
X103043Y85830D01*
X103699Y85961D01*
X104255Y86332D01*
X104627Y86888D01*
X104713Y87319D01*
X105472Y87811D01*
X105667Y87884D01*
X106323Y87754D01*
X106979Y87884D01*
X107535Y88256D01*
X107734Y88554D01*
X107808Y88579D01*
X108659Y88605D01*
X108845Y88554D01*
X109006Y88314D01*
X109562Y87942D01*
X110218Y87811D01*
X110634Y87894D01*
X111378Y87481D01*
X111634Y87247D01*
Y85688D01*
X106975Y81029D01*
X87775D01*
X87464Y80967D01*
X87199Y80791D01*
X82689Y76280D01*
X82220Y76373D01*
X81564Y76243D01*
X81008Y75871D01*
X80637Y75315D01*
X80506Y74660D01*
X80599Y74191D01*
X79900Y73492D01*
X31997D01*
X31986Y73579D01*
X31638Y74418D01*
X31085Y75140D01*
X30363Y75693D01*
X29523Y76041D01*
X28622Y76160D01*
X27721Y76041D01*
X26881Y75693D01*
X26160Y75140D01*
X25606Y74418D01*
X25258Y73579D01*
X25139Y72677D01*
X25258Y71776D01*
X25606Y70936D01*
X26160Y70215D01*
X26881Y69661D01*
X27721Y69313D01*
X28622Y69195D01*
X29523Y69313D01*
X30363Y69661D01*
X31085Y70215D01*
X31638Y70936D01*
X31986Y71776D01*
X31997Y71862D01*
X78040D01*
X78276Y71601D01*
X78685Y70862D01*
X78601Y70441D01*
X78731Y69785D01*
X79103Y69229D01*
X79659Y68857D01*
X80315Y68727D01*
X80971Y68857D01*
X81527Y69229D01*
X81898Y69785D01*
X82029Y70441D01*
X81898Y71097D01*
X81527Y71653D01*
X81536Y72072D01*
X82220Y72945D01*
X82876Y73076D01*
X83432Y73448D01*
X83804Y74003D01*
X83934Y74660D01*
X83841Y75128D01*
X88113Y79400D01*
X90197D01*
X90536Y78400D01*
X90510Y78380D01*
X90097Y77842D01*
X89838Y77215D01*
X89815Y77043D01*
X94878D01*
X94855Y77215D01*
X94596Y77842D01*
X94183Y78380D01*
X94157Y78400D01*
X94496Y79400D01*
X97283D01*
X97623Y78400D01*
X97597Y78380D01*
X97184Y77842D01*
X96925Y77215D01*
X96902Y77043D01*
X101964D01*
X101942Y77215D01*
X101682Y77842D01*
X101269Y78380D01*
X101243Y78400D01*
X101583Y79400D01*
X104370D01*
X104709Y78400D01*
X104683Y78380D01*
X104271Y77842D01*
X104011Y77215D01*
X103989Y77043D01*
X109051D01*
X109028Y77215D01*
X108769Y77842D01*
X108356Y78380D01*
X108061Y78606D01*
X107967Y79166D01*
X107964Y79459D01*
X108035Y79785D01*
X111808Y83558D01*
X112732Y83175D01*
Y54299D01*
X111754Y53534D01*
X111098Y53404D01*
X110542Y53032D01*
X110232Y52568D01*
X110170Y52476D01*
X110170Y52476D01*
X109317Y51977D01*
X109062Y52028D01*
X108661Y52108D01*
X108005Y51977D01*
X107449Y51606D01*
X107078Y51050D01*
X106947Y50394D01*
X107078Y49738D01*
X107449Y49182D01*
X108005Y48810D01*
X108661Y48680D01*
X109317Y48810D01*
X109557Y48971D01*
X110195Y48194D01*
X108527Y46526D01*
X106155D01*
X105747Y47072D01*
X105550Y47526D01*
X105651Y48031D01*
X105520Y48687D01*
X105149Y49243D01*
X104593Y49615D01*
X104379Y49657D01*
X104186Y50032D01*
X104019Y50704D01*
X104289Y51108D01*
X104420Y51764D01*
X104289Y52420D01*
X103918Y52976D01*
X103362Y53347D01*
X102706Y53478D01*
X102050Y53347D01*
X101494Y52976D01*
X101122Y52420D01*
X100992Y51764D01*
X101050Y51471D01*
X100335Y50757D01*
X99610Y50797D01*
X95499Y54907D01*
X95235Y55084D01*
X94923Y55146D01*
X84868D01*
X84332Y55932D01*
X84282Y56146D01*
X84391Y56693D01*
X84261Y57349D01*
X83889Y57905D01*
X83333Y58276D01*
X82677Y58407D01*
X82209Y58314D01*
X81923Y58600D01*
X81658Y58776D01*
X81346Y58838D01*
X81169D01*
X80865Y59838D01*
X81085Y59985D01*
X81457Y60541D01*
X81587Y61197D01*
X81457Y61853D01*
X81085Y62409D01*
X80529Y62781D01*
X79873Y62911D01*
X79217Y62781D01*
X78661Y62409D01*
X78290Y61853D01*
X78159Y61197D01*
X78290Y60541D01*
X78661Y59985D01*
X78882Y59838D01*
X78578Y58838D01*
X30862D01*
X30594Y59838D01*
X31085Y60215D01*
X31638Y60936D01*
X31986Y61776D01*
X32105Y62677D01*
X31986Y63578D01*
X31638Y64418D01*
X31085Y65140D01*
X30363Y65693D01*
X29523Y66041D01*
X28622Y66160D01*
X27721Y66041D01*
X26881Y65693D01*
X26160Y65140D01*
X25606Y64418D01*
X25258Y63578D01*
X25139Y62677D01*
X25258Y61776D01*
X25606Y60936D01*
X26160Y60215D01*
X26650Y59838D01*
X26382Y58838D01*
X20862D01*
X20594Y59838D01*
X21085Y60215D01*
X21638Y60936D01*
X21986Y61776D01*
X22105Y62677D01*
X21986Y63578D01*
X21638Y64418D01*
X21085Y65140D01*
X20363Y65693D01*
X19523Y66041D01*
X18622Y66160D01*
X17721Y66041D01*
X16881Y65693D01*
X16160Y65140D01*
X15606Y64418D01*
X15258Y63578D01*
X15139Y62677D01*
X15258Y61776D01*
X15606Y60936D01*
X16160Y60215D01*
X16650Y59838D01*
X16382Y58838D01*
X10031D01*
X7902Y60967D01*
Y98916D01*
X15108Y106123D01*
X15693Y106042D01*
X15928Y105588D01*
X16048Y104994D01*
X15606Y104418D01*
X15258Y103578D01*
X15139Y102677D01*
X15258Y101776D01*
X15606Y100936D01*
X16160Y100215D01*
X16881Y99661D01*
X17721Y99313D01*
X18622Y99195D01*
X19523Y99313D01*
X20363Y99661D01*
X21085Y100215D01*
X21638Y100936D01*
X21986Y101776D01*
X22105Y102677D01*
X21986Y103578D01*
X21638Y104418D01*
X21085Y105140D01*
X20859Y105313D01*
X21198Y106313D01*
X23834D01*
X25659Y104488D01*
X25606Y104418D01*
X25258Y103578D01*
X25139Y102677D01*
X25258Y101776D01*
X25606Y100936D01*
X26160Y100215D01*
X26881Y99661D01*
X27721Y99313D01*
X28622Y99195D01*
X29523Y99313D01*
X30363Y99661D01*
X31085Y100215D01*
X31638Y100936D01*
X31986Y101776D01*
X32105Y102677D01*
X31986Y103578D01*
X31638Y104418D01*
X31085Y105140D01*
X30363Y105693D01*
X29523Y106041D01*
X28622Y106160D01*
X27721Y106041D01*
X26881Y105693D01*
X26812Y105640D01*
X24775Y107677D01*
X26812Y109714D01*
X26881Y109661D01*
X27721Y109313D01*
X28622Y109195D01*
X29523Y109313D01*
X30363Y109661D01*
X31085Y110215D01*
X31638Y110936D01*
X31986Y111776D01*
X32105Y112677D01*
X31986Y113578D01*
X31638Y114418D01*
X31085Y115140D01*
X30363Y115693D01*
X29523Y116041D01*
X28622Y116160D01*
X27721Y116041D01*
X26881Y115693D01*
X26160Y115140D01*
X25606Y114418D01*
X25258Y113578D01*
X25139Y112677D01*
X25258Y111776D01*
X25606Y110936D01*
X25659Y110867D01*
X23834Y109041D01*
X22999D01*
X22075Y109224D01*
X22075Y110041D01*
Y116130D01*
X15169D01*
X15169Y109711D01*
X14524Y109060D01*
X14265Y108993D01*
X14194Y108979D01*
X13929Y108803D01*
X5412Y100285D01*
X5235Y100021D01*
X5173Y99709D01*
Y60175D01*
X5235Y59863D01*
X5412Y59599D01*
X8662Y56349D01*
X8926Y56172D01*
X9238Y56110D01*
X15781D01*
X16117Y55250D01*
X16137Y55110D01*
X15606Y54418D01*
X15258Y53579D01*
X15139Y52677D01*
X15258Y51776D01*
X15606Y50936D01*
X16160Y50215D01*
X16881Y49661D01*
X17721Y49313D01*
X18622Y49195D01*
X19523Y49313D01*
X20363Y49661D01*
X21085Y50215D01*
X21638Y50936D01*
X21986Y51776D01*
X22105Y52677D01*
X21986Y53579D01*
X21638Y54418D01*
X21107Y55110D01*
X21127Y55250D01*
X21463Y56110D01*
X25782D01*
X26117Y55250D01*
X26137Y55110D01*
X25606Y54418D01*
X25258Y53579D01*
X25139Y52677D01*
X25258Y51776D01*
X25606Y50936D01*
X26160Y50215D01*
X26881Y49661D01*
X27721Y49313D01*
X28622Y49195D01*
X29523Y49313D01*
X30363Y49661D01*
X31085Y50215D01*
X31638Y50936D01*
X31986Y51776D01*
X32105Y52677D01*
X31986Y53579D01*
X31638Y54418D01*
X31107Y55110D01*
X31127Y55250D01*
X31463Y56110D01*
X79063D01*
X80651Y54521D01*
X80652Y54521D01*
X81418Y53755D01*
X81683Y53578D01*
X81994Y53516D01*
X94586D01*
X97295Y50806D01*
X97128Y50261D01*
X96868Y49819D01*
X96345Y49715D01*
X95789Y49343D01*
X95417Y48787D01*
X95287Y48131D01*
X95417Y47475D01*
X95789Y46919D01*
X96345Y46548D01*
X96442Y46529D01*
X96771Y45443D01*
X95694Y44366D01*
X95569Y44391D01*
X94914Y44261D01*
X94357Y43889D01*
X93986Y43333D01*
X93855Y42677D01*
X93986Y42021D01*
X94018Y41974D01*
X93483Y40974D01*
X65063D01*
X64561Y40874D01*
X64135Y40589D01*
X63984Y40439D01*
X60818Y43605D01*
X60392Y43890D01*
X59890Y43990D01*
X31816D01*
X31638Y44418D01*
X31085Y45140D01*
X30363Y45693D01*
X29523Y46041D01*
X28622Y46160D01*
X27721Y46041D01*
X26881Y45693D01*
X26160Y45140D01*
X25606Y44418D01*
X25258Y43578D01*
X25139Y42677D01*
X25258Y41776D01*
X25606Y40936D01*
X26160Y40215D01*
X26881Y39661D01*
X27721Y39313D01*
X28622Y39195D01*
X29523Y39313D01*
X30363Y39661D01*
X31085Y40215D01*
X31638Y40936D01*
X31816Y41365D01*
X59346D01*
X63056Y37655D01*
X63482Y37370D01*
X63984Y37270D01*
X64487Y37370D01*
X64912Y37655D01*
X65606Y38349D01*
X103043D01*
X103311Y37841D01*
X103438Y37349D01*
X103141Y36904D01*
X103010Y36248D01*
X103141Y35592D01*
X103412Y35186D01*
Y28103D01*
X103106Y27797D01*
X88565D01*
X88160Y28068D01*
X87504Y28198D01*
X86848Y28068D01*
X86292Y27696D01*
X85920Y27140D01*
X85790Y26484D01*
X85920Y25828D01*
X85986Y25730D01*
X85452Y24730D01*
X64528D01*
X61942Y27315D01*
Y32116D01*
X62213Y32521D01*
X62344Y33177D01*
X62213Y33833D01*
X61842Y34389D01*
X61286Y34761D01*
X60630Y34891D01*
X59974Y34761D01*
X59418Y34389D01*
X59046Y33833D01*
X58916Y33177D01*
X59046Y32521D01*
X59317Y32116D01*
Y27315D01*
X57724Y25722D01*
X21298D01*
X19935Y27085D01*
Y29484D01*
X20363Y29661D01*
X21085Y30215D01*
X21638Y30936D01*
X21986Y31776D01*
X22105Y32677D01*
X21986Y33579D01*
X21638Y34418D01*
X21085Y35140D01*
X20363Y35693D01*
X19523Y36041D01*
X18622Y36160D01*
X17721Y36041D01*
X16881Y35693D01*
X16160Y35140D01*
X15606Y34418D01*
X15258Y33579D01*
X15139Y32677D01*
X15258Y31776D01*
X15606Y30936D01*
X16160Y30215D01*
X16881Y29661D01*
X17309Y29484D01*
Y26541D01*
X17409Y26039D01*
X17694Y25613D01*
X19826Y23481D01*
X20252Y23197D01*
X20754Y23097D01*
X58268D01*
X58770Y23197D01*
X59196Y23481D01*
X60630Y24915D01*
X63056Y22489D01*
X63482Y22205D01*
X63984Y22105D01*
X131222D01*
X131628Y21834D01*
X132283Y21703D01*
X132939Y21834D01*
X133495Y22205D01*
X133867Y22761D01*
X133997Y23417D01*
X133867Y24073D01*
X133495Y24629D01*
X132939Y25001D01*
X132283Y25131D01*
X131628Y25001D01*
X131222Y24730D01*
X105137D01*
X104918Y25054D01*
X104752Y25730D01*
X105653Y26631D01*
X105937Y27057D01*
X106037Y27559D01*
Y35186D01*
X106308Y35592D01*
X106438Y36248D01*
X106308Y36904D01*
X106010Y37349D01*
X106138Y37841D01*
X106406Y38349D01*
X130226D01*
X130728Y38449D01*
X131154Y38733D01*
X132872Y40450D01*
X133350Y40545D01*
X133755Y40816D01*
X151947D01*
X153805Y38958D01*
Y34675D01*
X153534Y34269D01*
X153404Y33613D01*
X153534Y32957D01*
X153906Y32401D01*
X154462Y32030D01*
X155118Y31899D01*
X155774Y32030D01*
X156330Y32401D01*
X156702Y32957D01*
X156832Y33613D01*
X156702Y34269D01*
X156431Y34675D01*
Y39502D01*
X156331Y40004D01*
X156046Y40430D01*
X153697Y42779D01*
X153436Y43213D01*
X153540Y44175D01*
X153552Y44192D01*
X153682Y44848D01*
X153552Y45504D01*
X153512Y45564D01*
X154046Y46564D01*
X166052D01*
X166219Y46229D01*
X166319Y45564D01*
X165766Y45140D01*
X165212Y44418D01*
X164865Y43578D01*
X164746Y42677D01*
X164865Y41776D01*
X165212Y40936D01*
X165766Y40215D01*
X166487Y39661D01*
X167327Y39313D01*
X168228Y39195D01*
X169130Y39313D01*
X169970Y39661D01*
X170691Y40215D01*
X171244Y40936D01*
X171592Y41776D01*
X171711Y42677D01*
X171592Y43578D01*
X171244Y44418D01*
X170691Y45140D01*
X170138Y45564D01*
X170238Y46229D01*
X170405Y46564D01*
X176052D01*
X176219Y46229D01*
X176319Y45564D01*
X175766Y45140D01*
X175212Y44418D01*
X174864Y43578D01*
X174746Y42677D01*
X174864Y41776D01*
X175212Y40936D01*
X175766Y40215D01*
X176487Y39661D01*
X177327Y39313D01*
X178228Y39195D01*
X179130Y39313D01*
X179970Y39661D01*
X180691Y40215D01*
X181244Y40936D01*
X181422Y41365D01*
X184243D01*
X184746Y41464D01*
X185171Y41749D01*
X190692Y47270D01*
X190977Y47695D01*
X191076Y48198D01*
Y123913D01*
X190977Y124416D01*
X190692Y124842D01*
X181415Y134119D01*
X181592Y134547D01*
X181711Y135449D01*
X181592Y136350D01*
X181244Y137190D01*
X180691Y137911D01*
X179970Y138465D01*
X179130Y138813D01*
X178228Y138931D01*
X177327Y138813D01*
X176487Y138465D01*
X175766Y137911D01*
X175212Y137190D01*
X175035Y136761D01*
X171788D01*
X167454Y141095D01*
Y155449D01*
X167354Y155951D01*
X167070Y156377D01*
X163822Y159625D01*
X163396Y159909D01*
X162894Y160009D01*
X141219D01*
X140813Y160280D01*
X140157Y160410D01*
X139502Y160280D01*
X138945Y159908D01*
X138919Y159869D01*
X137919Y160172D01*
Y165658D01*
X138960Y166699D01*
X142386D01*
X142587Y166398D01*
X143143Y166026D01*
X143799Y165896D01*
X144455Y166026D01*
X145011Y166398D01*
X145383Y166954D01*
X145513Y167610D01*
X145383Y168266D01*
X145011Y168822D01*
X144455Y169194D01*
X143799Y169324D01*
X143143Y169194D01*
X142587Y168822D01*
X142386Y168521D01*
X138583D01*
X138234Y168452D01*
X137938Y168254D01*
X136364Y166680D01*
X136166Y166384D01*
X136097Y166035D01*
Y153724D01*
X136094Y153721D01*
X135141Y153347D01*
X134585Y153718D01*
X133929Y153849D01*
X133273Y153718D01*
X132717Y153347D01*
X132346Y152791D01*
X132215Y152135D01*
X132346Y151479D01*
X132717Y150923D01*
X133273Y150551D01*
X133929Y150421D01*
X134585Y150551D01*
X135141Y150923D01*
X135342Y151224D01*
X135796D01*
X136145Y151293D01*
X136440Y151491D01*
X137652Y152703D01*
X137850Y152998D01*
X137919Y153347D01*
Y157221D01*
X138919Y157524D01*
X138945Y157484D01*
X139502Y157113D01*
X140157Y156982D01*
X140813Y157113D01*
X141219Y157384D01*
X162350D01*
X164829Y154905D01*
Y140551D01*
X164929Y140049D01*
X165214Y139623D01*
X170316Y134521D01*
X170742Y134236D01*
X171244Y134136D01*
X175035D01*
X175212Y133707D01*
X175766Y132986D01*
X176487Y132433D01*
X177327Y132085D01*
X178228Y131966D01*
X179130Y132085D01*
X179558Y132263D01*
X181419Y130402D01*
X181005Y129402D01*
X178728D01*
Y125949D01*
X182181D01*
Y128226D01*
X183181Y128640D01*
X188451Y123370D01*
Y48741D01*
X183700Y43990D01*
X181422D01*
X181244Y44418D01*
X180691Y45140D01*
X180138Y45564D01*
X180238Y46229D01*
X180405Y46564D01*
X183074D01*
X183423Y46634D01*
X183718Y46831D01*
X186471Y49584D01*
X186669Y49880D01*
X186738Y50228D01*
Y60113D01*
X186669Y60461D01*
X186471Y60757D01*
X183906Y63322D01*
X183611Y63519D01*
X183262Y63588D01*
X181588D01*
X181244Y64418D01*
X180691Y65140D01*
X179970Y65693D01*
X179130Y66041D01*
X178228Y66160D01*
X177327Y66041D01*
X176487Y65693D01*
X175766Y65140D01*
X175212Y64418D01*
X174864Y63578D01*
X174746Y62677D01*
X174864Y61776D01*
X175212Y60936D01*
X175766Y60215D01*
X176487Y59661D01*
X177327Y59313D01*
X178228Y59195D01*
X179130Y59313D01*
X179970Y59661D01*
X180691Y60215D01*
X181244Y60936D01*
X181588Y61766D01*
X182885D01*
X184916Y59735D01*
Y50606D01*
X182696Y48387D01*
X179373D01*
X179130Y49313D01*
X179970Y49661D01*
X180691Y50215D01*
X181244Y50936D01*
X181592Y51776D01*
X181711Y52677D01*
X181592Y53579D01*
X181244Y54418D01*
X180691Y55140D01*
X179970Y55693D01*
X179130Y56041D01*
X178228Y56160D01*
X177327Y56041D01*
X176497Y55697D01*
X173873Y58321D01*
X173577Y58519D01*
X173228Y58588D01*
X169993D01*
X169794Y59588D01*
X169970Y59661D01*
X170691Y60215D01*
X171244Y60936D01*
X171592Y61776D01*
X171711Y62677D01*
X171592Y63578D01*
X171244Y64418D01*
X170691Y65140D01*
X169970Y65693D01*
X169130Y66041D01*
X168228Y66160D01*
X167327Y66041D01*
X166487Y65693D01*
X165766Y65140D01*
X165212Y64418D01*
X164865Y63578D01*
X164746Y62677D01*
X164865Y61776D01*
X165212Y60936D01*
X165766Y60215D01*
X166487Y59661D01*
X166663Y59588D01*
X166464Y58588D01*
X125580D01*
X124976Y59192D01*
X124692Y60205D01*
X125063Y60761D01*
X125194Y61417D01*
X125063Y62073D01*
X125042Y62105D01*
X125205Y63344D01*
X125267Y63430D01*
X125749Y64152D01*
X125819Y64503D01*
X121570D01*
X121640Y64152D01*
X122122Y63430D01*
X122098Y63101D01*
X121958Y62989D01*
X121823Y62959D01*
X120682Y63236D01*
X120618Y63332D01*
X120062Y63704D01*
X119406Y63834D01*
X119037Y64567D01*
X118906Y65223D01*
X118535Y65779D01*
X117979Y66150D01*
X117323Y66281D01*
X116667Y66150D01*
X116461Y66013D01*
X115461Y66469D01*
Y83748D01*
X116461Y83917D01*
X116701Y83557D01*
X117257Y83185D01*
X117913Y83055D01*
X118136Y83099D01*
X118986Y82397D01*
X119020Y82333D01*
X119142Y81720D01*
X119514Y81164D01*
X120070Y80792D01*
X120726Y80662D01*
X121382Y80792D01*
X121938Y81164D01*
X122309Y81720D01*
X122440Y82376D01*
X122309Y83032D01*
X121938Y83588D01*
X121382Y83960D01*
X120726Y84090D01*
X120503Y84046D01*
X119653Y84748D01*
X119619Y84812D01*
X119497Y85425D01*
X119125Y85981D01*
X119091Y86004D01*
X118780Y86885D01*
X118917Y87231D01*
X119119Y87533D01*
X119249Y88189D01*
X119179Y88544D01*
X130870Y100235D01*
X131068Y100531D01*
X131137Y100880D01*
Y109719D01*
X132137Y110022D01*
X132311Y109762D01*
X132867Y109391D01*
X133523Y109260D01*
X134179Y109391D01*
X134735Y109762D01*
X135106Y110319D01*
X135237Y110975D01*
X135106Y111630D01*
X134735Y112186D01*
X134179Y112558D01*
X133523Y112689D01*
X132867Y112558D01*
X132311Y112186D01*
X132137Y111927D01*
X131137Y112230D01*
Y115926D01*
X131805Y116208D01*
X132137Y116281D01*
X132796Y115840D01*
X133147Y115770D01*
Y117895D01*
Y120019D01*
X132796Y119949D01*
X132137Y119509D01*
X131805Y119581D01*
X131137Y119864D01*
Y168691D01*
X131068Y169040D01*
X130870Y169335D01*
X127908Y172298D01*
X127612Y172495D01*
X127264Y172564D01*
X124247D01*
X124046Y172865D01*
X123490Y173237D01*
X122834Y173367D01*
X122178Y173237D01*
X121622Y172865D01*
X121251Y172309D01*
X121120Y171653D01*
X121210Y171203D01*
X120832Y170502D01*
X120579Y170203D01*
X111623D01*
X111134Y171203D01*
X111245Y171369D01*
X111375Y172025D01*
X111245Y172681D01*
X110873Y173237D01*
X110317Y173608D01*
X109661Y173739D01*
X109005Y173608D01*
X108449Y173237D01*
X108078Y172681D01*
X107947Y172025D01*
X108078Y171369D01*
X108189Y171203D01*
X107700Y170203D01*
X104886D01*
X102687Y172402D01*
X102392Y172599D01*
X102043Y172669D01*
X75155D01*
X74952Y172858D01*
X74476Y173669D01*
X74545Y174016D01*
X74414Y174672D01*
X74043Y175228D01*
X73487Y175599D01*
X72831Y175730D01*
D02*
G37*
G36*
X178228Y158931D02*
X177327Y158813D01*
X176487Y158465D01*
X175766Y157911D01*
X175212Y157190D01*
X174864Y156350D01*
X174746Y155449D01*
X174864Y154548D01*
X175212Y153708D01*
X175766Y152986D01*
X176487Y152433D01*
X177327Y152085D01*
X178228Y151966D01*
X179130Y152085D01*
X179970Y152433D01*
X180691Y152986D01*
X181244Y153708D01*
X181592Y154548D01*
X181711Y155449D01*
X181592Y156350D01*
X181244Y157190D01*
X180691Y157911D01*
X179970Y158465D01*
X179130Y158813D01*
X178228Y158931D01*
D02*
G37*
G36*
X134955Y146849D02*
Y145224D01*
X136579D01*
X136509Y145575D01*
X136027Y146297D01*
X135306Y146779D01*
X134955Y146849D01*
D02*
G37*
G36*
X133955D02*
X133604Y146779D01*
X132882Y146297D01*
X132400Y145575D01*
X132330Y145224D01*
X133955D01*
Y146849D01*
D02*
G37*
G36*
X136579Y144224D02*
X134955D01*
Y142600D01*
X135306Y142670D01*
X136027Y143152D01*
X136509Y143873D01*
X136579Y144224D01*
D02*
G37*
G36*
X133955D02*
X132330D01*
X132400Y143873D01*
X132882Y143152D01*
X133604Y142670D01*
X133955Y142600D01*
Y144224D01*
D02*
G37*
G36*
X178228Y148931D02*
X177327Y148813D01*
X176487Y148465D01*
X175766Y147911D01*
X175212Y147190D01*
X174864Y146350D01*
X174746Y145449D01*
X174864Y144547D01*
X175212Y143708D01*
X175766Y142986D01*
X176487Y142433D01*
X177327Y142085D01*
X178228Y141966D01*
X179130Y142085D01*
X179970Y142433D01*
X180691Y142986D01*
X181244Y143708D01*
X181592Y144547D01*
X181711Y145449D01*
X181592Y146350D01*
X181244Y147190D01*
X180691Y147911D01*
X179970Y148465D01*
X179130Y148813D01*
X178228Y148931D01*
D02*
G37*
G36*
X147744Y136770D02*
Y135146D01*
X149369D01*
X149299Y135497D01*
X148817Y136218D01*
X148095Y136700D01*
X147744Y136770D01*
D02*
G37*
G36*
X146744D02*
X146393Y136700D01*
X145672Y136218D01*
X145189Y135497D01*
X145120Y135146D01*
X146744D01*
Y136770D01*
D02*
G37*
G36*
X149369Y134146D02*
X147744D01*
Y132521D01*
X148095Y132591D01*
X148817Y133073D01*
X149299Y133795D01*
X149369Y134146D01*
D02*
G37*
G36*
X146744D02*
X145120D01*
X145189Y133795D01*
X145672Y133073D01*
X146393Y132591D01*
X146744Y132521D01*
Y134146D01*
D02*
G37*
G36*
X177728Y129402D02*
X174276D01*
Y125949D01*
X177728D01*
Y129402D01*
D02*
G37*
G36*
X18622Y128933D02*
X17721Y128814D01*
X16881Y128466D01*
X16160Y127913D01*
X15606Y127192D01*
X15258Y126352D01*
X15139Y125450D01*
X15258Y124549D01*
X15606Y123709D01*
X16160Y122988D01*
X16881Y122434D01*
X17721Y122086D01*
X18622Y121968D01*
X19523Y122086D01*
X20363Y122434D01*
X21085Y122988D01*
X21638Y123709D01*
X21986Y124549D01*
X22105Y125450D01*
X21986Y126352D01*
X21638Y127192D01*
X21085Y127913D01*
X20363Y128466D01*
X19523Y128814D01*
X18622Y128933D01*
D02*
G37*
G36*
X32543Y124950D02*
X29122D01*
Y121529D01*
X29654Y121599D01*
X30615Y121998D01*
X31441Y122631D01*
X32075Y123457D01*
X32473Y124418D01*
X32543Y124950D01*
D02*
G37*
G36*
X28122D02*
X24701D01*
X24771Y124418D01*
X25169Y123457D01*
X25803Y122631D01*
X26629Y121998D01*
X27590Y121599D01*
X28122Y121529D01*
Y124950D01*
D02*
G37*
G36*
X182181Y124949D02*
X178728D01*
Y121496D01*
X182181D01*
Y124949D01*
D02*
G37*
G36*
X177728D02*
X174276D01*
Y121496D01*
X177728D01*
Y124949D01*
D02*
G37*
G36*
X134147Y120019D02*
Y118395D01*
X135772D01*
X135702Y118746D01*
X135220Y119467D01*
X134498Y119949D01*
X134147Y120019D01*
D02*
G37*
G36*
X135772Y117395D02*
X134147D01*
Y115770D01*
X134498Y115840D01*
X135220Y116322D01*
X135702Y117044D01*
X135772Y117395D01*
D02*
G37*
G36*
X71169Y116958D02*
Y115334D01*
X72794D01*
X72724Y115685D01*
X72242Y116406D01*
X71520Y116888D01*
X71169Y116958D01*
D02*
G37*
G36*
X70169D02*
X69818Y116888D01*
X69097Y116406D01*
X68615Y115685D01*
X68545Y115334D01*
X70169D01*
Y116958D01*
D02*
G37*
G36*
X72794Y114334D02*
X71169D01*
Y112709D01*
X71520Y112779D01*
X72242Y113261D01*
X72724Y113983D01*
X72794Y114334D01*
D02*
G37*
G36*
X70169D02*
X68545D01*
X68615Y113983D01*
X69097Y113261D01*
X69818Y112779D01*
X70169Y112709D01*
Y114334D01*
D02*
G37*
G36*
X58939Y113935D02*
X58588Y113866D01*
X57866Y113383D01*
X57384Y112662D01*
X57314Y112311D01*
X58939D01*
Y113935D01*
D02*
G37*
G36*
Y111311D02*
X57314D01*
X57384Y110960D01*
X57866Y110239D01*
X58588Y109757D01*
X58939Y109687D01*
Y111311D01*
D02*
G37*
G36*
X138150Y112738D02*
X137494Y112607D01*
X136938Y112236D01*
X136566Y111679D01*
X136436Y111024D01*
X136566Y110368D01*
X136938Y109812D01*
X137494Y109440D01*
X138150Y109310D01*
X138806Y109440D01*
X139362Y109812D01*
X139733Y110368D01*
X139864Y111024D01*
X139733Y111679D01*
X139362Y112236D01*
X138806Y112607D01*
X138150Y112738D01*
D02*
G37*
G36*
X171681Y116130D02*
X164776D01*
Y109224D01*
X171681D01*
Y116130D01*
D02*
G37*
G36*
X68842Y110513D02*
X68186Y110383D01*
X67630Y110011D01*
X67259Y109455D01*
X67128Y108800D01*
X67259Y108144D01*
X67630Y107588D01*
X68186Y107216D01*
X68219Y107210D01*
X69152Y106776D01*
X69283Y106120D01*
X69654Y105564D01*
X70210Y105192D01*
X70866Y105062D01*
X71522Y105192D01*
X72078Y105564D01*
X72450Y106120D01*
X72580Y106776D01*
X72450Y107431D01*
X72078Y107988D01*
X71522Y108359D01*
X71490Y108366D01*
X70556Y108800D01*
X70426Y109455D01*
X70054Y110011D01*
X69498Y110383D01*
X68842Y110513D01*
D02*
G37*
G36*
X178228Y106160D02*
X177327Y106041D01*
X176487Y105693D01*
X175766Y105140D01*
X175212Y104418D01*
X174864Y103578D01*
X174746Y102677D01*
X174864Y101776D01*
X175212Y100936D01*
X175766Y100215D01*
X176487Y99661D01*
X177327Y99313D01*
X178228Y99195D01*
X179130Y99313D01*
X179970Y99661D01*
X180691Y100215D01*
X181244Y100936D01*
X181592Y101776D01*
X181711Y102677D01*
X181592Y103578D01*
X181244Y104418D01*
X180691Y105140D01*
X179970Y105693D01*
X179130Y106041D01*
X178228Y106160D01*
D02*
G37*
G36*
X168228D02*
X167327Y106041D01*
X166487Y105693D01*
X165766Y105140D01*
X165212Y104418D01*
X164865Y103578D01*
X164746Y102677D01*
X164865Y101776D01*
X165212Y100936D01*
X165766Y100215D01*
X166487Y99661D01*
X167327Y99313D01*
X168228Y99195D01*
X169130Y99313D01*
X169970Y99661D01*
X170691Y100215D01*
X171244Y100936D01*
X171592Y101776D01*
X171711Y102677D01*
X171592Y103578D01*
X171244Y104418D01*
X170691Y105140D01*
X169970Y105693D01*
X169130Y106041D01*
X168228Y106160D01*
D02*
G37*
G36*
X178228Y96160D02*
X177327Y96041D01*
X176487Y95693D01*
X175766Y95140D01*
X175212Y94418D01*
X174864Y93578D01*
X174746Y92677D01*
X174864Y91776D01*
X175212Y90936D01*
X175766Y90215D01*
X176487Y89661D01*
X177327Y89313D01*
X178228Y89195D01*
X179130Y89313D01*
X179970Y89661D01*
X180691Y90215D01*
X181244Y90936D01*
X181592Y91776D01*
X181711Y92677D01*
X181592Y93578D01*
X181244Y94418D01*
X180691Y95140D01*
X179970Y95693D01*
X179130Y96041D01*
X178228Y96160D01*
D02*
G37*
G36*
X168228D02*
X167327Y96041D01*
X166487Y95693D01*
X165766Y95140D01*
X165212Y94418D01*
X164865Y93578D01*
X164746Y92677D01*
X164865Y91776D01*
X165212Y90936D01*
X165766Y90215D01*
X166487Y89661D01*
X167327Y89313D01*
X168228Y89195D01*
X169130Y89313D01*
X169970Y89661D01*
X170691Y90215D01*
X171244Y90936D01*
X171592Y91776D01*
X171711Y92677D01*
X171592Y93578D01*
X171244Y94418D01*
X170691Y95140D01*
X169970Y95693D01*
X169130Y96041D01*
X168228Y96160D01*
D02*
G37*
G36*
X75141Y96702D02*
X74485Y96572D01*
X73929Y96200D01*
X73558Y95644D01*
X73427Y94988D01*
X73372Y94921D01*
X67602D01*
X67290Y94859D01*
X67026Y94683D01*
X61385Y89041D01*
X31198D01*
X30859Y90041D01*
X31085Y90215D01*
X31638Y90936D01*
X31986Y91776D01*
X32105Y92677D01*
X31986Y93578D01*
X31638Y94418D01*
X31085Y95140D01*
X30363Y95693D01*
X29523Y96041D01*
X28622Y96160D01*
X27721Y96041D01*
X26881Y95693D01*
X26160Y95140D01*
X25606Y94418D01*
X25258Y93578D01*
X25139Y92677D01*
X25258Y91776D01*
X25606Y90936D01*
X26160Y90215D01*
X26386Y90041D01*
X26046Y89041D01*
X23410D01*
X21585Y90867D01*
X21638Y90936D01*
X21986Y91776D01*
X22105Y92677D01*
X21986Y93578D01*
X21638Y94418D01*
X21085Y95140D01*
X20363Y95693D01*
X19523Y96041D01*
X18622Y96160D01*
X17721Y96041D01*
X16881Y95693D01*
X16160Y95140D01*
X15606Y94418D01*
X15258Y93578D01*
X15139Y92677D01*
X15258Y91776D01*
X15606Y90936D01*
X16160Y90215D01*
X16881Y89661D01*
X17721Y89313D01*
X18622Y89195D01*
X19523Y89313D01*
X20363Y89661D01*
X20433Y89714D01*
X22470Y87677D01*
X20433Y85640D01*
X20363Y85693D01*
X19523Y86041D01*
X18622Y86160D01*
X17721Y86041D01*
X16881Y85693D01*
X16160Y85140D01*
X15606Y84418D01*
X15258Y83578D01*
X15139Y82677D01*
X15258Y81776D01*
X15606Y80936D01*
X16160Y80215D01*
X16881Y79661D01*
X17721Y79313D01*
X18622Y79195D01*
X19523Y79313D01*
X20363Y79661D01*
X21085Y80215D01*
X21638Y80936D01*
X21986Y81776D01*
X22105Y82677D01*
X21986Y83578D01*
X21638Y84418D01*
X21585Y84488D01*
X23410Y86313D01*
X26046D01*
X26386Y85313D01*
X26160Y85140D01*
X25606Y84418D01*
X25258Y83578D01*
X25139Y82677D01*
X25258Y81776D01*
X25606Y80936D01*
X26160Y80215D01*
X26881Y79661D01*
X27721Y79313D01*
X28622Y79195D01*
X29523Y79313D01*
X30363Y79661D01*
X31085Y80215D01*
X31638Y80936D01*
X31986Y81776D01*
X32105Y82677D01*
X31986Y83578D01*
X31638Y84418D01*
X31085Y85140D01*
X30859Y85313D01*
X31198Y86313D01*
X62177D01*
X62489Y86375D01*
X62753Y86552D01*
X68395Y92193D01*
X73372D01*
X73427Y92126D01*
X73558Y91470D01*
X73929Y90914D01*
X74485Y90542D01*
X75141Y90412D01*
X75797Y90542D01*
X76353Y90914D01*
X76725Y91470D01*
X76855Y92126D01*
X76725Y92782D01*
X76707Y92809D01*
X76433Y93557D01*
X76707Y94305D01*
X76725Y94332D01*
X76855Y94988D01*
X76725Y95644D01*
X76353Y96200D01*
X75797Y96572D01*
X75141Y96702D01*
D02*
G37*
G36*
X90318Y89511D02*
X89662Y89381D01*
X89106Y89009D01*
X88735Y88453D01*
X88604Y87797D01*
X88735Y87141D01*
X89106Y86585D01*
X89662Y86214D01*
X90318Y86083D01*
X90974Y86214D01*
X91530Y86585D01*
X91902Y87141D01*
X92032Y87797D01*
X91902Y88453D01*
X91530Y89009D01*
X90974Y89381D01*
X90318Y89511D01*
D02*
G37*
G36*
X84252Y86848D02*
X83596Y86717D01*
X83040Y86346D01*
X82668Y85790D01*
X82538Y85134D01*
X82668Y84478D01*
X83040Y83922D01*
X83596Y83550D01*
X84252Y83420D01*
X84908Y83550D01*
X85464Y83922D01*
X85835Y84478D01*
X85966Y85134D01*
X85835Y85790D01*
X85464Y86346D01*
X84908Y86717D01*
X84252Y86848D01*
D02*
G37*
G36*
X178228Y86160D02*
X177327Y86041D01*
X176487Y85693D01*
X175766Y85140D01*
X175212Y84418D01*
X174864Y83578D01*
X174746Y82677D01*
X174864Y81776D01*
X175212Y80936D01*
X175766Y80215D01*
X176487Y79661D01*
X177327Y79313D01*
X178228Y79195D01*
X179130Y79313D01*
X179970Y79661D01*
X180691Y80215D01*
X181244Y80936D01*
X181592Y81776D01*
X181711Y82677D01*
X181592Y83578D01*
X181244Y84418D01*
X180691Y85140D01*
X179970Y85693D01*
X179130Y86041D01*
X178228Y86160D01*
D02*
G37*
G36*
X168228D02*
X167327Y86041D01*
X166487Y85693D01*
X165766Y85140D01*
X165212Y84418D01*
X164865Y83578D01*
X164746Y82677D01*
X164865Y81776D01*
X165212Y80936D01*
X165766Y80215D01*
X166487Y79661D01*
X167327Y79313D01*
X168228Y79195D01*
X169130Y79313D01*
X169970Y79661D01*
X170691Y80215D01*
X171244Y80936D01*
X171592Y81776D01*
X171711Y82677D01*
X171592Y83578D01*
X171244Y84418D01*
X170691Y85140D01*
X169970Y85693D01*
X169130Y86041D01*
X168228Y86160D01*
D02*
G37*
G36*
X109051Y76043D02*
X107020D01*
Y74012D01*
X107192Y74035D01*
X107818Y74294D01*
X108356Y74707D01*
X108769Y75245D01*
X109028Y75871D01*
X109051Y76043D01*
D02*
G37*
G36*
X106020D02*
X103989D01*
X104011Y75871D01*
X104271Y75245D01*
X104683Y74707D01*
X105221Y74294D01*
X105848Y74035D01*
X106020Y74012D01*
Y76043D01*
D02*
G37*
G36*
X101964D02*
X99933D01*
Y74012D01*
X100105Y74035D01*
X100732Y74294D01*
X101269Y74707D01*
X101682Y75245D01*
X101942Y75871D01*
X101964Y76043D01*
D02*
G37*
G36*
X98933D02*
X96902D01*
X96925Y75871D01*
X97184Y75245D01*
X97597Y74707D01*
X98135Y74294D01*
X98761Y74035D01*
X98933Y74012D01*
Y76043D01*
D02*
G37*
G36*
X94878D02*
X92847D01*
Y74012D01*
X93019Y74035D01*
X93645Y74294D01*
X94183Y74707D01*
X94596Y75245D01*
X94855Y75871D01*
X94878Y76043D01*
D02*
G37*
G36*
X91847D02*
X89815D01*
X89838Y75871D01*
X90097Y75245D01*
X90510Y74707D01*
X91048Y74294D01*
X91674Y74035D01*
X91847Y74012D01*
Y76043D01*
D02*
G37*
G36*
X118532Y76651D02*
X117876Y76521D01*
X117320Y76149D01*
X116948Y75593D01*
X116818Y74937D01*
X116948Y74281D01*
X117320Y73725D01*
X117876Y73353D01*
X118532Y73223D01*
X119188Y73353D01*
X119744Y73725D01*
X120115Y74281D01*
X120246Y74937D01*
X120115Y75593D01*
X119744Y76149D01*
X119188Y76521D01*
X118532Y76651D01*
D02*
G37*
G36*
X107020Y71988D02*
Y69957D01*
X109051D01*
X109028Y70129D01*
X108769Y70755D01*
X108356Y71293D01*
X107818Y71706D01*
X107192Y71965D01*
X107020Y71988D01*
D02*
G37*
G36*
X106020D02*
X105848Y71965D01*
X105221Y71706D01*
X104683Y71293D01*
X104271Y70755D01*
X104011Y70129D01*
X103989Y69957D01*
X106020D01*
Y71988D01*
D02*
G37*
G36*
X92847D02*
Y69957D01*
X94878D01*
X94855Y70129D01*
X94596Y70755D01*
X94183Y71293D01*
X93645Y71706D01*
X93019Y71965D01*
X92847Y71988D01*
D02*
G37*
G36*
X91847D02*
X91674Y71965D01*
X91048Y71706D01*
X90510Y71293D01*
X90097Y70755D01*
X89838Y70129D01*
X89815Y69957D01*
X91847D01*
Y71988D01*
D02*
G37*
G36*
X178228Y116160D02*
X177327Y116041D01*
X176487Y115693D01*
X175766Y115140D01*
X175212Y114418D01*
X174864Y113578D01*
X174746Y112677D01*
X174864Y111776D01*
X175212Y110936D01*
X175766Y110215D01*
X176487Y109661D01*
X177327Y109313D01*
X178228Y109195D01*
X179130Y109313D01*
X179970Y109661D01*
X180691Y110215D01*
X181244Y110936D01*
X181588Y111766D01*
X183008D01*
X184916Y109859D01*
Y72031D01*
X182465Y69581D01*
X181440D01*
X180972Y70581D01*
X181244Y70936D01*
X181592Y71776D01*
X181711Y72677D01*
X181592Y73579D01*
X181244Y74418D01*
X180691Y75140D01*
X179970Y75693D01*
X179130Y76041D01*
X178228Y76160D01*
X177327Y76041D01*
X176487Y75693D01*
X175766Y75140D01*
X175212Y74418D01*
X174864Y73579D01*
X174746Y72677D01*
X174864Y71776D01*
X175212Y70936D01*
X175485Y70581D01*
X175016Y69581D01*
X171440D01*
X170972Y70581D01*
X171244Y70936D01*
X171592Y71776D01*
X171711Y72677D01*
X171592Y73579D01*
X171244Y74418D01*
X170691Y75140D01*
X169970Y75693D01*
X169130Y76041D01*
X168228Y76160D01*
X167327Y76041D01*
X166487Y75693D01*
X165766Y75140D01*
X165212Y74418D01*
X164865Y73579D01*
X164746Y72677D01*
X164865Y71776D01*
X165212Y70936D01*
X165485Y70581D01*
X165016Y69581D01*
X144779D01*
X144597Y69727D01*
X144071Y70581D01*
X144127Y70866D01*
X143997Y71522D01*
X143625Y72078D01*
X143069Y72450D01*
X142413Y72580D01*
X141758Y72450D01*
X141201Y72078D01*
X140830Y71522D01*
X140699Y70866D01*
X140756Y70581D01*
X140230Y69727D01*
X140048Y69581D01*
X120599D01*
X120398Y69881D01*
X119842Y70253D01*
X119186Y70383D01*
X118530Y70253D01*
X117974Y69881D01*
X117602Y69325D01*
X117472Y68669D01*
X117602Y68013D01*
X117974Y67457D01*
X118530Y67086D01*
X119186Y66955D01*
X119842Y67086D01*
X120398Y67457D01*
X120599Y67758D01*
X122092D01*
X122396Y66758D01*
X122122Y66575D01*
X121640Y65854D01*
X121570Y65503D01*
X125819D01*
X125749Y65854D01*
X125267Y66575D01*
X124993Y66758D01*
X125297Y67758D01*
X182843D01*
X183191Y67827D01*
X183487Y68025D01*
X186471Y71009D01*
X186669Y71305D01*
X186738Y71653D01*
Y110236D01*
X186669Y110585D01*
X186471Y110880D01*
X184030Y113321D01*
X183735Y113519D01*
X183386Y113588D01*
X181588D01*
X181244Y114418D01*
X180691Y115140D01*
X179970Y115693D01*
X179130Y116041D01*
X178228Y116160D01*
D02*
G37*
G36*
X18622Y76160D02*
X17721Y76041D01*
X16881Y75693D01*
X16160Y75140D01*
X15606Y74418D01*
X15258Y73579D01*
X15139Y72677D01*
X15258Y71776D01*
X15606Y70936D01*
X16160Y70215D01*
X16881Y69661D01*
X17721Y69313D01*
X18622Y69195D01*
X19523Y69313D01*
X20363Y69661D01*
X21085Y70215D01*
X21638Y70936D01*
X21986Y71776D01*
X22105Y72677D01*
X21986Y73579D01*
X21638Y74418D01*
X21085Y75140D01*
X20363Y75693D01*
X19523Y76041D01*
X18622Y76160D01*
D02*
G37*
G36*
X99146Y71201D02*
Y69169D01*
X101177D01*
X101154Y69341D01*
X100895Y69968D01*
X100482Y70506D01*
X99944Y70918D01*
X99318Y71178D01*
X99146Y71201D01*
D02*
G37*
G36*
X98146D02*
X97974Y71178D01*
X97347Y70918D01*
X96809Y70506D01*
X96397Y69968D01*
X96137Y69341D01*
X96114Y69169D01*
X98146D01*
Y71201D01*
D02*
G37*
G36*
X109051Y68957D02*
X107020D01*
Y66926D01*
X107192Y66948D01*
X107818Y67208D01*
X108356Y67620D01*
X108769Y68158D01*
X109028Y68785D01*
X109051Y68957D01*
D02*
G37*
G36*
X106020D02*
X103989D01*
X104011Y68785D01*
X104271Y68158D01*
X104683Y67620D01*
X105221Y67208D01*
X105848Y66948D01*
X106020Y66926D01*
Y68957D01*
D02*
G37*
G36*
X94878D02*
X92847D01*
Y66926D01*
X93019Y66948D01*
X93645Y67208D01*
X94183Y67620D01*
X94596Y68158D01*
X94855Y68785D01*
X94878Y68957D01*
D02*
G37*
G36*
X91847D02*
X89815D01*
X89838Y68785D01*
X90097Y68158D01*
X90510Y67620D01*
X91048Y67208D01*
X91674Y66948D01*
X91847Y66926D01*
Y68957D01*
D02*
G37*
G36*
X101177Y68169D02*
X99146D01*
Y66138D01*
X99318Y66161D01*
X99944Y66420D01*
X100482Y66833D01*
X100895Y67371D01*
X101154Y67997D01*
X101177Y68169D01*
D02*
G37*
G36*
X98146D02*
X96114D01*
X96137Y67997D01*
X96397Y67371D01*
X96809Y66833D01*
X97347Y66420D01*
X97974Y66161D01*
X98146Y66138D01*
Y68169D01*
D02*
G37*
G36*
X59985Y70574D02*
X59329Y70444D01*
X58773Y70073D01*
X58402Y69516D01*
X58271Y68861D01*
X57338Y68427D01*
X57305Y68420D01*
X56749Y68049D01*
X56378Y67493D01*
X56247Y66837D01*
X56378Y66181D01*
X56749Y65625D01*
X57305Y65253D01*
X57961Y65123D01*
X58617Y65253D01*
X59173Y65625D01*
X59545Y66181D01*
X59675Y66837D01*
X60609Y67270D01*
X60641Y67277D01*
X61197Y67649D01*
X61569Y68205D01*
X61699Y68861D01*
X61569Y69516D01*
X61197Y70073D01*
X60641Y70444D01*
X59985Y70574D01*
D02*
G37*
G36*
X107020Y64901D02*
Y62870D01*
X109051D01*
X109028Y63042D01*
X108769Y63669D01*
X108356Y64206D01*
X107818Y64619D01*
X107192Y64879D01*
X107020Y64901D01*
D02*
G37*
G36*
X106020D02*
X105848Y64879D01*
X105221Y64619D01*
X104683Y64206D01*
X104271Y63669D01*
X104011Y63042D01*
X103989Y62870D01*
X106020D01*
Y64901D01*
D02*
G37*
G36*
X99933D02*
Y62870D01*
X101964D01*
X101942Y63042D01*
X101682Y63669D01*
X101269Y64206D01*
X100732Y64619D01*
X100105Y64879D01*
X99933Y64901D01*
D02*
G37*
G36*
X98933D02*
X98761Y64879D01*
X98135Y64619D01*
X97597Y64206D01*
X97184Y63669D01*
X96925Y63042D01*
X96902Y62870D01*
X98933D01*
Y64901D01*
D02*
G37*
G36*
X92847D02*
Y62870D01*
X94878D01*
X94855Y63042D01*
X94596Y63669D01*
X94183Y64206D01*
X93645Y64619D01*
X93019Y64879D01*
X92847Y64901D01*
D02*
G37*
G36*
X91847D02*
X91674Y64879D01*
X91048Y64619D01*
X90510Y64206D01*
X90097Y63669D01*
X89838Y63042D01*
X89815Y62870D01*
X91847D01*
Y64901D01*
D02*
G37*
G36*
X109051Y61870D02*
X107020D01*
Y59839D01*
X107192Y59862D01*
X107818Y60121D01*
X108356Y60534D01*
X108769Y61072D01*
X109028Y61698D01*
X109051Y61870D01*
D02*
G37*
G36*
X106020D02*
X103989D01*
X104011Y61698D01*
X104271Y61072D01*
X104683Y60534D01*
X105221Y60121D01*
X105848Y59862D01*
X106020Y59839D01*
Y61870D01*
D02*
G37*
G36*
X101964D02*
X99933D01*
Y59839D01*
X100105Y59862D01*
X100732Y60121D01*
X101269Y60534D01*
X101682Y61072D01*
X101942Y61698D01*
X101964Y61870D01*
D02*
G37*
G36*
X98933D02*
X96902D01*
X96925Y61698D01*
X97184Y61072D01*
X97597Y60534D01*
X98135Y60121D01*
X98761Y59862D01*
X98933Y59839D01*
Y61870D01*
D02*
G37*
G36*
X94878D02*
X92847D01*
Y59839D01*
X93019Y59862D01*
X93645Y60121D01*
X94183Y60534D01*
X94596Y61072D01*
X94855Y61698D01*
X94878Y61870D01*
D02*
G37*
G36*
X91847D02*
X89815D01*
X89838Y61698D01*
X90097Y61072D01*
X90510Y60534D01*
X91048Y60121D01*
X91674Y59862D01*
X91847Y59839D01*
Y61870D01*
D02*
G37*
G36*
X83465Y52108D02*
X82809Y51977D01*
X82253Y51606D01*
X81881Y51050D01*
X81751Y50394D01*
X81881Y49738D01*
X82253Y49182D01*
X82809Y48810D01*
X83465Y48680D01*
X84121Y48810D01*
X84677Y49182D01*
X85048Y49738D01*
X85179Y50394D01*
X85048Y51050D01*
X84677Y51606D01*
X84121Y51977D01*
X83465Y52108D01*
D02*
G37*
G36*
X88755Y51714D02*
X88099Y51584D01*
X87543Y51212D01*
X87171Y50656D01*
X87041Y50000D01*
X87171Y49344D01*
X87543Y48788D01*
X88099Y48416D01*
X88755Y48286D01*
X89411Y48416D01*
X89967Y48788D01*
X90338Y49344D01*
X90469Y50000D01*
X90338Y50656D01*
X89967Y51212D01*
X89411Y51584D01*
X88755Y51714D01*
D02*
G37*
G36*
X18622Y46160D02*
X17721Y46041D01*
X16881Y45693D01*
X16160Y45140D01*
X15606Y44418D01*
X15258Y43578D01*
X15139Y42677D01*
X15258Y41776D01*
X15606Y40936D01*
X16160Y40215D01*
X16881Y39661D01*
X17721Y39313D01*
X18622Y39195D01*
X19523Y39313D01*
X20363Y39661D01*
X21085Y40215D01*
X21638Y40936D01*
X21986Y41776D01*
X22105Y42677D01*
X21986Y43578D01*
X21638Y44418D01*
X21085Y45140D01*
X20363Y45693D01*
X19523Y46041D01*
X18622Y46160D01*
D02*
G37*
G36*
X126037Y35195D02*
Y33571D01*
X127661D01*
X127591Y33922D01*
X127109Y34643D01*
X126388Y35125D01*
X126037Y35195D01*
D02*
G37*
G36*
X125037D02*
X124686Y35125D01*
X123964Y34643D01*
X123482Y33922D01*
X123413Y33571D01*
X125037D01*
Y35195D01*
D02*
G37*
G36*
X29122Y36598D02*
Y33177D01*
X32543D01*
X32473Y33709D01*
X32075Y34671D01*
X31441Y35496D01*
X30615Y36130D01*
X29654Y36528D01*
X29122Y36598D01*
D02*
G37*
G36*
X178728D02*
Y33177D01*
X182149D01*
X182079Y33709D01*
X181681Y34671D01*
X181047Y35496D01*
X180222Y36130D01*
X179260Y36528D01*
X178728Y36598D01*
D02*
G37*
G36*
X28122D02*
X27590Y36528D01*
X26629Y36130D01*
X25803Y35496D01*
X25169Y34671D01*
X24771Y33709D01*
X24701Y33177D01*
X28122D01*
Y36598D01*
D02*
G37*
G36*
X177728D02*
X177197Y36528D01*
X176235Y36130D01*
X175409Y35496D01*
X174776Y34671D01*
X174377Y33709D01*
X174307Y33177D01*
X177728D01*
Y36598D01*
D02*
G37*
G36*
X127661Y32571D02*
X126037D01*
Y30946D01*
X126388Y31016D01*
X127109Y31498D01*
X127591Y32220D01*
X127661Y32571D01*
D02*
G37*
G36*
X125037D02*
X123413D01*
X123482Y32220D01*
X123964Y31498D01*
X124686Y31016D01*
X125037Y30946D01*
Y32571D01*
D02*
G37*
G36*
X168228Y36160D02*
X167327Y36041D01*
X166487Y35693D01*
X165766Y35140D01*
X165212Y34418D01*
X164865Y33579D01*
X164746Y32677D01*
X164865Y31776D01*
X165212Y30936D01*
X165766Y30215D01*
X166487Y29661D01*
X167327Y29313D01*
X168228Y29195D01*
X169130Y29313D01*
X169970Y29661D01*
X170691Y30215D01*
X171244Y30936D01*
X171592Y31776D01*
X171711Y32677D01*
X171592Y33579D01*
X171244Y34418D01*
X170691Y35140D01*
X169970Y35693D01*
X169130Y36041D01*
X168228Y36160D01*
D02*
G37*
G36*
X182149Y32177D02*
X178728D01*
Y28756D01*
X179260Y28826D01*
X180222Y29225D01*
X181047Y29858D01*
X181681Y30684D01*
X182079Y31645D01*
X182149Y32177D01*
D02*
G37*
G36*
X32543D02*
X29122D01*
Y28756D01*
X29654Y28826D01*
X30615Y29225D01*
X31441Y29858D01*
X32075Y30684D01*
X32473Y31645D01*
X32543Y32177D01*
D02*
G37*
G36*
X177728D02*
X174307D01*
X174377Y31645D01*
X174776Y30684D01*
X175409Y29858D01*
X176235Y29225D01*
X177197Y28826D01*
X177728Y28756D01*
Y32177D01*
D02*
G37*
G36*
X28122D02*
X24701D01*
X24771Y31645D01*
X25169Y30684D01*
X25803Y29858D01*
X26629Y29225D01*
X27590Y28826D01*
X28122Y28756D01*
Y32177D01*
D02*
G37*
G36*
X106299Y18637D02*
X105605Y18499D01*
X105016Y18106D01*
X104623Y17517D01*
X104485Y16823D01*
X104552Y16486D01*
X104035Y15640D01*
X103850Y15486D01*
X94303D01*
X93897Y15757D01*
X93241Y15887D01*
X93168Y15873D01*
X92342Y16705D01*
X92366Y16823D01*
X92228Y17517D01*
X91834Y18106D01*
X91246Y18499D01*
X90551Y18637D01*
X89857Y18499D01*
X89268Y18106D01*
X88875Y17517D01*
X88737Y16823D01*
X88875Y16128D01*
X89268Y15540D01*
X89857Y15147D01*
X90551Y15008D01*
X90684Y15035D01*
X91539Y14232D01*
X91527Y14173D01*
X91658Y13517D01*
X92029Y12961D01*
X92585Y12590D01*
X93241Y12459D01*
X93897Y12590D01*
X94303Y12861D01*
X107313D01*
X107787Y11861D01*
X107511Y11448D01*
X107328Y10524D01*
Y5799D01*
X107511Y4874D01*
X108035Y4090D01*
X108819Y3567D01*
X109744Y3383D01*
X110669Y3567D01*
X111453Y4090D01*
X111977Y4874D01*
X112161Y5799D01*
Y10524D01*
X111977Y11448D01*
X111701Y11861D01*
X112176Y12861D01*
X143908D01*
X144226Y12648D01*
X144882Y12517D01*
X145538Y12648D01*
X146094Y13020D01*
X146466Y13576D01*
X146596Y14232D01*
X146466Y14887D01*
X146094Y15443D01*
X145538Y15815D01*
X144882Y15946D01*
X144226Y15815D01*
X143733Y15486D01*
X108749D01*
X108563Y15640D01*
X108047Y16486D01*
X108114Y16823D01*
X107975Y17517D01*
X107582Y18106D01*
X106994Y18499D01*
X106299Y18637D01*
D02*
G37*
G36*
X33700Y12204D02*
X26665D01*
Y7268D01*
X33700D01*
Y12204D01*
D02*
G37*
G36*
X87106Y12940D02*
X86181Y12756D01*
X85398Y12232D01*
X84874Y11448D01*
X84690Y10524D01*
Y5799D01*
X84874Y4874D01*
X85398Y4090D01*
X86181Y3567D01*
X87106Y3383D01*
X88031Y3567D01*
X88815Y4090D01*
X89339Y4874D01*
X89523Y5799D01*
Y10524D01*
X89339Y11448D01*
X88815Y12232D01*
X88031Y12756D01*
X87106Y12940D01*
D02*
G37*
%LPD*%
G36*
X101753Y170263D02*
X101750Y170203D01*
X101522Y169177D01*
X101150Y168929D01*
X100779Y168372D01*
X100648Y167717D01*
X100779Y167061D01*
X101150Y166505D01*
X101706Y166133D01*
X102362Y166003D01*
X103018Y166133D01*
X103574Y166505D01*
X103946Y167061D01*
X104025Y167457D01*
X104215Y167821D01*
X104964Y168380D01*
X109011D01*
X109129Y167384D01*
X108573Y167013D01*
X108202Y166456D01*
X108071Y165800D01*
X108202Y165145D01*
X108573Y164588D01*
X108659Y164531D01*
Y163368D01*
X108573Y163311D01*
X108202Y162755D01*
X108071Y162099D01*
X108202Y161443D01*
X108573Y160887D01*
X109129Y160515D01*
X109785Y160385D01*
X110441Y160515D01*
X110997Y160887D01*
X111369Y161443D01*
X111499Y162099D01*
X111369Y162755D01*
X110997Y163311D01*
X110911Y163368D01*
Y164531D01*
X110997Y164588D01*
X111369Y165145D01*
X111499Y165800D01*
X111369Y166456D01*
X110997Y167013D01*
X110441Y167384D01*
X110559Y168380D01*
X120580D01*
X120833Y168080D01*
X121210Y167380D01*
X121120Y166929D01*
X121251Y166273D01*
X121622Y165717D01*
X122178Y165345D01*
X122834Y165215D01*
X123167Y165281D01*
X123294Y165213D01*
X123875Y164638D01*
X123952Y164495D01*
X123888Y164173D01*
X124019Y163517D01*
X124390Y162961D01*
X124747Y162723D01*
X124570Y161723D01*
X122712D01*
X122447Y162120D01*
X121890Y162491D01*
X121235Y162622D01*
X120579Y162491D01*
X120022Y162120D01*
X119651Y161564D01*
X119520Y160908D01*
X119651Y160252D01*
X119764Y160082D01*
X119278Y159082D01*
X112463D01*
X112151Y159020D01*
X111887Y158844D01*
X107100Y154057D01*
X94074D01*
X93762Y153995D01*
X93498Y153818D01*
X88028Y148348D01*
X86942Y148677D01*
X86940Y148687D01*
X86569Y149243D01*
X86013Y149615D01*
X85357Y149746D01*
X85002Y149675D01*
X76012Y158665D01*
X75716Y158863D01*
X75367Y158932D01*
X70011D01*
X69790Y159161D01*
X69353Y159932D01*
X69431Y160324D01*
X69300Y160980D01*
X68928Y161536D01*
X68372Y161907D01*
X67716Y162038D01*
X67061Y161907D01*
X66505Y161536D01*
X66133Y160980D01*
X66003Y160324D01*
X66080Y159932D01*
X65643Y159161D01*
X65422Y158932D01*
X37888D01*
X36201Y160619D01*
Y165757D01*
X36132Y166105D01*
X35934Y166401D01*
X34452Y167883D01*
X34157Y168081D01*
X33808Y168150D01*
X31982D01*
X31638Y168980D01*
X31085Y169701D01*
X30896Y169846D01*
X31235Y170846D01*
X69974D01*
X70648Y169846D01*
X70616Y169683D01*
X70746Y169027D01*
X71118Y168471D01*
X71674Y168099D01*
X72330Y167968D01*
X72986Y168099D01*
X73542Y168471D01*
X73913Y169027D01*
X74044Y169683D01*
X74011Y169846D01*
X74685Y170846D01*
X101282D01*
X101753Y170263D01*
D02*
G37*
G36*
X34379Y165379D02*
Y160241D01*
X34448Y159892D01*
X34646Y159597D01*
X36222Y158021D01*
X34789Y156588D01*
X34591Y156293D01*
X34522Y155944D01*
Y138173D01*
X32906Y136557D01*
X31846Y136689D01*
X31638Y137192D01*
X31085Y137913D01*
X30363Y138466D01*
X29523Y138814D01*
X28622Y138933D01*
X27721Y138814D01*
X26881Y138466D01*
X26160Y137913D01*
X25606Y137192D01*
X25258Y136352D01*
X25139Y135450D01*
X25258Y134549D01*
X25606Y133709D01*
X26160Y132988D01*
X26881Y132434D01*
X27057Y132362D01*
X26858Y131362D01*
X24000D01*
X21642Y133719D01*
X21986Y134549D01*
X22105Y135450D01*
X21986Y136352D01*
X21638Y137192D01*
X21137Y137845D01*
X21191Y138145D01*
X21513Y138845D01*
X23329D01*
X23832Y138945D01*
X24257Y139229D01*
X27292Y142264D01*
X27721Y142086D01*
X28622Y141968D01*
X29523Y142086D01*
X30363Y142434D01*
X31085Y142988D01*
X31638Y143709D01*
X31986Y144549D01*
X32105Y145450D01*
X31986Y146352D01*
X31638Y147192D01*
X31085Y147913D01*
X30363Y148466D01*
X29523Y148814D01*
X28622Y148933D01*
X27721Y148814D01*
X26881Y148466D01*
X26160Y147913D01*
X25606Y147192D01*
X25258Y146352D01*
X25139Y145450D01*
X25258Y144549D01*
X25436Y144120D01*
X22906Y141591D01*
X22075Y142168D01*
Y148903D01*
X19533D01*
Y153879D01*
X20363Y154223D01*
X21085Y154776D01*
X21638Y155498D01*
X21986Y156337D01*
X22105Y157239D01*
X21986Y158140D01*
X21642Y158970D01*
X24266Y161594D01*
X24464Y161890D01*
X24533Y162239D01*
Y165474D01*
X25533Y165673D01*
X25606Y165498D01*
X26160Y164776D01*
X26881Y164223D01*
X27721Y163875D01*
X28622Y163756D01*
X29523Y163875D01*
X30363Y164223D01*
X31085Y164776D01*
X31638Y165498D01*
X31982Y166328D01*
X33431D01*
X34379Y165379D01*
D02*
G37*
G36*
X129315Y168313D02*
Y160258D01*
X129205Y160174D01*
X128315Y159889D01*
X126720Y161484D01*
X126493Y161636D01*
X126396Y162031D01*
X126408Y162690D01*
X126814Y162961D01*
X127186Y163517D01*
X127316Y164173D01*
X127186Y164829D01*
X126814Y165385D01*
X126258Y165757D01*
X125602Y165887D01*
X125270Y165821D01*
X125143Y165889D01*
X124562Y166464D01*
X124484Y166607D01*
X124548Y166929D01*
X124418Y167585D01*
X124046Y168141D01*
X123596Y168442D01*
X123457Y168705D01*
X123308Y169568D01*
X123479Y169739D01*
X123676Y170035D01*
X123713Y170218D01*
X124046Y170441D01*
X124247Y170742D01*
X126886D01*
X129315Y168313D01*
D02*
G37*
G36*
X124772Y157055D02*
X125328Y156684D01*
X125984Y156553D01*
X126149Y156586D01*
X127149Y155913D01*
Y152009D01*
X111873Y136732D01*
X111696Y136468D01*
X111634Y136156D01*
Y91804D01*
X111378Y91570D01*
X110634Y91157D01*
X110218Y91240D01*
X109863Y91169D01*
X69937Y131095D01*
X69642Y131292D01*
X69293Y131362D01*
X30386D01*
X30188Y132362D01*
X30363Y132434D01*
X31085Y132988D01*
X31638Y133709D01*
X31982Y134539D01*
X33088D01*
X33437Y134608D01*
X33732Y134806D01*
X36077Y137151D01*
X36275Y137447D01*
X36344Y137795D01*
Y139297D01*
X37344Y139740D01*
X37732Y139481D01*
X38083Y139411D01*
Y141535D01*
Y143660D01*
X37732Y143590D01*
X37344Y143331D01*
X36344Y143774D01*
Y155567D01*
X37888Y157110D01*
X74990D01*
X83713Y148386D01*
X83643Y148031D01*
X83773Y147376D01*
X84145Y146819D01*
X84701Y146448D01*
X84711Y146446D01*
X85041Y145361D01*
X83129Y143449D01*
X63946D01*
X63891Y143516D01*
X63761Y144172D01*
X63389Y144728D01*
X62833Y145099D01*
X62177Y145230D01*
X61521Y145099D01*
X60965Y144728D01*
X60593Y144172D01*
X60463Y143516D01*
X60593Y142860D01*
X60612Y142832D01*
X60885Y142085D01*
X60612Y141337D01*
X60593Y141309D01*
X60463Y140654D01*
X60593Y139998D01*
X60965Y139442D01*
X61090Y139358D01*
X60864Y138306D01*
X60597Y138253D01*
X60041Y137882D01*
X59670Y137326D01*
X59539Y136670D01*
X59670Y136014D01*
X60041Y135458D01*
X60597Y135086D01*
X60630Y135080D01*
X61563Y134646D01*
X61694Y133990D01*
X62065Y133434D01*
X62621Y133062D01*
X63277Y132932D01*
X63933Y133062D01*
X64489Y133434D01*
X64861Y133990D01*
X64991Y134646D01*
X64898Y135114D01*
X66453Y136669D01*
X92406D01*
X93388Y135688D01*
X93142Y134520D01*
X92782Y134379D01*
X92126Y134510D01*
X91470Y134379D01*
X90914Y134008D01*
X90542Y133452D01*
X90412Y132796D01*
X90542Y132140D01*
X90914Y131584D01*
X91470Y131212D01*
X92126Y131082D01*
X92782Y131212D01*
X93338Y131584D01*
X93530Y131871D01*
X93721Y132141D01*
X94620Y132254D01*
X95276Y132124D01*
X95932Y132254D01*
X96842Y132021D01*
X97213Y131465D01*
X97769Y131094D01*
X98425Y130963D01*
X99081Y131094D01*
X99637Y131465D01*
X100009Y132021D01*
X100831Y132309D01*
X101487Y132178D01*
X102143Y132309D01*
X102699Y132680D01*
X103071Y133236D01*
X103201Y133892D01*
X103071Y134548D01*
X102699Y135104D01*
X102143Y135476D01*
X101487Y135606D01*
X100831Y135476D01*
X100275Y135104D01*
X99904Y134548D01*
X99081Y134261D01*
X98425Y134391D01*
X97769Y134261D01*
X96859Y134494D01*
X96488Y135050D01*
X95932Y135422D01*
X95922Y135423D01*
X95852Y135529D01*
X94541Y136839D01*
X94505Y137080D01*
X94659Y138006D01*
X97427Y140774D01*
X97603Y141039D01*
X97665Y141351D01*
Y143621D01*
X98665Y143925D01*
X98835Y143670D01*
X99392Y143298D01*
X100047Y143168D01*
X100703Y143298D01*
X101259Y143670D01*
X101631Y144226D01*
X101761Y144882D01*
X101714Y145122D01*
X102073Y145398D01*
X102635Y145618D01*
X103043Y145345D01*
X103699Y145215D01*
X104355Y145345D01*
X104911Y145717D01*
X105282Y146273D01*
X105413Y146929D01*
X105282Y147585D01*
X104911Y148141D01*
X104355Y148512D01*
X103699Y148643D01*
X103043Y148512D01*
X102487Y148141D01*
X102115Y147585D01*
X101985Y146929D01*
X102032Y146688D01*
X101673Y146412D01*
X101111Y146193D01*
X100703Y146466D01*
X100047Y146596D01*
X99392Y146466D01*
X99050Y146237D01*
X98329Y146958D01*
X98434Y147115D01*
X98564Y147771D01*
X98434Y148427D01*
X98062Y148983D01*
X97506Y149355D01*
X96850Y149485D01*
X96194Y149355D01*
X95638Y148983D01*
X95267Y148427D01*
X95136Y147771D01*
X95267Y147115D01*
X95638Y146559D01*
X96035Y146294D01*
Y141688D01*
X93745Y139398D01*
X65231D01*
X64641Y140398D01*
X64819Y140721D01*
X83921D01*
X84233Y140783D01*
X84497Y140959D01*
X94867Y151329D01*
X107892D01*
X108204Y151391D01*
X108469Y151567D01*
X111358Y154457D01*
X120502D01*
X120768Y154060D01*
X121324Y153688D01*
X121980Y153558D01*
X122636Y153688D01*
X123192Y154060D01*
X123563Y154616D01*
X123694Y155272D01*
X123563Y155928D01*
X123213Y156453D01*
X123249Y156642D01*
X123542Y157452D01*
X124507D01*
X124772Y157055D01*
D02*
G37*
G36*
X129205Y150585D02*
X129315Y150501D01*
Y145065D01*
X128315Y144530D01*
X128282Y144552D01*
X127626Y144683D01*
X126970Y144552D01*
X126414Y144181D01*
X126043Y143625D01*
X125912Y142969D01*
X124979Y142535D01*
X124946Y142528D01*
X124390Y142157D01*
X124019Y141601D01*
X123888Y140945D01*
X123914Y140818D01*
X123651Y140520D01*
X123036Y140103D01*
X122896Y140131D01*
Y138006D01*
Y135882D01*
X123247Y135952D01*
X123968Y136434D01*
X124169Y136735D01*
X125169Y136432D01*
Y133612D01*
X114188Y122631D01*
X113264Y123013D01*
Y135818D01*
X128315Y150870D01*
X129205Y150585D01*
D02*
G37*
G36*
X129147Y132401D02*
X129315Y132277D01*
Y112996D01*
X128315Y112693D01*
X128305Y112707D01*
X127749Y113079D01*
X127093Y113209D01*
X126437Y113079D01*
X125881Y112707D01*
X125510Y112151D01*
X125379Y111495D01*
X125510Y110839D01*
X125881Y110283D01*
X126437Y109912D01*
X127093Y109781D01*
X127749Y109912D01*
X128305Y110283D01*
X128315Y110298D01*
X129315Y109994D01*
Y101257D01*
X117890Y89832D01*
X117535Y89903D01*
X116879Y89772D01*
X116461Y89493D01*
X115903Y89648D01*
X115461Y89909D01*
Y120045D01*
X128202Y132787D01*
X129147Y132401D01*
D02*
G37*
G36*
X175208Y54409D02*
X174864Y53579D01*
X174746Y52677D01*
X174864Y51776D01*
X175212Y50936D01*
X175766Y50215D01*
X176487Y49661D01*
X177327Y49313D01*
X177084Y48387D01*
X169373D01*
X169130Y49313D01*
X169970Y49661D01*
X170691Y50215D01*
X171244Y50936D01*
X171592Y51776D01*
X171711Y52677D01*
X171592Y53579D01*
X171244Y54418D01*
X170691Y55140D01*
X169970Y55693D01*
X169794Y55766D01*
X169993Y56766D01*
X172851D01*
X175208Y54409D01*
D02*
G37*
G36*
X116667Y62983D02*
X117323Y62853D01*
X117692Y62120D01*
X117822Y61464D01*
X118194Y60908D01*
X118750Y60536D01*
X119406Y60406D01*
X120062Y60536D01*
X120618Y60908D01*
X120795Y61173D01*
X121844Y61024D01*
X121896Y60761D01*
X122268Y60205D01*
X122568Y60004D01*
Y59400D01*
X122638Y59051D01*
X122835Y58755D01*
X124558Y57033D01*
X124853Y56835D01*
X125202Y56766D01*
X166464D01*
X166663Y55766D01*
X166487Y55693D01*
X165766Y55140D01*
X165212Y54418D01*
X164865Y53579D01*
X164746Y52677D01*
X164865Y51776D01*
X165212Y50936D01*
X165766Y50215D01*
X166487Y49661D01*
X167327Y49313D01*
X167084Y48387D01*
X156211D01*
X155767Y49387D01*
X155914Y49608D01*
X156045Y50264D01*
X155914Y50920D01*
X155543Y51476D01*
X154987Y51847D01*
X154331Y51978D01*
X153675Y51847D01*
X153119Y51476D01*
X152747Y50920D01*
X152617Y50264D01*
X152747Y49608D01*
X152895Y49387D01*
X152451Y48387D01*
X118375D01*
X118027Y48317D01*
X117731Y48120D01*
X116103Y46492D01*
X115748Y46562D01*
X115092Y46432D01*
X114536Y46060D01*
X114164Y45504D01*
X114034Y44848D01*
X114164Y44192D01*
X114536Y43636D01*
X115092Y43265D01*
X115748Y43134D01*
X116404Y43265D01*
X116960Y43636D01*
X117332Y44192D01*
X117462Y44848D01*
X117392Y45203D01*
X118753Y46564D01*
X149891D01*
X150425Y45564D01*
X150385Y45504D01*
X150254Y44848D01*
X150335Y44442D01*
X149912Y43686D01*
X149684Y43442D01*
X133755D01*
X133350Y43713D01*
X132694Y43843D01*
X132038Y43713D01*
X131482Y43341D01*
X131110Y42785D01*
X131015Y42307D01*
X129682Y40974D01*
X100518D01*
X99984Y41974D01*
X100015Y42021D01*
X100146Y42677D01*
X100122Y42797D01*
X100816Y43798D01*
X109319D01*
X109631Y43860D01*
X109896Y44036D01*
X114900Y49041D01*
X114900Y49041D01*
X115222Y49362D01*
X115399Y49627D01*
X115461Y49939D01*
Y50046D01*
X115586Y50233D01*
X115648Y50545D01*
Y53095D01*
X115586Y53407D01*
X115461Y53594D01*
Y62665D01*
X116461Y63121D01*
X116667Y62983D01*
D02*
G37*
%LPC*%
G36*
X90575Y169080D02*
X89919Y168949D01*
X89363Y168578D01*
X88991Y168022D01*
X88921Y167668D01*
X88138Y167241D01*
X87885Y167197D01*
X87762Y167279D01*
X87106Y167410D01*
X86450Y167279D01*
X85894Y166908D01*
X85523Y166351D01*
X85392Y165696D01*
X85523Y165040D01*
X85661Y164833D01*
X85888Y164467D01*
X85593Y163676D01*
X85222Y163120D01*
X85091Y162464D01*
X85222Y161808D01*
X85593Y161252D01*
X86149Y160881D01*
X86505Y160810D01*
X86978Y160240D01*
X87129Y159795D01*
X87041Y159351D01*
X87127Y158918D01*
X87103Y158606D01*
X86529Y157857D01*
X86398Y157831D01*
X85842Y157460D01*
X85470Y156904D01*
X85340Y156248D01*
X85470Y155592D01*
X85842Y155036D01*
X86398Y154664D01*
X87054Y154534D01*
X87710Y154664D01*
X88266Y155036D01*
X88637Y155592D01*
X88768Y156248D01*
X88682Y156681D01*
X88706Y156992D01*
X89280Y157742D01*
X89411Y157768D01*
X89967Y158139D01*
X90338Y158695D01*
X90469Y159351D01*
X90338Y160007D01*
X89967Y160563D01*
X89411Y160935D01*
X89055Y161005D01*
X88582Y161576D01*
X88431Y162020D01*
X88519Y162464D01*
X88389Y163120D01*
X88250Y163327D01*
X88023Y163692D01*
X88318Y164483D01*
X88690Y165040D01*
X88760Y165393D01*
X89544Y165821D01*
X89796Y165865D01*
X89919Y165782D01*
X90575Y165652D01*
X91231Y165782D01*
X91787Y166154D01*
X92158Y166710D01*
X92289Y167366D01*
X92158Y168022D01*
X91787Y168578D01*
X91231Y168949D01*
X90575Y169080D01*
D02*
G37*
G36*
X75590Y167068D02*
X74935Y166938D01*
X74378Y166566D01*
X74007Y166010D01*
X73876Y165354D01*
X74007Y164698D01*
X74378Y164142D01*
X74935Y163770D01*
X75590Y163640D01*
X76246Y163770D01*
X76802Y164142D01*
X77174Y164698D01*
X77304Y165354D01*
X77174Y166010D01*
X76802Y166566D01*
X76246Y166938D01*
X75590Y167068D01*
D02*
G37*
G36*
X93701Y162324D02*
X93045Y162194D01*
X92489Y161822D01*
X92117Y161266D01*
X91987Y160610D01*
X92117Y159954D01*
X92489Y159398D01*
X93045Y159027D01*
X93701Y158896D01*
X94232Y159002D01*
X95007Y158521D01*
X95136Y158421D01*
X95267Y157765D01*
X95638Y157209D01*
X96194Y156837D01*
X96850Y156707D01*
X97506Y156837D01*
X98062Y157209D01*
X98434Y157765D01*
X98539Y158294D01*
X98957Y158639D01*
X99482Y158931D01*
X100000Y158828D01*
X100656Y158959D01*
X101212Y159330D01*
X101584Y159887D01*
X101714Y160543D01*
X101584Y161198D01*
X101212Y161755D01*
X100656Y162126D01*
X100000Y162257D01*
X99344Y162126D01*
X98788Y161755D01*
X98416Y161198D01*
X98311Y160669D01*
X97894Y160324D01*
X97368Y160032D01*
X96850Y160135D01*
X96319Y160029D01*
X95544Y160510D01*
X95415Y160610D01*
X95284Y161266D01*
X94913Y161822D01*
X94357Y162194D01*
X93701Y162324D01*
D02*
G37*
G36*
X105824Y161811D02*
X105169Y161681D01*
X104613Y161309D01*
X104241Y160753D01*
X104111Y160097D01*
X104241Y159441D01*
X104613Y158885D01*
X105169Y158514D01*
X105824Y158383D01*
X106480Y158514D01*
X107036Y158885D01*
X107408Y159441D01*
X107538Y160097D01*
X107408Y160753D01*
X107036Y161309D01*
X106480Y161681D01*
X105824Y161811D01*
D02*
G37*
G36*
X32075Y160691D02*
X25169D01*
Y153786D01*
X32075D01*
Y160691D01*
D02*
G37*
G36*
X72656Y153788D02*
X72000Y153658D01*
X71444Y153286D01*
X71073Y152730D01*
X70942Y152074D01*
X71073Y151418D01*
X71444Y150862D01*
X72000Y150491D01*
X72656Y150360D01*
X73312Y150491D01*
X73868Y150862D01*
X74240Y151418D01*
X74370Y152074D01*
X74240Y152730D01*
X73868Y153286D01*
X73312Y153658D01*
X72656Y153788D01*
D02*
G37*
G36*
X76378Y150453D02*
X75722Y150323D01*
X75166Y149951D01*
X74794Y149395D01*
X74664Y148739D01*
X74794Y148083D01*
X75166Y147527D01*
X75722Y147156D01*
X76378Y147025D01*
X77034Y147156D01*
X77590Y147527D01*
X77961Y148083D01*
X78092Y148739D01*
X77961Y149395D01*
X77590Y149951D01*
X77034Y150323D01*
X76378Y150453D01*
D02*
G37*
G36*
X108661Y148958D02*
X108005Y148828D01*
X107449Y148456D01*
X107078Y147900D01*
X106947Y147244D01*
X107078Y146588D01*
X107449Y146032D01*
X108005Y145660D01*
X108661Y145530D01*
X109317Y145660D01*
X109873Y146032D01*
X110245Y146588D01*
X110375Y147244D01*
X110245Y147900D01*
X109873Y148456D01*
X109317Y148828D01*
X108661Y148958D01*
D02*
G37*
G36*
X70587Y148643D02*
X69931Y148512D01*
X69375Y148141D01*
X69003Y147585D01*
X68872Y146929D01*
X69003Y146273D01*
X69375Y145717D01*
X69931Y145345D01*
X70587Y145215D01*
X71242Y145345D01*
X71798Y145717D01*
X72170Y146273D01*
X72300Y146929D01*
X72170Y147585D01*
X71798Y148141D01*
X71242Y148512D01*
X70587Y148643D01*
D02*
G37*
G36*
X93241Y146947D02*
X92585Y146817D01*
X92029Y146445D01*
X91658Y145889D01*
X91527Y145233D01*
X91658Y144577D01*
X92029Y144021D01*
X92585Y143650D01*
X93241Y143519D01*
X93897Y143650D01*
X94453Y144021D01*
X94825Y144577D01*
X94955Y145233D01*
X94825Y145889D01*
X94453Y146445D01*
X93897Y146817D01*
X93241Y146947D01*
D02*
G37*
G36*
X39083Y143660D02*
Y142035D01*
X40707D01*
X40637Y142386D01*
X40155Y143108D01*
X39434Y143590D01*
X39083Y143660D01*
D02*
G37*
G36*
X110218Y143446D02*
X109562Y143316D01*
X109006Y142944D01*
X108634Y142388D01*
X108504Y141732D01*
X108634Y141076D01*
X109006Y140520D01*
X109562Y140149D01*
X110218Y140018D01*
X110874Y140149D01*
X111430Y140520D01*
X111801Y141076D01*
X111932Y141732D01*
X111801Y142388D01*
X111430Y142944D01*
X110874Y143316D01*
X110218Y143446D01*
D02*
G37*
G36*
X40707Y141035D02*
X39083D01*
Y139411D01*
X39434Y139481D01*
X40155Y139963D01*
X40637Y140684D01*
X40707Y141035D01*
D02*
G37*
G36*
X121896Y140131D02*
X121544Y140061D01*
X120823Y139579D01*
X120341Y138857D01*
X120271Y138506D01*
X121896D01*
Y140131D01*
D02*
G37*
G36*
Y137506D02*
X120271D01*
X120341Y137155D01*
X120823Y136434D01*
X121544Y135952D01*
X121896Y135882D01*
Y137506D01*
D02*
G37*
%LPD*%
D10*
X102043Y171757D02*
X104509Y169291D01*
X23622Y170504D02*
X24875Y171757D01*
X102043D01*
X122834Y170383D02*
Y171653D01*
X127264D01*
X121743Y169291D02*
X122834Y170383D01*
X104509Y169291D02*
X121743D01*
X35290Y160241D02*
X37510Y158021D01*
X35290Y160241D02*
Y165757D01*
X28622Y167239D02*
X33808D01*
X35290Y165757D01*
X75367Y158021D02*
X85357Y148031D01*
X37510Y158021D02*
X75367D01*
X35433Y155944D02*
X37510Y158021D01*
X35433Y137795D02*
Y155944D01*
X119186Y68669D02*
X182843D01*
X127264Y171653D02*
X130226Y168691D01*
Y100880D02*
Y168691D01*
X117535Y88189D02*
X130226Y100880D01*
X118375Y47475D02*
X183074D01*
X115748Y44848D02*
X118375Y47475D01*
X183074D02*
X185827Y50228D01*
X125202Y57677D02*
X173228D01*
X178228Y52677D01*
X123480Y59400D02*
X125202Y57677D01*
X96874Y98916D02*
X106323Y89468D01*
X48819Y98916D02*
X96874D01*
X69293Y130450D02*
X110218Y89526D01*
X23622Y130450D02*
X69293D01*
X18622Y135450D02*
X23622Y130450D01*
X33088Y135450D02*
X35433Y137795D01*
X28622Y135450D02*
X33088D01*
X182843Y68669D02*
X185827Y71653D01*
X123480Y59400D02*
Y61417D01*
X23622Y162239D02*
Y170504D01*
X185827Y50228D02*
Y60113D01*
X178228Y62677D02*
X183262D01*
X185827Y60113D01*
Y71653D02*
Y110236D01*
X178228Y112677D02*
X183386D01*
X185827Y110236D01*
X138583Y167610D02*
X143799D01*
X137008Y166035D02*
X138583Y167610D01*
X137008Y153347D02*
Y166035D01*
X135796Y152135D02*
X137008Y153347D01*
X133929Y152135D02*
X135796D01*
X18622Y157239D02*
X23622Y162239D01*
X18622Y157239D02*
X18622Y157239D01*
Y145450D02*
Y157239D01*
D12*
X60630Y26772D02*
X63984Y23417D01*
X132283D01*
X152491Y42129D02*
X155118Y39502D01*
X132694Y42129D02*
X152491D01*
X155118Y33613D02*
Y39502D01*
X178228Y42677D02*
X184243D01*
X189764Y48198D01*
Y123913D01*
X178228Y135449D02*
X189764Y123913D01*
X42376Y118898D02*
X61286D01*
X63277Y116906D01*
Y105572D02*
Y116906D01*
Y105572D02*
X66093Y102756D01*
X74185D01*
X39692Y116214D02*
X42376Y118898D01*
X130226Y39661D02*
X132694Y42129D01*
X65063Y39661D02*
X130226D01*
X63984Y38583D02*
X65063Y39661D01*
X59890Y42677D02*
X63984Y38583D01*
X28622Y42677D02*
X59890D01*
X23329Y140157D02*
X28622Y145450D01*
X14030Y140157D02*
X23329D01*
X11024Y137151D02*
X14030Y140157D01*
X11024Y121623D02*
Y137151D01*
Y121623D02*
X13749Y118898D01*
X37008D01*
X39692Y116214D01*
Y93110D02*
Y116214D01*
X58311Y93110D02*
X59449Y91972D01*
X39692Y93110D02*
X58311D01*
X144824Y14173D02*
X144882Y14232D01*
X93241Y14173D02*
X144824D01*
X20754Y24409D02*
X58268D01*
X60630Y26772D01*
Y33177D01*
X18622Y26541D02*
Y32677D01*
Y26541D02*
X20754Y24409D01*
X103650Y26484D02*
X104724Y27559D01*
X87504Y26484D02*
X103650D01*
X104724Y27559D02*
Y36248D01*
X162894Y158696D02*
X166142Y155449D01*
X140157Y158696D02*
X162894D01*
X166142Y140551D02*
Y155449D01*
Y140551D02*
X171244Y135449D01*
X178228D01*
D16*
X27559Y11310D02*
Y8161D01*
X29658D01*
X32282D02*
Y11310D01*
X30708Y9736D01*
X32807D01*
D20*
X3937Y185039D02*
D03*
X19685D02*
D03*
X11811Y192913D02*
D03*
Y177165D02*
D03*
X6299Y179528D02*
D03*
X17323Y190551D02*
D03*
X6299D02*
D03*
X17323Y179528D02*
D03*
X190551D02*
D03*
X179528Y190551D02*
D03*
X190551D02*
D03*
X179528Y179528D02*
D03*
X185039Y177165D02*
D03*
Y192913D02*
D03*
X192913Y185039D02*
D03*
X177165D02*
D03*
Y11811D02*
D03*
X192913D02*
D03*
X185039Y19685D02*
D03*
Y3937D02*
D03*
X179528Y6299D02*
D03*
X190551Y17323D02*
D03*
X179528D02*
D03*
X190551Y6299D02*
D03*
X17323D02*
D03*
X6299Y17323D02*
D03*
X17323D02*
D03*
X6299Y6299D02*
D03*
X11811Y3937D02*
D03*
Y19685D02*
D03*
X19685Y11811D02*
D03*
X3937D02*
D03*
D70*
X96850Y141351D02*
Y147771D01*
X94082Y138583D02*
X96850Y141351D01*
X63166Y138583D02*
X94082D01*
X61253Y136670D02*
X63166Y138583D01*
X92744Y137484D02*
X95276Y134952D01*
Y133838D02*
Y134952D01*
X66116Y137484D02*
X92744D01*
X63277Y134646D02*
X66116Y137484D01*
X112463Y158267D02*
X125984D01*
X107437Y153242D02*
X112463Y158267D01*
X94074Y153242D02*
X107437D01*
X83466Y142634D02*
X94074Y153242D01*
X63059Y142634D02*
X83466D01*
X62177Y143516D02*
X63059Y142634D01*
X111021Y155272D02*
X121980D01*
X107892Y152144D02*
X111021Y155272D01*
X94529Y152144D02*
X107892D01*
X83921Y141535D02*
X94529Y152144D01*
X63059Y141535D02*
X83921D01*
X62177Y140654D02*
X63059Y141535D01*
X121235Y160908D02*
X126144D01*
X127964Y159088D01*
X114646Y53282D02*
Y120383D01*
X113547Y52828D02*
Y120838D01*
X112449Y136156D02*
X127964Y151671D01*
Y159088D01*
X112449Y85351D02*
Y136156D01*
X107313Y80215D02*
X112449Y85351D01*
X87775Y80215D02*
X107313D01*
X82220Y74660D02*
X87775Y80215D01*
X24171Y107128D02*
X28622Y102677D01*
X14961Y107128D02*
X24171D01*
X81346Y58023D02*
X82677Y56693D01*
X9693Y58023D02*
X81346D01*
X7087Y60630D02*
Y99254D01*
X14961Y107128D01*
X7087Y60630D02*
X9693Y58023D01*
X94923Y54331D02*
X100591Y48663D01*
X24171Y108226D02*
X28622Y112677D01*
X14506Y108226D02*
X24171D01*
X81228Y55097D02*
X81228D01*
X79400Y56925D02*
X81228Y55097D01*
X81994Y54331D02*
X94923D01*
X81228Y55097D02*
X81994Y54331D01*
X5988Y60175D02*
Y99709D01*
X14506Y108226D01*
X9238Y56925D02*
X79400D01*
X5988Y60175D02*
X9238Y56925D01*
X127626Y133363D02*
Y142969D01*
X125602Y140945D02*
X125984Y140563D01*
X74260Y93008D02*
X75141Y92126D01*
X68057Y93008D02*
X74260D01*
X62177Y87128D02*
X68057Y93008D01*
X23073Y87128D02*
X62177D01*
X18622Y82677D02*
X23073Y87128D01*
X74260Y94106D02*
X75141Y94988D01*
X67602Y94106D02*
X74260D01*
X61722Y88226D02*
X67602Y94106D01*
X23073Y88226D02*
X61722D01*
X18622Y92677D02*
X23073Y88226D01*
X113547Y52828D02*
X113734Y52640D01*
Y51000D02*
Y52640D01*
X113547Y50813D02*
X113734Y51000D01*
X113547Y50394D02*
Y50813D01*
X108864Y45711D02*
X113547Y50394D01*
X114646Y53282D02*
X114833Y53095D01*
Y50545D02*
Y53095D01*
X114646Y50358D02*
X114833Y50545D01*
X114646Y49939D02*
Y50358D01*
X114324Y49617D02*
X114646Y49939D01*
X114324Y49617D02*
Y49617D01*
X109319Y44612D02*
X114324Y49617D01*
X80238Y72677D02*
X82220Y74660D01*
X28622Y72677D02*
X80238D01*
X125984Y133275D02*
Y140563D01*
X113547Y120838D02*
X125984Y133275D01*
X98191Y45711D02*
X108864D01*
X97869Y45389D02*
X98191Y45711D01*
X97869Y45389D02*
X97869D01*
X95569Y43090D02*
X97869Y45389D01*
X95569Y42677D02*
Y43090D01*
X114646Y120383D02*
X127626Y133363D01*
X98646Y44612D02*
X109319D01*
X98432Y44398D02*
X98646Y44612D01*
X98432Y42677D02*
Y44398D01*
D72*
X28622Y52677D02*
D03*
Y62677D02*
D03*
X18622Y157239D02*
D03*
X28622Y167239D02*
D03*
X18622D02*
D03*
X178228Y112677D02*
D03*
X168228Y102677D02*
D03*
X178228D02*
D03*
X168228Y92677D02*
D03*
X178228D02*
D03*
X168228Y82677D02*
D03*
X178228D02*
D03*
X168228Y72677D02*
D03*
X178228D02*
D03*
X168228Y62677D02*
D03*
X178228D02*
D03*
X168228Y52677D02*
D03*
X178228D02*
D03*
X168228Y42677D02*
D03*
X178228D02*
D03*
X168228Y32677D02*
D03*
X178228D02*
D03*
X28622Y125450D02*
D03*
X18622D02*
D03*
X28622Y135450D02*
D03*
X18622D02*
D03*
X28622Y145450D02*
D03*
X178228Y135449D02*
D03*
Y145449D02*
D03*
Y155449D02*
D03*
X28622Y112677D02*
D03*
X18622Y102677D02*
D03*
X28622D02*
D03*
X18622Y92677D02*
D03*
X28622D02*
D03*
X18622Y82677D02*
D03*
X28622D02*
D03*
X18622Y72677D02*
D03*
X28622D02*
D03*
X18622Y62677D02*
D03*
Y52677D02*
D03*
Y42677D02*
D03*
X28622D02*
D03*
X18622Y32677D02*
D03*
X28622D02*
D03*
D73*
X28622Y157239D02*
D03*
X168228Y112677D02*
D03*
X18622Y145450D02*
D03*
X178228Y125449D02*
D03*
X18622Y112677D02*
D03*
D74*
X11811Y185039D02*
D03*
X185039D02*
D03*
Y11811D02*
D03*
X11811D02*
D03*
D75*
X106520Y62370D02*
D03*
X99433D02*
D03*
X92347D02*
D03*
Y69457D02*
D03*
Y76543D02*
D03*
X99433D02*
D03*
X106520D02*
D03*
Y69457D02*
D03*
X98646Y68669D02*
D03*
D76*
X106299Y16823D02*
D03*
X90551D02*
D03*
D77*
X87106Y8161D02*
D03*
X109744D02*
D03*
D78*
X98425Y132677D02*
D03*
X83465Y50394D02*
D03*
X68842Y108800D02*
D03*
X103699Y146929D02*
D03*
X79873Y61197D02*
D03*
X70866Y106776D02*
D03*
X117323Y64567D02*
D03*
X119406Y62120D02*
D03*
X76378Y148739D02*
D03*
X72656Y152074D02*
D03*
X88755Y159351D02*
D03*
X87054Y156248D02*
D03*
X84252Y85134D02*
D03*
X90318Y87797D02*
D03*
X99213Y92376D02*
D03*
X117913Y84769D02*
D03*
X102362Y167717D02*
D03*
X109661Y172025D02*
D03*
X96850Y147771D02*
D03*
X61253Y136670D02*
D03*
X95276Y133838D02*
D03*
X63277Y134646D02*
D03*
X125984Y158267D02*
D03*
X62177Y143516D02*
D03*
X121980Y155272D02*
D03*
X62177Y140654D02*
D03*
X154331Y50264D02*
D03*
X75590Y165354D02*
D03*
X102706Y51764D02*
D03*
X87106Y165696D02*
D03*
X108661Y50394D02*
D03*
X72831Y174016D02*
D03*
X72330Y169683D02*
D03*
X125537Y33071D02*
D03*
X132283Y23417D02*
D03*
X67716Y160324D02*
D03*
X121235Y160908D02*
D03*
X122834Y166929D02*
D03*
Y171653D02*
D03*
X70587Y146929D02*
D03*
X70669Y114834D02*
D03*
X119186Y68669D02*
D03*
X118532Y74937D02*
D03*
X142413Y70866D02*
D03*
X85357Y148031D02*
D03*
X122396Y138006D02*
D03*
X133647Y117895D02*
D03*
X127093Y111495D02*
D03*
X138150Y111024D02*
D03*
X133523Y110975D02*
D03*
X90575Y167366D02*
D03*
X111754Y51820D02*
D03*
X103937Y48031D02*
D03*
X110218Y141732D02*
D03*
X151969Y44848D02*
D03*
X123694Y65003D02*
D03*
X86805Y162464D02*
D03*
X100591Y48663D02*
D03*
X82677Y56693D02*
D03*
X97001Y48131D02*
D03*
X88755Y50000D02*
D03*
X59985Y68861D02*
D03*
X57961Y66837D02*
D03*
X59439Y111811D02*
D03*
X105824Y160097D02*
D03*
X95276Y92677D02*
D03*
X120726Y82376D02*
D03*
X109785Y165800D02*
D03*
Y162099D02*
D03*
X127626Y142969D02*
D03*
X108661Y147244D02*
D03*
X125602Y164173D02*
D03*
Y140945D02*
D03*
X96850Y158421D02*
D03*
X100000Y160543D02*
D03*
X93701Y160610D02*
D03*
X93241Y145233D02*
D03*
X92126Y132796D02*
D03*
X75141Y92126D02*
D03*
Y94988D02*
D03*
X147244Y134646D02*
D03*
X74185Y102756D02*
D03*
X103043Y87544D02*
D03*
X117535Y88189D02*
D03*
X110218Y89526D02*
D03*
X80315Y70441D02*
D03*
X115748Y44848D02*
D03*
X100047Y144882D02*
D03*
X101487Y133892D02*
D03*
X59449Y91972D02*
D03*
X39692Y93110D02*
D03*
X48819Y98916D02*
D03*
X106323Y89468D02*
D03*
X82220Y74660D02*
D03*
X95569Y42677D02*
D03*
X98432D02*
D03*
X123480Y61417D02*
D03*
X134455Y144724D02*
D03*
X132694Y42129D02*
D03*
X155118Y33613D02*
D03*
X144882Y14232D02*
D03*
X93241Y14173D02*
D03*
X60630Y33177D02*
D03*
X104724Y36248D02*
D03*
X87504Y26484D02*
D03*
X143799Y167610D02*
D03*
X140157Y158696D02*
D03*
X133929Y152135D02*
D03*
X38583Y141535D02*
D03*
M02*
