G04*
G04 #@! TF.GenerationSoftware,Altium Limited,Altium Designer,18.1.7 (191)*
G04*
G04 Layer_Color=8388736*
%FSLAX25Y25*%
%MOIN*%
G70*
G01*
G75*
%ADD40R,0.03950X0.04343*%
%ADD41R,0.02756X0.01968*%
%ADD42C,0.07874*%
%ADD43R,0.04343X0.03950*%
%ADD44R,0.03359X0.04934*%
%ADD45R,0.04343X0.03556*%
G04:AMPARAMS|DCode=46|XSize=102.49mil|YSize=37.13mil|CornerRadius=8.37mil|HoleSize=0mil|Usage=FLASHONLY|Rotation=180.000|XOffset=0mil|YOffset=0mil|HoleType=Round|Shape=RoundedRectangle|*
%AMROUNDEDRECTD46*
21,1,0.10249,0.02039,0,0,180.0*
21,1,0.08575,0.03713,0,0,180.0*
1,1,0.01674,-0.04287,0.01020*
1,1,0.01674,0.04287,0.01020*
1,1,0.01674,0.04287,-0.01020*
1,1,0.01674,-0.04287,-0.01020*
%
%ADD46ROUNDEDRECTD46*%
%ADD47R,0.04737X0.07887*%
%ADD48R,0.02769X0.03162*%
%ADD49R,0.05603X0.05721*%
%ADD50R,0.03989X0.01666*%
%ADD51R,0.01666X0.03989*%
%ADD52R,0.22060X0.22060*%
%ADD53R,0.05328X0.03162*%
%ADD54R,0.03556X0.04343*%
%ADD55R,0.02375X0.09068*%
%ADD56R,0.05918X0.04737*%
%ADD57R,0.08280X0.08280*%
%ADD58R,0.03359X0.05131*%
%ADD59R,0.04776X0.03989*%
G04:AMPARAMS|DCode=60|XSize=69.02mil|YSize=31.62mil|CornerRadius=9.91mil|HoleSize=0mil|Usage=FLASHONLY|Rotation=270.000|XOffset=0mil|YOffset=0mil|HoleType=Round|Shape=RoundedRectangle|*
%AMROUNDEDRECTD60*
21,1,0.06902,0.01181,0,0,270.0*
21,1,0.04921,0.03162,0,0,270.0*
1,1,0.01981,-0.00591,-0.02461*
1,1,0.01981,-0.00591,0.02461*
1,1,0.01981,0.00591,0.02461*
1,1,0.01981,0.00591,-0.02461*
%
%ADD60ROUNDEDRECTD60*%
%ADD61R,0.01968X0.02756*%
%ADD62C,0.01181*%
%ADD63C,0.06706*%
%ADD64R,0.06706X0.06706*%
%ADD65C,0.20485*%
%ADD66C,0.04737*%
%ADD67C,0.03950*%
%ADD68C,0.03359*%
%ADD69O,0.04540X0.09265*%
D40*
X76551Y70441D02*
D03*
X71039D02*
D03*
X64484Y10236D02*
D03*
X69996D02*
D03*
X65272Y33858D02*
D03*
X70784D02*
D03*
X71039Y82072D02*
D03*
X76551D02*
D03*
X71039Y87797D02*
D03*
X76551D02*
D03*
D41*
X116732Y142126D02*
D03*
Y145275D02*
D03*
X80118Y151575D02*
D03*
Y154724D02*
D03*
Y176771D02*
D03*
Y173622D02*
D03*
Y157874D02*
D03*
X113189Y175197D02*
D03*
Y168897D02*
D03*
X80118Y167323D02*
D03*
X113189Y153149D02*
D03*
Y162598D02*
D03*
Y156299D02*
D03*
Y150000D02*
D03*
X116732Y148425D02*
D03*
Y164173D02*
D03*
Y151575D02*
D03*
X83661Y165748D02*
D03*
Y162598D02*
D03*
X113189Y146850D02*
D03*
X116732Y154724D02*
D03*
Y161023D02*
D03*
X113189Y159449D02*
D03*
Y165748D02*
D03*
X116732Y167323D02*
D03*
X83661Y156299D02*
D03*
Y159449D02*
D03*
X116732Y176772D02*
D03*
Y173622D02*
D03*
X113189Y172047D02*
D03*
Y178347D02*
D03*
X116732Y181102D02*
D03*
X80118Y161024D02*
D03*
Y164173D02*
D03*
X83661Y153149D02*
D03*
X80118Y181102D02*
D03*
D42*
X190945Y167323D02*
D03*
Y29528D02*
D03*
X7874D02*
D03*
X6666Y167036D02*
D03*
D43*
X55836Y12759D02*
D03*
Y18271D02*
D03*
X70669Y124827D02*
D03*
Y119315D02*
D03*
X125787Y124803D02*
D03*
Y119291D02*
D03*
X119275D02*
D03*
Y124803D02*
D03*
X106890D02*
D03*
Y119291D02*
D03*
X100591Y124803D02*
D03*
Y119291D02*
D03*
X94291Y124827D02*
D03*
Y119315D02*
D03*
X124107Y18272D02*
D03*
Y12760D02*
D03*
X102206Y96977D02*
D03*
Y102488D02*
D03*
X96480Y96977D02*
D03*
Y102488D02*
D03*
X80094Y97244D02*
D03*
Y102756D02*
D03*
X132497Y70497D02*
D03*
Y64985D02*
D03*
X126772Y70497D02*
D03*
Y64985D02*
D03*
X138230Y57472D02*
D03*
Y51961D02*
D03*
X132505Y57472D02*
D03*
Y51961D02*
D03*
X126780Y57472D02*
D03*
Y51961D02*
D03*
X132654Y36238D02*
D03*
Y30726D02*
D03*
X108661Y36238D02*
D03*
Y30726D02*
D03*
X48031Y12672D02*
D03*
Y18184D02*
D03*
X60584Y50000D02*
D03*
Y44488D02*
D03*
X75741Y62982D02*
D03*
Y57471D02*
D03*
X69996Y62982D02*
D03*
Y57471D02*
D03*
X64271Y62982D02*
D03*
Y57471D02*
D03*
X43307Y135827D02*
D03*
Y141339D02*
D03*
X39944Y12672D02*
D03*
Y18184D02*
D03*
X107931Y102488D02*
D03*
Y96977D02*
D03*
D44*
X152264Y190059D02*
D03*
X143799Y173721D02*
D03*
X152264D02*
D03*
X143799Y190059D02*
D03*
X152264Y7579D02*
D03*
X143799Y23917D02*
D03*
X152264D02*
D03*
X143799Y7579D02*
D03*
D45*
X160630Y178150D02*
D03*
Y184055D02*
D03*
X112975Y119095D02*
D03*
Y125000D02*
D03*
X129921Y12563D02*
D03*
Y18469D02*
D03*
X114173Y96780D02*
D03*
Y102685D02*
D03*
X138223Y70694D02*
D03*
Y64788D02*
D03*
X144095Y57669D02*
D03*
Y51764D02*
D03*
X99863Y30906D02*
D03*
Y36811D02*
D03*
X94138Y30803D02*
D03*
Y36709D02*
D03*
X55905Y29311D02*
D03*
Y23405D02*
D03*
X58545Y63218D02*
D03*
Y57313D02*
D03*
X65511Y82087D02*
D03*
Y87992D02*
D03*
X54488Y99016D02*
D03*
Y93110D02*
D03*
X44488Y99016D02*
D03*
Y93110D02*
D03*
X49449Y135630D02*
D03*
Y141535D02*
D03*
X55174Y135630D02*
D03*
Y141535D02*
D03*
X48031Y29224D02*
D03*
Y23319D02*
D03*
X39944Y29224D02*
D03*
Y23319D02*
D03*
D46*
X155905Y154724D02*
D03*
Y149724D02*
D03*
Y144724D02*
D03*
Y139724D02*
D03*
X140551Y134724D02*
D03*
X155905D02*
D03*
X140551Y139724D02*
D03*
Y144724D02*
D03*
Y149724D02*
D03*
Y154724D02*
D03*
D47*
X87599Y122071D02*
D03*
X77756D02*
D03*
D48*
X134996Y13547D02*
D03*
Y17484D02*
D03*
D49*
X87968Y104764D02*
D03*
Y93150D02*
D03*
D50*
X113016Y58630D02*
D03*
Y60598D02*
D03*
Y62567D02*
D03*
Y64535D02*
D03*
Y66504D02*
D03*
Y68472D02*
D03*
Y70441D02*
D03*
Y72409D02*
D03*
Y74378D02*
D03*
Y76346D02*
D03*
Y78315D02*
D03*
Y80283D02*
D03*
X85850D02*
D03*
Y78315D02*
D03*
Y76346D02*
D03*
Y74378D02*
D03*
Y72409D02*
D03*
Y70441D02*
D03*
Y68472D02*
D03*
Y66504D02*
D03*
Y64535D02*
D03*
Y62567D02*
D03*
Y60598D02*
D03*
Y58630D02*
D03*
D51*
X110260Y83039D02*
D03*
X108291D02*
D03*
X106323D02*
D03*
X104354D02*
D03*
X102386D02*
D03*
X100417D02*
D03*
X98449D02*
D03*
X96480D02*
D03*
X94512D02*
D03*
X92543D02*
D03*
X90575D02*
D03*
X88606D02*
D03*
Y55874D02*
D03*
X90575D02*
D03*
X92543D02*
D03*
X94512D02*
D03*
X96480D02*
D03*
X98449D02*
D03*
X100417D02*
D03*
X102386D02*
D03*
X104354D02*
D03*
X106323D02*
D03*
X108291D02*
D03*
X110260D02*
D03*
D52*
X98646Y68669D02*
D03*
D53*
X125280Y29996D02*
D03*
Y37477D02*
D03*
X116422Y33737D02*
D03*
D54*
X150197Y33597D02*
D03*
X144291D02*
D03*
X76748Y76346D02*
D03*
X70843D02*
D03*
D55*
X93307Y20169D02*
D03*
X103543Y20169D02*
D03*
X100984D02*
D03*
X98425D02*
D03*
X95866D02*
D03*
D56*
X111024Y17020D02*
D03*
X85827D02*
D03*
D57*
X93307Y8161D02*
D03*
X103543D02*
D03*
D58*
X63874Y27004D02*
D03*
X71354D02*
D03*
Y17555D02*
D03*
X67614D02*
D03*
X63874D02*
D03*
D59*
X67405Y51039D02*
D03*
X75673D02*
D03*
Y44739D02*
D03*
X67405D02*
D03*
D60*
X44449Y127953D02*
D03*
X49449D02*
D03*
X54449D02*
D03*
X59449D02*
D03*
X59488Y106693D02*
D03*
X54488D02*
D03*
X49488D02*
D03*
X44488D02*
D03*
D61*
X100000Y164173D02*
D03*
X90551D02*
D03*
X93701D02*
D03*
X79528Y138189D02*
D03*
X90551Y141732D02*
D03*
X96850D02*
D03*
X103150D02*
D03*
X106299D02*
D03*
X100000D02*
D03*
X93701D02*
D03*
X88976Y138189D02*
D03*
X107874D02*
D03*
X104724D02*
D03*
X101575D02*
D03*
X92126D02*
D03*
X95276D02*
D03*
X98425D02*
D03*
X85827D02*
D03*
X114173D02*
D03*
X82677D02*
D03*
X117323D02*
D03*
X96850Y164173D02*
D03*
X103150D02*
D03*
X106299D02*
D03*
X111024Y138189D02*
D03*
D62*
X134996Y13547D02*
Y17484D01*
D63*
X28622Y52677D02*
D03*
Y62677D02*
D03*
X18622Y157239D02*
D03*
X28622Y167239D02*
D03*
X18622D02*
D03*
X178228Y112677D02*
D03*
X168228Y102677D02*
D03*
X178228D02*
D03*
X168228Y92677D02*
D03*
X178228D02*
D03*
X168228Y82677D02*
D03*
X178228D02*
D03*
X168228Y72677D02*
D03*
X178228D02*
D03*
X168228Y62677D02*
D03*
X178228D02*
D03*
X168228Y52677D02*
D03*
X178228D02*
D03*
X168228Y42677D02*
D03*
X178228D02*
D03*
X168228Y32677D02*
D03*
X178228D02*
D03*
X28622Y125450D02*
D03*
X18622D02*
D03*
X28622Y135450D02*
D03*
X18622D02*
D03*
X28622Y145450D02*
D03*
X178228Y135449D02*
D03*
Y145449D02*
D03*
Y155449D02*
D03*
X28622Y112677D02*
D03*
X18622Y102677D02*
D03*
X28622D02*
D03*
X18622Y92677D02*
D03*
X28622D02*
D03*
X18622Y82677D02*
D03*
X28622D02*
D03*
X18622Y72677D02*
D03*
X28622D02*
D03*
X18622Y62677D02*
D03*
Y52677D02*
D03*
Y42677D02*
D03*
X28622D02*
D03*
X18622Y32677D02*
D03*
X28622D02*
D03*
D64*
X28622Y157239D02*
D03*
X168228Y112677D02*
D03*
X18622Y145450D02*
D03*
X178228Y125449D02*
D03*
X18622Y112677D02*
D03*
D65*
X11811Y185039D02*
D03*
X185039D02*
D03*
Y11811D02*
D03*
X11811D02*
D03*
D66*
X3937Y185039D02*
D03*
X19685D02*
D03*
X11811Y192913D02*
D03*
Y177165D02*
D03*
X6299Y179528D02*
D03*
X17323Y190551D02*
D03*
X6299D02*
D03*
X17323Y179528D02*
D03*
X190551D02*
D03*
X179528Y190551D02*
D03*
X190551D02*
D03*
X179528Y179528D02*
D03*
X185039Y177165D02*
D03*
Y192913D02*
D03*
X192913Y185039D02*
D03*
X177165D02*
D03*
Y11811D02*
D03*
X192913D02*
D03*
X185039Y19685D02*
D03*
Y3937D02*
D03*
X179528Y6299D02*
D03*
X190551Y17323D02*
D03*
X179528D02*
D03*
X190551Y6299D02*
D03*
X17323D02*
D03*
X6299Y17323D02*
D03*
X17323D02*
D03*
X6299Y6299D02*
D03*
X11811Y3937D02*
D03*
Y19685D02*
D03*
X19685Y11811D02*
D03*
X3937D02*
D03*
D67*
X106520Y62370D02*
D03*
X99433D02*
D03*
X92347D02*
D03*
Y69457D02*
D03*
Y76543D02*
D03*
X99433D02*
D03*
X106520D02*
D03*
Y69457D02*
D03*
X98646Y68669D02*
D03*
D68*
X106299Y16823D02*
D03*
X90551D02*
D03*
D69*
X87106Y8161D02*
D03*
X109744D02*
D03*
M02*
