G04*
G04 #@! TF.GenerationSoftware,Altium Limited,Altium Designer,18.1.7 (191)*
G04*
G04 Layer_Color=32896*
%FSLAX25Y25*%
%MOIN*%
G70*
G01*
G75*
%ADD79C,0.00100*%
G36*
X126621Y9875D02*
X125785D01*
X125602Y10644D01*
X126448D01*
X126621Y9875D01*
D02*
G37*
G36*
X152510Y4724D02*
X151761D01*
X151050Y7848D01*
X150800Y8011D01*
X150675Y8078D01*
X150569Y8136D01*
X150483Y8184D01*
X150406Y8223D01*
X150367Y8242D01*
X150348Y8251D01*
X150214Y8309D01*
X150079Y8347D01*
X149954Y8386D01*
X149848Y8405D01*
X149752Y8415D01*
X149676Y8424D01*
X149483D01*
X149378Y8415D01*
X149339D01*
X149310Y8405D01*
X149291D01*
X149185Y8386D01*
X149089Y8367D01*
X149051Y8357D01*
X149022D01*
X149003Y8347D01*
X148955D01*
X148782Y9087D01*
X148897Y9097D01*
X148974Y9107D01*
X149022Y9116D01*
X149041D01*
X149080Y9126D01*
X149118D01*
X149214Y9135D01*
X149320D01*
X149445Y9126D01*
X149570Y9116D01*
X149685Y9087D01*
X149800Y9068D01*
X149887Y9039D01*
X149954Y9010D01*
X150002Y9001D01*
X150021Y8991D01*
X150166Y8924D01*
X150310Y8847D01*
X150463Y8770D01*
X150598Y8684D01*
X150723Y8607D01*
X150819Y8540D01*
X150857Y8520D01*
X150886Y8501D01*
X150896Y8482D01*
X150906D01*
X150761Y9135D01*
X151511D01*
X152510Y4724D01*
D02*
G37*
G36*
X138710Y6262D02*
X138730Y6156D01*
X138749Y6060D01*
Y6022D01*
X138759Y5993D01*
Y5983D01*
Y5974D01*
X138768Y5878D01*
Y5801D01*
Y5733D01*
Y5724D01*
Y5714D01*
X138759Y5522D01*
X138720Y5349D01*
X138672Y5205D01*
X138605Y5090D01*
X138547Y5003D01*
X138499Y4936D01*
X138461Y4888D01*
X138451Y4878D01*
X138317Y4782D01*
X138182Y4715D01*
X138028Y4667D01*
X137884Y4638D01*
X137759Y4619D01*
X137653Y4600D01*
X137557D01*
X137404Y4609D01*
X137269Y4628D01*
X137134Y4648D01*
X137019Y4676D01*
X136923Y4705D01*
X136856Y4734D01*
X136808Y4744D01*
X136788Y4753D01*
X136654Y4820D01*
X136510Y4897D01*
X136375Y4974D01*
X136260Y5042D01*
X136154Y5109D01*
X136068Y5167D01*
X136020Y5205D01*
X136000Y5215D01*
X136106Y4724D01*
X135366D01*
X134347Y9135D01*
X135088D01*
X135856Y5839D01*
X136097Y5685D01*
X136222Y5618D01*
X136327Y5561D01*
X136423Y5512D01*
X136491Y5474D01*
X136539Y5455D01*
X136558Y5445D01*
X136692Y5387D01*
X136817Y5349D01*
X136933Y5320D01*
X137029Y5301D01*
X137106Y5291D01*
X137173Y5282D01*
X137221D01*
X137365Y5291D01*
X137490Y5311D01*
X137586Y5330D01*
X137673Y5368D01*
X137730Y5397D01*
X137769Y5416D01*
X137797Y5435D01*
X137807Y5445D01*
X137865Y5512D01*
X137903Y5599D01*
X137942Y5685D01*
X137961Y5762D01*
X137970Y5839D01*
X137980Y5897D01*
Y5935D01*
Y5954D01*
X137970Y6051D01*
X137961Y6156D01*
Y6195D01*
X137951Y6233D01*
Y6252D01*
Y6262D01*
X137922Y6406D01*
X137903Y6512D01*
X137894Y6560D01*
X137884Y6589D01*
Y6608D01*
Y6618D01*
X137298Y9135D01*
X138047D01*
X138710Y6262D01*
D02*
G37*
G36*
X154663Y9135D02*
X155172D01*
X155307Y8540D01*
X154807D01*
X155355Y6166D01*
X155374Y6051D01*
X155393Y5964D01*
Y5926D01*
X155403Y5897D01*
Y5887D01*
Y5878D01*
X155413Y5782D01*
Y5705D01*
Y5647D01*
Y5637D01*
Y5628D01*
X155403Y5445D01*
X155365Y5291D01*
X155316Y5157D01*
X155269Y5051D01*
X155211Y4974D01*
X155172Y4917D01*
X155134Y4878D01*
X155124Y4869D01*
X154999Y4792D01*
X154865Y4734D01*
X154730Y4696D01*
X154586Y4667D01*
X154471Y4648D01*
X154365Y4638D01*
X154279D01*
X154125Y4648D01*
X153981Y4657D01*
X153923Y4667D01*
X153875D01*
X153846Y4676D01*
X153837D01*
X153654Y4705D01*
X153577Y4724D01*
X153510Y4734D01*
X153452Y4744D01*
X153404Y4753D01*
X153375Y4763D01*
X153366D01*
X153222Y5407D01*
X153270D01*
X153308Y5387D01*
X153347Y5378D01*
X153443Y5349D01*
X153491Y5330D01*
X153529Y5320D01*
X153558Y5311D01*
X153568D01*
X153721Y5282D01*
X153789Y5272D01*
X153846D01*
X153885Y5263D01*
X153952D01*
X154086Y5272D01*
X154202Y5282D01*
X154298Y5301D01*
X154365Y5330D01*
X154423Y5359D01*
X154461Y5378D01*
X154481Y5387D01*
X154490Y5397D01*
X154538Y5455D01*
X154577Y5522D01*
X154596Y5599D01*
X154615Y5666D01*
X154625Y5734D01*
X154634Y5782D01*
Y5820D01*
Y5830D01*
X154625Y5926D01*
X154615Y6031D01*
Y6079D01*
X154605Y6118D01*
Y6137D01*
Y6147D01*
X154577Y6291D01*
X154548Y6397D01*
X154538Y6445D01*
Y6473D01*
X154528Y6493D01*
Y6502D01*
X154067Y8540D01*
X152530D01*
X152395Y9135D01*
X153933D01*
X153635Y10404D01*
X154375D01*
X154663Y9135D01*
D02*
G37*
G36*
X132868Y9135D02*
X133377D01*
X133511Y8540D01*
X133012D01*
X133560Y6166D01*
X133579Y6051D01*
X133598Y5964D01*
Y5926D01*
X133607Y5897D01*
Y5887D01*
Y5878D01*
X133617Y5782D01*
Y5705D01*
Y5647D01*
Y5637D01*
Y5628D01*
X133607Y5445D01*
X133569Y5291D01*
X133521Y5157D01*
X133473Y5051D01*
X133415Y4974D01*
X133377Y4917D01*
X133338Y4878D01*
X133329Y4868D01*
X133204Y4792D01*
X133069Y4734D01*
X132935Y4696D01*
X132791Y4667D01*
X132675Y4648D01*
X132570Y4638D01*
X132483D01*
X132329Y4648D01*
X132185Y4657D01*
X132128Y4667D01*
X132080D01*
X132051Y4676D01*
X132041D01*
X131859Y4705D01*
X131782Y4724D01*
X131714Y4734D01*
X131657Y4744D01*
X131609Y4753D01*
X131580Y4763D01*
X131570D01*
X131426Y5407D01*
X131474D01*
X131513Y5387D01*
X131551Y5378D01*
X131647Y5349D01*
X131695Y5330D01*
X131734Y5320D01*
X131762Y5311D01*
X131772D01*
X131926Y5282D01*
X131993Y5272D01*
X132051D01*
X132089Y5263D01*
X132156D01*
X132291Y5272D01*
X132406Y5282D01*
X132502Y5301D01*
X132570Y5330D01*
X132627Y5359D01*
X132666Y5378D01*
X132685Y5387D01*
X132695Y5397D01*
X132743Y5455D01*
X132781Y5522D01*
X132800Y5599D01*
X132819Y5666D01*
X132829Y5733D01*
X132839Y5782D01*
Y5820D01*
Y5830D01*
X132829Y5926D01*
X132819Y6031D01*
Y6079D01*
X132810Y6118D01*
Y6137D01*
Y6147D01*
X132781Y6291D01*
X132752Y6397D01*
X132743Y6445D01*
Y6473D01*
X132733Y6493D01*
Y6502D01*
X132272Y8540D01*
X130734D01*
X130600Y9135D01*
X132137D01*
X131839Y10404D01*
X132579D01*
X132868Y9135D01*
D02*
G37*
G36*
X157325Y9232D02*
X157536Y9203D01*
X157719Y9164D01*
X157882Y9126D01*
X158017Y9078D01*
X158123Y9039D01*
X158161Y9020D01*
X158190Y9010D01*
X158200Y9001D01*
X158209D01*
X158392Y8905D01*
X158545Y8809D01*
X158690Y8703D01*
X158815Y8607D01*
X158911Y8511D01*
X158988Y8444D01*
X159026Y8395D01*
X159045Y8376D01*
X159170Y8223D01*
X159276Y8059D01*
X159372Y7905D01*
X159449Y7752D01*
X159516Y7627D01*
X159555Y7521D01*
X159574Y7482D01*
X159583Y7463D01*
X159593Y7444D01*
Y7434D01*
X159660Y7233D01*
X159708Y7031D01*
X159737Y6829D01*
X159756Y6656D01*
X159776Y6502D01*
Y6445D01*
X159785Y6387D01*
Y6339D01*
Y6310D01*
Y6291D01*
Y6281D01*
X159776Y6128D01*
X159766Y5993D01*
X159747Y5868D01*
X159718Y5762D01*
X159699Y5676D01*
X159679Y5609D01*
X159670Y5570D01*
X159660Y5551D01*
X159612Y5445D01*
X159555Y5339D01*
X159497Y5253D01*
X159439Y5176D01*
X159382Y5118D01*
X159343Y5070D01*
X159314Y5042D01*
X159305Y5032D01*
X159209Y4955D01*
X159113Y4897D01*
X159026Y4840D01*
X158940Y4801D01*
X158863Y4763D01*
X158805Y4744D01*
X158757Y4734D01*
X158747Y4724D01*
X158488Y4667D01*
X158363Y4648D01*
X158248Y4638D01*
X158151D01*
X158065Y4628D01*
X157998D01*
X157854Y4638D01*
X157709Y4648D01*
X157585Y4667D01*
X157469Y4686D01*
X157363Y4705D01*
X157296Y4715D01*
X157248Y4734D01*
X157229D01*
X157085Y4782D01*
X156950Y4820D01*
X156825Y4869D01*
X156720Y4917D01*
X156623Y4945D01*
X156556Y4974D01*
X156518Y4993D01*
X156499Y5003D01*
X156335Y5820D01*
X156383D01*
X156450Y5772D01*
X156527Y5714D01*
X156595Y5676D01*
X156614Y5666D01*
X156623Y5657D01*
X156748Y5589D01*
X156864Y5532D01*
X156912Y5503D01*
X156950Y5493D01*
X156969Y5474D01*
X156979D01*
X157114Y5416D01*
X157258Y5368D01*
X157315Y5349D01*
X157363Y5330D01*
X157392Y5320D01*
X157402D01*
X157585Y5282D01*
X157671Y5272D01*
X157748Y5263D01*
X157806Y5253D01*
X157902D01*
X158084Y5263D01*
X158248Y5301D01*
X158392Y5349D01*
X158507Y5407D01*
X158603Y5455D01*
X158661Y5503D01*
X158709Y5541D01*
X158719Y5551D01*
X158815Y5676D01*
X158882Y5810D01*
X158930Y5945D01*
X158959Y6089D01*
X158978Y6204D01*
X158997Y6310D01*
Y6348D01*
Y6377D01*
Y6387D01*
Y6397D01*
X158988Y6570D01*
X158978Y6733D01*
X158920Y7031D01*
X158882Y7165D01*
X158843Y7300D01*
X158805Y7415D01*
X158757Y7530D01*
X158709Y7627D01*
X158670Y7713D01*
X158632Y7790D01*
X158594Y7848D01*
X158565Y7896D01*
X158536Y7934D01*
X158526Y7953D01*
X158517Y7963D01*
X158421Y8078D01*
X158325Y8174D01*
X158219Y8270D01*
X158123Y8338D01*
X158017Y8405D01*
X157911Y8453D01*
X157709Y8540D01*
X157536Y8578D01*
X157460Y8597D01*
X157392Y8607D01*
X157344Y8617D01*
X157267D01*
X157094Y8607D01*
X157018Y8597D01*
X156950Y8588D01*
X156902Y8578D01*
X156854Y8568D01*
X156835Y8559D01*
X156825D01*
X156681Y8511D01*
X156566Y8463D01*
X156518Y8444D01*
X156489Y8434D01*
X156470Y8415D01*
X156460D01*
X156354Y8347D01*
X156268Y8290D01*
X156210Y8251D01*
X156201Y8232D01*
X156191D01*
X156105Y8174D01*
X156047Y8126D01*
X155999Y8088D01*
X155989Y8078D01*
X155941D01*
X155778Y8876D01*
X155989Y8972D01*
X156095Y9020D01*
X156181Y9059D01*
X156268Y9087D01*
X156335Y9107D01*
X156374Y9126D01*
X156393D01*
X156518Y9164D01*
X156643Y9193D01*
X156768Y9212D01*
X156883Y9232D01*
X156969D01*
X157046Y9241D01*
X157114D01*
X157325Y9232D01*
D02*
G37*
G36*
X169203Y9251D02*
X169405Y9222D01*
X169597Y9183D01*
X169770Y9126D01*
X169943Y9059D01*
X170097Y8982D01*
X170241Y8905D01*
X170366Y8828D01*
X170491Y8741D01*
X170587Y8664D01*
X170683Y8588D01*
X170760Y8520D01*
X170817Y8463D01*
X170856Y8424D01*
X170885Y8395D01*
X170894Y8386D01*
X171029Y8223D01*
X171144Y8049D01*
X171250Y7876D01*
X171336Y7694D01*
X171404Y7521D01*
X171471Y7348D01*
X171519Y7185D01*
X171557Y7021D01*
X171586Y6877D01*
X171615Y6742D01*
X171634Y6618D01*
X171644Y6512D01*
Y6425D01*
X171653Y6368D01*
Y6320D01*
Y6310D01*
X171644Y6156D01*
X171634Y6012D01*
X171606Y5887D01*
X171577Y5762D01*
X171529Y5647D01*
X171490Y5541D01*
X171442Y5445D01*
X171394Y5359D01*
X171346Y5291D01*
X171298Y5224D01*
X171250Y5167D01*
X171212Y5118D01*
X171183Y5090D01*
X171154Y5061D01*
X171144Y5051D01*
X171135Y5042D01*
X171029Y4965D01*
X170923Y4907D01*
X170693Y4801D01*
X170452Y4724D01*
X170222Y4676D01*
X170116Y4657D01*
X170020Y4638D01*
X169933Y4628D01*
X169857D01*
X169789Y4619D01*
X169597D01*
X169510Y4628D01*
X169424D01*
X169357Y4638D01*
X169309Y4648D01*
X169261D01*
X169241Y4657D01*
X169232D01*
X169078Y4686D01*
X168934Y4705D01*
X168876Y4715D01*
X168828Y4724D01*
X168799Y4734D01*
X168790D01*
X168703Y4753D01*
X168626Y4772D01*
X168559Y4792D01*
X168501Y4811D01*
X168453Y4830D01*
X168425Y4840D01*
X168405Y4849D01*
X168396D01*
X168271Y4897D01*
X168156Y4945D01*
X168107Y4955D01*
X168069Y4974D01*
X168040Y4984D01*
X168031D01*
X167867Y5791D01*
X167915D01*
X168040Y5714D01*
X168175Y5647D01*
X168300Y5580D01*
X168425Y5522D01*
X168530Y5474D01*
X168617Y5435D01*
X168674Y5416D01*
X168684Y5407D01*
X168694D01*
X168857Y5349D01*
X169020Y5311D01*
X169174Y5282D01*
X169309Y5263D01*
X169424Y5253D01*
X169510Y5243D01*
X169587D01*
X169808Y5253D01*
X170001Y5291D01*
X170164Y5339D01*
X170299Y5407D01*
X170404Y5464D01*
X170481Y5512D01*
X170529Y5551D01*
X170548Y5561D01*
X170664Y5685D01*
X170741Y5830D01*
X170798Y5974D01*
X170846Y6118D01*
X170865Y6243D01*
X170875Y6339D01*
X170885Y6377D01*
Y6406D01*
Y6425D01*
Y6435D01*
Y6512D01*
X170875Y6570D01*
Y6618D01*
Y6637D01*
X170865Y6723D01*
X170856Y6800D01*
X170846Y6848D01*
Y6858D01*
Y6867D01*
X167588D01*
X167560Y6992D01*
X167541Y7098D01*
X167521Y7204D01*
X167502Y7290D01*
X167492Y7358D01*
Y7406D01*
X167483Y7444D01*
Y7454D01*
X167473Y7550D01*
X167464Y7627D01*
X167454Y7694D01*
X167444Y7742D01*
Y7780D01*
Y7819D01*
Y7828D01*
Y7838D01*
X167464Y8078D01*
X167512Y8290D01*
X167569Y8463D01*
X167646Y8617D01*
X167723Y8732D01*
X167781Y8818D01*
X167829Y8866D01*
X167848Y8885D01*
X168011Y9010D01*
X168194Y9107D01*
X168386Y9174D01*
X168569Y9212D01*
X168742Y9241D01*
X168809Y9251D01*
X168876D01*
X168924Y9260D01*
X169001D01*
X169203Y9251D01*
D02*
G37*
G36*
X162159D02*
X162361Y9222D01*
X162553Y9183D01*
X162726Y9126D01*
X162899Y9059D01*
X163053Y8982D01*
X163197Y8905D01*
X163322Y8828D01*
X163447Y8741D01*
X163543Y8664D01*
X163639Y8588D01*
X163716Y8520D01*
X163773Y8463D01*
X163812Y8424D01*
X163841Y8395D01*
X163850Y8386D01*
X163985Y8223D01*
X164100Y8049D01*
X164206Y7876D01*
X164292Y7694D01*
X164359Y7521D01*
X164427Y7348D01*
X164475Y7185D01*
X164513Y7021D01*
X164542Y6877D01*
X164571Y6742D01*
X164590Y6618D01*
X164600Y6512D01*
Y6425D01*
X164609Y6368D01*
Y6320D01*
Y6310D01*
X164600Y6156D01*
X164590Y6012D01*
X164561Y5887D01*
X164532Y5762D01*
X164485Y5647D01*
X164446Y5541D01*
X164398Y5445D01*
X164350Y5359D01*
X164302Y5291D01*
X164254Y5224D01*
X164206Y5167D01*
X164167Y5118D01*
X164138Y5090D01*
X164110Y5061D01*
X164100Y5051D01*
X164091Y5042D01*
X163985Y4965D01*
X163879Y4907D01*
X163648Y4801D01*
X163408Y4724D01*
X163178Y4676D01*
X163072Y4657D01*
X162976Y4638D01*
X162889Y4628D01*
X162812D01*
X162745Y4619D01*
X162553D01*
X162466Y4628D01*
X162380D01*
X162313Y4638D01*
X162265Y4648D01*
X162216D01*
X162197Y4657D01*
X162188D01*
X162034Y4686D01*
X161890Y4705D01*
X161832Y4715D01*
X161784Y4724D01*
X161755Y4734D01*
X161746D01*
X161659Y4753D01*
X161582Y4772D01*
X161515Y4792D01*
X161457Y4811D01*
X161409Y4830D01*
X161380Y4840D01*
X161361Y4849D01*
X161352D01*
X161227Y4897D01*
X161111Y4945D01*
X161063Y4955D01*
X161025Y4974D01*
X160996Y4984D01*
X160986D01*
X160823Y5791D01*
X160871D01*
X160996Y5714D01*
X161131Y5647D01*
X161256Y5580D01*
X161380Y5522D01*
X161486Y5474D01*
X161573Y5435D01*
X161630Y5416D01*
X161640Y5407D01*
X161650D01*
X161813Y5349D01*
X161976Y5311D01*
X162130Y5282D01*
X162265Y5263D01*
X162380Y5253D01*
X162466Y5243D01*
X162543D01*
X162764Y5253D01*
X162957Y5291D01*
X163120Y5339D01*
X163254Y5407D01*
X163360Y5464D01*
X163437Y5512D01*
X163485Y5551D01*
X163504Y5561D01*
X163620Y5685D01*
X163697Y5830D01*
X163754Y5974D01*
X163802Y6118D01*
X163821Y6243D01*
X163831Y6339D01*
X163841Y6377D01*
Y6406D01*
Y6425D01*
Y6435D01*
Y6512D01*
X163831Y6570D01*
Y6618D01*
Y6637D01*
X163821Y6723D01*
X163812Y6800D01*
X163802Y6848D01*
Y6858D01*
Y6867D01*
X160544D01*
X160516Y6992D01*
X160496Y7098D01*
X160477Y7204D01*
X160458Y7290D01*
X160448Y7358D01*
Y7406D01*
X160439Y7444D01*
Y7454D01*
X160429Y7550D01*
X160419Y7627D01*
X160410Y7694D01*
X160400Y7742D01*
Y7780D01*
Y7819D01*
Y7828D01*
Y7838D01*
X160419Y8078D01*
X160468Y8290D01*
X160525Y8463D01*
X160602Y8617D01*
X160679Y8732D01*
X160737Y8818D01*
X160785Y8866D01*
X160804Y8885D01*
X160967Y9010D01*
X161150Y9107D01*
X161342Y9174D01*
X161525Y9212D01*
X161698Y9241D01*
X161765Y9251D01*
X161832D01*
X161880Y9260D01*
X161957D01*
X162159Y9251D01*
D02*
G37*
G36*
X166954Y4724D02*
X166214D01*
X164792Y10875D01*
X165532D01*
X166954Y4724D01*
D02*
G37*
G36*
X141103Y9251D02*
X141238Y9232D01*
X141372Y9212D01*
X141478Y9183D01*
X141584Y9145D01*
X141651Y9126D01*
X141699Y9107D01*
X141718Y9097D01*
X141853Y9030D01*
X141997Y8953D01*
X142132Y8876D01*
X142247Y8809D01*
X142353Y8741D01*
X142429Y8684D01*
X142487Y8645D01*
X142497Y8636D01*
X142506D01*
X142391Y9135D01*
X143141Y9135D01*
X144150Y4724D01*
X143410D01*
X142651Y8011D01*
X142391Y8174D01*
X142276Y8242D01*
X142170Y8299D01*
X142084Y8338D01*
X142007Y8376D01*
X141968Y8395D01*
X141949Y8405D01*
X141814Y8463D01*
X141690Y8501D01*
X141574Y8540D01*
X141478Y8559D01*
X141401Y8568D01*
X141334Y8578D01*
X141286D01*
X141132Y8568D01*
X141007Y8549D01*
X140911Y8520D01*
X140825Y8491D01*
X140767Y8463D01*
X140719Y8434D01*
X140700Y8415D01*
X140690Y8405D01*
X140632Y8338D01*
X140594Y8261D01*
X140565Y8174D01*
X140546Y8098D01*
X140536Y8021D01*
X140527Y7963D01*
Y7925D01*
Y7905D01*
Y7790D01*
X140536Y7694D01*
X140546Y7655D01*
Y7627D01*
X140556Y7607D01*
Y7598D01*
X140575Y7473D01*
X140594Y7357D01*
X140604Y7310D01*
X140613Y7271D01*
X140623Y7242D01*
Y7233D01*
X141190Y4724D01*
X140460D01*
X139796Y7588D01*
X139777Y7684D01*
X139758Y7771D01*
Y7809D01*
X139748Y7838D01*
Y7857D01*
Y7867D01*
X139739Y7973D01*
X139729Y8059D01*
Y8107D01*
Y8126D01*
X139739Y8319D01*
X139777Y8491D01*
X139835Y8636D01*
X139892Y8751D01*
X139950Y8847D01*
X140008Y8905D01*
X140046Y8953D01*
X140056Y8962D01*
X140190Y9059D01*
X140334Y9135D01*
X140488Y9183D01*
X140632Y9222D01*
X140757Y9241D01*
X140863Y9260D01*
X140959D01*
X141103Y9251D01*
D02*
G37*
G36*
X130446Y4724D02*
X129504D01*
X129235Y5849D01*
X130186D01*
X130446Y4724D01*
D02*
G37*
G36*
X127765D02*
X127034D01*
X126016Y9135D01*
X126756D01*
X127765Y4724D01*
D02*
G37*
G36*
X122508Y9251D02*
X122643Y9232D01*
X122777Y9212D01*
X122883Y9183D01*
X122988Y9145D01*
X123056Y9126D01*
X123104Y9107D01*
X123123Y9097D01*
X123258Y9030D01*
X123402Y8953D01*
X123536Y8876D01*
X123652Y8809D01*
X123757Y8741D01*
X123834Y8684D01*
X123892Y8645D01*
X123901Y8636D01*
X123911D01*
X123796Y9135D01*
X124545D01*
X125554Y4724D01*
X124814D01*
X124055Y8011D01*
X123796Y8174D01*
X123680Y8242D01*
X123575Y8299D01*
X123488Y8338D01*
X123411Y8376D01*
X123373Y8395D01*
X123354Y8405D01*
X123219Y8463D01*
X123094Y8501D01*
X122979Y8540D01*
X122883Y8559D01*
X122806Y8568D01*
X122739Y8578D01*
X122691D01*
X122537Y8568D01*
X122412Y8549D01*
X122316Y8520D01*
X122229Y8491D01*
X122172Y8463D01*
X122124Y8434D01*
X122104Y8415D01*
X122095Y8405D01*
X122037Y8338D01*
X121999Y8261D01*
X121970Y8174D01*
X121951Y8098D01*
X121941Y8021D01*
X121931Y7963D01*
Y7925D01*
Y7905D01*
Y7790D01*
X121941Y7694D01*
X121951Y7655D01*
Y7627D01*
X121960Y7607D01*
Y7598D01*
X121979Y7473D01*
X121999Y7357D01*
X122008Y7310D01*
X122018Y7271D01*
X122028Y7242D01*
Y7233D01*
X122594Y4724D01*
X121864D01*
X121201Y7588D01*
X121182Y7684D01*
X121163Y7771D01*
Y7809D01*
X121153Y7838D01*
Y7857D01*
Y7867D01*
X121143Y7973D01*
X121134Y8059D01*
Y8107D01*
Y8126D01*
X121143Y8319D01*
X121182Y8491D01*
X121239Y8636D01*
X121297Y8751D01*
X121355Y8847D01*
X121413Y8905D01*
X121451Y8953D01*
X121460Y8962D01*
X121595Y9059D01*
X121739Y9135D01*
X121893Y9183D01*
X122037Y9222D01*
X122162Y9241D01*
X122268Y9260D01*
X122364D01*
X122508Y9251D01*
D02*
G37*
G36*
X146600Y9251D02*
X146792Y9222D01*
X146966Y9183D01*
X147129Y9135D01*
X147254Y9087D01*
X147350Y9049D01*
X147388Y9030D01*
X147417Y9020D01*
X147427Y9010D01*
X147436D01*
X147609Y8914D01*
X147763Y8809D01*
X147898Y8703D01*
X148013Y8597D01*
X148109Y8511D01*
X148176Y8434D01*
X148215Y8386D01*
X148234Y8367D01*
X148349Y8203D01*
X148455Y8040D01*
X148541Y7886D01*
X148618Y7732D01*
X148676Y7607D01*
X148714Y7502D01*
X148734Y7463D01*
X148743Y7444D01*
X148753Y7425D01*
Y7415D01*
X148811Y7213D01*
X148849Y7012D01*
X148887Y6819D01*
X148907Y6646D01*
X148916Y6502D01*
Y6435D01*
X148926Y6387D01*
Y6339D01*
Y6310D01*
Y6291D01*
Y6281D01*
X148916Y6137D01*
X148907Y6002D01*
X148859Y5753D01*
X148791Y5541D01*
X148705Y5368D01*
X148628Y5224D01*
X148590Y5167D01*
X148561Y5128D01*
X148532Y5090D01*
X148513Y5061D01*
X148493Y5051D01*
Y5042D01*
X148407Y4965D01*
X148311Y4897D01*
X148119Y4782D01*
X147907Y4705D01*
X147715Y4657D01*
X147532Y4619D01*
X147456Y4609D01*
X147388D01*
X147340Y4600D01*
X147263D01*
X147042Y4609D01*
X146850Y4638D01*
X146668Y4676D01*
X146514Y4715D01*
X146389Y4753D01*
X146293Y4792D01*
X146264Y4811D01*
X146235Y4820D01*
X146226Y4830D01*
X146216D01*
X146053Y4926D01*
X145899Y5032D01*
X145764Y5138D01*
X145649Y5243D01*
X145562Y5339D01*
X145485Y5416D01*
X145447Y5464D01*
X145428Y5484D01*
X145312Y5637D01*
X145207Y5801D01*
X145120Y5964D01*
X145044Y6108D01*
X144986Y6243D01*
X144938Y6339D01*
X144928Y6377D01*
X144919Y6416D01*
X144909Y6425D01*
Y6435D01*
X144851Y6637D01*
X144803Y6848D01*
X144774Y7031D01*
X144746Y7204D01*
X144736Y7358D01*
Y7415D01*
X144726Y7473D01*
Y7511D01*
Y7540D01*
Y7559D01*
Y7569D01*
Y7713D01*
X144746Y7857D01*
X144794Y8107D01*
X144870Y8328D01*
X144947Y8501D01*
X144995Y8578D01*
X145034Y8636D01*
X145072Y8693D01*
X145111Y8741D01*
X145140Y8770D01*
X145159Y8799D01*
X145168Y8818D01*
X145178D01*
X145264Y8895D01*
X145361Y8962D01*
X145553Y9078D01*
X145755Y9155D01*
X145956Y9203D01*
X146120Y9241D01*
X146197Y9251D01*
X146264D01*
X146312Y9260D01*
X146389D01*
X146600Y9251D01*
D02*
G37*
G36*
X51314Y4724D02*
X50715D01*
X50146Y7220D01*
X49947Y7351D01*
X49847Y7405D01*
X49762Y7451D01*
X49693Y7489D01*
X49632Y7520D01*
X49601Y7535D01*
X49586Y7543D01*
X49478Y7589D01*
X49371Y7620D01*
X49271Y7650D01*
X49186Y7666D01*
X49110Y7673D01*
X49048Y7681D01*
X48895D01*
X48810Y7673D01*
X48779D01*
X48756Y7666D01*
X48741D01*
X48656Y7650D01*
X48580Y7635D01*
X48549Y7627D01*
X48526D01*
X48511Y7620D01*
X48472D01*
X48334Y8211D01*
X48426Y8219D01*
X48487Y8226D01*
X48526Y8234D01*
X48541D01*
X48572Y8242D01*
X48603D01*
X48679Y8249D01*
X48764D01*
X48864Y8242D01*
X48964Y8234D01*
X49056Y8211D01*
X49148Y8196D01*
X49217Y8173D01*
X49271Y8150D01*
X49309Y8142D01*
X49325Y8134D01*
X49440Y8081D01*
X49555Y8019D01*
X49678Y7958D01*
X49785Y7889D01*
X49885Y7827D01*
X49962Y7773D01*
X49993Y7758D01*
X50016Y7743D01*
X50023Y7727D01*
X50031D01*
X49916Y8249D01*
X50515D01*
X51314Y4724D01*
D02*
G37*
G36*
X58433D02*
X57604D01*
X54800Y9425D01*
X55469D01*
X57895Y5285D01*
X58410Y9425D01*
X59055D01*
X58433Y4724D01*
D02*
G37*
G36*
X53103Y8342D02*
X53264Y8319D01*
X53418Y8288D01*
X53556Y8242D01*
X53694Y8188D01*
X53817Y8127D01*
X53933Y8065D01*
X54032Y8004D01*
X54132Y7935D01*
X54209Y7873D01*
X54286Y7812D01*
X54347Y7758D01*
X54393Y7712D01*
X54424Y7681D01*
X54447Y7658D01*
X54455Y7650D01*
X54562Y7520D01*
X54655Y7382D01*
X54739Y7243D01*
X54808Y7097D01*
X54862Y6959D01*
X54916Y6821D01*
X54954Y6690D01*
X54985Y6560D01*
X55008Y6445D01*
X55031Y6337D01*
X55046Y6237D01*
X55054Y6153D01*
Y6084D01*
X55062Y6038D01*
Y5999D01*
Y5992D01*
X55054Y5869D01*
X55046Y5754D01*
X55023Y5654D01*
X55000Y5554D01*
X54962Y5462D01*
X54931Y5377D01*
X54893Y5300D01*
X54854Y5231D01*
X54816Y5178D01*
X54777Y5124D01*
X54739Y5078D01*
X54708Y5039D01*
X54685Y5016D01*
X54662Y4993D01*
X54655Y4986D01*
X54647Y4978D01*
X54562Y4916D01*
X54478Y4870D01*
X54294Y4786D01*
X54102Y4724D01*
X53917Y4686D01*
X53833Y4671D01*
X53756Y4655D01*
X53687Y4648D01*
X53625D01*
X53572Y4640D01*
X53418D01*
X53349Y4648D01*
X53280D01*
X53226Y4655D01*
X53188Y4663D01*
X53149D01*
X53134Y4671D01*
X53126D01*
X53003Y4694D01*
X52888Y4709D01*
X52842Y4717D01*
X52804Y4724D01*
X52781Y4732D01*
X52773D01*
X52704Y4747D01*
X52642Y4763D01*
X52589Y4778D01*
X52543Y4794D01*
X52504Y4809D01*
X52481Y4817D01*
X52466Y4824D01*
X52458D01*
X52358Y4863D01*
X52266Y4901D01*
X52228Y4909D01*
X52197Y4924D01*
X52174Y4932D01*
X52166D01*
X52036Y5577D01*
X52074D01*
X52174Y5515D01*
X52281Y5462D01*
X52381Y5408D01*
X52481Y5362D01*
X52565Y5323D01*
X52635Y5293D01*
X52681Y5277D01*
X52688Y5270D01*
X52696D01*
X52827Y5224D01*
X52957Y5193D01*
X53080Y5170D01*
X53188Y5155D01*
X53280Y5147D01*
X53349Y5139D01*
X53410D01*
X53587Y5147D01*
X53741Y5178D01*
X53871Y5216D01*
X53979Y5270D01*
X54063Y5316D01*
X54125Y5354D01*
X54163Y5385D01*
X54178Y5393D01*
X54270Y5492D01*
X54332Y5608D01*
X54378Y5723D01*
X54416Y5838D01*
X54432Y5938D01*
X54439Y6015D01*
X54447Y6045D01*
Y6068D01*
Y6084D01*
Y6091D01*
Y6153D01*
X54439Y6199D01*
Y6237D01*
Y6253D01*
X54432Y6322D01*
X54424Y6383D01*
X54416Y6422D01*
Y6429D01*
Y6437D01*
X51813D01*
X51790Y6537D01*
X51775Y6621D01*
X51759Y6706D01*
X51744Y6775D01*
X51736Y6829D01*
Y6867D01*
X51728Y6898D01*
Y6905D01*
X51721Y6982D01*
X51713Y7044D01*
X51705Y7097D01*
X51698Y7136D01*
Y7167D01*
Y7197D01*
Y7205D01*
Y7213D01*
X51713Y7405D01*
X51751Y7574D01*
X51797Y7712D01*
X51859Y7835D01*
X51920Y7927D01*
X51967Y7996D01*
X52005Y8034D01*
X52020Y8050D01*
X52151Y8150D01*
X52297Y8226D01*
X52450Y8280D01*
X52596Y8311D01*
X52735Y8334D01*
X52788Y8342D01*
X52842D01*
X52880Y8349D01*
X52942D01*
X53103Y8342D01*
D02*
G37*
G36*
X41959Y4724D02*
X41207D01*
X40992Y5623D01*
X41752D01*
X41959Y4724D01*
D02*
G37*
G36*
X37382Y9317D02*
X37444Y9210D01*
X37505Y9125D01*
X37574Y9056D01*
X37636Y9002D01*
X37689Y8964D01*
X37720Y8941D01*
X37735Y8933D01*
X37858Y8879D01*
X37997Y8841D01*
X38135Y8818D01*
X38273Y8803D01*
X38396Y8787D01*
X38450D01*
X38496Y8779D01*
X38588D01*
X38672Y8365D01*
X37697D01*
X38434Y5185D01*
X39402D01*
X39509Y4724D01*
X36960D01*
X36852Y5185D01*
X37828D01*
X36837Y9440D01*
X37336D01*
X37382Y9317D01*
D02*
G37*
G36*
X43933Y9517D02*
X44087Y9494D01*
X44225Y9463D01*
X44348Y9432D01*
X44448Y9402D01*
X44525Y9371D01*
X44548Y9356D01*
X44571Y9348D01*
X44578Y9340D01*
X44586D01*
X44717Y9263D01*
X44839Y9179D01*
X44947Y9079D01*
X45047Y8995D01*
X45124Y8910D01*
X45177Y8841D01*
X45216Y8795D01*
X45231Y8787D01*
Y8779D01*
X45300Y8687D01*
X45362Y8580D01*
X45477Y8365D01*
X45577Y8134D01*
X45661Y7919D01*
X45700Y7819D01*
X45730Y7727D01*
X45761Y7643D01*
X45784Y7574D01*
X45799Y7512D01*
X45815Y7466D01*
X45823Y7435D01*
Y7428D01*
X45892Y7121D01*
X45922Y6975D01*
X45945Y6844D01*
X45968Y6713D01*
X45984Y6598D01*
X45999Y6491D01*
X46007Y6391D01*
X46022Y6306D01*
Y6222D01*
X46030Y6161D01*
X46038Y6099D01*
Y6061D01*
Y6022D01*
Y6007D01*
Y5999D01*
Y5876D01*
X46022Y5754D01*
X46007Y5646D01*
X45991Y5546D01*
X45968Y5446D01*
X45938Y5362D01*
X45915Y5285D01*
X45884Y5216D01*
X45853Y5162D01*
X45830Y5108D01*
X45799Y5062D01*
X45776Y5024D01*
X45761Y5001D01*
X45746Y4978D01*
X45730Y4970D01*
Y4963D01*
X45669Y4901D01*
X45600Y4855D01*
X45446Y4770D01*
X45293Y4709D01*
X45139Y4671D01*
X44993Y4640D01*
X44932Y4632D01*
X44886D01*
X44839Y4625D01*
X44778D01*
X44609Y4632D01*
X44455Y4655D01*
X44309Y4678D01*
X44194Y4717D01*
X44094Y4747D01*
X44018Y4770D01*
X43972Y4794D01*
X43964Y4801D01*
X43956D01*
X43826Y4878D01*
X43703Y4963D01*
X43595Y5055D01*
X43503Y5147D01*
X43419Y5231D01*
X43365Y5300D01*
X43327Y5347D01*
X43311Y5354D01*
Y5362D01*
X43250Y5454D01*
X43188Y5554D01*
X43073Y5761D01*
X42973Y5976D01*
X42896Y6191D01*
X42858Y6283D01*
X42827Y6376D01*
X42797Y6460D01*
X42774Y6529D01*
X42758Y6583D01*
X42743Y6629D01*
X42735Y6660D01*
Y6667D01*
X42658Y6975D01*
X42597Y7251D01*
X42574Y7382D01*
X42559Y7505D01*
X42535Y7620D01*
X42528Y7720D01*
X42520Y7812D01*
X42512Y7896D01*
X42505Y7973D01*
X42497Y8034D01*
Y8081D01*
Y8111D01*
Y8134D01*
Y8142D01*
Y8265D01*
X42512Y8388D01*
X42528Y8495D01*
X42543Y8595D01*
X42566Y8687D01*
X42597Y8772D01*
X42628Y8849D01*
X42651Y8918D01*
X42681Y8979D01*
X42712Y9033D01*
X42735Y9079D01*
X42766Y9117D01*
X42781Y9140D01*
X42797Y9164D01*
X42812Y9179D01*
X42873Y9240D01*
X42943Y9294D01*
X43096Y9379D01*
X43250Y9440D01*
X43403Y9478D01*
X43549Y9509D01*
X43603Y9517D01*
X43657D01*
X43703Y9524D01*
X43764D01*
X43933Y9517D01*
D02*
G37*
%LPC*%
G36*
X169203Y8664D02*
X169145D01*
X168963Y8655D01*
X168819Y8626D01*
X168684Y8588D01*
X168588Y8549D01*
X168501Y8501D01*
X168453Y8463D01*
X168415Y8434D01*
X168405Y8424D01*
X168328Y8328D01*
X168271Y8223D01*
X168223Y8117D01*
X168194Y8011D01*
X168175Y7915D01*
X168165Y7838D01*
Y7790D01*
Y7780D01*
Y7771D01*
Y7704D01*
Y7655D01*
X168175Y7617D01*
Y7598D01*
X168184Y7540D01*
X168194Y7482D01*
X168203Y7434D01*
Y7425D01*
Y7415D01*
X170741D01*
X170673Y7617D01*
X170587Y7790D01*
X170491Y7944D01*
X170385Y8078D01*
X170299Y8184D01*
X170222Y8261D01*
X170174Y8299D01*
X170154Y8319D01*
X169981Y8434D01*
X169808Y8520D01*
X169645Y8578D01*
X169482Y8626D01*
X169347Y8645D01*
X169241Y8655D01*
X169203Y8664D01*
D02*
G37*
G36*
X162159D02*
X162101D01*
X161919Y8655D01*
X161775Y8626D01*
X161640Y8588D01*
X161544Y8549D01*
X161457Y8501D01*
X161409Y8463D01*
X161371Y8434D01*
X161361Y8424D01*
X161284Y8328D01*
X161227Y8223D01*
X161179Y8117D01*
X161150Y8011D01*
X161131Y7915D01*
X161121Y7838D01*
Y7790D01*
Y7780D01*
Y7771D01*
Y7704D01*
Y7655D01*
X161131Y7617D01*
Y7598D01*
X161140Y7540D01*
X161150Y7482D01*
X161159Y7434D01*
Y7425D01*
Y7415D01*
X163697D01*
X163629Y7617D01*
X163543Y7790D01*
X163447Y7944D01*
X163341Y8078D01*
X163254Y8184D01*
X163178Y8261D01*
X163129Y8299D01*
X163110Y8319D01*
X162937Y8434D01*
X162764Y8520D01*
X162601Y8578D01*
X162438Y8626D01*
X162303Y8645D01*
X162197Y8655D01*
X162159Y8664D01*
D02*
G37*
G36*
X146581Y8636D02*
X146514D01*
X146341Y8626D01*
X146187Y8588D01*
X146062Y8549D01*
X145956Y8491D01*
X145870Y8444D01*
X145812Y8395D01*
X145774Y8357D01*
X145764Y8347D01*
X145678Y8232D01*
X145610Y8098D01*
X145562Y7953D01*
X145524Y7819D01*
X145505Y7704D01*
X145495Y7598D01*
Y7559D01*
Y7540D01*
Y7521D01*
Y7511D01*
Y7338D01*
X145514Y7185D01*
X145534Y7031D01*
X145553Y6906D01*
X145572Y6791D01*
X145591Y6714D01*
X145601Y6656D01*
X145610Y6646D01*
Y6637D01*
X145659Y6483D01*
X145706Y6348D01*
X145764Y6224D01*
X145812Y6118D01*
X145860Y6031D01*
X145899Y5964D01*
X145928Y5926D01*
X145937Y5906D01*
X146024Y5791D01*
X146110Y5685D01*
X146197Y5599D01*
X146283Y5532D01*
X146360Y5474D01*
X146418Y5435D01*
X146456Y5407D01*
X146466Y5397D01*
X146581Y5339D01*
X146706Y5301D01*
X146812Y5263D01*
X146917Y5243D01*
X147013Y5234D01*
X147081Y5224D01*
X147148D01*
X147321Y5234D01*
X147475Y5272D01*
X147600Y5320D01*
X147705Y5368D01*
X147792Y5426D01*
X147850Y5464D01*
X147888Y5503D01*
X147898Y5512D01*
X147984Y5628D01*
X148051Y5762D01*
X148090Y5906D01*
X148128Y6041D01*
X148147Y6156D01*
X148157Y6262D01*
Y6301D01*
Y6329D01*
Y6339D01*
Y6348D01*
X148147Y6512D01*
X148138Y6675D01*
X148119Y6819D01*
X148099Y6954D01*
X148080Y7060D01*
X148071Y7146D01*
X148051Y7194D01*
Y7213D01*
X148003Y7367D01*
X147955Y7502D01*
X147898Y7627D01*
X147840Y7742D01*
X147801Y7828D01*
X147763Y7886D01*
X147734Y7934D01*
X147725Y7944D01*
X147638Y8059D01*
X147552Y8155D01*
X147456Y8242D01*
X147379Y8309D01*
X147302Y8367D01*
X147244Y8415D01*
X147206Y8434D01*
X147196Y8444D01*
X147081Y8511D01*
X146956Y8559D01*
X146841Y8588D01*
X146735Y8617D01*
X146648Y8626D01*
X146581Y8636D01*
D02*
G37*
G36*
X53103Y7873D02*
X53057D01*
X52911Y7865D01*
X52796Y7842D01*
X52688Y7812D01*
X52612Y7781D01*
X52543Y7743D01*
X52504Y7712D01*
X52473Y7689D01*
X52466Y7681D01*
X52404Y7604D01*
X52358Y7520D01*
X52320Y7435D01*
X52297Y7351D01*
X52281Y7274D01*
X52274Y7213D01*
Y7174D01*
Y7167D01*
Y7159D01*
Y7105D01*
Y7067D01*
X52281Y7036D01*
Y7021D01*
X52289Y6975D01*
X52297Y6929D01*
X52304Y6890D01*
Y6882D01*
Y6875D01*
X54332D01*
X54278Y7036D01*
X54209Y7174D01*
X54132Y7297D01*
X54048Y7405D01*
X53979Y7489D01*
X53917Y7551D01*
X53879Y7581D01*
X53863Y7597D01*
X53725Y7689D01*
X53587Y7758D01*
X53456Y7804D01*
X53326Y7842D01*
X53218Y7858D01*
X53134Y7865D01*
X53103Y7873D01*
D02*
G37*
G36*
X43918Y9025D02*
X43864D01*
X43718Y9018D01*
X43595Y8987D01*
X43503Y8956D01*
X43419Y8910D01*
X43357Y8872D01*
X43319Y8833D01*
X43296Y8803D01*
X43288Y8795D01*
X43234Y8703D01*
X43196Y8603D01*
X43165Y8495D01*
X43150Y8388D01*
X43134Y8296D01*
X43127Y8219D01*
Y8188D01*
Y8165D01*
Y8157D01*
Y8150D01*
X43134Y7958D01*
X43158Y7743D01*
X43188Y7535D01*
X43219Y7336D01*
X43234Y7236D01*
X43250Y7151D01*
X43265Y7074D01*
X43280Y7013D01*
X43296Y6959D01*
X43303Y6913D01*
X43311Y6890D01*
Y6882D01*
X43349Y6744D01*
X43380Y6614D01*
X43419Y6491D01*
X43449Y6376D01*
X43488Y6276D01*
X43518Y6176D01*
X43549Y6091D01*
X43580Y6015D01*
X43611Y5945D01*
X43634Y5884D01*
X43657Y5838D01*
X43672Y5800D01*
X43687Y5761D01*
X43703Y5738D01*
X43711Y5731D01*
Y5723D01*
X43780Y5608D01*
X43856Y5515D01*
X43925Y5439D01*
X43995Y5370D01*
X44056Y5323D01*
X44102Y5293D01*
X44133Y5270D01*
X44141Y5262D01*
X44233Y5216D01*
X44325Y5185D01*
X44417Y5155D01*
X44502Y5139D01*
X44571Y5131D01*
X44632Y5124D01*
X44678D01*
X44824Y5131D01*
X44939Y5162D01*
X45039Y5193D01*
X45124Y5239D01*
X45177Y5277D01*
X45223Y5316D01*
X45246Y5339D01*
X45254Y5347D01*
X45308Y5439D01*
X45346Y5539D01*
X45369Y5646D01*
X45385Y5754D01*
X45400Y5846D01*
X45408Y5923D01*
Y5953D01*
Y5976D01*
Y5984D01*
Y5992D01*
X45400Y6191D01*
X45377Y6399D01*
X45354Y6614D01*
X45316Y6813D01*
X45300Y6905D01*
X45285Y6990D01*
X45270Y7067D01*
X45262Y7128D01*
X45246Y7182D01*
X45239Y7228D01*
X45231Y7251D01*
Y7259D01*
X45193Y7397D01*
X45162Y7535D01*
X45124Y7650D01*
X45093Y7766D01*
X45055Y7873D01*
X45024Y7965D01*
X44985Y8050D01*
X44955Y8127D01*
X44932Y8196D01*
X44901Y8257D01*
X44878Y8303D01*
X44862Y8349D01*
X44847Y8380D01*
X44832Y8403D01*
X44824Y8411D01*
Y8418D01*
X44747Y8534D01*
X44678Y8634D01*
X44609Y8718D01*
X44540Y8779D01*
X44486Y8826D01*
X44440Y8864D01*
X44409Y8879D01*
X44402Y8887D01*
X44309Y8933D01*
X44217Y8964D01*
X44133Y8995D01*
X44048Y9010D01*
X43972Y9018D01*
X43918Y9025D01*
D02*
G37*
%LPD*%
D79*
X127564Y101938D02*
X136364D01*
X90964Y121138D02*
X91564D01*
X82764D02*
X83064D01*
X74264D02*
X74764D01*
X90564Y121038D02*
X91964D01*
X82164D02*
X83564D01*
X73764D02*
X75264D01*
X90264Y120938D02*
X92264D01*
X81964D02*
X83864D01*
X73564D02*
X75464D01*
X90164Y120838D02*
X92364D01*
X81764D02*
X83964D01*
X73364D02*
X75664D01*
X89964Y120738D02*
X92564D01*
X81664D02*
X84164D01*
X73264D02*
X75764D01*
X89864Y120638D02*
X92664D01*
X81564D02*
X84264D01*
X73164D02*
X75864D01*
X89764Y120538D02*
X92764D01*
X81464D02*
X84364D01*
X73064D02*
X75964D01*
X89764Y120438D02*
X92864D01*
X81364D02*
X84464D01*
X72964D02*
X76064D01*
X89664Y120338D02*
X92864D01*
X81264D02*
X84564D01*
X72864D02*
X76164D01*
X89564Y120238D02*
X92964D01*
X81264D02*
X84564D01*
X72864D02*
X76164D01*
X89564Y120138D02*
X92964D01*
X81164D02*
X84664D01*
X72764D02*
X76264D01*
X89464Y120038D02*
X93064D01*
X81164D02*
X84664D01*
X72764D02*
X76264D01*
X91664Y119938D02*
X93064D01*
X89464D02*
X90864D01*
X83264D02*
X84764D01*
X81064D02*
X82564D01*
X74964D02*
X76364D01*
X72664D02*
X74164D01*
X91764Y119838D02*
X93164D01*
X89364D02*
X90764D01*
X83464D02*
X84764D01*
X81064D02*
X82364D01*
X75064D02*
X76364D01*
X72664D02*
X73964D01*
X91864Y119738D02*
X93164D01*
X89364D02*
X90664D01*
X83564D02*
X84764D01*
X80964D02*
X82264D01*
X75164D02*
X76464D01*
X72664D02*
X73864D01*
X91964Y119638D02*
X93164D01*
X89364D02*
X90564D01*
X83564D02*
X84864D01*
X80964D02*
X82264D01*
X75264D02*
X76464D01*
X72564D02*
X73864D01*
X92064Y119538D02*
X93164D01*
X89364D02*
X90564D01*
X83664D02*
X84864D01*
X80964D02*
X82164D01*
X75264D02*
X76464D01*
X72564D02*
X73764D01*
X92064Y119438D02*
X93164D01*
X89364D02*
X90464D01*
X83664D02*
X84864D01*
X80964D02*
X82164D01*
X75264D02*
X76464D01*
X72564D02*
X73764D01*
X92064Y119338D02*
X93164D01*
X89364D02*
X90464D01*
X83764D02*
X84864D01*
X80964D02*
X82064D01*
X75364D02*
X76464D01*
X72564D02*
X73664D01*
X92064Y119238D02*
X93164D01*
X89364D02*
X90464D01*
X83764D02*
X84864D01*
X80964D02*
X82064D01*
X75364D02*
X76464D01*
X72564D02*
X73664D01*
X92064Y119138D02*
X93164D01*
X89364D02*
X90464D01*
X83764D02*
X84864D01*
X80964D02*
X82064D01*
X75364D02*
X76464D01*
X72564D02*
X73664D01*
X92064Y119038D02*
X93164D01*
X89364D02*
X90464D01*
X83664D02*
X84864D01*
X80964D02*
X82064D01*
X75364D02*
X76464D01*
X72564D02*
X73764D01*
X92064Y118938D02*
X93164D01*
X89364D02*
X90464D01*
X83664D02*
X84864D01*
X80964D02*
X82164D01*
X75264D02*
X76464D01*
X72564D02*
X73764D01*
X91964Y118838D02*
X93164D01*
X89364D02*
X90564D01*
X83664D02*
X84864D01*
X80964D02*
X82164D01*
X75264D02*
X76464D01*
X72564D02*
X73764D01*
X91964Y118738D02*
X93164D01*
X89364D02*
X90564D01*
X83564D02*
X84864D01*
X80964D02*
X82264D01*
X75164D02*
X76464D01*
X72564D02*
X73864D01*
X91864Y118638D02*
X93164D01*
X89364D02*
X90664D01*
X83464D02*
X84764D01*
X80964D02*
X82264D01*
X75164D02*
X76364D01*
X72664D02*
X73964D01*
X91764Y118538D02*
X93164D01*
X89364D02*
X90764D01*
X83364D02*
X84764D01*
X81064D02*
X82464D01*
X75064D02*
X76364D01*
X72664D02*
X74064D01*
X91464Y118438D02*
X93064D01*
X89464D02*
X91164D01*
X83164D02*
X84764D01*
X81064D02*
X82564D01*
X74664D02*
X76364D01*
X72664D02*
X74264D01*
X89464Y118338D02*
X93064D01*
X81164D02*
X84664D01*
X72764D02*
X76264D01*
X89564Y118238D02*
X92964D01*
X81164D02*
X84664D01*
X72764D02*
X76264D01*
X89664Y118138D02*
X92964D01*
X81264D02*
X84564D01*
X72864D02*
X76164D01*
X89664Y118038D02*
X92864D01*
X81364D02*
X84464D01*
X72964D02*
X76064D01*
X89764Y117938D02*
X92764D01*
X81364D02*
X84464D01*
X72964D02*
X76064D01*
X89864Y117838D02*
X92664D01*
X81464D02*
X84364D01*
X73064D02*
X75964D01*
X89964Y117738D02*
X92564D01*
X81564D02*
X84264D01*
X73164D02*
X75864D01*
X90064Y117638D02*
X92464D01*
X81664D02*
X84164D01*
X73364D02*
X75764D01*
X90264Y117538D02*
X92364D01*
X81864D02*
X83964D01*
X73464D02*
X75564D01*
X90364Y117438D02*
X92164D01*
X81964D02*
X83864D01*
X73664D02*
X75464D01*
X90564Y117338D02*
X91964D01*
X82164D02*
X83664D01*
X73764D02*
X75264D01*
X90664Y117238D02*
X91864D01*
X82364D02*
X83464D01*
X73964D02*
X75064D01*
X90664Y117138D02*
X91864D01*
X82364D02*
X83464D01*
X73964D02*
X75064D01*
X90664Y117038D02*
X91864D01*
X82364D02*
X83464D01*
X73964D02*
X75064D01*
X90664Y116938D02*
X91864D01*
X82364D02*
X83464D01*
X73964D02*
X75064D01*
X90664Y116838D02*
X91864D01*
X82364D02*
X83464D01*
X73964D02*
X75064D01*
X90664Y116738D02*
X91864D01*
X82364D02*
X83464D01*
X73964D02*
X75064D01*
X90664Y116638D02*
X91864D01*
X82364D02*
X83464D01*
X73964D02*
X75064D01*
X90664Y116538D02*
X91864D01*
X82364D02*
X83464D01*
X73964D02*
X75064D01*
X90664Y116438D02*
X91864D01*
X82364D02*
X83464D01*
X73964D02*
X75064D01*
X90664Y116338D02*
X91864D01*
X82364D02*
X83464D01*
X73964D02*
X75064D01*
X90664Y116238D02*
X91864D01*
X82364D02*
X83464D01*
X73964D02*
X75064D01*
X90664Y116138D02*
X91864D01*
X82364D02*
X83464D01*
X73964D02*
X75064D01*
X90664Y116038D02*
X91864D01*
X82364D02*
X83464D01*
X73964D02*
X75064D01*
X90664Y115938D02*
X91864D01*
X82364D02*
X83464D01*
X73964D02*
X75064D01*
X90664Y115838D02*
X91864D01*
X82364D02*
X83464D01*
X73964D02*
X75064D01*
X90664Y115738D02*
X91864D01*
X82364D02*
X83464D01*
X73964D02*
X75064D01*
X90664Y115638D02*
X91864D01*
X82364D02*
X83464D01*
X73964D02*
X75064D01*
X90664Y115538D02*
X91864D01*
X82364D02*
X83464D01*
X73964D02*
X75064D01*
X90664Y115438D02*
X91764D01*
X82364D02*
X83464D01*
X73964D02*
X75064D01*
X90664Y115338D02*
X91764D01*
X82364D02*
X83464D01*
X73964D02*
X75064D01*
X90564Y115238D02*
X91764D01*
X82364D02*
X83464D01*
X73964D02*
X75164D01*
X90464Y115138D02*
X91764D01*
X82364D02*
X83464D01*
X73964D02*
X75264D01*
X90364Y115038D02*
X91764D01*
X82364D02*
X83464D01*
X73964D02*
X75364D01*
X90264Y114938D02*
X91764D01*
X82364D02*
X83464D01*
X73964D02*
X75464D01*
X90264Y114838D02*
X91764D01*
X82364D02*
X83464D01*
X73964D02*
X75564D01*
X90064Y114738D02*
X91764D01*
X82364D02*
X83464D01*
X74064D02*
X75664D01*
X90064Y114638D02*
X91664D01*
X82364D02*
X83464D01*
X74164D02*
X75764D01*
X89964Y114538D02*
X91564D01*
X82364D02*
X83464D01*
X74264D02*
X75864D01*
X89864Y114438D02*
X91464D01*
X82364D02*
X83464D01*
X74364D02*
X75964D01*
X89764Y114338D02*
X91364D01*
X82364D02*
X83464D01*
X74464D02*
X76064D01*
X89664Y114238D02*
X91264D01*
X82364D02*
X83464D01*
X74564D02*
X76164D01*
X89564Y114138D02*
X91164D01*
X82364D02*
X83464D01*
X74664D02*
X76264D01*
X89464Y114038D02*
X91064D01*
X82364D02*
X83464D01*
X74764D02*
X76364D01*
X89364Y113938D02*
X90964D01*
X82364D02*
X83464D01*
X74864D02*
X76464D01*
X89264Y113838D02*
X90864D01*
X82364D02*
X83464D01*
X74964D02*
X76564D01*
X89164Y113738D02*
X90764D01*
X82364D02*
X83464D01*
X75064D02*
X76664D01*
X89064Y113638D02*
X90664D01*
X82364D02*
X83464D01*
X75164D02*
X76764D01*
X88964Y113538D02*
X90564D01*
X82364D02*
X83464D01*
X75264D02*
X76864D01*
X88864Y113438D02*
X90464D01*
X82364D02*
X83464D01*
X75364D02*
X76964D01*
X88764Y113338D02*
X90364D01*
X82364D02*
X83464D01*
X75464D02*
X77064D01*
X88664Y113238D02*
X90264D01*
X82364D02*
X83464D01*
X75564D02*
X77164D01*
X88564Y113138D02*
X90164D01*
X82364D02*
X83464D01*
X75664D02*
X77264D01*
X88464Y113038D02*
X90064D01*
X82364D02*
X83464D01*
X75764D02*
X77364D01*
X88364Y112938D02*
X89964D01*
X82364D02*
X83464D01*
X75864D02*
X77464D01*
X88264Y112838D02*
X89864D01*
X82364D02*
X83464D01*
X75964D02*
X77564D01*
X88164Y112738D02*
X89764D01*
X82364D02*
X83464D01*
X76064D02*
X77664D01*
X88064Y112638D02*
X89664D01*
X82364D02*
X83464D01*
X76164D02*
X77764D01*
X87964Y112538D02*
X89564D01*
X82364D02*
X83464D01*
X76264D02*
X77864D01*
X87864Y112438D02*
X89464D01*
X82364D02*
X83464D01*
X76364D02*
X77964D01*
X87764Y112338D02*
X89364D01*
X82364D02*
X83464D01*
X76464D02*
X78064D01*
X87664Y112238D02*
X89264D01*
X82364D02*
X83464D01*
X76464D02*
X78164D01*
X87564Y112138D02*
X89164D01*
X82364D02*
X83464D01*
X76564D02*
X78264D01*
X87464Y112038D02*
X89064D01*
X82364D02*
X83464D01*
X76664D02*
X78364D01*
X87364Y111938D02*
X88964D01*
X82364D02*
X83464D01*
X76764D02*
X78464D01*
X87264Y111838D02*
X88864D01*
X82364D02*
X83464D01*
X76864D02*
X78564D01*
X87164Y111738D02*
X88764D01*
X82364D02*
X83464D01*
X76964D02*
X78664D01*
X87064Y111638D02*
X88664D01*
X82364D02*
X83464D01*
X77064D02*
X78764D01*
X86964Y111538D02*
X88564D01*
X82364D02*
X83464D01*
X77164D02*
X78864D01*
X39964D02*
X40764D01*
X155264Y111438D02*
X156264D01*
X86864D02*
X88464D01*
X82364D02*
X83464D01*
X77264D02*
X78964D01*
X39664D02*
X41064D01*
X154964Y111338D02*
X156564D01*
X86764D02*
X88364D01*
X82364D02*
X83464D01*
X77364D02*
X79064D01*
X39464D02*
X41264D01*
X154764Y111238D02*
X156764D01*
X86664D02*
X88264D01*
X82364D02*
X83464D01*
X77464D02*
X79164D01*
X39264D02*
X41464D01*
X154664Y111138D02*
X156864D01*
X86564D02*
X88164D01*
X82364D02*
X83464D01*
X77564D02*
X79264D01*
X39164D02*
X41564D01*
X154564Y111038D02*
X157064D01*
X86464D02*
X88064D01*
X82364D02*
X83464D01*
X77664D02*
X79364D01*
X39064D02*
X41664D01*
X154364Y110938D02*
X157164D01*
X86464D02*
X87964D01*
X82364D02*
X83464D01*
X77764D02*
X79364D01*
X38964D02*
X41764D01*
X154364Y110838D02*
X157264D01*
X86464D02*
X87864D01*
X82364D02*
X83464D01*
X77864D02*
X79364D01*
X38864D02*
X41864D01*
X154264Y110738D02*
X157364D01*
X86464D02*
X87764D01*
X82364D02*
X83464D01*
X77964D02*
X79364D01*
X38764D02*
X41964D01*
X154164Y110638D02*
X157364D01*
X86464D02*
X87664D01*
X82364D02*
X83464D01*
X78064D02*
X79364D01*
X38664D02*
X42064D01*
X154064Y110538D02*
X157464D01*
X86464D02*
X87564D01*
X82364D02*
X83464D01*
X78164D02*
X79364D01*
X38664D02*
X42064D01*
X154064Y110438D02*
X157464D01*
X86464D02*
X87564D01*
X82364D02*
X83464D01*
X78164D02*
X79364D01*
X38564D02*
X42164D01*
X153964Y110338D02*
X157564D01*
X86464D02*
X87564D01*
X82364D02*
X83464D01*
X78164D02*
X79364D01*
X40664D02*
X42164D01*
X38564D02*
X40064D01*
X156164Y110238D02*
X157564D01*
X95464D02*
X155364D01*
X86464D02*
X87564D01*
X82364D02*
X83464D01*
X78164D02*
X79364D01*
X40864D02*
X42264D01*
X38464D02*
X39864D01*
X156264Y110138D02*
X157664D01*
X95364D02*
X155264D01*
X86464D02*
X87564D01*
X82364D02*
X83464D01*
X78164D02*
X79364D01*
X40964D02*
X70464D01*
X38464D02*
X39764D01*
X156364Y110038D02*
X157664D01*
X95264D02*
X155164D01*
X86464D02*
X87564D01*
X82364D02*
X83464D01*
X78164D02*
X79364D01*
X41064D02*
X70564D01*
X38464D02*
X39664D01*
X156464Y109938D02*
X157664D01*
X95264D02*
X155064D01*
X86464D02*
X87564D01*
X82364D02*
X83464D01*
X78164D02*
X79364D01*
X41064D02*
X70564D01*
X38464D02*
X39664D01*
X156564Y109838D02*
X157764D01*
X95164D02*
X155064D01*
X86464D02*
X87564D01*
X82364D02*
X83464D01*
X78164D02*
X79364D01*
X41164D02*
X70664D01*
X38464D02*
X39564D01*
X156564Y109738D02*
X157764D01*
X95164D02*
X154964D01*
X86464D02*
X87564D01*
X82364D02*
X83464D01*
X78164D02*
X79364D01*
X41164D02*
X70764D01*
X38464D02*
X39564D01*
X156564Y109638D02*
X157764D01*
X95064D02*
X154964D01*
X86464D02*
X87564D01*
X82364D02*
X83464D01*
X78164D02*
X79364D01*
X41164D02*
X70764D01*
X38464D02*
X39564D01*
X156564Y109538D02*
X157764D01*
X94964D02*
X154964D01*
X86464D02*
X87564D01*
X82364D02*
X83464D01*
X78164D02*
X79364D01*
X41164D02*
X70864D01*
X38464D02*
X39564D01*
X156564Y109438D02*
X157764D01*
X94964D02*
X154964D01*
X86464D02*
X87564D01*
X82364D02*
X83464D01*
X78164D02*
X79364D01*
X41164D02*
X70864D01*
X38464D02*
X39564D01*
X156564Y109338D02*
X157764D01*
X94864D02*
X154964D01*
X86464D02*
X87564D01*
X82364D02*
X83464D01*
X78164D02*
X79364D01*
X41164D02*
X70964D01*
X38464D02*
X39564D01*
X156564Y109238D02*
X157764D01*
X94864D02*
X155064D01*
X86464D02*
X87564D01*
X82364D02*
X83464D01*
X78164D02*
X79364D01*
X41064D02*
X70964D01*
X38464D02*
X39664D01*
X156464Y109138D02*
X157664D01*
X94764D02*
X155064D01*
X86464D02*
X87564D01*
X82364D02*
X83464D01*
X78164D02*
X79364D01*
X41064D02*
X71064D01*
X38464D02*
X39664D01*
X156464Y109038D02*
X157664D01*
X153864D02*
X155064D01*
X94764D02*
X96064D01*
X86464D02*
X87564D01*
X82364D02*
X83464D01*
X78164D02*
X79364D01*
X40964D02*
X71164D01*
X38464D02*
X39764D01*
X156364Y108938D02*
X157664D01*
X153864D02*
X155164D01*
X94664D02*
X95964D01*
X86464D02*
X87564D01*
X82364D02*
X83464D01*
X78164D02*
X79364D01*
X69864D02*
X71164D01*
X40864D02*
X42264D01*
X38464D02*
X39864D01*
X156264Y108838D02*
X157664D01*
X153864D02*
X155264D01*
X94564D02*
X95964D01*
X86464D02*
X87564D01*
X82364D02*
X83464D01*
X78264D02*
X79364D01*
X69964D02*
X71264D01*
X40764D02*
X42164D01*
X38564D02*
X39964D01*
X156064Y108738D02*
X157564D01*
X153964D02*
X155464D01*
X94564D02*
X95864D01*
X86464D02*
X87564D01*
X82364D02*
X83464D01*
X78264D02*
X79364D01*
X69964D02*
X71264D01*
X38564D02*
X42164D01*
X153964Y108638D02*
X157564D01*
X94464D02*
X95864D01*
X86464D02*
X87564D01*
X82364D02*
X83464D01*
X78264D02*
X79364D01*
X70064D02*
X71364D01*
X38664D02*
X42064D01*
X154064Y108538D02*
X157464D01*
X94464D02*
X95764D01*
X70064D02*
X71364D01*
X38664D02*
X42064D01*
X154164Y108438D02*
X157464D01*
X94364D02*
X95664D01*
X70164D02*
X71464D01*
X38764D02*
X41964D01*
X154164Y108338D02*
X157364D01*
X94364D02*
X95664D01*
X70164D02*
X71564D01*
X38864D02*
X41864D01*
X154264Y108238D02*
X157264D01*
X94264D02*
X95564D01*
X70264D02*
X71564D01*
X38964D02*
X41764D01*
X154364Y108138D02*
X157164D01*
X94164D02*
X95564D01*
X70364D02*
X71664D01*
X39064D02*
X41664D01*
X154464Y108038D02*
X157064D01*
X94164D02*
X95464D01*
X70364D02*
X71664D01*
X39164D02*
X41564D01*
X154564Y107938D02*
X156964D01*
X94064D02*
X95464D01*
X70464D02*
X71764D01*
X39264D02*
X41464D01*
X154764Y107838D02*
X156864D01*
X94064D02*
X95364D01*
X70464D02*
X71764D01*
X39464D02*
X41264D01*
X154864Y107738D02*
X156664D01*
X93964D02*
X95264D01*
X70564D02*
X71864D01*
X39564D02*
X41164D01*
X155064Y107638D02*
X156464D01*
X93964D02*
X95264D01*
X70564D02*
X71964D01*
X39964D02*
X40764D01*
X155464Y107538D02*
X156064D01*
X93864D02*
X95164D01*
X70664D02*
X71964D01*
X93764Y107438D02*
X95164D01*
X70764D02*
X72064D01*
X93764Y107338D02*
X95064D01*
X70764D02*
X72064D01*
X93664Y107238D02*
X94964D01*
X70864D02*
X72164D01*
X93664Y107138D02*
X94964D01*
X70864D02*
X72164D01*
X93564Y107038D02*
X94864D01*
X77964D02*
X87864D01*
X70964D02*
X72264D01*
X93564Y106938D02*
X94864D01*
X77764D02*
X88064D01*
X70964D02*
X72364D01*
X93464Y106838D02*
X94764D01*
X77564D02*
X88264D01*
X71064D02*
X72364D01*
X93364Y106738D02*
X94764D01*
X77464D02*
X88464D01*
X71164D02*
X72464D01*
X93364Y106638D02*
X94664D01*
X77264D02*
X88564D01*
X71164D02*
X72464D01*
X141764Y106538D02*
X143964D01*
X106264D02*
X108564D01*
X93264D02*
X94564D01*
X77164D02*
X88664D01*
X71264D02*
X72564D01*
X41264D02*
X43564D01*
X141664Y106438D02*
X144064D01*
X106264D02*
X108664D01*
X93264D02*
X94564D01*
X77164D02*
X88764D01*
X71264D02*
X72564D01*
X41264D02*
X43564D01*
X141664Y106338D02*
X144064D01*
X106264D02*
X108664D01*
X93164D02*
X94464D01*
X77064D02*
X88864D01*
X71364D02*
X72664D01*
X41164D02*
X43564D01*
X141664Y106238D02*
X144064D01*
X106264D02*
X108664D01*
X93164D02*
X94464D01*
X76964D02*
X88864D01*
X71364D02*
X72764D01*
X41164D02*
X43564D01*
X141664Y106138D02*
X144064D01*
X106264D02*
X108664D01*
X93064D02*
X94364D01*
X76864D02*
X88964D01*
X71464D02*
X72764D01*
X41164D02*
X43564D01*
X141664Y106038D02*
X144064D01*
X106264D02*
X108664D01*
X92964D02*
X94364D01*
X76864D02*
X88964D01*
X71564D02*
X72864D01*
X41164D02*
X43564D01*
X141664Y105938D02*
X144064D01*
X106264D02*
X108664D01*
X92964D02*
X94264D01*
X87564D02*
X89064D01*
X76764D02*
X78264D01*
X71564D02*
X72864D01*
X41164D02*
X43564D01*
X141664Y105838D02*
X144064D01*
X106264D02*
X108664D01*
X92864D02*
X94164D01*
X87764D02*
X89064D01*
X76764D02*
X78164D01*
X71664D02*
X72964D01*
X41164D02*
X43564D01*
X141664Y105738D02*
X144064D01*
X106264D02*
X108664D01*
X92864D02*
X94164D01*
X87864D02*
X89164D01*
X76764D02*
X77964D01*
X71664D02*
X72964D01*
X41164D02*
X43564D01*
X141664Y105638D02*
X144064D01*
X106264D02*
X108664D01*
X90664D02*
X94064D01*
X87964D02*
X89164D01*
X76664D02*
X77964D01*
X71764D02*
X73064D01*
X41164D02*
X43564D01*
X141664Y105538D02*
X144064D01*
X106264D02*
X108664D01*
X90664D02*
X94064D01*
X87964D02*
X89164D01*
X76664D02*
X77864D01*
X71764D02*
X75264D01*
X41164D02*
X43564D01*
X141664Y105438D02*
X144064D01*
X106264D02*
X108664D01*
X90664D02*
X93964D01*
X87964D02*
X89164D01*
X76664D02*
X77864D01*
X71864D02*
X75264D01*
X41164D02*
X43564D01*
X141664Y105338D02*
X144064D01*
X106264D02*
X108664D01*
X90664D02*
X93964D01*
X88064D02*
X89164D01*
X76664D02*
X77864D01*
X71964D02*
X75264D01*
X41164D02*
X43564D01*
X141664Y105238D02*
X144064D01*
X106264D02*
X108664D01*
X90664D02*
X93864D01*
X88064D02*
X89164D01*
X76664D02*
X77864D01*
X71964D02*
X75264D01*
X41164D02*
X43564D01*
X141664Y105138D02*
X144064D01*
X106264D02*
X108664D01*
X90664D02*
X93764D01*
X88064D02*
X89164D01*
X76664D02*
X77864D01*
X72064D02*
X75264D01*
X41164D02*
X43564D01*
X141664Y105038D02*
X144064D01*
X106264D02*
X108664D01*
X90664D02*
X93764D01*
X88064D02*
X89164D01*
X76664D02*
X77864D01*
X72064D02*
X75264D01*
X41164D02*
X43564D01*
X141664Y104938D02*
X144064D01*
X106264D02*
X108664D01*
X90664D02*
X93664D01*
X88064D02*
X89164D01*
X76664D02*
X77764D01*
X72164D02*
X75264D01*
X41164D02*
X43564D01*
X151264Y104838D02*
X156464D01*
X141664D02*
X144064D01*
X129464D02*
X135064D01*
X114364D02*
X120764D01*
X104264D02*
X108664D01*
X96864D02*
X99064D01*
X94564D02*
X95964D01*
X90664D02*
X93664D01*
X88064D02*
X89164D01*
X79764D02*
X85464D01*
X76664D02*
X77764D01*
X72264D02*
X75264D01*
X63664D02*
X70764D01*
X54964D02*
X57164D01*
X48664D02*
X50864D01*
X39164D02*
X43564D01*
X150664Y104738D02*
X156964D01*
X141664D02*
X144064D01*
X128964D02*
X135264D01*
X114264D02*
X121264D01*
X104064D02*
X108664D01*
X96764D02*
X99164D01*
X94464D02*
X96364D01*
X90664D02*
X93564D01*
X88064D02*
X89164D01*
X79564D02*
X85964D01*
X76664D02*
X77764D01*
X72264D02*
X75264D01*
X63164D02*
X70864D01*
X54864D02*
X57264D01*
X48564D02*
X50964D01*
X39064D02*
X43564D01*
X150364Y104638D02*
X157164D01*
X141664D02*
X144064D01*
X128764D02*
X135464D01*
X114264D02*
X121464D01*
X104064D02*
X108664D01*
X96764D02*
X99164D01*
X94464D02*
X96564D01*
X90664D02*
X93464D01*
X88064D02*
X89164D01*
X79364D02*
X86164D01*
X76664D02*
X77764D01*
X72364D02*
X75264D01*
X62964D02*
X70864D01*
X54864D02*
X57264D01*
X48564D02*
X50964D01*
X39064D02*
X43564D01*
X150164Y104538D02*
X157264D01*
X141664D02*
X144064D01*
X128564D02*
X135564D01*
X114264D02*
X121564D01*
X104064D02*
X108664D01*
X94464D02*
X99164D01*
X90664D02*
X93364D01*
X88064D02*
X89164D01*
X79264D02*
X86364D01*
X76664D02*
X77764D01*
X72364D02*
X75264D01*
X62864D02*
X70864D01*
X54864D02*
X57264D01*
X48564D02*
X50964D01*
X39064D02*
X43564D01*
X150064Y104438D02*
X157364D01*
X141664D02*
X144064D01*
X128464D02*
X135664D01*
X114264D02*
X121664D01*
X104064D02*
X108664D01*
X94464D02*
X99164D01*
X88064D02*
X89164D01*
X79164D02*
X86564D01*
X76664D02*
X77764D01*
X72564D02*
X75164D01*
X62764D02*
X70864D01*
X54864D02*
X57264D01*
X48564D02*
X50964D01*
X39064D02*
X43564D01*
X149964Y104338D02*
X157464D01*
X141664D02*
X144064D01*
X128264D02*
X135864D01*
X114264D02*
X121764D01*
X104064D02*
X108664D01*
X94464D02*
X99164D01*
X88064D02*
X89164D01*
X79064D02*
X86664D01*
X76664D02*
X77764D01*
X62664D02*
X70864D01*
X54864D02*
X57264D01*
X48564D02*
X50964D01*
X39064D02*
X43564D01*
X149864Y104238D02*
X157564D01*
X141664D02*
X144064D01*
X128164D02*
X135864D01*
X114264D02*
X121864D01*
X104064D02*
X108664D01*
X94464D02*
X99164D01*
X88064D02*
X89164D01*
X78964D02*
X86764D01*
X76664D02*
X77764D01*
X62564D02*
X70864D01*
X54864D02*
X57264D01*
X48564D02*
X50964D01*
X39064D02*
X43564D01*
X149764Y104138D02*
X157564D01*
X141664D02*
X144064D01*
X128064D02*
X135964D01*
X114264D02*
X121964D01*
X104064D02*
X108664D01*
X94464D02*
X99164D01*
X88064D02*
X89164D01*
X78964D02*
X86864D01*
X76664D02*
X77764D01*
X62464D02*
X70864D01*
X54864D02*
X57264D01*
X48564D02*
X50964D01*
X39064D02*
X43564D01*
X149664Y104038D02*
X157664D01*
X141664D02*
X144064D01*
X128064D02*
X136064D01*
X114264D02*
X122064D01*
X104064D02*
X108664D01*
X94464D02*
X99164D01*
X88064D02*
X89164D01*
X78864D02*
X86964D01*
X76664D02*
X77764D01*
X62464D02*
X70864D01*
X54864D02*
X57264D01*
X48564D02*
X50964D01*
X39064D02*
X43564D01*
X149564Y103938D02*
X157764D01*
X141664D02*
X144064D01*
X127964D02*
X136064D01*
X114264D02*
X122064D01*
X104064D02*
X108664D01*
X94464D02*
X99164D01*
X88064D02*
X89164D01*
X78764D02*
X86964D01*
X76664D02*
X77764D01*
X62364D02*
X70864D01*
X54864D02*
X57264D01*
X48564D02*
X50964D01*
X39064D02*
X43564D01*
X149564Y103838D02*
X157764D01*
X141664D02*
X144064D01*
X127864D02*
X136164D01*
X114264D02*
X122164D01*
X104064D02*
X108664D01*
X94464D02*
X99164D01*
X88064D02*
X89164D01*
X78764D02*
X87064D01*
X76664D02*
X77764D01*
X62364D02*
X70864D01*
X54864D02*
X57264D01*
X48564D02*
X50964D01*
X39064D02*
X43564D01*
X149464Y103738D02*
X157764D01*
X141664D02*
X144064D01*
X127864D02*
X136164D01*
X114264D02*
X122164D01*
X104064D02*
X108664D01*
X94464D02*
X99164D01*
X88064D02*
X89164D01*
X78764D02*
X87164D01*
X76664D02*
X77764D01*
X62264D02*
X70864D01*
X54864D02*
X57264D01*
X48564D02*
X50964D01*
X39064D02*
X43564D01*
X149364Y103638D02*
X157864D01*
X141664D02*
X144064D01*
X127764D02*
X136164D01*
X114264D02*
X122164D01*
X104064D02*
X108664D01*
X94464D02*
X99164D01*
X88064D02*
X89164D01*
X78664D02*
X87164D01*
X76664D02*
X77764D01*
X62264D02*
X70864D01*
X54864D02*
X57264D01*
X48564D02*
X50964D01*
X39064D02*
X43564D01*
X149364Y103538D02*
X157864D01*
X141664D02*
X144064D01*
X127764D02*
X136264D01*
X114264D02*
X122264D01*
X104064D02*
X108664D01*
X94464D02*
X99164D01*
X88064D02*
X89164D01*
X78664D02*
X87264D01*
X76664D02*
X77764D01*
X62264D02*
X70864D01*
X54864D02*
X57264D01*
X48564D02*
X50964D01*
X39064D02*
X43564D01*
X149364Y103438D02*
X157864D01*
X141664D02*
X144064D01*
X127664D02*
X136264D01*
X114264D02*
X122264D01*
X104064D02*
X108664D01*
X94464D02*
X99164D01*
X88064D02*
X89164D01*
X78664D02*
X87264D01*
X76664D02*
X77764D01*
X62264D02*
X70864D01*
X54864D02*
X57264D01*
X48564D02*
X50964D01*
X39064D02*
X43564D01*
X149264Y103338D02*
X157864D01*
X141664D02*
X144064D01*
X127664D02*
X136264D01*
X114264D02*
X122264D01*
X104064D02*
X108664D01*
X94464D02*
X99164D01*
X88064D02*
X89164D01*
X78664D02*
X87264D01*
X76664D02*
X77764D01*
X62164D02*
X70864D01*
X54864D02*
X57264D01*
X48564D02*
X50964D01*
X39064D02*
X43564D01*
X149264Y103238D02*
X157864D01*
X141664D02*
X144064D01*
X127664D02*
X136264D01*
X114264D02*
X122264D01*
X104064D02*
X108664D01*
X94464D02*
X99164D01*
X88064D02*
X89164D01*
X78664D02*
X87264D01*
X76664D02*
X77764D01*
X62164D02*
X70864D01*
X54864D02*
X57264D01*
X48564D02*
X50964D01*
X39064D02*
X43564D01*
X149264Y103138D02*
X157864D01*
X141664D02*
X144064D01*
X127664D02*
X136264D01*
X114264D02*
X122264D01*
X104064D02*
X108664D01*
X94464D02*
X99164D01*
X88064D02*
X89164D01*
X78664D02*
X87264D01*
X76664D02*
X77764D01*
X62164D02*
X70864D01*
X54864D02*
X57264D01*
X48564D02*
X50964D01*
X39064D02*
X43564D01*
X149264Y103038D02*
X157864D01*
X141664D02*
X144064D01*
X127664D02*
X136264D01*
X114264D02*
X122264D01*
X104064D02*
X108664D01*
X94464D02*
X99164D01*
X88064D02*
X89164D01*
X78664D02*
X87364D01*
X76664D02*
X77764D01*
X62164D02*
X70864D01*
X54864D02*
X57264D01*
X48564D02*
X50964D01*
X39064D02*
X43564D01*
X149264Y102938D02*
X157864D01*
X141664D02*
X144064D01*
X127664D02*
X136264D01*
X114264D02*
X122264D01*
X104064D02*
X108664D01*
X94464D02*
X99164D01*
X88064D02*
X89164D01*
X78664D02*
X87364D01*
X76664D02*
X77764D01*
X62164D02*
X70864D01*
X54864D02*
X57264D01*
X48564D02*
X50964D01*
X39064D02*
X43564D01*
X149264Y102838D02*
X157864D01*
X141664D02*
X144064D01*
X127664D02*
X136264D01*
X114264D02*
X122264D01*
X104064D02*
X108664D01*
X94464D02*
X99164D01*
X88064D02*
X89164D01*
X78664D02*
X87364D01*
X76664D02*
X77764D01*
X62164D02*
X70864D01*
X54864D02*
X57264D01*
X48564D02*
X50964D01*
X39064D02*
X43564D01*
X149264Y102738D02*
X157864D01*
X141664D02*
X144064D01*
X127564D02*
X136264D01*
X114264D02*
X122264D01*
X104164D02*
X108664D01*
X94464D02*
X99164D01*
X88064D02*
X89164D01*
X78664D02*
X87364D01*
X76664D02*
X77764D01*
X62164D02*
X70864D01*
X54864D02*
X57264D01*
X48564D02*
X50964D01*
X39064D02*
X43564D01*
X149264Y102638D02*
X157864D01*
X141664D02*
X144064D01*
X127564D02*
X136264D01*
X114264D02*
X122264D01*
X104164D02*
X108664D01*
X94464D02*
X99164D01*
X88064D02*
X89164D01*
X78664D02*
X87364D01*
X76664D02*
X77764D01*
X62164D02*
X70864D01*
X54864D02*
X57264D01*
X48564D02*
X50964D01*
X39064D02*
X43564D01*
X149264Y102538D02*
X157864D01*
X141664D02*
X144064D01*
X127564D02*
X136264D01*
X114264D02*
X122264D01*
X104164D02*
X108664D01*
X94564D02*
X99164D01*
X88064D02*
X89164D01*
X78664D02*
X87364D01*
X76664D02*
X77764D01*
X62164D02*
X70864D01*
X54864D02*
X57264D01*
X48564D02*
X50964D01*
X39064D02*
X43564D01*
X155464Y102438D02*
X157864D01*
X149264D02*
X151664D01*
X141664D02*
X144064D01*
X133864D02*
X136264D01*
X127564D02*
X130064D01*
X119864D02*
X122264D01*
X106264D02*
X108664D01*
X96764D02*
X99164D01*
X88064D02*
X89164D01*
X84964D02*
X87364D01*
X78664D02*
X81064D01*
X76664D02*
X77764D01*
X68464D02*
X70864D01*
X62164D02*
X64564D01*
X54864D02*
X57264D01*
X48564D02*
X50964D01*
X41164D02*
X43564D01*
X155464Y102338D02*
X157864D01*
X149264D02*
X151664D01*
X141664D02*
X144064D01*
X133864D02*
X136264D01*
X127564D02*
X130064D01*
X119864D02*
X122264D01*
X106264D02*
X108664D01*
X96764D02*
X99164D01*
X88064D02*
X89164D01*
X84964D02*
X87364D01*
X78664D02*
X81064D01*
X76664D02*
X77764D01*
X68464D02*
X70864D01*
X62164D02*
X64564D01*
X54864D02*
X57264D01*
X48564D02*
X50964D01*
X41164D02*
X43564D01*
X155464Y102238D02*
X157864D01*
X149264D02*
X151664D01*
X141664D02*
X144064D01*
X133864D02*
X136364D01*
X127564D02*
X130064D01*
X119864D02*
X122264D01*
X106264D02*
X108664D01*
X96764D02*
X99164D01*
X88064D02*
X89164D01*
X84964D02*
X87364D01*
X78664D02*
X81064D01*
X76664D02*
X77764D01*
X68464D02*
X70864D01*
X62164D02*
X64564D01*
X54864D02*
X57264D01*
X48564D02*
X50964D01*
X41164D02*
X43564D01*
X155464Y102138D02*
X157864D01*
X149264D02*
X151664D01*
X141664D02*
X144064D01*
X133864D02*
X136364D01*
X127564D02*
X130064D01*
X119864D02*
X122264D01*
X106264D02*
X108664D01*
X96764D02*
X99164D01*
X88064D02*
X89164D01*
X84964D02*
X87364D01*
X78664D02*
X81064D01*
X76664D02*
X77764D01*
X68464D02*
X70864D01*
X62164D02*
X64564D01*
X54864D02*
X57264D01*
X48564D02*
X50964D01*
X41164D02*
X43564D01*
X155464Y102038D02*
X157864D01*
X149264D02*
X151664D01*
X141664D02*
X144064D01*
X133864D02*
X136364D01*
X127564D02*
X130064D01*
X119864D02*
X122264D01*
X106264D02*
X108664D01*
X96764D02*
X99164D01*
X88064D02*
X89164D01*
X84964D02*
X87364D01*
X78664D02*
X81064D01*
X76664D02*
X77764D01*
X68464D02*
X70864D01*
X62164D02*
X64564D01*
X54864D02*
X57264D01*
X48564D02*
X50964D01*
X41164D02*
X43564D01*
X149264Y101938D02*
X157864D01*
X141664D02*
X144064D01*
X119864D02*
X122264D01*
X106264D02*
X108664D01*
X96764D02*
X99164D01*
X88064D02*
X89164D01*
X84964D02*
X87364D01*
X78664D02*
X81064D01*
X76664D02*
X77764D01*
X68464D02*
X70864D01*
X62164D02*
X64564D01*
X54864D02*
X57264D01*
X48564D02*
X50964D01*
X41164D02*
X43564D01*
X149264Y101838D02*
X157864D01*
X141664D02*
X144064D01*
X127564D02*
X136364D01*
X119864D02*
X122264D01*
X106264D02*
X108664D01*
X96764D02*
X99164D01*
X88064D02*
X89164D01*
X84964D02*
X87364D01*
X78664D02*
X81064D01*
X76664D02*
X77764D01*
X68464D02*
X70864D01*
X62164D02*
X64564D01*
X54864D02*
X57264D01*
X48564D02*
X50964D01*
X41164D02*
X43564D01*
X149264Y101738D02*
X157864D01*
X141664D02*
X144064D01*
X127564D02*
X136364D01*
X119864D02*
X122264D01*
X106264D02*
X108664D01*
X96764D02*
X99164D01*
X88064D02*
X89164D01*
X84964D02*
X87364D01*
X78664D02*
X81064D01*
X76664D02*
X77764D01*
X68464D02*
X70864D01*
X62164D02*
X64564D01*
X54864D02*
X57264D01*
X48564D02*
X50964D01*
X41164D02*
X43564D01*
X149264Y101638D02*
X157864D01*
X141664D02*
X144064D01*
X127564D02*
X136364D01*
X119864D02*
X122264D01*
X106264D02*
X108664D01*
X96764D02*
X99164D01*
X88064D02*
X89164D01*
X84964D02*
X87364D01*
X78664D02*
X81064D01*
X76664D02*
X77764D01*
X68464D02*
X70864D01*
X62164D02*
X64564D01*
X54864D02*
X57264D01*
X48564D02*
X50964D01*
X41164D02*
X43564D01*
X149264Y101538D02*
X157864D01*
X141664D02*
X144064D01*
X127564D02*
X136364D01*
X119864D02*
X122264D01*
X106264D02*
X108664D01*
X96764D02*
X99164D01*
X88064D02*
X89164D01*
X84964D02*
X87364D01*
X78664D02*
X81064D01*
X76664D02*
X77764D01*
X68464D02*
X70864D01*
X62164D02*
X64564D01*
X54864D02*
X57264D01*
X48564D02*
X50964D01*
X41164D02*
X43564D01*
X149264Y101438D02*
X157864D01*
X141664D02*
X144064D01*
X127564D02*
X136364D01*
X119864D02*
X122264D01*
X106264D02*
X108664D01*
X96764D02*
X99164D01*
X88064D02*
X89164D01*
X84964D02*
X87364D01*
X78664D02*
X81064D01*
X76664D02*
X77764D01*
X68464D02*
X70864D01*
X62164D02*
X64564D01*
X54864D02*
X57264D01*
X48564D02*
X50964D01*
X41164D02*
X43564D01*
X149264Y101338D02*
X157864D01*
X141664D02*
X144064D01*
X127564D02*
X136364D01*
X119864D02*
X122264D01*
X106264D02*
X108664D01*
X96764D02*
X99164D01*
X88064D02*
X89164D01*
X84964D02*
X87364D01*
X78664D02*
X81064D01*
X76664D02*
X77764D01*
X68464D02*
X70864D01*
X62164D02*
X64564D01*
X54864D02*
X57264D01*
X48564D02*
X50964D01*
X41164D02*
X43564D01*
X149264Y101238D02*
X157864D01*
X141664D02*
X144064D01*
X127564D02*
X136364D01*
X119864D02*
X122264D01*
X106264D02*
X108664D01*
X96764D02*
X99164D01*
X88064D02*
X89164D01*
X84964D02*
X87364D01*
X78664D02*
X81064D01*
X76664D02*
X77764D01*
X68464D02*
X70864D01*
X62164D02*
X64564D01*
X54864D02*
X57264D01*
X48564D02*
X50964D01*
X41164D02*
X43564D01*
X149264Y101138D02*
X157864D01*
X141664D02*
X144064D01*
X127564D02*
X136364D01*
X119864D02*
X122264D01*
X106264D02*
X108664D01*
X96764D02*
X99264D01*
X88064D02*
X89164D01*
X84964D02*
X87364D01*
X78664D02*
X81064D01*
X76664D02*
X77764D01*
X68464D02*
X70864D01*
X62164D02*
X64564D01*
X54864D02*
X57264D01*
X48564D02*
X50964D01*
X41164D02*
X43564D01*
X149264Y101038D02*
X157864D01*
X141664D02*
X144064D01*
X127564D02*
X136364D01*
X119864D02*
X122264D01*
X106264D02*
X108664D01*
X96764D02*
X99264D01*
X88064D02*
X89164D01*
X84964D02*
X87364D01*
X78664D02*
X81064D01*
X76664D02*
X77764D01*
X68464D02*
X70864D01*
X62164D02*
X64564D01*
X54864D02*
X57264D01*
X48564D02*
X50964D01*
X41164D02*
X43564D01*
X149264Y100938D02*
X157864D01*
X141664D02*
X144064D01*
X127564D02*
X136364D01*
X119864D02*
X122264D01*
X106264D02*
X108664D01*
X96764D02*
X99264D01*
X88064D02*
X89164D01*
X84964D02*
X87364D01*
X78664D02*
X81064D01*
X76664D02*
X77764D01*
X68464D02*
X70864D01*
X62164D02*
X64564D01*
X54864D02*
X57264D01*
X48564D02*
X50964D01*
X41164D02*
X43564D01*
X149264Y100838D02*
X157864D01*
X141664D02*
X144064D01*
X127564D02*
X136364D01*
X119864D02*
X122264D01*
X106264D02*
X108664D01*
X96764D02*
X99264D01*
X88064D02*
X89164D01*
X84964D02*
X87364D01*
X78664D02*
X81064D01*
X76664D02*
X77764D01*
X68464D02*
X70864D01*
X62164D02*
X64564D01*
X54864D02*
X57264D01*
X48564D02*
X50964D01*
X41164D02*
X43564D01*
X149264Y100738D02*
X157864D01*
X141664D02*
X144064D01*
X127564D02*
X136364D01*
X119864D02*
X122264D01*
X106264D02*
X108664D01*
X96764D02*
X99264D01*
X88064D02*
X89164D01*
X84964D02*
X87364D01*
X78664D02*
X81064D01*
X76664D02*
X77764D01*
X68464D02*
X70864D01*
X62164D02*
X64564D01*
X54864D02*
X57264D01*
X48564D02*
X50964D01*
X41164D02*
X43564D01*
X149264Y100638D02*
X157864D01*
X141664D02*
X144064D01*
X127564D02*
X136364D01*
X119864D02*
X122264D01*
X106264D02*
X108664D01*
X96764D02*
X99264D01*
X88064D02*
X89164D01*
X84964D02*
X87364D01*
X78664D02*
X81064D01*
X76664D02*
X77764D01*
X68464D02*
X70864D01*
X62164D02*
X64564D01*
X54864D02*
X57264D01*
X48564D02*
X50964D01*
X41164D02*
X43564D01*
X149264Y100538D02*
X157864D01*
X141664D02*
X144064D01*
X127564D02*
X136364D01*
X119864D02*
X122264D01*
X106264D02*
X108664D01*
X96764D02*
X99264D01*
X88064D02*
X89164D01*
X84964D02*
X87364D01*
X78664D02*
X81064D01*
X76664D02*
X77764D01*
X68464D02*
X70864D01*
X62164D02*
X64564D01*
X54864D02*
X57264D01*
X48564D02*
X50964D01*
X41164D02*
X43564D01*
X149264Y100438D02*
X157864D01*
X141664D02*
X144064D01*
X127564D02*
X136364D01*
X119864D02*
X122264D01*
X106264D02*
X108664D01*
X96764D02*
X99264D01*
X88064D02*
X89164D01*
X84964D02*
X87364D01*
X78664D02*
X81064D01*
X76664D02*
X77764D01*
X68464D02*
X70864D01*
X62164D02*
X64564D01*
X54864D02*
X57264D01*
X48564D02*
X50964D01*
X41164D02*
X43564D01*
X149264Y100338D02*
X157864D01*
X141664D02*
X144064D01*
X127564D02*
X136264D01*
X119864D02*
X122264D01*
X106264D02*
X108664D01*
X96764D02*
X99264D01*
X88064D02*
X89164D01*
X84964D02*
X87364D01*
X78664D02*
X81064D01*
X76664D02*
X77764D01*
X68464D02*
X70864D01*
X62164D02*
X64564D01*
X54864D02*
X57264D01*
X48564D02*
X50964D01*
X41164D02*
X43564D01*
X149264Y100238D02*
X157864D01*
X141664D02*
X144064D01*
X127564D02*
X136264D01*
X119864D02*
X122264D01*
X106264D02*
X108664D01*
X96764D02*
X99164D01*
X88064D02*
X89164D01*
X84964D02*
X87364D01*
X78664D02*
X81064D01*
X76664D02*
X77764D01*
X68464D02*
X70864D01*
X62164D02*
X64564D01*
X54864D02*
X57264D01*
X48564D02*
X50964D01*
X41164D02*
X43564D01*
X149264Y100138D02*
X157864D01*
X141664D02*
X144064D01*
X127564D02*
X136264D01*
X119864D02*
X122264D01*
X106264D02*
X108664D01*
X96764D02*
X99164D01*
X88064D02*
X89164D01*
X84964D02*
X87364D01*
X78664D02*
X81064D01*
X76664D02*
X77764D01*
X68464D02*
X70864D01*
X62164D02*
X64564D01*
X54864D02*
X57264D01*
X48564D02*
X50964D01*
X41164D02*
X43564D01*
X149264Y100038D02*
X157864D01*
X141664D02*
X144064D01*
X127564D02*
X136264D01*
X119864D02*
X122264D01*
X106264D02*
X108664D01*
X96764D02*
X99164D01*
X88064D02*
X89164D01*
X84964D02*
X87364D01*
X78664D02*
X81064D01*
X76664D02*
X77764D01*
X68464D02*
X70864D01*
X62164D02*
X64564D01*
X54864D02*
X57264D01*
X48564D02*
X50964D01*
X41164D02*
X43564D01*
X149264Y99938D02*
X157864D01*
X141664D02*
X144064D01*
X127564D02*
X136264D01*
X119864D02*
X122264D01*
X106264D02*
X108664D01*
X96764D02*
X99164D01*
X88064D02*
X89164D01*
X84964D02*
X87364D01*
X78664D02*
X81064D01*
X76664D02*
X77764D01*
X68464D02*
X70864D01*
X62164D02*
X64564D01*
X54864D02*
X57264D01*
X48564D02*
X50964D01*
X41164D02*
X43564D01*
X149264Y99838D02*
X157864D01*
X141664D02*
X144064D01*
X127664D02*
X136264D01*
X119864D02*
X122264D01*
X106264D02*
X108664D01*
X96764D02*
X99164D01*
X88064D02*
X89164D01*
X84964D02*
X87364D01*
X78664D02*
X81064D01*
X76664D02*
X77764D01*
X68464D02*
X70864D01*
X62164D02*
X64564D01*
X54864D02*
X57264D01*
X48564D02*
X50964D01*
X41164D02*
X43564D01*
X155464Y99738D02*
X157864D01*
X141664D02*
X144064D01*
X133864D02*
X136264D01*
X119864D02*
X122264D01*
X106264D02*
X108664D01*
X96764D02*
X99164D01*
X88064D02*
X89164D01*
X84964D02*
X87364D01*
X78664D02*
X81064D01*
X76664D02*
X77764D01*
X68464D02*
X70864D01*
X62164D02*
X64564D01*
X54864D02*
X57264D01*
X48564D02*
X50964D01*
X41164D02*
X43564D01*
X155464Y99638D02*
X157864D01*
X141664D02*
X144064D01*
X133864D02*
X136264D01*
X119864D02*
X122264D01*
X106264D02*
X108664D01*
X96764D02*
X99164D01*
X88064D02*
X89164D01*
X84964D02*
X87364D01*
X78664D02*
X81064D01*
X76664D02*
X77764D01*
X68464D02*
X70864D01*
X62164D02*
X64564D01*
X54864D02*
X57264D01*
X48564D02*
X50964D01*
X41164D02*
X43564D01*
X155464Y99538D02*
X157864D01*
X141664D02*
X144064D01*
X133864D02*
X136264D01*
X119864D02*
X122264D01*
X106264D02*
X108664D01*
X96764D02*
X99164D01*
X88064D02*
X89164D01*
X84964D02*
X87364D01*
X78664D02*
X81064D01*
X76664D02*
X77764D01*
X68464D02*
X70864D01*
X62164D02*
X64564D01*
X54864D02*
X57264D01*
X48564D02*
X50964D01*
X41164D02*
X43564D01*
X155464Y99438D02*
X157864D01*
X141664D02*
X144064D01*
X133864D02*
X136264D01*
X119864D02*
X122264D01*
X106264D02*
X108664D01*
X96764D02*
X99164D01*
X88064D02*
X89164D01*
X84964D02*
X87364D01*
X78664D02*
X81064D01*
X76664D02*
X77764D01*
X68464D02*
X70864D01*
X62164D02*
X64564D01*
X54864D02*
X57264D01*
X48564D02*
X50964D01*
X41164D02*
X43564D01*
X155464Y99338D02*
X157864D01*
X141664D02*
X144064D01*
X133864D02*
X136264D01*
X119864D02*
X122264D01*
X106264D02*
X108664D01*
X96764D02*
X99164D01*
X88064D02*
X89164D01*
X84964D02*
X87364D01*
X78664D02*
X81064D01*
X76664D02*
X77764D01*
X68464D02*
X70864D01*
X62164D02*
X64564D01*
X54864D02*
X57264D01*
X48564D02*
X50964D01*
X41164D02*
X43564D01*
X155464Y99238D02*
X157864D01*
X141664D02*
X144064D01*
X133864D02*
X136264D01*
X119864D02*
X122264D01*
X106264D02*
X108664D01*
X96764D02*
X99164D01*
X88064D02*
X89164D01*
X84964D02*
X87364D01*
X78664D02*
X81064D01*
X76664D02*
X77764D01*
X68464D02*
X70864D01*
X62164D02*
X64564D01*
X54864D02*
X57264D01*
X48564D02*
X50964D01*
X41164D02*
X43564D01*
X155464Y99138D02*
X157864D01*
X141664D02*
X144064D01*
X133864D02*
X136264D01*
X119864D02*
X122264D01*
X106264D02*
X108664D01*
X96764D02*
X99164D01*
X88064D02*
X89164D01*
X84964D02*
X87364D01*
X78664D02*
X81064D01*
X76664D02*
X77764D01*
X68464D02*
X70864D01*
X62164D02*
X64564D01*
X54864D02*
X57264D01*
X48564D02*
X50964D01*
X41164D02*
X43564D01*
X155464Y99038D02*
X157864D01*
X141664D02*
X144064D01*
X133864D02*
X136264D01*
X119864D02*
X122264D01*
X106264D02*
X108664D01*
X96764D02*
X99164D01*
X88064D02*
X89164D01*
X84964D02*
X87364D01*
X78664D02*
X81064D01*
X76664D02*
X77764D01*
X68464D02*
X70864D01*
X62164D02*
X64564D01*
X48564D02*
X57264D01*
X41164D02*
X43564D01*
X149964Y98938D02*
X157864D01*
X141664D02*
X144064D01*
X128364D02*
X136264D01*
X113664D02*
X122264D01*
X104164D02*
X108664D01*
X96764D02*
X99164D01*
X88064D02*
X89164D01*
X78664D02*
X87364D01*
X76664D02*
X77764D01*
X68464D02*
X70864D01*
X62164D02*
X64564D01*
X48564D02*
X57264D01*
X39164D02*
X43564D01*
X149864Y98838D02*
X157864D01*
X141664D02*
X144064D01*
X128264D02*
X136264D01*
X113564D02*
X122264D01*
X104064D02*
X108664D01*
X96764D02*
X99164D01*
X88064D02*
X89164D01*
X78664D02*
X87364D01*
X76664D02*
X77764D01*
X68464D02*
X70864D01*
X62164D02*
X64564D01*
X48564D02*
X57264D01*
X39064D02*
X43564D01*
X149864Y98738D02*
X157864D01*
X141664D02*
X144064D01*
X128264D02*
X136264D01*
X113564D02*
X122264D01*
X104064D02*
X108664D01*
X96764D02*
X99164D01*
X88064D02*
X89164D01*
X78664D02*
X87364D01*
X76664D02*
X77764D01*
X68464D02*
X70864D01*
X62164D02*
X64564D01*
X48564D02*
X57264D01*
X39064D02*
X43564D01*
X149864Y98638D02*
X157864D01*
X141664D02*
X144064D01*
X128264D02*
X136264D01*
X113564D02*
X122264D01*
X104064D02*
X108664D01*
X96764D02*
X99164D01*
X88064D02*
X89164D01*
X78664D02*
X87364D01*
X76664D02*
X77764D01*
X68464D02*
X70864D01*
X62164D02*
X64564D01*
X48564D02*
X57264D01*
X39064D02*
X43564D01*
X149864Y98538D02*
X157864D01*
X141664D02*
X144064D01*
X128264D02*
X136264D01*
X113564D02*
X122264D01*
X104064D02*
X108664D01*
X96764D02*
X99164D01*
X88064D02*
X89164D01*
X78664D02*
X87364D01*
X76664D02*
X77764D01*
X68464D02*
X70864D01*
X62164D02*
X64564D01*
X48564D02*
X57264D01*
X39064D02*
X43564D01*
X149864Y98438D02*
X157864D01*
X141664D02*
X144064D01*
X128264D02*
X136264D01*
X113564D02*
X122264D01*
X104064D02*
X108664D01*
X96764D02*
X99164D01*
X88064D02*
X89164D01*
X78664D02*
X87364D01*
X76664D02*
X77764D01*
X68464D02*
X70864D01*
X62164D02*
X64564D01*
X48564D02*
X57264D01*
X39064D02*
X43564D01*
X149864Y98338D02*
X157864D01*
X141664D02*
X144064D01*
X128264D02*
X136264D01*
X113564D02*
X122264D01*
X104064D02*
X108664D01*
X96764D02*
X99164D01*
X88064D02*
X89164D01*
X78664D02*
X87364D01*
X76664D02*
X77764D01*
X68464D02*
X70864D01*
X62164D02*
X64564D01*
X48564D02*
X57264D01*
X39064D02*
X43564D01*
X149864Y98238D02*
X157864D01*
X141664D02*
X144064D01*
X128264D02*
X136264D01*
X113564D02*
X122264D01*
X104064D02*
X108664D01*
X96764D02*
X99164D01*
X88064D02*
X89164D01*
X78664D02*
X87364D01*
X76664D02*
X77764D01*
X68464D02*
X70864D01*
X62164D02*
X64564D01*
X48564D02*
X57164D01*
X39064D02*
X43564D01*
X149864Y98138D02*
X157864D01*
X141664D02*
X144064D01*
X128264D02*
X136264D01*
X113564D02*
X122164D01*
X104064D02*
X108564D01*
X96764D02*
X99164D01*
X88064D02*
X89164D01*
X78664D02*
X87264D01*
X76664D02*
X77764D01*
X68464D02*
X70864D01*
X62164D02*
X64564D01*
X48564D02*
X57164D01*
X39064D02*
X43564D01*
X149864Y98038D02*
X157764D01*
X141664D02*
X144064D01*
X128264D02*
X136164D01*
X113564D02*
X122164D01*
X104064D02*
X108564D01*
X96764D02*
X99164D01*
X88064D02*
X89164D01*
X78764D02*
X87264D01*
X76664D02*
X77764D01*
X68464D02*
X70864D01*
X62164D02*
X64564D01*
X48564D02*
X57164D01*
X39064D02*
X43564D01*
X149864Y97938D02*
X157764D01*
X141664D02*
X144064D01*
X128264D02*
X136164D01*
X113564D02*
X122164D01*
X104064D02*
X108564D01*
X96764D02*
X99164D01*
X88064D02*
X89164D01*
X78764D02*
X87264D01*
X76664D02*
X77764D01*
X68464D02*
X70864D01*
X62164D02*
X64564D01*
X48564D02*
X57164D01*
X39064D02*
X43564D01*
X149864Y97838D02*
X157764D01*
X141664D02*
X144064D01*
X128264D02*
X136064D01*
X113564D02*
X122064D01*
X104064D02*
X108564D01*
X96764D02*
X99164D01*
X88064D02*
X89164D01*
X78864D02*
X87264D01*
X76664D02*
X77764D01*
X68464D02*
X70864D01*
X62164D02*
X64564D01*
X48564D02*
X57164D01*
X39064D02*
X43564D01*
X149864Y97738D02*
X157664D01*
X141664D02*
X144064D01*
X128264D02*
X136064D01*
X113564D02*
X122064D01*
X104064D02*
X108564D01*
X96764D02*
X99164D01*
X88064D02*
X89164D01*
X78864D02*
X87164D01*
X76664D02*
X77764D01*
X68464D02*
X70864D01*
X62164D02*
X64564D01*
X48564D02*
X57064D01*
X39064D02*
X43464D01*
X149864Y97638D02*
X157564D01*
X141664D02*
X144064D01*
X128264D02*
X135964D01*
X113564D02*
X121964D01*
X104064D02*
X108464D01*
X96764D02*
X99164D01*
X88064D02*
X89164D01*
X78964D02*
X87164D01*
X76664D02*
X77764D01*
X68464D02*
X70864D01*
X62164D02*
X64564D01*
X48564D02*
X57064D01*
X39064D02*
X43464D01*
X149864Y97538D02*
X157564D01*
X141664D02*
X144064D01*
X128264D02*
X135864D01*
X113564D02*
X121864D01*
X104064D02*
X108464D01*
X96764D02*
X99164D01*
X88064D02*
X89164D01*
X79064D02*
X87164D01*
X76664D02*
X77764D01*
X68464D02*
X70864D01*
X62164D02*
X64564D01*
X48564D02*
X56964D01*
X39064D02*
X43364D01*
X149864Y97438D02*
X157464D01*
X141664D02*
X144064D01*
X128264D02*
X135764D01*
X113564D02*
X121764D01*
X104064D02*
X108364D01*
X96764D02*
X99164D01*
X88064D02*
X89164D01*
X79164D02*
X87064D01*
X76664D02*
X77764D01*
X68464D02*
X70864D01*
X62164D02*
X64564D01*
X48564D02*
X56964D01*
X39064D02*
X43364D01*
X149864Y97338D02*
X157364D01*
X141664D02*
X144064D01*
X128264D02*
X135664D01*
X113564D02*
X121664D01*
X104064D02*
X108364D01*
X96764D02*
X99164D01*
X88064D02*
X89164D01*
X79264D02*
X87064D01*
X76664D02*
X77764D01*
X68464D02*
X70864D01*
X62164D02*
X64564D01*
X48564D02*
X56864D01*
X39064D02*
X43264D01*
X149864Y97238D02*
X157264D01*
X141664D02*
X144064D01*
X128264D02*
X135564D01*
X113564D02*
X121564D01*
X104064D02*
X108264D01*
X96764D02*
X99164D01*
X91564D02*
X93564D01*
X88064D02*
X89164D01*
X79364D02*
X86964D01*
X76664D02*
X77764D01*
X68464D02*
X70864D01*
X62164D02*
X64564D01*
X48564D02*
X56864D01*
X39064D02*
X43164D01*
X149864Y97138D02*
X157064D01*
X141664D02*
X144064D01*
X128264D02*
X135464D01*
X113564D02*
X121464D01*
X104064D02*
X108164D01*
X96864D02*
X99164D01*
X90764D02*
X93664D01*
X88064D02*
X89164D01*
X79464D02*
X86864D01*
X76664D02*
X77764D01*
X72464D02*
X75264D01*
X68464D02*
X70864D01*
X62164D02*
X64564D01*
X48564D02*
X56764D01*
X39064D02*
X43064D01*
X149864Y97038D02*
X156964D01*
X141664D02*
X144064D01*
X128264D02*
X135264D01*
X113564D02*
X121264D01*
X104064D02*
X108064D01*
X96864D02*
X99164D01*
X90764D02*
X93664D01*
X88064D02*
X89164D01*
X79664D02*
X86764D01*
X76664D02*
X77764D01*
X72364D02*
X75264D01*
X68464D02*
X70864D01*
X62164D02*
X64564D01*
X51064D02*
X56664D01*
X48564D02*
X50964D01*
X39064D02*
X42964D01*
X149864Y96938D02*
X156764D01*
X141664D02*
X143964D01*
X128264D02*
X135064D01*
X113564D02*
X121064D01*
X104164D02*
X107864D01*
X96864D02*
X99164D01*
X90764D02*
X93764D01*
X88064D02*
X89164D01*
X79864D02*
X86564D01*
X76664D02*
X77764D01*
X72264D02*
X75264D01*
X68464D02*
X70864D01*
X62164D02*
X64564D01*
X51164D02*
X56464D01*
X48564D02*
X50964D01*
X39064D02*
X42864D01*
X149964Y96838D02*
X156464D01*
X141664D02*
X143964D01*
X128264D02*
X134864D01*
X113564D02*
X120864D01*
X104164D02*
X107664D01*
X96864D02*
X99164D01*
X90764D02*
X93764D01*
X88064D02*
X89164D01*
X80064D02*
X86364D01*
X76664D02*
X77764D01*
X72264D02*
X75264D01*
X68464D02*
X70864D01*
X62164D02*
X64464D01*
X51364D02*
X56264D01*
X48564D02*
X50964D01*
X39064D02*
X42664D01*
X150064Y96738D02*
X155864D01*
X141864D02*
X143864D01*
X128564D02*
X134264D01*
X113864D02*
X119964D01*
X104264D02*
X107164D01*
X96964D02*
X99064D01*
X90764D02*
X93864D01*
X88064D02*
X89164D01*
X80764D02*
X85864D01*
X76664D02*
X77764D01*
X72164D02*
X75264D01*
X68664D02*
X70764D01*
X62364D02*
X64364D01*
X51964D02*
X55664D01*
X48664D02*
X50764D01*
X39264D02*
X42264D01*
X90764Y96638D02*
X93964D01*
X88064D02*
X89164D01*
X76664D02*
X77764D01*
X72164D02*
X75264D01*
X90764Y96538D02*
X93964D01*
X88064D02*
X89164D01*
X76664D02*
X77864D01*
X72064D02*
X75264D01*
X90764Y96438D02*
X94064D01*
X88064D02*
X89164D01*
X76664D02*
X77864D01*
X72064D02*
X75264D01*
X90764Y96338D02*
X94064D01*
X88064D02*
X89164D01*
X76664D02*
X77864D01*
X71964D02*
X75264D01*
X90764Y96238D02*
X94164D01*
X88064D02*
X89164D01*
X76664D02*
X77864D01*
X71864D02*
X75264D01*
X90864Y96138D02*
X94264D01*
X88064D02*
X89164D01*
X76664D02*
X77864D01*
X71864D02*
X75264D01*
X92964Y96038D02*
X94264D01*
X87964D02*
X89164D01*
X76664D02*
X77864D01*
X71764D02*
X73264D01*
X93064Y95938D02*
X94364D01*
X87964D02*
X89164D01*
X76664D02*
X77864D01*
X71764D02*
X73064D01*
X93064Y95838D02*
X94364D01*
X87864D02*
X89064D01*
X76764D02*
X77964D01*
X71664D02*
X73064D01*
X93164Y95738D02*
X94464D01*
X87764D02*
X89064D01*
X76764D02*
X78064D01*
X71664D02*
X72964D01*
X93164Y95638D02*
X94464D01*
X87464D02*
X89064D01*
X76764D02*
X78264D01*
X71564D02*
X72864D01*
X93264Y95538D02*
X94564D01*
X76864D02*
X89064D01*
X71464D02*
X72864D01*
X93264Y95438D02*
X94664D01*
X76864D02*
X88964D01*
X71464D02*
X72764D01*
X93364Y95338D02*
X94664D01*
X76964D02*
X88864D01*
X71364D02*
X72764D01*
X93364Y95238D02*
X94764D01*
X77064D02*
X88864D01*
X71364D02*
X72664D01*
X93464Y95138D02*
X94764D01*
X77064D02*
X88764D01*
X71264D02*
X72564D01*
X93564Y95038D02*
X94864D01*
X77164D02*
X88664D01*
X71264D02*
X72564D01*
X93564Y94938D02*
X94864D01*
X77264D02*
X88564D01*
X71164D02*
X72464D01*
X93664Y94838D02*
X94964D01*
X77364D02*
X88464D01*
X71064D02*
X72464D01*
X93664Y94738D02*
X95064D01*
X77564D02*
X88264D01*
X71064D02*
X72364D01*
X93764Y94638D02*
X95064D01*
X77664D02*
X88164D01*
X70964D02*
X72364D01*
X93764Y94538D02*
X95164D01*
X77964D02*
X87864D01*
X70964D02*
X72264D01*
X93864Y94438D02*
X95164D01*
X70864D02*
X72164D01*
X93964Y94338D02*
X95264D01*
X70864D02*
X72164D01*
X155764Y94238D02*
X156064D01*
X93964D02*
X95264D01*
X70764D02*
X72064D01*
X155264Y94138D02*
X156464D01*
X94064D02*
X95364D01*
X70664D02*
X72064D01*
X155064Y94038D02*
X156764D01*
X94064D02*
X95464D01*
X70664D02*
X71964D01*
X39964D02*
X40964D01*
X154864Y93938D02*
X156964D01*
X94164D02*
X95464D01*
X70564D02*
X71864D01*
X39664D02*
X41264D01*
X154764Y93838D02*
X157064D01*
X94164D02*
X95564D01*
X70564D02*
X71864D01*
X39464D02*
X41364D01*
X154664Y93738D02*
X157164D01*
X94264D02*
X95564D01*
X70464D02*
X71764D01*
X39364D02*
X41564D01*
X154464Y93638D02*
X157364D01*
X94364D02*
X95664D01*
X70464D02*
X71764D01*
X39164D02*
X41664D01*
X154464Y93538D02*
X157364D01*
X94364D02*
X95664D01*
X70364D02*
X71664D01*
X39064D02*
X41764D01*
X154364Y93438D02*
X157464D01*
X94464D02*
X95764D01*
X70264D02*
X71664D01*
X38964D02*
X41864D01*
X154264Y93338D02*
X157564D01*
X94464D02*
X95864D01*
X70264D02*
X71564D01*
X38864D02*
X41964D01*
X154164Y93238D02*
X157664D01*
X94564D02*
X95864D01*
X70164D02*
X71464D01*
X38864D02*
X42064D01*
X154164Y93138D02*
X157664D01*
X94564D02*
X95964D01*
X70164D02*
X71464D01*
X38764D02*
X42164D01*
X156164Y93038D02*
X157764D01*
X154064D02*
X155664D01*
X94664D02*
X95964D01*
X86364D02*
X87464D01*
X78264D02*
X79164D01*
X70064D02*
X71364D01*
X38664D02*
X42164D01*
X156364Y92938D02*
X157764D01*
X154064D02*
X155464D01*
X94764D02*
X96064D01*
X86364D02*
X87464D01*
X82264D02*
X83364D01*
X78164D02*
X79264D01*
X70064D02*
X71364D01*
X38664D02*
X42264D01*
X156464Y92838D02*
X157764D01*
X154064D02*
X155364D01*
X94764D02*
X96064D01*
X86364D02*
X87464D01*
X82264D02*
X83364D01*
X78164D02*
X79264D01*
X69964D02*
X71264D01*
X40764D02*
X42264D01*
X38564D02*
X40064D01*
X156564Y92738D02*
X157764D01*
X153864D02*
X155264D01*
X94864D02*
X96164D01*
X86364D02*
X87464D01*
X82264D02*
X83364D01*
X78064D02*
X79264D01*
X69864D02*
X71264D01*
X40964D02*
X42364D01*
X38564D02*
X39964D01*
X156664Y92638D02*
X157764D01*
X94864D02*
X155164D01*
X86364D02*
X87464D01*
X82264D02*
X83364D01*
X78064D02*
X79264D01*
X69864D02*
X71164D01*
X41064D02*
X42364D01*
X38564D02*
X39864D01*
X156664Y92538D02*
X157864D01*
X94964D02*
X155164D01*
X86364D02*
X87464D01*
X82264D02*
X83364D01*
X78064D02*
X79264D01*
X41164D02*
X71064D01*
X38564D02*
X39764D01*
X156664Y92438D02*
X157864D01*
X95064D02*
X155164D01*
X86364D02*
X87464D01*
X82264D02*
X83364D01*
X78064D02*
X79264D01*
X41164D02*
X71064D01*
X38564D02*
X39664D01*
X156764Y92338D02*
X157864D01*
X95064D02*
X155164D01*
X86364D02*
X87464D01*
X82264D02*
X83364D01*
X78064D02*
X79264D01*
X41264D02*
X70964D01*
X38564D02*
X39664D01*
X156764Y92238D02*
X157864D01*
X95164D02*
X155064D01*
X86364D02*
X87464D01*
X82264D02*
X83364D01*
X78064D02*
X79264D01*
X41264D02*
X70964D01*
X38564D02*
X39664D01*
X156764Y92138D02*
X157864D01*
X95164D02*
X155164D01*
X86364D02*
X87464D01*
X82264D02*
X83364D01*
X78064D02*
X79264D01*
X41264D02*
X70864D01*
X38564D02*
X39664D01*
X156664Y92038D02*
X157864D01*
X95264D02*
X155164D01*
X86364D02*
X87464D01*
X82264D02*
X83364D01*
X78064D02*
X79264D01*
X41264D02*
X70864D01*
X38564D02*
X39664D01*
X156664Y91938D02*
X157864D01*
X95264D02*
X155164D01*
X86364D02*
X87464D01*
X82264D02*
X83364D01*
X78064D02*
X79264D01*
X41264D02*
X70764D01*
X38564D02*
X39664D01*
X156664Y91838D02*
X157764D01*
X95364D02*
X155164D01*
X86364D02*
X87464D01*
X82264D02*
X83364D01*
X78064D02*
X79264D01*
X41264D02*
X70664D01*
X38564D02*
X39664D01*
X156564Y91738D02*
X157764D01*
X95464D02*
X155264D01*
X86364D02*
X87464D01*
X82264D02*
X83364D01*
X78064D02*
X79264D01*
X41164D02*
X70664D01*
X38564D02*
X39664D01*
X156464Y91638D02*
X157764D01*
X95464D02*
X155364D01*
X86364D02*
X87464D01*
X82264D02*
X83364D01*
X78064D02*
X79264D01*
X41164D02*
X70564D01*
X38564D02*
X39764D01*
X156364Y91538D02*
X157764D01*
X95564D02*
X155464D01*
X86364D02*
X87464D01*
X82264D02*
X83364D01*
X78064D02*
X79264D01*
X41064D02*
X70564D01*
X38564D02*
X39864D01*
X156064Y91438D02*
X157764D01*
X154064D02*
X155764D01*
X86364D02*
X87464D01*
X82264D02*
X83364D01*
X78064D02*
X79264D01*
X40964D02*
X42364D01*
X38564D02*
X39964D01*
X154164Y91338D02*
X157664D01*
X86364D02*
X87464D01*
X82264D02*
X83364D01*
X78064D02*
X79264D01*
X40764D02*
X42264D01*
X38564D02*
X40164D01*
X154164Y91238D02*
X157664D01*
X86364D02*
X87464D01*
X82264D02*
X83364D01*
X78064D02*
X79264D01*
X38664D02*
X42264D01*
X154264Y91138D02*
X157564D01*
X86364D02*
X87464D01*
X82264D02*
X83364D01*
X78064D02*
X79264D01*
X38764D02*
X42164D01*
X154364Y91038D02*
X157464D01*
X86364D02*
X87564D01*
X82264D02*
X83364D01*
X78064D02*
X79264D01*
X38764D02*
X42064D01*
X154464Y90938D02*
X157364D01*
X86364D02*
X87664D01*
X82264D02*
X83364D01*
X77964D02*
X79264D01*
X38864D02*
X42064D01*
X154564Y90838D02*
X157264D01*
X86364D02*
X87764D01*
X82264D02*
X83364D01*
X77864D02*
X79264D01*
X38964D02*
X41964D01*
X154664Y90738D02*
X157164D01*
X86364D02*
X87864D01*
X82264D02*
X83364D01*
X77764D02*
X79264D01*
X39064D02*
X41864D01*
X154764Y90638D02*
X157064D01*
X86364D02*
X87964D01*
X82264D02*
X83364D01*
X77664D02*
X79264D01*
X39164D02*
X41764D01*
X154964Y90538D02*
X156864D01*
X86464D02*
X88064D01*
X82264D02*
X83364D01*
X77564D02*
X79164D01*
X39264D02*
X41664D01*
X155064Y90438D02*
X156764D01*
X86564D02*
X88164D01*
X82264D02*
X83364D01*
X77464D02*
X79064D01*
X39364D02*
X41464D01*
X155364Y90338D02*
X156464D01*
X86664D02*
X88264D01*
X82264D02*
X83364D01*
X77364D02*
X78964D01*
X39564D02*
X41364D01*
X86764Y90238D02*
X88364D01*
X82264D02*
X83364D01*
X77264D02*
X78864D01*
X39764D02*
X41164D01*
X86864Y90138D02*
X88464D01*
X82264D02*
X83364D01*
X77164D02*
X78764D01*
X40064D02*
X40864D01*
X86964Y90038D02*
X88564D01*
X82264D02*
X83364D01*
X77064D02*
X78664D01*
X87064Y89938D02*
X88664D01*
X82264D02*
X83364D01*
X76964D02*
X78564D01*
X87164Y89838D02*
X88764D01*
X82264D02*
X83364D01*
X76864D02*
X78464D01*
X87264Y89738D02*
X88864D01*
X82264D02*
X83364D01*
X76764D02*
X78364D01*
X43764D02*
X44064D01*
X87364Y89638D02*
X88964D01*
X82264D02*
X83364D01*
X76664D02*
X78264D01*
X42564D02*
X45164D01*
X87464Y89538D02*
X89064D01*
X82264D02*
X83364D01*
X76564D02*
X78164D01*
X67564D02*
X68764D01*
X50564D02*
X54564D01*
X42164D02*
X45464D01*
X87564Y89438D02*
X89164D01*
X82264D02*
X83364D01*
X76464D02*
X78064D01*
X67464D02*
X68764D01*
X50164D02*
X54664D01*
X41764D02*
X45664D01*
X87564Y89338D02*
X89264D01*
X82264D02*
X83364D01*
X76364D02*
X77964D01*
X67464D02*
X68764D01*
X49964D02*
X54664D01*
X41564D02*
X45864D01*
X87664Y89238D02*
X89364D01*
X82264D02*
X83364D01*
X76264D02*
X77864D01*
X67464D02*
X68764D01*
X49764D02*
X54664D01*
X41364D02*
X46064D01*
X87764Y89138D02*
X89464D01*
X82264D02*
X83364D01*
X76164D02*
X77764D01*
X67464D02*
X68764D01*
X49564D02*
X54664D01*
X41364D02*
X46164D01*
X87864Y89038D02*
X89564D01*
X82264D02*
X83364D01*
X76064D02*
X77664D01*
X67464D02*
X68864D01*
X49464D02*
X54664D01*
X41364D02*
X46264D01*
X87964Y88938D02*
X89664D01*
X82264D02*
X83364D01*
X75964D02*
X77564D01*
X67464D02*
X68864D01*
X49364D02*
X54664D01*
X41364D02*
X46364D01*
X88064Y88838D02*
X89764D01*
X82264D02*
X83364D01*
X75864D02*
X77564D01*
X67464D02*
X68864D01*
X57564D02*
X59364D01*
X49264D02*
X54664D01*
X41364D02*
X46464D01*
X88164Y88738D02*
X89864D01*
X82264D02*
X83364D01*
X75764D02*
X77464D01*
X67464D02*
X68864D01*
X57564D02*
X59564D01*
X49164D02*
X54664D01*
X41364D02*
X46564D01*
X88264Y88638D02*
X89964D01*
X82264D02*
X83364D01*
X75664D02*
X77364D01*
X67464D02*
X68864D01*
X57564D02*
X59564D01*
X49064D02*
X54664D01*
X41364D02*
X46664D01*
X88364Y88538D02*
X90064D01*
X82264D02*
X83364D01*
X75564D02*
X77264D01*
X67464D02*
X68864D01*
X57564D02*
X59564D01*
X48964D02*
X54664D01*
X44564D02*
X46764D01*
X41364D02*
X43164D01*
X88464Y88438D02*
X90064D01*
X82264D02*
X83364D01*
X75464D02*
X77164D01*
X67464D02*
X68864D01*
X57564D02*
X59564D01*
X53264D02*
X54664D01*
X48964D02*
X51464D01*
X44964D02*
X46764D01*
X41364D02*
X42664D01*
X88564Y88338D02*
X90164D01*
X82264D02*
X83364D01*
X75364D02*
X77064D01*
X67464D02*
X68864D01*
X59164D02*
X59564D01*
X57564D02*
X57964D01*
X53264D02*
X54664D01*
X48864D02*
X50864D01*
X45164D02*
X46864D01*
X41364D02*
X42364D01*
X88664Y88238D02*
X90264D01*
X82264D02*
X83364D01*
X75264D02*
X76964D01*
X67464D02*
X68864D01*
X59164D02*
X59564D01*
X57564D02*
X57964D01*
X53264D02*
X54664D01*
X48864D02*
X50564D01*
X45264D02*
X46864D01*
X41364D02*
X42064D01*
X88764Y88138D02*
X90364D01*
X82264D02*
X83364D01*
X75164D02*
X76864D01*
X67464D02*
X68864D01*
X59164D02*
X59564D01*
X57564D02*
X57964D01*
X53264D02*
X54664D01*
X48864D02*
X50464D01*
X45464D02*
X46964D01*
X41364D02*
X41764D01*
X88864Y88038D02*
X90464D01*
X82264D02*
X83364D01*
X75064D02*
X76764D01*
X67464D02*
X68864D01*
X59164D02*
X59564D01*
X57564D02*
X57964D01*
X53264D02*
X54664D01*
X48764D02*
X50264D01*
X45464D02*
X46964D01*
X88964Y87938D02*
X90564D01*
X82264D02*
X83364D01*
X74964D02*
X76664D01*
X67464D02*
X68864D01*
X59164D02*
X59664D01*
X57564D02*
X57964D01*
X53264D02*
X54664D01*
X48764D02*
X50264D01*
X45564D02*
X47064D01*
X89064Y87838D02*
X90664D01*
X82264D02*
X83364D01*
X74864D02*
X76564D01*
X67464D02*
X68864D01*
X59164D02*
X59664D01*
X57564D02*
X57964D01*
X53264D02*
X54664D01*
X48764D02*
X50164D01*
X45664D02*
X47064D01*
X89164Y87738D02*
X90764D01*
X82264D02*
X83364D01*
X74764D02*
X76464D01*
X67464D02*
X68864D01*
X59164D02*
X59664D01*
X57564D02*
X57964D01*
X53264D02*
X54664D01*
X48764D02*
X50164D01*
X45664D02*
X47064D01*
X89264Y87638D02*
X90864D01*
X82264D02*
X83364D01*
X74664D02*
X76364D01*
X67464D02*
X68864D01*
X59164D02*
X59664D01*
X57564D02*
X57964D01*
X53264D02*
X54664D01*
X48664D02*
X50064D01*
X45664D02*
X47064D01*
X89364Y87538D02*
X90964D01*
X82264D02*
X83364D01*
X74564D02*
X76264D01*
X67464D02*
X68864D01*
X59164D02*
X59664D01*
X57564D02*
X57964D01*
X53264D02*
X54664D01*
X48664D02*
X50064D01*
X45764D02*
X47064D01*
X89464Y87438D02*
X91064D01*
X82264D02*
X83364D01*
X74464D02*
X76164D01*
X67464D02*
X68864D01*
X59164D02*
X59664D01*
X57464D02*
X57964D01*
X53264D02*
X54664D01*
X48664D02*
X50064D01*
X45764D02*
X47164D01*
X89564Y87338D02*
X91164D01*
X82264D02*
X83364D01*
X74364D02*
X76064D01*
X67464D02*
X68864D01*
X59164D02*
X59664D01*
X57464D02*
X57964D01*
X53264D02*
X54664D01*
X48664D02*
X50064D01*
X45764D02*
X47164D01*
X89664Y87238D02*
X91264D01*
X82264D02*
X83364D01*
X74364D02*
X75964D01*
X67464D02*
X68864D01*
X59164D02*
X59664D01*
X57464D02*
X57964D01*
X53264D02*
X54664D01*
X48664D02*
X50064D01*
X45764D02*
X47164D01*
X89764Y87138D02*
X91364D01*
X82264D02*
X83364D01*
X74264D02*
X75864D01*
X67464D02*
X68864D01*
X59164D02*
X59664D01*
X57464D02*
X57964D01*
X53264D02*
X54664D01*
X48664D02*
X50064D01*
X45764D02*
X47164D01*
X89864Y87038D02*
X91464D01*
X82264D02*
X83364D01*
X74164D02*
X75764D01*
X67464D02*
X68864D01*
X59164D02*
X59664D01*
X57464D02*
X57964D01*
X53264D02*
X54664D01*
X48664D02*
X50064D01*
X45764D02*
X47164D01*
X89964Y86938D02*
X91564D01*
X82264D02*
X83364D01*
X74064D02*
X75664D01*
X67464D02*
X68864D01*
X59164D02*
X59664D01*
X57464D02*
X57964D01*
X53264D02*
X54664D01*
X48764D02*
X50064D01*
X45664D02*
X47064D01*
X90064Y86838D02*
X91664D01*
X82264D02*
X83364D01*
X73964D02*
X75564D01*
X67464D02*
X68864D01*
X59164D02*
X59764D01*
X57464D02*
X57964D01*
X53264D02*
X54664D01*
X48764D02*
X50164D01*
X45664D02*
X47064D01*
X90164Y86738D02*
X91764D01*
X82264D02*
X83364D01*
X73864D02*
X75464D01*
X67464D02*
X68864D01*
X59264D02*
X59764D01*
X57364D02*
X57864D01*
X53264D02*
X54664D01*
X48764D02*
X50164D01*
X45664D02*
X47064D01*
X90264Y86638D02*
X91764D01*
X82264D02*
X83364D01*
X73864D02*
X75364D01*
X67464D02*
X68864D01*
X59264D02*
X59864D01*
X57264D02*
X57864D01*
X53264D02*
X54664D01*
X48764D02*
X50164D01*
X45564D02*
X47064D01*
X90364Y86538D02*
X91764D01*
X82264D02*
X83364D01*
X73864D02*
X75264D01*
X67464D02*
X68864D01*
X59364D02*
X59864D01*
X57264D02*
X57764D01*
X53264D02*
X54664D01*
X48864D02*
X50264D01*
X45464D02*
X47064D01*
X90464Y86438D02*
X91764D01*
X82264D02*
X83364D01*
X73864D02*
X75164D01*
X67464D02*
X68864D01*
X59464D02*
X59964D01*
X57164D02*
X57664D01*
X53264D02*
X54664D01*
X48864D02*
X50364D01*
X45364D02*
X46964D01*
X90564Y86338D02*
X91764D01*
X82264D02*
X83364D01*
X73864D02*
X75064D01*
X67464D02*
X68864D01*
X59464D02*
X60064D01*
X57164D02*
X57664D01*
X53264D02*
X54664D01*
X48864D02*
X50464D01*
X45164D02*
X46964D01*
X90564Y86238D02*
X91764D01*
X82264D02*
X83364D01*
X73864D02*
X74964D01*
X67464D02*
X68864D01*
X59564D02*
X60064D01*
X57064D02*
X57564D01*
X53264D02*
X54664D01*
X48964D02*
X50564D01*
X44964D02*
X46964D01*
X90564Y86138D02*
X91764D01*
X82264D02*
X83364D01*
X73864D02*
X74964D01*
X67464D02*
X68864D01*
X59664D02*
X60164D01*
X56964D02*
X57464D01*
X53264D02*
X54664D01*
X49064D02*
X50864D01*
X44564D02*
X46864D01*
X90564Y86038D02*
X91764D01*
X82264D02*
X83364D01*
X73864D02*
X74964D01*
X67464D02*
X68864D01*
X59664D02*
X60264D01*
X56964D02*
X57464D01*
X53264D02*
X54664D01*
X49064D02*
X51464D01*
X44164D02*
X46864D01*
X90564Y85938D02*
X91764D01*
X82264D02*
X83364D01*
X73864D02*
X74964D01*
X67464D02*
X68864D01*
X59764D02*
X60264D01*
X56864D02*
X57364D01*
X49164D02*
X54664D01*
X43764D02*
X46764D01*
X90564Y85838D02*
X91764D01*
X82264D02*
X83364D01*
X73864D02*
X74964D01*
X67464D02*
X68864D01*
X59864D02*
X60364D01*
X56764D02*
X57364D01*
X49264D02*
X54664D01*
X43364D02*
X46764D01*
X90564Y85738D02*
X91764D01*
X82264D02*
X83364D01*
X73864D02*
X74964D01*
X67464D02*
X68864D01*
X59864D02*
X60464D01*
X56764D02*
X57264D01*
X49364D02*
X54664D01*
X42964D02*
X46664D01*
X90564Y85638D02*
X91764D01*
X82264D02*
X83364D01*
X73864D02*
X74964D01*
X67464D02*
X68864D01*
X59964D02*
X60464D01*
X56664D02*
X57164D01*
X49564D02*
X54664D01*
X42664D02*
X46564D01*
X90564Y85538D02*
X91764D01*
X82264D02*
X83364D01*
X73864D02*
X74964D01*
X67464D02*
X68864D01*
X60064D02*
X60564D01*
X56564D02*
X57164D01*
X49764D02*
X54664D01*
X42364D02*
X46464D01*
X90564Y85438D02*
X91764D01*
X82264D02*
X83364D01*
X73864D02*
X74964D01*
X67464D02*
X68864D01*
X60064D02*
X60564D01*
X56564D02*
X57064D01*
X49764D02*
X54664D01*
X42164D02*
X46364D01*
X90564Y85338D02*
X91764D01*
X82264D02*
X83364D01*
X73864D02*
X74964D01*
X67464D02*
X68864D01*
X60164D02*
X60664D01*
X58764D02*
X58864D01*
X56464D02*
X56964D01*
X49564D02*
X54664D01*
X41964D02*
X46164D01*
X90564Y85238D02*
X91764D01*
X82264D02*
X83364D01*
X73864D02*
X74964D01*
X67464D02*
X68864D01*
X60164D02*
X60764D01*
X58164D02*
X58964D01*
X57864D02*
X58064D01*
X56464D02*
X56964D01*
X49364D02*
X54664D01*
X41864D02*
X46064D01*
X90564Y85138D02*
X91764D01*
X82264D02*
X83364D01*
X73864D02*
X74964D01*
X67464D02*
X68864D01*
X60264D02*
X60764D01*
X57764D02*
X58964D01*
X56364D02*
X56864D01*
X49264D02*
X54664D01*
X41664D02*
X45864D01*
X90564Y85038D02*
X91764D01*
X82264D02*
X83364D01*
X73864D02*
X74964D01*
X67464D02*
X68864D01*
X60364D02*
X60864D01*
X57764D02*
X58964D01*
X56264D02*
X56764D01*
X49164D02*
X54664D01*
X41564D02*
X45664D01*
X90564Y84938D02*
X91764D01*
X82264D02*
X83364D01*
X73864D02*
X74964D01*
X67464D02*
X68864D01*
X60364D02*
X60964D01*
X57764D02*
X59364D01*
X56264D02*
X56764D01*
X48964D02*
X54664D01*
X41464D02*
X45364D01*
X90564Y84838D02*
X91764D01*
X82264D02*
X83364D01*
X73864D02*
X74964D01*
X67464D02*
X68864D01*
X60464D02*
X60964D01*
X57864D02*
X59364D01*
X57564D02*
X57764D01*
X56164D02*
X56664D01*
X53264D02*
X54664D01*
X48864D02*
X51264D01*
X41364D02*
X45064D01*
X90564Y84738D02*
X91764D01*
X82264D02*
X83364D01*
X73864D02*
X74964D01*
X67464D02*
X68864D01*
X60564D02*
X61064D01*
X57464D02*
X59364D01*
X56064D02*
X56664D01*
X53264D02*
X54664D01*
X48864D02*
X50664D01*
X41364D02*
X44664D01*
X90564Y84638D02*
X91764D01*
X82264D02*
X83364D01*
X73864D02*
X74964D01*
X67464D02*
X68864D01*
X60564D02*
X61164D01*
X59464D02*
X59764D01*
X57464D02*
X59364D01*
X56064D02*
X56564D01*
X53264D02*
X54664D01*
X48764D02*
X50464D01*
X41264D02*
X44164D01*
X90564Y84538D02*
X91764D01*
X82264D02*
X83364D01*
X73864D02*
X74964D01*
X67464D02*
X68864D01*
X60664D02*
X61164D01*
X57464D02*
X59764D01*
X55964D02*
X56464D01*
X53264D02*
X54664D01*
X48664D02*
X50264D01*
X41164D02*
X43764D01*
X90564Y84438D02*
X91764D01*
X82264D02*
X83364D01*
X73864D02*
X74964D01*
X67464D02*
X68864D01*
X60764D02*
X61264D01*
X57464D02*
X59764D01*
X57264D02*
X57364D01*
X55864D02*
X56464D01*
X53264D02*
X54664D01*
X48564D02*
X50164D01*
X41164D02*
X43364D01*
X90564Y84338D02*
X91764D01*
X82264D02*
X83464D01*
X73864D02*
X75064D01*
X67464D02*
X68864D01*
X60764D02*
X61264D01*
X59964D02*
X60064D01*
X57164D02*
X59764D01*
X55864D02*
X56364D01*
X53264D02*
X54664D01*
X48564D02*
X50064D01*
X41064D02*
X43064D01*
X90364Y84238D02*
X91964D01*
X81964D02*
X83664D01*
X73664D02*
X75264D01*
X67464D02*
X68864D01*
X60864D02*
X61364D01*
X57064D02*
X60164D01*
X55764D02*
X56264D01*
X53264D02*
X54664D01*
X48564D02*
X49964D01*
X41064D02*
X42864D01*
X90264Y84138D02*
X92164D01*
X81864D02*
X83764D01*
X73464D02*
X75464D01*
X67464D02*
X68864D01*
X60864D02*
X61464D01*
X57164D02*
X60164D01*
X55664D02*
X56264D01*
X53264D02*
X54664D01*
X48464D02*
X49864D01*
X40964D02*
X42764D01*
X90064Y84038D02*
X92264D01*
X81664D02*
X83964D01*
X73364D02*
X75564D01*
X67464D02*
X68864D01*
X60964D02*
X61464D01*
X57164D02*
X60164D01*
X56864D02*
X57064D01*
X55664D02*
X56164D01*
X53264D02*
X54664D01*
X48464D02*
X49864D01*
X40964D02*
X42664D01*
X89964Y83938D02*
X92464D01*
X81564D02*
X84064D01*
X73164D02*
X75664D01*
X67464D02*
X68864D01*
X61064D02*
X61564D01*
X56764D02*
X60164D01*
X55564D02*
X56064D01*
X53264D02*
X54664D01*
X48464D02*
X49864D01*
X40964D02*
X42564D01*
X89764Y83838D02*
X92564D01*
X81464D02*
X84164D01*
X73064D02*
X75764D01*
X67464D02*
X68864D01*
X61064D02*
X61664D01*
X56764D02*
X60264D01*
X55464D02*
X56064D01*
X53264D02*
X54664D01*
X48364D02*
X49864D01*
X40964D02*
X42464D01*
X89664Y83738D02*
X92664D01*
X81364D02*
X84264D01*
X72964D02*
X75864D01*
X67464D02*
X68864D01*
X61164D02*
X61664D01*
X56764D02*
X60264D01*
X55464D02*
X55964D01*
X53264D02*
X54664D01*
X48364D02*
X49764D01*
X40864D02*
X42364D01*
X89664Y83638D02*
X92664D01*
X81264D02*
X84364D01*
X72864D02*
X75964D01*
X67464D02*
X68864D01*
X61264D02*
X61764D01*
X56864D02*
X60264D01*
X55364D02*
X55964D01*
X53264D02*
X54664D01*
X48364D02*
X49764D01*
X40864D02*
X42364D01*
X89564Y83538D02*
X92764D01*
X81164D02*
X84464D01*
X72864D02*
X76064D01*
X67464D02*
X68864D01*
X61264D02*
X61864D01*
X56864D02*
X60264D01*
X55364D02*
X55864D01*
X53264D02*
X54664D01*
X48364D02*
X49764D01*
X40864D02*
X42364D01*
X89464Y83438D02*
X92864D01*
X81164D02*
X84464D01*
X72764D02*
X76164D01*
X67464D02*
X68864D01*
X61364D02*
X61864D01*
X56764D02*
X60264D01*
X55264D02*
X55764D01*
X53264D02*
X54664D01*
X48364D02*
X49764D01*
X40864D02*
X42264D01*
X89464Y83338D02*
X92964D01*
X81064D02*
X84564D01*
X72664D02*
X76164D01*
X67464D02*
X68864D01*
X61464D02*
X61964D01*
X56764D02*
X60264D01*
X55164D02*
X55764D01*
X53264D02*
X54664D01*
X48364D02*
X49764D01*
X40864D02*
X42264D01*
X89364Y83238D02*
X92964D01*
X81064D02*
X84564D01*
X72664D02*
X76264D01*
X67464D02*
X68864D01*
X61464D02*
X61964D01*
X56864D02*
X60264D01*
X55164D02*
X55664D01*
X53264D02*
X54664D01*
X48364D02*
X49764D01*
X40864D02*
X42264D01*
X91564Y83138D02*
X93064D01*
X89364D02*
X90764D01*
X83264D02*
X84664D01*
X80964D02*
X82364D01*
X74864D02*
X76264D01*
X72564D02*
X74064D01*
X67464D02*
X68864D01*
X61564D02*
X62064D01*
X59964D02*
X60164D01*
X56864D02*
X59864D01*
X55064D02*
X55564D01*
X53264D02*
X54664D01*
X48364D02*
X49764D01*
X40864D02*
X42264D01*
X91764Y83038D02*
X93064D01*
X89264D02*
X90664D01*
X83364D02*
X84664D01*
X80964D02*
X82264D01*
X74964D02*
X76264D01*
X72564D02*
X73864D01*
X67464D02*
X68864D01*
X61564D02*
X62164D01*
X56864D02*
X59964D01*
X54964D02*
X55564D01*
X53264D02*
X54664D01*
X48364D02*
X49764D01*
X40864D02*
X42264D01*
X91864Y82938D02*
X93064D01*
X89264D02*
X90564D01*
X83464D02*
X84764D01*
X80964D02*
X82164D01*
X75064D02*
X76364D01*
X72564D02*
X73764D01*
X67464D02*
X68864D01*
X61664D02*
X62164D01*
X56864D02*
X59964D01*
X54964D02*
X55464D01*
X53264D02*
X54664D01*
X48364D02*
X49764D01*
X40864D02*
X42264D01*
X91864Y82838D02*
X93064D01*
X89264D02*
X90464D01*
X83564D02*
X84764D01*
X80864D02*
X82164D01*
X75164D02*
X76364D01*
X72464D02*
X73764D01*
X67464D02*
X68864D01*
X61764D02*
X62264D01*
X57264D02*
X59964D01*
X56964D02*
X57164D01*
X54864D02*
X55364D01*
X53264D02*
X54664D01*
X48364D02*
X49864D01*
X40864D02*
X42264D01*
X91964Y82738D02*
X93164D01*
X89264D02*
X90464D01*
X83564D02*
X84764D01*
X80864D02*
X82064D01*
X75164D02*
X76364D01*
X72464D02*
X73664D01*
X67464D02*
X68864D01*
X61764D02*
X62364D01*
X59664D02*
X59864D01*
X57264D02*
X59564D01*
X54764D02*
X55364D01*
X53264D02*
X54664D01*
X48364D02*
X49864D01*
X40864D02*
X42364D01*
X91964Y82638D02*
X93164D01*
X89264D02*
X90364D01*
X83564D02*
X84764D01*
X80864D02*
X82064D01*
X75264D02*
X76364D01*
X72464D02*
X73664D01*
X67464D02*
X68864D01*
X61864D02*
X62364D01*
X57264D02*
X59564D01*
X54764D02*
X55264D01*
X53264D02*
X54664D01*
X48364D02*
X49864D01*
X40864D02*
X42364D01*
X91964Y82538D02*
X93164D01*
X89264D02*
X90364D01*
X83664D02*
X84764D01*
X80864D02*
X81964D01*
X75264D02*
X76364D01*
X72464D02*
X73664D01*
X67464D02*
X68864D01*
X61964D02*
X62464D01*
X57664D02*
X59564D01*
X57264D02*
X57564D01*
X53264D02*
X55264D01*
X48464D02*
X49964D01*
X40964D02*
X42364D01*
X91964Y82438D02*
X93164D01*
X89264D02*
X90364D01*
X83664D02*
X84764D01*
X80864D02*
X81964D01*
X75264D02*
X76364D01*
X72464D02*
X73664D01*
X67464D02*
X68864D01*
X61964D02*
X62564D01*
X57664D02*
X59564D01*
X53264D02*
X55164D01*
X48464D02*
X49964D01*
X46864D02*
X46964D01*
X40964D02*
X42464D01*
X91964Y82338D02*
X93164D01*
X89264D02*
X90364D01*
X83664D02*
X84764D01*
X80864D02*
X81964D01*
X75264D02*
X76364D01*
X72464D02*
X73664D01*
X67464D02*
X68864D01*
X62064D02*
X62564D01*
X57664D02*
X59564D01*
X53264D02*
X55064D01*
X48464D02*
X50064D01*
X46664D02*
X47064D01*
X40964D02*
X42464D01*
X91964Y82238D02*
X93164D01*
X89264D02*
X90364D01*
X83664D02*
X84764D01*
X80864D02*
X82064D01*
X75264D02*
X76364D01*
X72464D02*
X73664D01*
X67464D02*
X68864D01*
X62164D02*
X62664D01*
X57664D02*
X59264D01*
X53264D02*
X55064D01*
X48464D02*
X50164D01*
X46464D02*
X47064D01*
X40964D02*
X42564D01*
X91964Y82138D02*
X93164D01*
X89264D02*
X90364D01*
X83564D02*
X84764D01*
X80864D02*
X82064D01*
X75164D02*
X76364D01*
X72464D02*
X73664D01*
X67464D02*
X68864D01*
X62164D02*
X62664D01*
X58064D02*
X59264D01*
X57764D02*
X57864D01*
X53264D02*
X54964D01*
X48564D02*
X50264D01*
X46264D02*
X47064D01*
X41064D02*
X42664D01*
X91864Y82038D02*
X93164D01*
X89264D02*
X90464D01*
X83564D02*
X84764D01*
X80864D02*
X82064D01*
X75164D02*
X76364D01*
X72464D02*
X73664D01*
X67464D02*
X68864D01*
X62264D02*
X62764D01*
X58064D02*
X59264D01*
X53264D02*
X54864D01*
X48564D02*
X50464D01*
X45964D02*
X47064D01*
X41064D02*
X42864D01*
X91864Y81938D02*
X93064D01*
X89264D02*
X90464D01*
X83464D02*
X84764D01*
X80864D02*
X82164D01*
X75064D02*
X76364D01*
X72564D02*
X73764D01*
X67464D02*
X68864D01*
X62264D02*
X62864D01*
X58064D02*
X59264D01*
X53264D02*
X54864D01*
X48664D02*
X50764D01*
X45664D02*
X47064D01*
X41164D02*
X42964D01*
X91764Y81838D02*
X93064D01*
X89264D02*
X90564D01*
X83364D02*
X84664D01*
X80964D02*
X82264D01*
X75064D02*
X76364D01*
X72564D02*
X73864D01*
X63364D02*
X68864D01*
X62364D02*
X62864D01*
X58564D02*
X58764D01*
X58164D02*
X58364D01*
X52964D02*
X54764D01*
X48664D02*
X52064D01*
X45364D02*
X47064D01*
X41164D02*
X43264D01*
X91664Y81738D02*
X93064D01*
X89364D02*
X90664D01*
X83264D02*
X84664D01*
X80964D02*
X82364D01*
X74964D02*
X76264D01*
X72564D02*
X73964D01*
X63264D02*
X68864D01*
X62464D02*
X62864D01*
X48764D02*
X54664D01*
X44864D02*
X47064D01*
X41264D02*
X43664D01*
X91464Y81638D02*
X92964D01*
X89364D02*
X90864D01*
X83064D02*
X84664D01*
X80964D02*
X82564D01*
X74764D02*
X76264D01*
X72664D02*
X74164D01*
X63264D02*
X68864D01*
X62464D02*
X62864D01*
X48864D02*
X54664D01*
X41364D02*
X47064D01*
X89364Y81538D02*
X92964D01*
X81064D02*
X84564D01*
X72664D02*
X76164D01*
X63264D02*
X68864D01*
X62464D02*
X62864D01*
X48964D02*
X54664D01*
X41364D02*
X47064D01*
X89464Y81438D02*
X92864D01*
X81064D02*
X84564D01*
X72764D02*
X76164D01*
X63264D02*
X68864D01*
X62464D02*
X62864D01*
X49064D02*
X54664D01*
X41464D02*
X47064D01*
X89464Y81338D02*
X92864D01*
X81164D02*
X84464D01*
X72764D02*
X76064D01*
X63264D02*
X68864D01*
X62464D02*
X62864D01*
X49164D02*
X54664D01*
X41564D02*
X47064D01*
X89564Y81238D02*
X92764D01*
X81264D02*
X84364D01*
X72864D02*
X76064D01*
X63264D02*
X68864D01*
X62464D02*
X62864D01*
X49264D02*
X54664D01*
X41764D02*
X47064D01*
X89664Y81138D02*
X92664D01*
X81264D02*
X84364D01*
X72964D02*
X75964D01*
X63264D02*
X68864D01*
X62464D02*
X62864D01*
X49464D02*
X54664D01*
X41864D02*
X47064D01*
X89764Y81038D02*
X92564D01*
X81364D02*
X84264D01*
X73064D02*
X75864D01*
X63264D02*
X68864D01*
X49664D02*
X62864D01*
X41964D02*
X46864D01*
X89864Y80938D02*
X92464D01*
X81464D02*
X84164D01*
X73164D02*
X75764D01*
X63264D02*
X68864D01*
X49864D02*
X62864D01*
X42164D02*
X46564D01*
X89964Y80838D02*
X92364D01*
X81664D02*
X84064D01*
X73264D02*
X75664D01*
X63264D02*
X68864D01*
X50164D02*
X62864D01*
X42364D02*
X46264D01*
X90164Y80738D02*
X92264D01*
X81764D02*
X83864D01*
X73364D02*
X75464D01*
X63364D02*
X68764D01*
X50764D02*
X62864D01*
X42664D02*
X45864D01*
X90364Y80638D02*
X92064D01*
X81964D02*
X83664D01*
X73564D02*
X75264D01*
X43064D02*
X45364D01*
X90564Y80538D02*
X91764D01*
X82264D02*
X83364D01*
X73864D02*
X75064D01*
M02*
