G04*
G04 #@! TF.GenerationSoftware,Altium Limited,Altium Designer,18.1.7 (191)*
G04*
G04 Layer_Color=65535*
%FSLAX25Y25*%
%MOIN*%
G70*
G01*
G75*
%ADD10C,0.00787*%
%ADD11C,0.00984*%
%ADD12C,0.01575*%
%ADD13C,0.01000*%
%ADD14C,0.00591*%
%ADD15C,0.00500*%
%ADD16C,0.00394*%
%ADD17C,0.00236*%
G36*
X45901Y180315D02*
X44421D01*
X44632Y181218D01*
X44613D01*
X44594Y181199D01*
X44536Y181161D01*
X44459Y181103D01*
X44286Y180988D01*
X44056Y180853D01*
X43787Y180699D01*
X43518Y180546D01*
X43249Y180411D01*
X42999Y180315D01*
X42979Y180296D01*
X42883Y180277D01*
X42768Y180238D01*
X42595Y180200D01*
X42403Y180142D01*
X42172Y180104D01*
X41941Y180084D01*
X41672Y180065D01*
X41557D01*
X41461Y180084D01*
X41230Y180104D01*
X40961Y180161D01*
X40635Y180257D01*
X40308Y180392D01*
X39981Y180584D01*
X39693Y180853D01*
X39654Y180892D01*
X39577Y181007D01*
X39462Y181180D01*
X39328Y181430D01*
X39193Y181756D01*
X39078Y182160D01*
X39001Y182621D01*
X38962Y183140D01*
Y183159D01*
Y183198D01*
Y183275D01*
Y183352D01*
X38982Y183467D01*
Y183602D01*
X39020Y183928D01*
X39059Y184293D01*
X39116Y184697D01*
X39212Y185139D01*
X39347Y185562D01*
Y185581D01*
X39366Y185620D01*
X39385Y185677D01*
X39424Y185754D01*
X39520Y185966D01*
X39635Y186235D01*
X39789Y186542D01*
X39981Y186869D01*
X40192Y187215D01*
X40423Y187542D01*
Y187561D01*
X40462Y187580D01*
X40538Y187676D01*
X40692Y187830D01*
X40884Y188022D01*
X41115Y188234D01*
X41384Y188464D01*
X41692Y188695D01*
X42018Y188887D01*
X42038D01*
X42057Y188906D01*
X42172Y188964D01*
X42364Y189041D01*
X42614Y189137D01*
X42902Y189233D01*
X43229Y189310D01*
X43575Y189368D01*
X43960Y189387D01*
X44210D01*
X44383Y189368D01*
X44594Y189348D01*
X44805Y189329D01*
X45247Y189233D01*
X45267D01*
X45344Y189214D01*
X45459Y189175D01*
X45612Y189118D01*
X45785Y189060D01*
X45978Y188983D01*
X46362Y188772D01*
X47246Y192616D01*
X48726D01*
X45901Y180315D01*
D02*
G37*
G36*
X60470Y177067D02*
X58798D01*
X61392Y180872D01*
X59816Y189137D01*
X61315D01*
X62545Y182583D01*
X66735Y189137D01*
X68407D01*
X60470Y177067D01*
D02*
G37*
G36*
X38751Y190751D02*
X32581D01*
X31813Y187426D01*
X38021D01*
X37694Y186100D01*
X31505D01*
X30486Y181641D01*
X36675D01*
X36349Y180315D01*
X28622D01*
X31313Y192078D01*
X39078D01*
X38751Y190751D01*
D02*
G37*
G36*
X54473Y189368D02*
X54684Y189348D01*
X54896Y189310D01*
X55357Y189195D01*
X55376D01*
X55453Y189156D01*
X55568Y189118D01*
X55703Y189079D01*
X55876Y189002D01*
X56049Y188945D01*
X56395Y188752D01*
X56587Y189137D01*
X57952Y189137D01*
X56164Y181276D01*
Y181257D01*
X56145Y181180D01*
X56107Y181064D01*
X56068Y180911D01*
X56011Y180738D01*
X55934Y180526D01*
X55857Y180296D01*
X55761Y180046D01*
X55511Y179508D01*
X55222Y178970D01*
X54877Y178470D01*
X54665Y178239D01*
X54454Y178028D01*
X54435Y178009D01*
X54396Y177989D01*
X54338Y177932D01*
X54242Y177855D01*
X54127Y177778D01*
X53973Y177701D01*
X53800Y177605D01*
X53608Y177509D01*
X53377Y177393D01*
X53147Y177297D01*
X52878Y177220D01*
X52589Y177144D01*
X52263Y177067D01*
X51936Y177009D01*
X51571Y176990D01*
X51186Y176971D01*
X50937D01*
X50763Y176990D01*
X50552D01*
X50321Y177028D01*
X49822Y177086D01*
X49783D01*
X49706Y177105D01*
X49572Y177124D01*
X49399Y177163D01*
X49207Y177201D01*
X48995Y177240D01*
X48572Y177355D01*
X48899Y178816D01*
X48995D01*
X49053Y178777D01*
X49149Y178739D01*
X49284Y178700D01*
X49457Y178643D01*
X49668Y178585D01*
X49899Y178508D01*
X50168Y178451D01*
X50206D01*
X50302Y178412D01*
X50437Y178393D01*
X50629Y178355D01*
X50840Y178316D01*
X51071Y178297D01*
X51571Y178258D01*
X51705D01*
X51840Y178278D01*
X52013D01*
X52205Y178316D01*
X52416Y178355D01*
X52628Y178393D01*
X52839Y178470D01*
X52859D01*
X52935Y178508D01*
X53031Y178547D01*
X53147Y178604D01*
X53416Y178777D01*
X53704Y178989D01*
X53723Y179008D01*
X53762Y179046D01*
X53820Y179123D01*
X53896Y179200D01*
X53973Y179315D01*
X54069Y179450D01*
X54223Y179758D01*
X54242Y179777D01*
X54261Y179834D01*
X54300Y179931D01*
X54338Y180046D01*
X54396Y180200D01*
X54454Y180353D01*
X54569Y180738D01*
X54742Y181507D01*
X54704Y181487D01*
X54607Y181411D01*
X54454Y181314D01*
X54281Y181199D01*
X54050Y181064D01*
X53820Y180949D01*
X53570Y180815D01*
X53339Y180699D01*
X53320Y180680D01*
X53224Y180661D01*
X53108Y180622D01*
X52916Y180584D01*
X52705Y180526D01*
X52436Y180488D01*
X52147Y180469D01*
X51801Y180449D01*
X51686D01*
X51590Y180469D01*
X51475D01*
X51359Y180488D01*
X51071Y180546D01*
X50744Y180642D01*
X50418Y180776D01*
X50091Y180968D01*
X49803Y181218D01*
X49764Y181257D01*
X49687Y181372D01*
X49572Y181545D01*
X49457Y181795D01*
X49322Y182102D01*
X49207Y182487D01*
X49130Y182948D01*
X49091Y183448D01*
Y183467D01*
Y183505D01*
Y183563D01*
Y183640D01*
X49111Y183736D01*
Y183871D01*
X49130Y184159D01*
X49187Y184486D01*
X49245Y184851D01*
X49341Y185255D01*
X49457Y185658D01*
Y185677D01*
X49476Y185716D01*
X49495Y185773D01*
X49533Y185850D01*
X49610Y186042D01*
X49726Y186312D01*
X49879Y186600D01*
X50052Y186927D01*
X50264Y187253D01*
X50494Y187580D01*
Y187599D01*
X50533Y187619D01*
X50610Y187715D01*
X50744Y187868D01*
X50937Y188061D01*
X51167Y188272D01*
X51436Y188484D01*
X51724Y188695D01*
X52051Y188887D01*
X52070D01*
X52090Y188906D01*
X52147Y188926D01*
X52205Y188964D01*
X52397Y189041D01*
X52647Y189137D01*
X52935Y189233D01*
X53262Y189310D01*
X53627Y189368D01*
X54012Y189387D01*
X54281D01*
X54473Y189368D01*
D02*
G37*
%LPC*%
G36*
X43940Y188099D02*
X43806D01*
X43652Y188080D01*
X43441Y188041D01*
X43210Y188003D01*
X42960Y187926D01*
X42710Y187830D01*
X42461Y187695D01*
X42441Y187676D01*
X42364Y187619D01*
X42230Y187542D01*
X42095Y187407D01*
X41922Y187253D01*
X41730Y187080D01*
X41538Y186850D01*
X41365Y186619D01*
X41346Y186600D01*
X41288Y186504D01*
X41211Y186369D01*
X41134Y186196D01*
X41019Y185966D01*
X40904Y185716D01*
X40808Y185427D01*
X40711Y185101D01*
Y185062D01*
X40673Y184947D01*
X40654Y184793D01*
X40615Y184563D01*
X40577Y184313D01*
X40538Y184024D01*
X40519Y183717D01*
X40500Y183409D01*
Y183390D01*
Y183371D01*
Y183256D01*
X40519Y183083D01*
X40558Y182871D01*
X40596Y182621D01*
X40673Y182371D01*
X40769Y182141D01*
X40904Y181929D01*
X40923Y181910D01*
X40980Y181853D01*
X41096Y181776D01*
X41230Y181680D01*
X41423Y181583D01*
X41653Y181507D01*
X41941Y181449D01*
X42268Y181430D01*
X42384D01*
X42518Y181449D01*
X42691Y181468D01*
X42902Y181507D01*
X43133Y181564D01*
X43383Y181641D01*
X43633Y181756D01*
X43671Y181776D01*
X43748Y181814D01*
X43883Y181891D01*
X44056Y181968D01*
X44248Y182083D01*
X44459Y182199D01*
X44921Y182487D01*
X46074Y187542D01*
X46055Y187561D01*
X45978Y187580D01*
X45882Y187638D01*
X45747Y187695D01*
X45593Y187772D01*
X45420Y187849D01*
X45036Y187964D01*
X45017D01*
X44940Y187984D01*
X44844Y188003D01*
X44709Y188041D01*
X44536Y188061D01*
X44363Y188080D01*
X43940Y188099D01*
D02*
G37*
G36*
X54012D02*
X53877D01*
X53743Y188080D01*
X53550Y188061D01*
X53339Y188003D01*
X53089Y187945D01*
X52859Y187849D01*
X52609Y187734D01*
X52589Y187715D01*
X52513Y187676D01*
X52397Y187599D01*
X52243Y187484D01*
X52070Y187349D01*
X51898Y187177D01*
X51705Y186984D01*
X51532Y186773D01*
X51513Y186754D01*
X51455Y186677D01*
X51379Y186542D01*
X51282Y186369D01*
X51167Y186158D01*
X51071Y185927D01*
X50956Y185658D01*
X50860Y185351D01*
Y185312D01*
X50821Y185216D01*
X50783Y185043D01*
X50744Y184832D01*
X50706Y184582D01*
X50667Y184313D01*
X50648Y184024D01*
X50629Y183717D01*
Y183698D01*
Y183678D01*
Y183563D01*
X50648Y183390D01*
X50687Y183179D01*
X50725Y182948D01*
X50802Y182718D01*
X50917Y182487D01*
X51052Y182275D01*
X51071Y182256D01*
X51129Y182199D01*
X51244Y182122D01*
X51379Y182026D01*
X51571Y181929D01*
X51801Y181853D01*
X52070Y181795D01*
X52397Y181776D01*
X52513D01*
X52647Y181795D01*
X52801Y181814D01*
X53012Y181833D01*
X53224Y181891D01*
X53454Y181949D01*
X53704Y182045D01*
X53743Y182064D01*
X53820Y182102D01*
X53954Y182160D01*
X54127Y182237D01*
X54319Y182333D01*
X54550Y182448D01*
X55030Y182737D01*
X56126Y187542D01*
X56107Y187561D01*
X56049Y187580D01*
X55934Y187638D01*
X55818Y187695D01*
X55645Y187753D01*
X55472Y187811D01*
X55088Y187945D01*
X55069D01*
X54992Y187964D01*
X54896Y188003D01*
X54761Y188022D01*
X54588Y188061D01*
X54415Y188080D01*
X54012Y188099D01*
D02*
G37*
%LPD*%
D10*
X116787Y58626D02*
G03*
X116787Y58626I-394J0D01*
G01*
X33622Y152239D02*
Y172239D01*
X13622D02*
X33622D01*
X13622Y152239D02*
X33622D01*
X13622D02*
Y172239D01*
X159252Y180315D02*
Y181890D01*
X162008Y180315D02*
Y181890D01*
X163228Y27008D02*
X183228D01*
X169213Y118662D02*
X177244D01*
X183228Y27008D02*
Y118662D01*
X163228Y27008D02*
Y118662D01*
X177244D02*
X183228D01*
X163228D02*
X169213D01*
X13622Y120450D02*
Y139617D01*
Y120450D02*
Y150450D01*
X33622Y120450D02*
Y150450D01*
X13622D02*
X33622D01*
X13622Y120450D02*
X33622D01*
X173228Y160449D02*
X183228D01*
Y120449D02*
Y160449D01*
X173228Y120449D02*
Y160449D01*
Y120449D02*
X183228D01*
X117897Y116535D02*
X120653D01*
X111597Y121260D02*
Y122835D01*
X114353Y121260D02*
Y122835D01*
X128543Y14728D02*
Y16303D01*
X131299Y14728D02*
Y16303D01*
X112795Y98945D02*
Y100520D01*
X115551Y98945D02*
Y100520D01*
X139601Y66954D02*
Y68528D01*
X136845Y66954D02*
Y68528D01*
X145472Y53929D02*
Y55504D01*
X142717Y53929D02*
Y55504D01*
X118095Y27831D02*
X121639D01*
X118095D02*
Y30981D01*
Y39642D02*
X121639D01*
X118095Y36493D02*
Y39642D01*
X98485Y33071D02*
Y34646D01*
X101241Y33071D02*
Y34646D01*
X92760Y32969D02*
Y34543D01*
X95516Y32969D02*
Y34543D01*
X146457Y32219D02*
X148031D01*
X146457Y34975D02*
X148031D01*
X61512Y23264D02*
X73716D01*
X61512Y21295D02*
X73716D01*
Y23264D01*
X61512Y21295D02*
Y23264D01*
X57284Y25571D02*
Y27146D01*
X54528Y25571D02*
Y27146D01*
X59923Y59478D02*
Y61053D01*
X57167Y59478D02*
Y61053D01*
X73008Y74968D02*
X74583D01*
X73008Y77724D02*
X74583D01*
X64133Y84252D02*
Y85827D01*
X66889Y84252D02*
Y85827D01*
X55866Y95276D02*
Y96850D01*
X53110Y95276D02*
Y96850D01*
X45866Y95276D02*
Y96850D01*
X43110Y95276D02*
Y96850D01*
X48071Y137795D02*
Y139370D01*
X50827Y137795D02*
Y139370D01*
X53796Y137795D02*
Y139370D01*
X56552Y137795D02*
Y139370D01*
X13622Y27008D02*
X33622D01*
X19607Y118662D02*
X27637D01*
X33622Y27008D02*
Y118662D01*
X13622Y27008D02*
Y118662D01*
X27637D02*
X33622D01*
X13622D02*
X19607D01*
X49409Y25484D02*
Y27059D01*
X46654Y25484D02*
Y27059D01*
X41322Y25484D02*
Y27059D01*
X38566Y25484D02*
Y27059D01*
D11*
X125772Y26650D02*
G03*
X125772Y26650I-492J0D01*
G01*
X60921Y17555D02*
G03*
X60921Y17555I-492J0D01*
G01*
D12*
X66736Y40389D02*
G03*
X66736Y40389I-197J0D01*
G01*
X169291Y123701D02*
Y126850D01*
X170866Y125276D01*
X169291Y123701D02*
X170866Y125276D01*
X131496Y152756D02*
X133071Y154331D01*
X131496Y155905D02*
X133071Y154331D01*
X131496Y152756D02*
Y155905D01*
X159843Y111102D02*
X161417Y112677D01*
X159843Y114252D02*
X161417Y112677D01*
X159843Y111102D02*
Y114252D01*
X10236Y111024D02*
X11811Y112598D01*
X10236Y114173D02*
X11811Y112598D01*
X10236Y111024D02*
Y114173D01*
Y144095D02*
Y147244D01*
X11811Y145669D01*
X10236Y144095D02*
X11811Y145669D01*
D13*
X45208Y112598D02*
G03*
X45208Y112598I-1114J0D01*
G01*
X34646Y152756D02*
X35433D01*
X34646Y171653D02*
X35433D01*
X34646Y152756D02*
Y171653D01*
X35433Y152756D02*
Y171653D01*
X12598Y152756D02*
Y171653D01*
X11811Y152756D02*
Y171653D01*
X12598D01*
X11811Y152756D02*
X12598D01*
X141142Y173031D02*
Y190748D01*
X154921Y173031D02*
Y190748D01*
X146063Y173031D02*
X150000D01*
X146063Y190748D02*
X150000D01*
X159252Y120315D02*
Y132126D01*
X137205Y120315D02*
X159252D01*
X137205D02*
Y132126D01*
Y157323D02*
Y169134D01*
X159252Y157323D02*
Y169134D01*
X137205D02*
X159252D01*
X84425Y93445D02*
Y104469D01*
X91512Y93445D02*
Y104469D01*
X84425Y97776D02*
X91512D01*
X84425Y96988D02*
X91512D01*
X91118Y104469D02*
X91512D01*
X84425D02*
X84819D01*
X91118Y93445D02*
X91512D01*
X84425D02*
X84819D01*
X146063Y6890D02*
X150000D01*
X146063Y24606D02*
X150000D01*
X141142Y6890D02*
Y24606D01*
X154921Y6890D02*
Y24606D01*
X81496Y22138D02*
X91339D01*
X81496Y484D02*
Y22138D01*
Y484D02*
X115354D01*
Y22138D01*
X105118D02*
X115354D01*
X62205Y109449D02*
X62992D01*
Y125984D01*
X62205D02*
X62992D01*
X40945D02*
X41732D01*
X40945Y109449D02*
Y125984D01*
Y109449D02*
X41732D01*
Y103937D02*
Y109449D01*
D14*
X75000Y117740D02*
Y126402D01*
X90354D01*
Y117740D02*
Y126402D01*
X75000Y117740D02*
X90354D01*
D15*
X113213Y55677D02*
Y56661D01*
X112228Y55677D02*
X113213D01*
X85654D02*
X86638D01*
X85654D02*
Y56661D01*
X113213Y82252D02*
Y83236D01*
X112228D02*
X113213D01*
X85654D02*
X86638D01*
X85654Y82252D02*
Y83236D01*
X64689Y53362D02*
X78390D01*
Y42417D02*
Y53362D01*
X64689Y42417D02*
Y53362D01*
Y42417D02*
X78390D01*
D16*
X98425Y196850D02*
X119095D01*
Y135827D02*
Y196850D01*
X77756Y135827D02*
X119095D01*
X77756D02*
Y196850D01*
X98425D01*
D17*
X63751Y71259D02*
X63358Y71653D01*
X62571D01*
X62177Y71259D01*
Y69685D01*
X62571Y69291D01*
X63358D01*
X63751Y69685D01*
X64539Y69291D02*
X65326D01*
X64932D01*
Y71653D01*
X64539Y71259D01*
X66506D02*
X66900Y71653D01*
X67687D01*
X68081Y71259D01*
Y69685D01*
X67687Y69291D01*
X66900D01*
X66506Y69685D01*
Y71259D01*
X20472Y174016D02*
Y176377D01*
X21653D01*
X22047Y175984D01*
Y175197D01*
X21653Y174803D01*
X20472D01*
X24408Y176377D02*
X23621Y175984D01*
X22834Y175197D01*
Y174409D01*
X23227Y174016D01*
X24015D01*
X24408Y174409D01*
Y174803D01*
X24015Y175197D01*
X22834D01*
X146456Y195669D02*
X146063Y196062D01*
X145275D01*
X144882Y195669D01*
Y195275D01*
X145275Y194881D01*
X146063D01*
X146456Y194488D01*
Y194094D01*
X146063Y193701D01*
X145275D01*
X144882Y194094D01*
X148818Y193701D02*
X147243D01*
X148818Y195275D01*
Y195669D01*
X148424Y196062D01*
X147637D01*
X147243Y195669D01*
X158513Y188238D02*
Y190599D01*
X159693D01*
X160087Y190206D01*
Y189418D01*
X159693Y189025D01*
X158513D01*
X159300D02*
X160087Y188238D01*
X160874D02*
X161661D01*
X161268D01*
Y190599D01*
X160874Y190206D01*
X162842Y188631D02*
X163235Y188238D01*
X164023D01*
X164416Y188631D01*
Y190206D01*
X164023Y190599D01*
X163235D01*
X162842Y190206D01*
Y189812D01*
X163235Y189418D01*
X164416D01*
X170866Y22835D02*
Y25196D01*
X172047D01*
X172440Y24803D01*
Y24015D01*
X172047Y23622D01*
X170866D01*
X174408Y22835D02*
Y25196D01*
X173228Y24015D01*
X174802D01*
X35433Y130709D02*
Y133070D01*
X36614D01*
X37007Y132676D01*
Y131889D01*
X36614Y131496D01*
X35433D01*
X37795Y132676D02*
X38188Y133070D01*
X38975D01*
X39369Y132676D01*
Y132283D01*
X38975Y131889D01*
X38582D01*
X38975D01*
X39369Y131496D01*
Y131102D01*
X38975Y130709D01*
X38188D01*
X37795Y131102D01*
X133523Y22047D02*
Y19685D01*
X134310Y20472D01*
X135097Y19685D01*
Y22047D01*
X135884Y19685D02*
X136671D01*
X136278D01*
Y22047D01*
X135884Y21653D01*
X148031Y29799D02*
X147637Y30193D01*
X146850D01*
X146457Y29799D01*
Y29406D01*
X146850Y29012D01*
X147637D01*
X148031Y28618D01*
Y28225D01*
X147637Y27831D01*
X146850D01*
X146457Y28225D01*
X148818Y27831D02*
X149605D01*
X149212D01*
Y30193D01*
X148818Y29799D01*
X86614Y111023D02*
Y108661D01*
X87795D01*
X88188Y109055D01*
Y110629D01*
X87795Y111023D01*
X86614D01*
X88976Y108661D02*
X89763D01*
X89369D01*
Y111023D01*
X88976Y110629D01*
X79528Y47243D02*
Y46850D01*
X80315Y46063D01*
X81102Y46850D01*
Y47243D01*
X80315Y46063D02*
Y44882D01*
X83463D02*
X81889D01*
X83463Y46456D01*
Y46850D01*
X83070Y47243D01*
X82283D01*
X81889Y46850D01*
X80315Y129920D02*
Y129527D01*
X81102Y128740D01*
X81889Y129527D01*
Y129920D01*
X81102Y128740D02*
Y127559D01*
X82676D02*
X83464D01*
X83070D01*
Y129920D01*
X82676Y129527D01*
X76378Y22834D02*
Y20866D01*
X76771Y20472D01*
X77559D01*
X77952Y20866D01*
Y22834D01*
X80314D02*
X78739D01*
Y21653D01*
X79527Y22047D01*
X79920D01*
X80314Y21653D01*
Y20866D01*
X79920Y20472D01*
X79133D01*
X78739Y20866D01*
X96850Y51968D02*
Y50000D01*
X97244Y49606D01*
X98031D01*
X98425Y50000D01*
Y51968D01*
X100393Y49606D02*
Y51968D01*
X99212Y50787D01*
X100786D01*
X70669Y164566D02*
Y162598D01*
X71063Y162205D01*
X71850D01*
X72244Y162598D01*
Y164566D01*
X73031Y164173D02*
X73424Y164566D01*
X74212D01*
X74605Y164173D01*
Y163779D01*
X74212Y163385D01*
X73818D01*
X74212D01*
X74605Y162992D01*
Y162598D01*
X74212Y162205D01*
X73424D01*
X73031Y162598D01*
X118898Y43290D02*
Y41322D01*
X119291Y40928D01*
X120078D01*
X120472Y41322D01*
Y43290D01*
X122833Y40928D02*
X121259D01*
X122833Y42502D01*
Y42896D01*
X122440Y43290D01*
X121653D01*
X121259Y42896D01*
X64567Y115747D02*
Y113779D01*
X64960Y113386D01*
X65748D01*
X66141Y113779D01*
Y115747D01*
X66928Y113386D02*
X67716D01*
X67322D01*
Y115747D01*
X66928Y115354D01*
X127227Y7909D02*
Y10271D01*
X128407D01*
X128801Y9877D01*
Y9090D01*
X128407Y8697D01*
X127227D01*
X128014D02*
X128801Y7909D01*
X129588D02*
X130375D01*
X129982D01*
Y10271D01*
X129588Y9877D01*
X131556D02*
X131949Y10271D01*
X132737D01*
X133130Y9877D01*
Y9484D01*
X132737Y9090D01*
X133130Y8697D01*
Y8303D01*
X132737Y7909D01*
X131949D01*
X131556Y8303D01*
Y8697D01*
X131949Y9090D01*
X131556Y9484D01*
Y9877D01*
X131949Y9090D02*
X132737D01*
X144095Y36747D02*
Y39108D01*
X145275D01*
X145669Y38715D01*
Y37927D01*
X145275Y37534D01*
X144095D01*
X144882D02*
X145669Y36747D01*
X146456D02*
X147243D01*
X146850D01*
Y39108D01*
X146456Y38715D01*
X148424Y39108D02*
X149998D01*
Y38715D01*
X148424Y37140D01*
Y36747D01*
X98646Y39370D02*
Y41732D01*
X99826D01*
X100220Y41338D01*
Y40551D01*
X99826Y40157D01*
X98646D01*
X99433D02*
X100220Y39370D01*
X101007D02*
X101794D01*
X101401D01*
Y41732D01*
X101007Y41338D01*
X104549Y41732D02*
X103762Y41338D01*
X102975Y40551D01*
Y39764D01*
X103369Y39370D01*
X104156D01*
X104549Y39764D01*
Y40157D01*
X104156Y40551D01*
X102975D01*
X90551Y39370D02*
Y41732D01*
X91732D01*
X92125Y41338D01*
Y40551D01*
X91732Y40157D01*
X90551D01*
X91338D02*
X92125Y39370D01*
X92913D02*
X93700D01*
X93306D01*
Y41732D01*
X92913Y41338D01*
X96455Y41732D02*
X94880D01*
Y40551D01*
X95668Y40944D01*
X96061D01*
X96455Y40551D01*
Y39764D01*
X96061Y39370D01*
X95274D01*
X94880Y39764D01*
X37795Y32283D02*
Y34645D01*
X38976D01*
X39370Y34251D01*
Y33464D01*
X38976Y33071D01*
X37795D01*
X38582D02*
X39370Y32283D01*
X40157D02*
X40944D01*
X40550D01*
Y34645D01*
X40157Y34251D01*
X43305Y32283D02*
Y34645D01*
X42125Y33464D01*
X43699D01*
X44882Y32283D02*
Y34645D01*
X46063D01*
X46456Y34251D01*
Y33464D01*
X46063Y33071D01*
X44882D01*
X45669D02*
X46456Y32283D01*
X47243D02*
X48030D01*
X47637D01*
Y34645D01*
X47243Y34251D01*
X49211D02*
X49605Y34645D01*
X50392D01*
X50785Y34251D01*
Y33858D01*
X50392Y33464D01*
X49998D01*
X50392D01*
X50785Y33071D01*
Y32677D01*
X50392Y32283D01*
X49605D01*
X49211Y32677D01*
X53543Y32283D02*
Y34645D01*
X54724D01*
X55118Y34251D01*
Y33464D01*
X54724Y33071D01*
X53543D01*
X54330D02*
X55118Y32283D01*
X55905D02*
X56692D01*
X56298D01*
Y34645D01*
X55905Y34251D01*
X59447Y32283D02*
X57873D01*
X59447Y33858D01*
Y34251D01*
X59053Y34645D01*
X58266D01*
X57873Y34251D01*
X54488Y145449D02*
Y147810D01*
X55669D01*
X56063Y147417D01*
Y146630D01*
X55669Y146236D01*
X54488D01*
X55275D02*
X56063Y145449D01*
X56850D02*
X57637D01*
X57243D01*
Y147810D01*
X56850Y147417D01*
X58817Y145449D02*
X59605D01*
X59211D01*
Y147810D01*
X58817Y147417D01*
X47244Y145450D02*
Y147812D01*
X48425D01*
X48818Y147418D01*
Y146631D01*
X48425Y146238D01*
X47244D01*
X48031D02*
X48818Y145450D01*
X49606D02*
X50393D01*
X49999D01*
Y147812D01*
X49606Y147418D01*
X51573D02*
X51967Y147812D01*
X52754D01*
X53148Y147418D01*
Y145844D01*
X52754Y145450D01*
X51967D01*
X51573Y145844D01*
Y147418D01*
X42520Y87797D02*
Y90159D01*
X43700D01*
X44094Y89765D01*
Y88978D01*
X43700Y88584D01*
X42520D01*
X43307D02*
X44094Y87797D01*
X44881Y88191D02*
X45275Y87797D01*
X46062D01*
X46455Y88191D01*
Y89765D01*
X46062Y90159D01*
X45275D01*
X44881Y89765D01*
Y89372D01*
X45275Y88978D01*
X46455D01*
X52756Y87797D02*
Y90159D01*
X53937D01*
X54330Y89765D01*
Y88978D01*
X53937Y88584D01*
X52756D01*
X53543D02*
X54330Y87797D01*
X55117Y89765D02*
X55511Y90159D01*
X56298D01*
X56692Y89765D01*
Y89372D01*
X56298Y88978D01*
X56692Y88584D01*
Y88191D01*
X56298Y87797D01*
X55511D01*
X55117Y88191D01*
Y88584D01*
X55511Y88978D01*
X55117Y89372D01*
Y89765D01*
X55511Y88978D02*
X56298D01*
X142717Y59842D02*
Y62204D01*
X143897D01*
X144291Y61810D01*
Y61023D01*
X143897Y60630D01*
X142717D01*
X143504D02*
X144291Y59842D01*
X145078Y62204D02*
X146652D01*
Y61810D01*
X145078Y60236D01*
Y59842D01*
X44882Y57480D02*
X42520D01*
Y58661D01*
X42914Y59055D01*
X43701D01*
X44095Y58661D01*
Y57480D01*
Y58267D02*
X44882Y59055D01*
X42520Y61416D02*
X42914Y60629D01*
X43701Y59842D01*
X44488D01*
X44882Y60235D01*
Y61023D01*
X44488Y61416D01*
X44095D01*
X43701Y61023D01*
Y59842D01*
X63779Y75038D02*
Y77399D01*
X64960D01*
X65354Y77006D01*
Y76218D01*
X64960Y75825D01*
X63779D01*
X64567D02*
X65354Y75038D01*
X67715Y77399D02*
X66141D01*
Y76218D01*
X66928Y76612D01*
X67322D01*
X67715Y76218D01*
Y75431D01*
X67322Y75038D01*
X66535D01*
X66141Y75431D01*
X63697Y90551D02*
Y92913D01*
X64878D01*
X65271Y92519D01*
Y91732D01*
X64878Y91338D01*
X63697D01*
X64484D02*
X65271Y90551D01*
X67239D02*
Y92913D01*
X66058Y91732D01*
X67633D01*
X112228Y92126D02*
Y94487D01*
X113409D01*
X113803Y94094D01*
Y93307D01*
X113409Y92913D01*
X112228D01*
X113015D02*
X113803Y92126D01*
X114590Y94094D02*
X114983Y94487D01*
X115771D01*
X116164Y94094D01*
Y93700D01*
X115771Y93307D01*
X115377D01*
X115771D01*
X116164Y92913D01*
Y92520D01*
X115771Y92126D01*
X114983D01*
X114590Y92520D01*
X137205Y73228D02*
Y75590D01*
X138385D01*
X138779Y75196D01*
Y74409D01*
X138385Y74015D01*
X137205D01*
X137992D02*
X138779Y73228D01*
X141140D02*
X139566D01*
X141140Y74803D01*
Y75196D01*
X140747Y75590D01*
X139960D01*
X139566Y75196D01*
X111024Y127559D02*
Y129920D01*
X112204D01*
X112598Y129527D01*
Y128740D01*
X112204Y128346D01*
X111024D01*
X111811D02*
X112598Y127559D01*
X113385D02*
X114172D01*
X113779D01*
Y129920D01*
X113385Y129527D01*
X22047Y22835D02*
Y25196D01*
X23228D01*
X23621Y24803D01*
Y24015D01*
X23228Y23622D01*
X22047D01*
X25983Y25196D02*
X24409D01*
Y24015D01*
X25196Y24409D01*
X25589D01*
X25983Y24015D01*
Y23228D01*
X25589Y22835D01*
X24802D01*
X24409Y23228D01*
X175591Y161417D02*
Y163779D01*
X176771D01*
X177165Y163385D01*
Y162598D01*
X176771Y162205D01*
X175591D01*
X179526Y161417D02*
X177952D01*
X179526Y162992D01*
Y163385D01*
X179133Y163779D01*
X178346D01*
X177952Y163385D01*
X145472Y116535D02*
Y118897D01*
X146653D01*
X147047Y118503D01*
Y117716D01*
X146653Y117323D01*
X145472D01*
X147834Y116535D02*
X148621D01*
X148227D01*
Y118897D01*
X147834Y118503D01*
X117323Y129920D02*
Y127559D01*
X118897D01*
X119684D02*
X120471D01*
X120078D01*
Y129920D01*
X119684Y129527D01*
X117968Y10523D02*
X117181D01*
X117575D01*
Y8555D01*
X117181Y8161D01*
X116787D01*
X116394Y8555D01*
X118755Y8161D02*
X119542D01*
X119149D01*
Y10523D01*
X118755Y10129D01*
X122397Y23657D02*
Y21295D01*
X123578D01*
X123972Y21689D01*
Y23263D01*
X123578Y23657D01*
X122397D01*
X126333D02*
X124759D01*
Y22476D01*
X125546Y22870D01*
X125940D01*
X126333Y22476D01*
Y21689D01*
X125940Y21295D01*
X125152D01*
X124759Y21689D01*
X37795Y9448D02*
Y7087D01*
X38976D01*
X39370Y7480D01*
Y9054D01*
X38976Y9448D01*
X37795D01*
X41337Y7087D02*
Y9448D01*
X40157Y8267D01*
X41731D01*
X45866Y9448D02*
Y7087D01*
X47047D01*
X47440Y7480D01*
Y9054D01*
X47047Y9448D01*
X45866D01*
X48228Y9054D02*
X48621Y9448D01*
X49408D01*
X49802Y9054D01*
Y8661D01*
X49408Y8267D01*
X49015D01*
X49408D01*
X49802Y7874D01*
Y7480D01*
X49408Y7087D01*
X48621D01*
X48228Y7480D01*
X53858Y9448D02*
Y7087D01*
X55039D01*
X55433Y7480D01*
Y9054D01*
X55039Y9448D01*
X53858D01*
X57794Y7087D02*
X56220D01*
X57794Y8661D01*
Y9054D01*
X57400Y9448D01*
X56613D01*
X56220Y9054D01*
X75590Y34645D02*
X75196Y35039D01*
X74409D01*
X74016Y34645D01*
Y33071D01*
X74409Y32677D01*
X75196D01*
X75590Y33071D01*
X77952Y32677D02*
X76377D01*
X77952Y34251D01*
Y34645D01*
X77558Y35039D01*
X76771D01*
X76377Y34645D01*
X80313Y35039D02*
X79526Y34645D01*
X78739Y33858D01*
Y33071D01*
X79132Y32677D01*
X79919D01*
X80313Y33071D01*
Y33464D01*
X79919Y33858D01*
X78739D01*
X74803Y10826D02*
X74409Y11220D01*
X73622D01*
X73228Y10826D01*
Y9252D01*
X73622Y8858D01*
X74409D01*
X74803Y9252D01*
X77164Y8858D02*
X75590D01*
X77164Y10433D01*
Y10826D01*
X76771Y11220D01*
X75983D01*
X75590Y10826D01*
X79526Y11220D02*
X77951D01*
Y10039D01*
X78738Y10433D01*
X79132D01*
X79526Y10039D01*
Y9252D01*
X79132Y8858D01*
X78345D01*
X77951Y9252D01*
X137007Y48425D02*
X136614Y48818D01*
X135827D01*
X135433Y48425D01*
Y46850D01*
X135827Y46457D01*
X136614D01*
X137007Y46850D01*
X139369Y46457D02*
X137794D01*
X139369Y48031D01*
Y48425D01*
X138975Y48818D01*
X138188D01*
X137794Y48425D01*
X141337Y46457D02*
Y48818D01*
X140156Y47637D01*
X141730D01*
X131284Y61810D02*
X130890Y62204D01*
X130103D01*
X129709Y61810D01*
Y60236D01*
X130103Y59842D01*
X130890D01*
X131284Y60236D01*
X133645Y59842D02*
X132071D01*
X133645Y61417D01*
Y61810D01*
X133252Y62204D01*
X132465D01*
X132071Y61810D01*
X134432D02*
X134826Y62204D01*
X135613D01*
X136007Y61810D01*
Y61417D01*
X135613Y61023D01*
X135220D01*
X135613D01*
X136007Y60630D01*
Y60236D01*
X135613Y59842D01*
X134826D01*
X134432Y60236D01*
X125212Y48425D02*
X124819Y48818D01*
X124031D01*
X123638Y48425D01*
Y46850D01*
X124031Y46457D01*
X124819D01*
X125212Y46850D01*
X127574Y46457D02*
X125999D01*
X127574Y48031D01*
Y48425D01*
X127180Y48818D01*
X126393D01*
X125999Y48425D01*
X129935Y46457D02*
X128361D01*
X129935Y48031D01*
Y48425D01*
X129541Y48818D01*
X128754D01*
X128361Y48425D01*
X46103Y59055D02*
X45709Y58661D01*
Y57874D01*
X46103Y57480D01*
X47677D01*
X48071Y57874D01*
Y58661D01*
X47677Y59055D01*
X48071Y61416D02*
Y59842D01*
X46497Y61416D01*
X46103D01*
X45709Y61023D01*
Y60235D01*
X46103Y59842D01*
X48071Y62203D02*
Y62990D01*
Y62597D01*
X45709D01*
X46103Y62203D01*
X49213Y59055D02*
X48820Y58661D01*
Y57874D01*
X49213Y57480D01*
X50788D01*
X51181Y57874D01*
Y58661D01*
X50788Y59055D01*
X51181Y61416D02*
Y59842D01*
X49607Y61416D01*
X49213D01*
X48820Y61023D01*
Y60235D01*
X49213Y59842D01*
Y62203D02*
X48820Y62597D01*
Y63384D01*
X49213Y63778D01*
X50788D01*
X51181Y63384D01*
Y62597D01*
X50788Y62203D01*
X49213D01*
X52560Y59055D02*
X52166Y58661D01*
Y57874D01*
X52560Y57480D01*
X54134D01*
X54528Y57874D01*
Y58661D01*
X54134Y59055D01*
X54528Y59842D02*
Y60629D01*
Y60235D01*
X52166D01*
X52560Y59842D01*
X54134Y61810D02*
X54528Y62203D01*
Y62990D01*
X54134Y63384D01*
X52560D01*
X52166Y62990D01*
Y62203D01*
X52560Y61810D01*
X52953D01*
X53347Y62203D01*
Y63384D01*
X78740Y107480D02*
X78346Y107873D01*
X77559D01*
X77165Y107480D01*
Y105905D01*
X77559Y105512D01*
X78346D01*
X78740Y105905D01*
X79527Y105512D02*
X80314D01*
X79920D01*
Y107873D01*
X79527Y107480D01*
X81495D02*
X81888Y107873D01*
X82675D01*
X83069Y107480D01*
Y107086D01*
X82675Y106693D01*
X83069Y106299D01*
Y105905D01*
X82675Y105512D01*
X81888D01*
X81495Y105905D01*
Y106299D01*
X81888Y106693D01*
X81495Y107086D01*
Y107480D01*
X81888Y106693D02*
X82675D01*
X81102Y89369D02*
X80708Y89763D01*
X79921D01*
X79528Y89369D01*
Y87795D01*
X79921Y87402D01*
X80708D01*
X81102Y87795D01*
X81889Y87402D02*
X82676D01*
X82283D01*
Y89763D01*
X81889Y89369D01*
X83857Y89763D02*
X85431D01*
Y89369D01*
X83857Y87795D01*
Y87402D01*
X79922Y81102D02*
X79528Y80708D01*
Y79921D01*
X79922Y79528D01*
X81496D01*
X81890Y79921D01*
Y80708D01*
X81496Y81102D01*
X81890Y81889D02*
Y82676D01*
Y82283D01*
X79528D01*
X79922Y81889D01*
X79528Y85431D02*
X79922Y84644D01*
X80709Y83857D01*
X81496D01*
X81890Y84250D01*
Y85038D01*
X81496Y85431D01*
X81103D01*
X80709Y85038D01*
Y83857D01*
X95275Y107480D02*
X94881Y107873D01*
X94094D01*
X93701Y107480D01*
Y105905D01*
X94094Y105512D01*
X94881D01*
X95275Y105905D01*
X96062Y105512D02*
X96849D01*
X96456D01*
Y107873D01*
X96062Y107480D01*
X99604Y107873D02*
X98030D01*
Y106693D01*
X98817Y107086D01*
X99211D01*
X99604Y106693D01*
Y105905D01*
X99211Y105512D01*
X98424D01*
X98030Y105905D01*
X102165Y93306D02*
X101771Y93700D01*
X100984D01*
X100591Y93306D01*
Y91732D01*
X100984Y91339D01*
X101771D01*
X102165Y91732D01*
X102952Y91339D02*
X103739D01*
X103346D01*
Y93700D01*
X102952Y93306D01*
X106101Y91339D02*
Y93700D01*
X104920Y92519D01*
X106494D01*
X106312Y107480D02*
X105919Y107873D01*
X105131D01*
X104738Y107480D01*
Y105905D01*
X105131Y105512D01*
X105919D01*
X106312Y105905D01*
X107099Y105512D02*
X107886D01*
X107493D01*
Y107873D01*
X107099Y107480D01*
X109067D02*
X109461Y107873D01*
X110248D01*
X110641Y107480D01*
Y107086D01*
X110248Y106693D01*
X109854D01*
X110248D01*
X110641Y106299D01*
Y105905D01*
X110248Y105512D01*
X109461D01*
X109067Y105905D01*
X131496Y75196D02*
X131102Y75590D01*
X130315D01*
X129921Y75196D01*
Y73622D01*
X130315Y73228D01*
X131102D01*
X131496Y73622D01*
X132283Y73228D02*
X133070D01*
X132676D01*
Y75590D01*
X132283Y75196D01*
X135825Y73228D02*
X134251D01*
X135825Y74803D01*
Y75196D01*
X135431Y75590D01*
X134644D01*
X134251Y75196D01*
X125269D02*
X124875Y75590D01*
X124088D01*
X123694Y75196D01*
Y73622D01*
X124088Y73228D01*
X124875D01*
X125269Y73622D01*
X126056Y73228D02*
X126843D01*
X126449D01*
Y75590D01*
X126056Y75196D01*
X128024Y73228D02*
X128811D01*
X128417D01*
Y75590D01*
X128024Y75196D01*
X106312Y129527D02*
X105919Y129920D01*
X105131D01*
X104738Y129527D01*
Y127953D01*
X105131Y127559D01*
X105919D01*
X106312Y127953D01*
X107099D02*
X107493Y127559D01*
X108280D01*
X108674Y127953D01*
Y129527D01*
X108280Y129920D01*
X107493D01*
X107099Y129527D01*
Y129133D01*
X107493Y128740D01*
X108674D01*
X125212Y129527D02*
X124819Y129920D01*
X124031D01*
X123638Y129527D01*
Y127953D01*
X124031Y127559D01*
X124819D01*
X125212Y127953D01*
X125999Y129527D02*
X126393Y129920D01*
X127180D01*
X127574Y129527D01*
Y129133D01*
X127180Y128740D01*
X127574Y128346D01*
Y127953D01*
X127180Y127559D01*
X126393D01*
X125999Y127953D01*
Y128346D01*
X126393Y128740D01*
X125999Y129133D01*
Y129527D01*
X126393Y128740D02*
X127180D01*
X100220Y129527D02*
X99826Y129920D01*
X99039D01*
X98646Y129527D01*
Y127953D01*
X99039Y127559D01*
X99826D01*
X100220Y127953D01*
X101007Y129920D02*
X102581D01*
Y129527D01*
X101007Y127953D01*
Y127559D01*
X93921Y129527D02*
X93527Y129920D01*
X92740D01*
X92347Y129527D01*
Y127953D01*
X92740Y127559D01*
X93527D01*
X93921Y127953D01*
X96282Y129920D02*
X95495Y129527D01*
X94708Y128740D01*
Y127953D01*
X95101Y127559D01*
X95889D01*
X96282Y127953D01*
Y128346D01*
X95889Y128740D01*
X94708D01*
X70712Y129527D02*
X70319Y129920D01*
X69531D01*
X69138Y129527D01*
Y127953D01*
X69531Y127559D01*
X70319D01*
X70712Y127953D01*
X73074Y129920D02*
X71499D01*
Y128740D01*
X72286Y129133D01*
X72680D01*
X73074Y128740D01*
Y127953D01*
X72680Y127559D01*
X71893D01*
X71499Y127953D01*
X131866Y40551D02*
X131472Y40944D01*
X130685D01*
X130291Y40551D01*
Y38976D01*
X130685Y38583D01*
X131472D01*
X131866Y38976D01*
X133834Y38583D02*
Y40944D01*
X132653Y39763D01*
X134227D01*
X108447Y40551D02*
X108054Y40944D01*
X107267D01*
X106873Y40551D01*
Y38976D01*
X107267Y38583D01*
X108054D01*
X108447Y38976D01*
X109234Y40551D02*
X109628Y40944D01*
X110415D01*
X110809Y40551D01*
Y40157D01*
X110415Y39763D01*
X110022D01*
X110415D01*
X110809Y39370D01*
Y38976D01*
X110415Y38583D01*
X109628D01*
X109234Y38976D01*
X43307Y147417D02*
X42913Y147810D01*
X42126D01*
X41732Y147417D01*
Y145842D01*
X42126Y145449D01*
X42913D01*
X43307Y145842D01*
X45668Y145449D02*
X44094D01*
X45668Y147023D01*
Y147417D01*
X45274Y147810D01*
X44487D01*
X44094Y147417D01*
X55929Y48669D02*
X55536Y49062D01*
X54749D01*
X54355Y48669D01*
Y47094D01*
X54749Y46701D01*
X55536D01*
X55929Y47094D01*
X56717Y46701D02*
X57504D01*
X57110D01*
Y49062D01*
X56717Y48669D01*
M02*
