M48
;Layer_Color=9474304
;FILE_FORMAT=2:5
INCH,TZ
;TYPE=PLATED
T1F00S00C0.01181
T2F00S00C0.01575
T3F00S00C0.02559
T5F00S00C0.02756
T6F00S00C0.03543
T7F00S00C0.11811
%
T01
X60630Y33177
X87504Y26484
X93241Y14173
X95569Y42677
X98432
X97001Y48131
X100591Y48663
X103937Y48031
X102706Y51764
X108661Y50394
X111754Y51820
X115748Y44848
X104724Y36248
X125537Y33071
X132694Y42129
X132283Y23417
X144882Y14232
X155118Y33613
X151969Y44848
X154331Y50264
X88755Y50000
X83465Y50394
X82677Y56693
X79873Y61197
X80315Y70441
X82220Y74660
X84252Y85134
X90318Y87797
X95276Y92677
X99213Y92376
X103043Y87544
X106323Y89468
X110218Y89526
X117535Y88189
X117913Y84769
X120726Y82376
X118532Y74937
X119186Y68669
X117323Y64567
X119406Y62120
X123480Y61417
X123694Y65003
X142413Y70866
X138150Y111024
X133523Y110975
X127093Y111495
X133647Y117895
X134455Y144724
X133929Y152135
X140157Y158696
X143799Y167610
X125602Y164173
X122834Y166929
Y171653
X121235Y160908
X121980Y155272
X125984Y158267
X127626Y142969
X125602Y140945
X122396Y138006
X110218Y141732
X108661Y147244
X103699Y146929
X100047Y144882
X96850Y147771
X93241Y145233
X85357Y148031
X76378Y148739
X72656Y152074
X70587Y146929
X62177Y143516
Y140654
X61253Y136670
X63277Y134646
X59439Y111811
X68842Y108800
X70866Y106776
X74185Y102756
X75141Y94988
Y92126
X59449Y91972
X59985Y68861
X57961Y66837
X70669Y114834
X92126Y132796
X95276Y133838
X98425Y132677
X101487Y133892
X100000Y160543
X96850Y158421
X93701Y160610
X88755Y159351
X87054Y156248
X86805Y162464
X87106Y165696
X90575Y167366
X102362Y167717
X109785Y165800
Y162099
X105824Y160097
X109661Y172025
X72831Y174016
X72330Y169683
X75590Y165354
X67716Y160324
X147244Y134646
X38583Y141535
X39692Y93110
X48819Y98916
T02
X92347Y62370
X99433
X106520
Y69457
Y76543
X99433
X92347
Y69457
X98646Y68669
T03
X90551Y16823
X106299
T05
X6299Y6299
X11811Y3937
X17323Y6299
X19685Y11811
X17323Y17323
X11811Y19685
X6299Y17323
X3937Y11811
X177165
X179528Y6299
X185039Y3937
X190551Y6299
X192913Y11811
X190551Y17323
X185039Y19685
X179528Y17323
Y179528
X185039Y177165
X190551Y179528
X192913Y185039
X190551Y190551
X185039Y192913
X179528Y190551
X177165Y185039
X19685
X17323Y190551
X11811Y192913
X6299Y190551
X3937Y185039
X6299Y179528
X11811Y177165
X17323Y179528
T06
X18622Y32677
Y42677
Y52677
X28622
Y42677
Y32677
X168228
Y42677
Y52677
X178228
Y42677
Y32677
Y62677
Y72677
Y82677
Y92677
Y102677
Y112677
X168228
Y102677
Y92677
Y82677
Y72677
Y62677
X178228Y125449
Y135449
Y145449
Y155449
X28622Y157239
X18622
Y167239
X28622
X28622Y145450
Y135450
Y125450
X18622
Y135450
Y145450
Y112677
X28622
Y102677
X18622
Y92677
X28622
Y82677
X18622
Y72677
X28622
Y62677
X18622
T07
X11811Y11811
X185039
Y185039
X11811
M30
